<?xml version="1.0" encoding="iso-8859-1"?>
<!-- Generator: Adobe Illustrator 19.0.0, SVG Export Plug-In . SVG Version: 6.00 Build 0)  -->
<svg version="1.1" id="Capa_1" xmlns="http://www.w3.org/2000/svg" xmlns:xlink="http://www.w3.org/1999/xlink" x="0px" y="0px"
	 viewBox="0 0 480 480" style="enable-background:new 0 0 480 480;" xml:space="preserve">
<g>
	<g>
		<path d="M180,0c-22.091,0-40,17.909-40,40v16c0,22.091,17.909,40,40,40c22.091,0,40-17.909,40-40V40C220,17.909,202.091,0,180,0z
			 M204,56c0,13.255-10.745,24-24,24s-24-10.745-24-24V40c0-13.255,10.745-24,24-24s24,10.745,24,24V56z"/>
	</g>
</g>
<g>
	<g>
		<path d="M356,247.6V200h-8l14.4-19.2c2.651-3.535,1.935-8.549-1.6-11.2c-1.385-1.039-3.069-1.6-4.8-1.6h-64c-4.418,0-8,3.582-8,8
			c0,1.731,0.561,3.415,1.6,4.8L300,200h-24v-40c-0.026-26.499-21.501-47.974-48-48h-88c-30.913,0.035-55.965,25.087-56,56v152h40
			v125.6l-14.656,21.984c-2.439,3.684-1.429,8.648,2.255,11.087c1.305,0.864,2.836,1.326,4.401,1.329h128
			c4.418,0.001,8.001-3.581,8.001-7.999c0-1.581-0.468-3.126-1.345-4.441L236,445.6V256h42.848
			c-16.969,13.637-26.843,34.23-26.848,56c-0.054,39.764,32.137,72.044,71.902,72.098s72.044-32.137,72.098-71.902
			C396.037,284.809,380.534,259.772,356,247.6z M340,184l-12,16h-8l-12-16H340z M308,216h32v24h-32V216z M124,304h-24v-16h24V304z
			 M188,464V304h-16v160h-41.056l7.712-11.56c0.874-1.316,1.341-2.86,1.344-4.44V288h80v160c0.003,1.58,0.47,3.124,1.344,4.44
			l7.712,11.56H188z M236,240v-64h-16v96h-80v-96h-16v96h-24V168c0.026-22.08,17.92-39.974,40-40h88c17.673,0,32,14.327,32,32v56h32
			v24H236z M324,368c-30.928,0-56-25.072-56-56c0.035-30.913,25.087-55.965,56-56c30.928,0,56,25.072,56,56
			C380,342.928,354.928,368,324,368z"/>
	</g>
</g>
<g>
	<g>
		<path d="M347.917,324.262c-0.623-6.087-4.325-11.429-9.805-14.15l-21.064-10.536c-0.644-0.316-1.051-0.971-1.048-1.688
			c0-1.043,0.845-1.888,1.888-1.888H348v-16h-16v-8h-16v8.192c-9.793,1.002-16.919,9.753-15.917,19.546
			c0.623,6.087,4.325,11.429,9.805,14.15l21.064,10.536c0.644,0.316,1.051,0.971,1.048,1.688c0,1.043-0.845,1.888-1.888,1.888H300
			v16h16v8h16v-8.192C341.793,342.806,348.919,334.055,347.917,324.262z"/>
	</g>
</g>
<g>
</g>
<g>
</g>
<g>
</g>
<g>
</g>
<g>
</g>
<g>
</g>
<g>
</g>
<g>
</g>
<g>
</g>
<g>
</g>
<g>
</g>
<g>
</g>
<g>
</g>
<g>
</g>
<g>
</g>
</svg>
