<?xml version="1.0" encoding="iso-8859-1"?>
<!-- Generator: Adobe Illustrator 19.0.0, SVG Export Plug-In . SVG Version: 6.00 Build 0)  -->
<svg version="1.1" id="Capa_1" xmlns="http://www.w3.org/2000/svg" xmlns:xlink="http://www.w3.org/1999/xlink" x="0px" y="0px"
	 viewBox="0 0 512.001 512.001" style="enable-background:new 0 0 512.001 512.001;" xml:space="preserve">
<g>
	<g>
		<path d="M504.635,66.003c-0.272-0.005-27.545-0.494-54.615-0.744c-15.922-0.147-28.668-0.184-37.885-0.109
			c-5.53,0.045-9.861,0.131-12.873,0.256c-5.102,0.212-8.789,0.365-11.104,4.037c-1.399,2.219-1.541,5.067-0.367,7.413
			c0.292,0.585,1.151,2.304,25.433,37.042l-48.738,37.103H330.39l-23.616-26.522c1.427-3.03,2.225-6.413,2.225-9.978
			c0-12.958-10.542-23.5-23.5-23.5s-23.5,10.542-23.5,23.5c0,4.629,1.345,8.949,3.665,12.591l-22.097,23.909h-61.185
			c0.52-2.29,0.919-4.626,1.191-7H197.5c4.142,0,7.5-3.358,7.5-7.5c0-47.696-38.804-86.5-86.5-86.5c-4.142,0-7.5,3.358-7.5,7.5
			v13.927c-32.598,3.733-58,31.492-58,65.073c0,21.74,10.647,41.041,27,52.961v36.39l-25.522-13.416
			c0.341-1.592,0.522-3.242,0.522-4.935c0-12.958-10.542-23.5-23.5-23.5S8,194.543,8,207.501s10.542,23.5,23.5,23.5
			c5.831,0,11.172-2.135,15.284-5.664L80,242.798v48.285l-17.088,14.859l-17.849-6.49c-2.125-0.772-4.483-0.546-6.422,0.617l-35,21
			c-2.855,1.713-4.239,5.104-3.397,8.327c0.841,3.222,3.707,5.503,7.036,5.601l31.813,0.936l23.19,15.77
			c1.264,0.859,2.736,1.298,4.218,1.298c1.035,0,2.075-0.214,3.05-0.648l10.857-4.834c1.901,9.39,10.219,16.482,20.162,16.482H191
			v56h-17.339c-7.533,0-13.661,6.128-13.661,13.661v14.678c0,7.533,6.128,13.661,13.661,13.661h163.678
			c7.533,0,13.661-6.128,13.661-13.661v-14.678c0-7.533-6.128-13.661-13.661-13.661H320v-56h90.43c11.342,0,20.57-9.228,20.57-20.57
			v-56.888l29.036,32.608c-1.307,2.849-2.036,6.016-2.036,9.35c0,12.407,10.093,22.5,22.5,22.5c12.407,0,22.5-10.093,22.5-22.5
			c0-12.407-10.093-22.5-22.5-22.5c-3.589,0-6.985,0.845-9.999,2.346L431,263.987v-63.15l37.609-18.98l30.177,35.502
			c2.036,2.396,5.353,3.267,8.302,2.182c2.951-1.085,4.913-3.896,4.913-7.04v-139C511.999,69.412,508.724,66.076,504.635,66.003z
			 M31.5,216.001c-4.687,0-8.5-3.813-8.5-8.5s3.813-8.5,8.5-8.5c4.687,0,8.5,3.813,8.5,8.5S36.187,216.001,31.5,216.001z
			 M80,331.281l-12.736,5.67l-21.547-14.652c-1.182-0.803-2.568-1.252-3.997-1.294l-8.403-0.248l9.978-5.986l18.642,6.779
			c2.562,0.932,5.427,0.4,7.484-1.389L80,310.962V331.281z M474.336,324.233c0.051-0.043,0.102-0.087,0.152-0.131
			c0.455-0.405,0.848-0.853,1.18-1.333c1.306-1.103,2.992-1.769,4.832-1.769c4.135,0.001,7.5,3.366,7.5,7.501
			c0,4.136-3.364,7.5-7.5,7.5s-7.5-3.364-7.5-7.5C473,326.916,473.494,325.446,474.336,324.233z M285.5,106.001
			c4.687,0,8.5,3.813,8.5,8.5s-3.813,8.5-8.5,8.5s-8.5-3.813-8.5-8.5S280.813,106.001,285.5,106.001z M277.353,136.545
			c2.539,0.941,5.284,1.456,8.146,1.456c3.915,0,7.609-0.963,10.859-2.663l13.947,15.663h-46.313L277.353,136.545z M250.128,166.001
			h94.654l-13.135,10h-90.761L250.128,166.001z M229.704,166.001l-9.243,10h-49.683c2.34-3.108,4.422-6.449,6.209-10H229.704z
			 M151.497,250.618c-1.6-0.402-3.275-0.617-4.998-0.617c-4.693,0-9.022,1.585-12.481,4.248l-14.019-7.369v-44.895
			c0.047-0.001,0.094-0.003,0.141-0.004c0.022-0.001,0.045-0.001,0.067-0.002c0.048-0.001,0.096-0.003,0.143-0.004
			c0.138-0.004,0.276-0.008,0.413-0.013c0.053-0.002,0.106-0.004,0.159-0.006c0.141-0.005,0.282-0.011,0.423-0.017
			c0.054-0.002,0.107-0.005,0.161-0.007c0.141-0.006,0.283-0.013,0.424-0.02c0.05-0.003,0.099-0.005,0.149-0.008
			c0.146-0.008,0.292-0.016,0.439-0.025c0.043-0.003,0.086-0.005,0.129-0.008c0.153-0.01,0.306-0.019,0.458-0.03
			c0.037-0.003,0.074-0.005,0.111-0.008c0.155-0.011,0.31-0.022,0.465-0.035c0.037-0.003,0.073-0.006,0.11-0.009
			c0.158-0.013,0.316-0.026,0.474-0.039c0.031-0.003,0.062-0.005,0.093-0.008c0.161-0.014,0.321-0.029,0.482-0.044
			c0.03-0.003,0.06-0.006,0.09-0.009c0.162-0.016,0.324-0.032,0.486-0.049c0.03-0.003,0.059-0.006,0.089-0.009
			c0.157-0.017,0.313-0.034,0.469-0.051c0.044-0.005,0.087-0.01,0.131-0.015c0.143-0.016,0.285-0.033,0.427-0.051
			c0.057-0.007,0.115-0.014,0.172-0.021c0.129-0.016,0.257-0.032,0.386-0.049c0.071-0.009,0.141-0.019,0.212-0.028
			c0.115-0.015,0.229-0.031,0.344-0.047c0.089-0.012,0.177-0.025,0.266-0.038c0.095-0.014,0.19-0.027,0.285-0.041
			c0.116-0.017,0.231-0.035,0.346-0.052c0.064-0.01,0.128-0.02,0.192-0.03c0.16-0.025,0.32-0.051,0.479-0.077
			c0.018-0.003,0.035-0.006,0.053-0.009c9.289-1.531,18.006-5.018,25.644-10.121h51.686L151.497,250.618z M152,270.501
			c0,3.033-2.467,5.5-5.5,5.5c-3.033,0-5.5-2.467-5.5-5.5c0-3.033,2.467-5.5,5.5-5.5C149.533,265.001,152,267.468,152,270.501z
			 M126,65.392c33.45,3.501,60.108,30.159,63.609,63.609H126V65.392z M68,136.501c0-25.298,18.698-46.311,43-49.944v49.944
			c0,4.142,3.358,7.5,7.5,7.5h49.944c-3.519,23.541-23.346,41.822-47.579,42.945c-0.008,0-0.016,0.001-0.023,0.001
			c-0.172,0.008-0.345,0.015-0.518,0.021c-0.022,0.001-0.044,0.002-0.066,0.002c-0.023,0.001-0.046,0.002-0.07,0.002
			c-0.137,0.005-0.275,0.008-0.413,0.012c-0.024,0.001-0.048,0.001-0.071,0.002c-0.032,0.001-0.064,0.002-0.096,0.002
			c-0.131,0.003-0.262,0.005-0.393,0.007c-0.022,0-0.044,0.001-0.066,0.001c-0.035,0-0.069,0.001-0.104,0.001
			c-0.182,0.002-0.363,0.003-0.546,0.003c-0.193,0-0.386-0.001-0.579-0.004c-0.054-0.001-0.108-0.001-0.162-0.002
			c-0.152-0.002-0.304-0.005-0.456-0.009c-0.039-0.001-0.078-0.002-0.117-0.003c-0.025-0.001-0.05-0.002-0.074-0.002
			c-0.142-0.004-0.285-0.009-0.427-0.014c-0.027-0.001-0.055-0.002-0.082-0.003c-0.067-0.003-0.134-0.005-0.202-0.008
			c-0.102-0.004-0.204-0.009-0.306-0.014c-0.082-0.004-0.165-0.008-0.247-0.012c-0.036-0.002-0.071-0.004-0.107-0.006
			c-0.112-0.006-0.224-0.013-0.337-0.019c-0.021-0.001-0.043-0.003-0.064-0.004c-0.126-0.008-0.252-0.016-0.378-0.025
			c-0.024-0.002-0.048-0.003-0.072-0.005c-5.024-0.358-9.943-1.463-14.608-3.27c-0.023-0.009-0.045-0.018-0.068-0.026
			c-0.117-0.045-0.233-0.091-0.35-0.138c-0.07-0.028-0.139-0.056-0.209-0.084c-0.111-0.045-0.221-0.089-0.331-0.135
			c-0.141-0.058-0.282-0.117-0.422-0.176c-0.031-0.013-0.062-0.026-0.093-0.04C80.719,175.315,68,157.366,68,136.501z M105,200.602
			v38.392l-10-5.257v-36.094C98.219,198.885,101.56,199.879,105,200.602z M336,435.001v12H175v-12H336z M235.5,399.001h40
			c4.142,0,7.5-3.358,7.5-7.5v-27.5h22v56h-99v-56h22v27.5C228,395.643,231.358,399.001,235.5,399.001z M243,384.001v-19h25v19H243z
			 M467.121,165.805l-46.862,23.65c-0.083,0.04-0.164,0.081-0.245,0.124l-24.75,12.491c-0.087,0.042-0.173,0.086-0.259,0.131
			l-45.466,22.946c-3.698,1.866-5.183,6.377-3.317,10.075c1.867,3.699,6.378,5.184,10.075,3.317L391,221.025v102.976h-44.75
			c-4.142,0-7.5,3.358-7.5,7.5c0,4.142,3.358,7.5,7.5,7.5h52.25c4.142,0,7.5-3.358,7.5-7.5V213.454l10-5.047v135.024
			c0,3.071-2.499,5.57-5.57,5.57H100.57c-3.071,0-5.57-2.499-5.57-5.57v-92.747l10,5.257v75.56c0,4.142,3.358,7.5,7.5,7.5h203.75
			c4.142,0,7.5-3.358,7.5-7.5c0-4.142-3.358-7.5-7.5-7.5H120v-60.175l6.278,3.3c-0.183,1.098-0.278,2.226-0.278,3.375
			c0,11.304,9.196,20.5,20.5,20.5c11.304,0,20.5-9.196,20.5-20.5c0-4.066-1.19-7.86-3.24-11.051l63.263-68.449h84.921L273.327,220.4
			l-2.499-11.492c-0.541-2.49-2.31-4.535-4.695-5.429c-2.384-0.894-5.062-0.517-7.107,1.003l-65.88,48.965
			c-1.079-0.602-2.323-0.945-3.646-0.945c-4.142,0-7.5,3.358-7.5,7.5v28c0,4.142,3.358,7.5,7.5,7.5c3.504,0,6.446-2.403,7.27-5.65
			c7.372-4.105,27.363-14.485,47.186-24.614l5.375,17.47c0.65,2.112,2.198,3.83,4.231,4.695c2.033,0.865,4.345,0.791,6.316-0.205
			l69.539-35.094c3.698-1.866,5.183-6.377,3.317-10.075c-1.866-3.697-6.377-5.183-10.075-3.317l-61.605,31.09l-5.386-17.506
			c-0.651-2.116-2.204-3.836-4.242-4.7c-2.038-0.863-4.354-0.783-6.327,0.221c-24.948,12.693-39.517,20.272-48.099,24.869v-3.414
			l61.641-45.814l2.53,11.637c0.544,2.505,2.331,4.558,4.736,5.444c2.405,0.887,5.097,0.482,7.136-1.07l98.461-74.957
			c0.001-0.001,0.002-0.001,0.003-0.002l56.536-43.04c3.203-2.438,3.91-6.971,1.601-10.269
			c-6.418-9.169-15.393-22.042-21.588-31.021c19.722-0.249,59.434,0.199,88.944,0.692v111.225l-20.786-24.454
			C473.971,165.004,470.211,164.245,467.121,165.805z"/>
	</g>
</g>
<g>
</g>
<g>
</g>
<g>
</g>
<g>
</g>
<g>
</g>
<g>
</g>
<g>
</g>
<g>
</g>
<g>
</g>
<g>
</g>
<g>
</g>
<g>
</g>
<g>
</g>
<g>
</g>
<g>
</g>
</svg>
