<?xml version="1.0" encoding="iso-8859-1"?>
<!-- Generator: Adobe Illustrator 19.0.0, SVG Export Plug-In . SVG Version: 6.00 Build 0)  -->
<svg version="1.1" id="Capa_1" xmlns="http://www.w3.org/2000/svg" xmlns:xlink="http://www.w3.org/1999/xlink" x="0px" y="0px"
	 viewBox="0 0 512.001 512.001" style="enable-background:new 0 0 512.001 512.001;" xml:space="preserve">
<g>
	<g>
		<path d="M469.333,0H42.667C19.103,0,0,19.103,0,42.667V320v21.333v21.333c0,23.564,19.103,42.667,42.667,42.667h138.667V448h-96
			c-5.891,0-10.667,4.776-10.667,10.667v42.667c0,5.891,4.776,10.667,10.667,10.667h341.333c5.891,0,10.667-4.776,10.667-10.667
			v-42.667c0-5.891-4.776-10.667-10.667-10.667h-96v-42.667h138.667c23.564,0,42.667-19.103,42.667-42.667v-21.333V320V42.667
			C512,19.103,492.898,0,469.333,0z M21.333,42.667c0-11.782,9.551-21.333,21.333-21.333h426.667
			c11.782,0,21.333,9.551,21.333,21.333V320H21.333V42.667z M416,469.334v21.333H96v-21.333h96h128H416z M202.667,448v-42.667
			h106.667V448h-0.001H202.667z M490.667,362.667c0,11.782-9.551,21.333-21.333,21.333H320H192H42.667
			c-11.782,0-21.333-9.551-21.333-21.333v-21.333h469.333V362.667z"/>
	</g>
</g>
<g>
	<g>
		<rect x="181.33" y="352" width="64" height="21.333"/>
	</g>
</g>
<g>
	<g>
		<rect x="266.67" y="352" width="64" height="21.333"/>
	</g>
</g>
<g>
	<g>
		<path d="M437.334,256v21.333h-0.001h-32V160c0-5.891-4.776-10.667-10.667-10.667h-53.333c-5.891,0-10.667,4.776-10.667,10.667
			v117.333h-32v-74.667c0-5.891-4.776-10.667-10.667-10.667h-53.333c-5.891,0-10.667,4.776-10.667,10.667v74.667h-32v-42.667
			c0-5.891-4.776-10.667-10.667-10.667H128c-5.891,0-10.667,4.776-10.667,10.667v42.667H74.667V256H53.333v32
			c0,5.891,4.776,10.667,10.667,10.667h64h53.333h53.333H288h53.333h53.333H448c5.891,0,10.667-4.776,10.667-10.667v-32H437.334z
			 M170.667,277.333h-32v-32h32V277.333z M277.333,277.333h-32v-64h32V277.333z M384,277.334h-32v-0.001V170.667h32V277.334z"/>
	</g>
</g>
<g>
	<g>
		<path d="M409.301,64.757l-53.333-21.333l-7.936,19.819l33.493,13.387c-45.132,27.241-91.862,51.744-139.936,73.376
			c-54.494,19.744-110.871,33.845-168.245,42.079l2.645,21.163c59.211-8.361,117.38-22.923,173.547-43.445
			c48.187-21.874,95.12-46.397,140.589-73.446l-5.927,29.603l20.918,4.188l10.677-53.331l-0.014-0.003
			C416.809,71.847,414.175,66.706,409.301,64.757z"/>
	</g>
</g>
<g>
	<g>
		<path d="M149.333,64V42.667h-96c-5.891,0-10.667,4.776-10.667,10.667V96c0.001,5.891,4.776,10.667,10.667,10.667h96V85.333H64V64
			H149.333z"/>
	</g>
</g>
<g>
	<g>
		<rect x="170.67" y="42.667" width="42.667" height="21.333"/>
	</g>
</g>
<g>
	<g>
		<rect x="42.667" y="128" width="42.667" height="21.333"/>
	</g>
</g>
<g>
</g>
<g>
</g>
<g>
</g>
<g>
</g>
<g>
</g>
<g>
</g>
<g>
</g>
<g>
</g>
<g>
</g>
<g>
</g>
<g>
</g>
<g>
</g>
<g>
</g>
<g>
</g>
<g>
</g>
</svg>
