<?xml version="1.0" encoding="UTF-8" standalone="no"?>
<!-- Created with Inkscape (http://www.inkscape.org/) -->

<svg
   xmlns:dc="http://purl.org/dc/elements/1.1/"
   xmlns:cc="http://creativecommons.org/ns#"
   xmlns:rdf="http://www.w3.org/1999/02/22-rdf-syntax-ns#"
   xmlns:svg="http://www.w3.org/2000/svg"
   xmlns="http://www.w3.org/2000/svg"
   xmlns:sodipodi="http://sodipodi.sourceforge.net/DTD/sodipodi-0.dtd"
   xmlns:inkscape="http://www.inkscape.org/namespaces/inkscape"
   width="210mm"
   height="297mm"
   viewBox="0 0 210 297"
   version="1.1"
   id="svg121"
   inkscape:version="0.92.1 r15371"
   sodipodi:docname="Avon.svg">
  <defs
     id="defs115">
    <clipPath
       clipPathUnits="userSpaceOnUse"
       id="clipPath291">
      <rect
         id="rect293"
         width="148.92261"
         height="58.208332"
         x="37.041668"
         y="98.184517"
         style="stroke-width:0.26458332" />
    </clipPath>
    <clipPath
       clipPathUnits="userSpaceOnUse"
       id="clipPath297">
      <rect
         id="rect299"
         width="148.67694"
         height="28.518311"
         x="37.249554"
         y="116.10058"
         style="stroke-width:0.20633447" />
    </clipPath>
  </defs>
  <sodipodi:namedview
     id="base"
     pagecolor="#ffffff"
     bordercolor="#666666"
     borderopacity="1.0"
     inkscape:pageopacity="0.0"
     inkscape:pageshadow="2"
     inkscape:zoom="0.25"
     inkscape:cx="2741.3129"
     inkscape:cy="-281.82969"
     inkscape:document-units="mm"
     inkscape:current-layer="layer1"
     showgrid="false"
     inkscape:window-width="1920"
     inkscape:window-height="1001"
     inkscape:window-x="-9"
     inkscape:window-y="-9"
     inkscape:window-maximized="1" />
  <metadata
     id="metadata118">
    <rdf:RDF>
      <cc:Work
         rdf:about="">
        <dc:format>image/svg+xml</dc:format>
        <dc:type
           rdf:resource="http://purl.org/dc/dcmitype/StillImage" />
        <dc:title></dc:title>
      </cc:Work>
    </rdf:RDF>
  </metadata>
  <g
     inkscape:label="Layer 1"
     inkscape:groupmode="layer"
     id="layer1">
    <g
       id="g287"
       clip-path="url(#clipPath297)">
      <g
         id="g268">
        <g
           id="g250">
          <g
             id="g233">
            <g
               id="g217">
              <g
                 id="g202">
                <g
                   id="g188">
                  <g
                     id="g175">
                    <g
                       id="g163">
                      <g
                         transform="matrix(2.8346454,0,0,2.8346454,-130.85712,-248.50281)"
                         id="g136">
                        <path
                           inkscape:connector-curvature="0"
                           id="path152"
                           d="m 58.964279,133.71428 v -26.45833 h 26.458334 26.458337 v 26.45833 26.45834 H 85.422613 58.964279 Z"
                           style="fill:#fafcfa;stroke-width:0.26458335" />
                        <path
                           inkscape:connector-curvature="0"
                           id="path150"
                           d="m 59.672924,138.37205 c -0.155143,-0.4043 3.892343,-9.15692 4.371341,-9.45296 0.162792,-0.10061 0.437724,-0.12854 0.610959,-0.0621 0.410067,0.15735 4.363222,8.61354 4.363222,9.33336 0,0.37578 -0.16936,0.55098 -0.532606,0.55098 -0.36915,0 -0.710129,-0.3654 -1.111055,-1.19063 l -0.57845,-1.19062 H 64.388237 61.98014 l -0.57845,1.19062 c -0.584781,1.20366 -1.428271,1.60439 -1.728766,0.82131 z m 6.170522,-3.85816 c 0,-0.14229 -0.323914,-0.91916 -0.719808,-1.72638 l -0.719808,-1.46766 -0.722918,1.39566 c -1.02027,1.96971 -0.990218,2.05711 0.707325,2.05711 0.800365,0 1.455209,-0.11643 1.455209,-0.25873 z m 10.896719,3.25188 c -1.457296,-2.89362 -3.752969,-8.0287 -3.752969,-8.39485 0,-0.26416 0.231076,-0.41914 0.624963,-0.41914 0.543072,0 0.84509,0.46804 2.304905,3.57188 0.923968,1.96453 1.744363,3.57187 1.8231,3.57187 0.07874,0 0.875721,-1.57757 1.771076,-3.50573 1.42389,-3.06634 1.713963,-3.51622 2.314438,-3.58944 0.450042,-0.0549 0.686518,0.043 0.686518,0.28428 0,0.20241 -0.945239,2.38321 -2.100531,4.84622 -2.355704,5.02223 -2.767491,5.42991 -3.6715,3.63491 z m 14.238698,0.67968 c -0.854003,-0.33875 -2.316247,-1.74263 -2.822689,-2.71003 -0.217958,-0.41634 -0.401989,-1.3913 -0.408956,-2.16658 -0.02611,-2.90617 2.218151,-5.14622 5.155896,-5.14622 1.771709,0 2.711302,0.32069 3.731509,1.2736 2.818609,2.63269 2.040213,7.16327 -1.483685,8.63564 -1.094375,0.45726 -3.163637,0.5136 -4.172075,0.11359 z m 4.123754,-1.67901 c 1.19113,-0.78046 1.738381,-1.96588 1.623727,-3.51721 -0.3316,-4.48673 -6.638325,-4.70813 -7.472363,-0.26232 -0.137557,0.73324 -0.04158,1.26634 0.387588,2.15288 1.000972,2.06773 3.604371,2.84319 5.461048,1.62665 z m 7.429723,1.79854 c -0.097,-0.097 -0.17639,-2.34646 -0.17639,-4.99878 0,-4.15947 0.0577,-4.84453 0.41978,-4.98347 0.29624,-0.11368 1.28831,0.74393 3.37084,2.91396 1.62308,1.69127 3.1078,3.29884 3.29938,3.57236 0.19159,0.27352 0.45709,0.49732 0.59001,0.49732 0.13292,0 0.275,-1.51659 0.31573,-3.3702 0.0651,-2.96484 0.12974,-3.38087 0.53707,-3.45898 0.42754,-0.082 0.46302,0.28778 0.46302,4.8254 0,3.75255 -0.0782,4.91527 -0.33073,4.91873 -0.1819,0.002 -1.84314,-1.57508 -3.69165,-3.50572 l -3.36092,-3.51027 -0.0125,3.12624 c -0.007,1.71944 -0.13576,3.35655 -0.2864,3.63802 -0.27375,0.51151 -0.80455,0.66806 -1.13722,0.33539 z"
                           style="fill:#f3d4e4;stroke-width:0.26458335" />
                        <path
                           inkscape:connector-curvature="0"
                           id="path148"
                           d="m 91.412055,138.36728 c -1.971268,-0.72874 -3.589785,-2.93035 -3.602382,-4.90019 -0.0085,-1.32568 0.969558,-3.12897 2.167808,-3.99698 2.025695,-1.4674 4.635376,-1.29745 6.543165,0.42612 1.336119,1.20711 1.691209,2.14067 1.551077,4.07796 -0.09137,1.26322 -0.274838,1.78206 -0.90584,2.56168 -1.463197,1.80783 -3.803034,2.55259 -5.753828,1.83141 z m 3.525335,-1.34042 c 4.460245,-2.30648 1.060286,-9.0885 -3.536805,-7.05499 -1.693682,0.74919 -2.33104,1.84997 -2.205347,3.80883 0.0799,1.24523 0.238747,1.67075 0.874485,2.34259 0.427268,0.45154 1.014973,0.92012 1.306015,1.0413 0.85793,0.3572 2.74573,0.2842 3.561652,-0.13773 z m -35.179361,1.19966 c 0,-0.63139 4.201116,-9.15119 4.545964,-9.21914 0.269496,-0.0531 1.055604,1.31585 2.555762,4.45068 1.191603,2.49005 2.098225,4.63793 2.014714,4.77305 -0.345285,0.55868 -0.956172,0.17376 -1.499684,-0.94495 l -0.57845,-1.19063 h -2.464259 -2.464258 l -0.57845,1.19063 c -0.367373,0.75617 -0.752305,1.19062 -1.054895,1.19062 -0.262044,0 -0.476444,-0.11261 -0.476444,-0.25026 z m 6.35,-3.41731 c 0,-0.35405 -1.574426,-3.74076 -1.739019,-3.74076 -0.176425,0 -1.700564,3.31467 -1.700564,3.69836 0,0.1564 0.725019,0.27039 1.719791,0.27039 0.945886,0 1.719792,-0.10259 1.719792,-0.22799 z m 10.196111,1.61705 c -2.555997,-5.37474 -3.106596,-6.68693 -2.962945,-7.06127 0.321922,-0.83892 0.92994,-0.021 2.50131,3.36484 0.890953,1.91974 1.719348,3.52358 1.840876,3.56409 0.121529,0.0405 1.010141,-1.5949 1.974695,-3.63424 0.964553,-2.03934 1.885995,-3.7079 2.047647,-3.7079 0.756866,0 0.443277,1.10706 -1.460158,5.15476 -1.487358,3.1629 -2.180977,4.37024 -2.5107,4.37024 -0.307985,0 -0.77151,-0.66432 -1.430725,-2.05052 z m 26.22192,1.46802 c -0.0896,-0.33447 -0.16451,-2.34154 -0.1665,-4.46016 -0.003,-3.00804 0.0827,-3.96456 0.39011,-4.36562 0.3792,-0.49466 0.43483,-0.46969 1.50898,0.67703 4.57375,4.88279 5.98497,6.31164 6.11013,6.18648 0.079,-0.079 0.0778,-1.48017 -0.003,-3.11371 -0.10082,-2.04716 -0.0485,-3.15276 0.16837,-3.558 0.63487,-1.18623 0.81728,-0.21814 0.81728,4.33731 0,3.70399 -0.0707,4.61459 -0.35819,4.61459 -0.19701,0 -1.89365,-1.6279 -3.77032,-3.61755 l -3.41211,-3.61755 -0.1323,3.68063 c -0.11202,3.11664 -0.19799,3.69319 -0.5611,3.76265 -0.26333,0.0504 -0.49167,-0.15265 -0.5917,-0.5261 z"
                           style="fill:#f0c5db;stroke-width:0.26458335" />
                        <path
                           inkscape:connector-curvature="0"
                           id="path146"
                           d="m 59.927138,138.27177 c -0.07918,-0.12811 0.783691,-2.18823 1.917495,-4.57803 1.51683,-3.19712 2.184836,-4.34508 2.528436,-4.34508 0.34252,0 0.985211,1.09296 2.411519,4.10104 1.069501,2.25557 1.950111,4.3094 1.956911,4.56406 0.0196,0.73427 -0.500277,0.53925 -0.99213,-0.37216 -0.89281,-1.6544 -1.191469,-1.81065 -3.461026,-1.81065 -2.241914,0 -2.376455,0.0695 -3.176262,1.64104 -0.443518,0.87146 -0.93544,1.20349 -1.184943,0.79978 z m 6.180891,-3.63899 c 0,-0.52398 -1.532844,-3.56433 -1.797016,-3.56433 -0.158638,0 -1.037574,1.77232 -1.863053,3.75673 -0.04851,0.11661 0.755165,0.21202 1.785937,0.21202 1.505046,0 1.874132,-0.0796 1.874132,-0.40442 z m 11.1785,3.51327 c -0.354261,-0.44485 -4.03475,-8.36197 -4.03475,-8.67917 0,-0.13778 0.186686,-0.25051 0.414858,-0.25051 0.273725,0 1.009768,1.26013 2.1636,3.70416 0.961808,2.0373 1.816919,3.70334 1.900247,3.70233 0.08333,-0.001 0.945571,-1.66789 1.916096,-3.70417 1.169768,-2.45431 1.905571,-3.70232 2.182813,-3.70232 0.230021,0 0.41822,0.11018 0.41822,0.24485 0,0.49085 -4.206068,9.01556 -4.448251,9.01556 -0.137201,0 -0.367975,-0.14882 -0.512833,-0.33073 z m 13.430251,-0.16014 c -1.246661,-0.66859 -2.374969,-2.13011 -2.67485,-3.46479 -0.778526,-3.46496 2.722621,-6.73858 6.213906,-5.81008 3.400312,0.9043 4.905963,4.72688 2.997658,7.61052 -1.297289,1.96033 -4.475798,2.76963 -6.536714,1.66435 z m 4.495417,-1.06217 c 2.512843,-1.82345 2.43028,-5.35819 -0.159835,-6.84312 -2.471994,-1.41722 -5.585058,0.0413 -6.057572,2.83813 -0.556633,3.29468 3.550441,5.94029 6.217407,4.00499 z m 7.584723,1.37665 c -0.097,-0.097 -0.17639,-2.24013 -0.17639,-4.76249 0,-3.76822 0.0665,-4.58612 0.37275,-4.58612 0.20501,0 1.88929,1.60735 3.74285,3.57188 1.85355,1.96453 3.47175,3.57187 3.596,3.57187 0.12424,0 0.2259,-1.60734 0.2259,-3.57187 0,-2.99861 0.0637,-3.57188 0.39688,-3.57188 0.33765,0 0.39687,0.69086 0.39687,4.63021 0,3.52947 -0.0786,4.62946 -0.33073,4.62704 -0.1819,-0.002 -1.81901,-1.60766 -3.63802,-3.5687 -1.81901,-1.96105 -3.39659,-3.56696 -3.50573,-3.56871 -0.10914,-0.002 -0.19844,1.47537 -0.19844,3.28248 0,3.77616 -0.19217,4.63606 -0.88194,3.94629 z"
                           style="fill:#ecb0cf;stroke-width:0.26458335" />
                        <path
                           inkscape:connector-curvature="0"
                           id="path144"
                           d="m 76.130525,135.65529 c -2.470737,-5.2464 -2.852132,-6.15956 -2.629993,-6.29685 0.353382,-0.2184 0.709122,0.36593 2.397323,3.93779 0.8762,1.85384 1.721442,3.32784 1.878315,3.27555 0.156874,-0.0523 1.032754,-1.69363 1.946401,-3.64741 1.535268,-3.28309 2.260459,-4.35645 2.260459,-3.34573 0,0.57633 -3.903569,8.74412 -4.231201,8.85334 -0.149104,0.0497 -0.878691,-1.19981 -1.621304,-2.77669 z m 14.98063,2.45095 c -3.122041,-1.37598 -4.00421,-5.36218 -1.754032,-7.92584 1.137915,-1.29644 3.75747,-1.87285 5.50712,-1.21178 1.519161,0.57397 3.239005,2.87452 3.251084,4.34879 0.0286,3.49084 -3.882277,6.16475 -7.004172,4.78883 z m 3.840586,-0.91311 c 1.114282,-0.59213 1.988052,-1.80628 2.230691,-3.09966 0.235342,-1.25447 -0.703672,-3.1955 -1.943216,-4.01682 -1.856322,-1.23001 -4.653336,-0.54436 -5.777355,1.41622 -2.044906,3.56685 1.864956,7.62654 5.48988,5.70026 z m -34.929129,0.79298 c 0,-0.2299 3.922461,-8.54066 4.131652,-8.75399 0.266819,-0.2721 0.938612,0.87787 2.714408,4.64649 1.036855,2.20044 1.885191,4.07567 1.885191,4.16719 0,0.0915 -0.154869,0.1664 -0.344153,0.1664 -0.189284,0 -0.604455,-0.53578 -0.922603,-1.19062 l -0.57845,-1.19063 h -2.52042 -2.520419 l -0.57845,1.19063 c -0.504724,1.03887 -1.266756,1.61909 -1.266756,0.96453 z m 6.243517,-3.05305 c 0.178254,-0.46452 -1.680799,-4.20047 -1.993911,-4.00696 -0.40504,0.25033 -1.892366,3.6669 -1.753658,4.02837 0.192549,0.50177 3.554174,0.48257 3.747569,-0.0214 z m 36.471391,2.93779 c -0.0721,-0.18774 -0.0981,-2.24157 -0.0578,-4.56406 0.0542,-3.13094 0.15748,-4.22271 0.39934,-4.22271 0.17941,0 1.82943,1.60734 3.66673,3.57187 1.83729,1.96453 3.44325,3.61043 3.56881,3.65754 0.12556,0.0471 0.26147,-1.56023 0.30202,-3.57188 0.0458,-2.26955 0.17415,-3.63265 0.33833,-3.59196 0.32989,0.0818 0.50457,8.53152 0.18301,8.85308 -0.12682,0.12682 -1.77962,-1.41481 -3.73674,-3.4854 -1.93014,-2.04204 -3.61679,-3.64639 -3.74812,-3.56522 -0.13133,0.0812 -0.23878,1.74789 -0.23878,3.70383 0,2.2666 -0.099,3.55626 -0.27289,3.55626 -0.15009,0 -0.33183,-0.15361 -0.40387,-0.34135 z"
                           style="fill:#e798c1;stroke-width:0.26458335" />
                        <path
                           inkscape:connector-curvature="0"
                           id="path142"
                           d="m 91.412055,138.10119 c -3.163837,-1.16492 -4.315799,-5.07655 -2.203514,-7.48231 2.205112,-2.51149 5.803239,-2.48835 7.73915,0.0498 1.094791,1.43534 1.224735,3.65329 0.305893,5.22118 -1.159182,1.97799 -3.780377,2.97027 -5.841529,2.21136 z m 3.802832,-1.01347 c 1.912483,-1.30162 2.506766,-3.06234 1.72475,-5.11002 -0.536749,-1.40546 -1.9358,-2.47371 -3.494458,-2.66819 -1.310674,-0.16355 -3.168557,0.76714 -3.985535,1.99651 -1.224346,1.84236 -0.597098,4.58895 1.329852,5.82315 1.198049,0.76734 3.265482,0.74798 4.425391,-0.0414 z m -35.192275,1.00617 c 0,-0.0651 0.833438,-1.86568 1.852084,-4.00135 1.018646,-2.13567 1.852083,-3.97285 1.852083,-4.08262 0,-0.10978 0.175511,-0.34525 0.390024,-0.52328 0.331375,-0.27502 0.690735,0.30548 2.389795,3.86043 1.099874,2.30126 1.959776,4.36711 1.910894,4.59077 -0.05409,0.24748 -0.316682,-0.03 -0.670868,-0.70898 -0.745842,-1.42973 -1.216053,-1.66249 -3.358387,-1.66249 -2.126075,0 -2.6185,0.23736 -3.311804,1.59635 -0.294475,0.57721 -0.652051,1.04948 -0.794615,1.04948 -0.142563,0 -0.259206,-0.0532 -0.259206,-0.11831 z m 6.350001,-3.23402 c 0,-0.72831 -1.639732,-4.056 -1.998605,-4.056 -0.376791,0 -1.970146,3.23375 -1.970146,3.99845 0,0.44517 0.21573,0.49946 1.984375,0.49946 1.677395,0 1.984376,-0.0684 1.984376,-0.44191 z m 9.127172,-0.75942 c -1.090882,-2.28607 -1.983422,-4.27059 -1.983422,-4.41004 0,-0.81741 0.741998,0.35095 2.220863,3.497 0.922878,1.96327 1.815845,3.56958 1.984372,3.56958 0.168528,0 1.026599,-1.54781 1.906826,-3.43958 1.632853,-3.50931 1.958155,-4.05652 2.242461,-3.77222 0.214828,0.21483 -3.717189,8.48825 -4.093774,8.61378 -0.161648,0.0539 -1.186444,-1.77246 -2.277326,-4.05852 z m 27.345645,0.0263 c -0.0218,-2.26416 -0.0516,-4.26385 -0.0661,-4.44376 -0.0788,-0.97456 1.10607,-0.0574 4.03858,3.12597 1.79921,1.95312 3.43617,3.55114 3.6377,3.55114 0.29645,0 0.35385,-0.64416 0.30059,-3.37344 -0.0407,-2.08386 0.0353,-3.39894 0.19876,-3.44015 0.16592,-0.0418 0.29169,1.51202 0.33728,4.16719 0.0566,3.29391 -0.002,4.23319 -0.26459,4.23073 -0.1855,-0.002 -1.82556,-1.60767 -3.64457,-3.56871 -1.81901,-1.96104 -3.45612,-3.56696 -3.63802,-3.5687 -0.24834,-0.002 -0.33073,0.88278 -0.33073,3.55309 0,2.08543 -0.10943,3.62389 -0.26458,3.71978 -0.17144,0.10595 -0.27856,-1.28572 -0.30427,-3.95314 z"
                           style="fill:#e48ab8;stroke-width:0.26458335" />
                        <path
                           inkscape:connector-curvature="0"
                           id="path140"
                           d="m 77.240236,137.61689 c -0.127478,-0.32742 -1.019095,-2.25067 -1.981371,-4.27389 -0.962275,-2.02321 -1.697978,-3.73018 -1.634896,-3.79327 0.18897,-0.18897 0.81028,0.95172 2.304374,4.2307 0.779117,1.70987 1.569937,3.10885 1.757379,3.10885 0.187442,0 1.130084,-1.66687 2.094762,-3.70416 0.964677,-2.03729 1.864813,-3.70417 2.000301,-3.70417 0.306724,0 0.438536,-0.31932 -1.896233,4.59377 -1.081403,2.27562 -2.066616,4.13748 -2.189362,4.13748 -0.122746,0 -0.327475,-0.26789 -0.454954,-0.59531 z m 13.176049,-0.16275 c -3.05335,-1.93638 -2.858021,-6.46097 0.351001,-8.13062 0.929902,-0.48383 3.473617,-0.47714 4.418775,0.0116 2.65748,1.37424 3.464214,4.75764 1.670172,7.00463 -1.613943,2.02141 -4.281752,2.48305 -6.439948,1.11437 z m 4.425212,-0.0107 c 1.462937,-0.66438 2.290485,-1.88779 2.432103,-3.59552 0.366485,-4.41934 -5.371074,-6.31454 -7.882237,-2.60362 -1.447226,2.13867 -0.522245,5.07276 1.95366,6.19711 1.370322,0.62229 2.129737,0.62273 3.496474,0.002 z m -34.433522,0.0411 c 0.810639,-2.11587 3.78441,-7.99386 4.046408,-7.99819 0.181901,-0.003 0.330729,0.10562 0.330729,0.24138 0,0.13576 0.833438,1.98921 1.852084,4.11879 1.984253,4.14826 1.965511,4.10104 1.627683,4.10104 -0.12342,0 -0.435996,-0.46924 -0.694614,-1.04275 -0.258618,-0.57351 -0.646241,-1.1103 -0.861385,-1.19286 -0.215144,-0.0826 -0.323384,-0.32675 -0.240535,-0.54266 0.194872,-0.50782 -1.658076,-4.63007 -2.081215,-4.63007 -0.433366,0 -2.284674,4.0941 -2.085735,4.61252 0.09396,0.24486 -0.01816,0.47746 -0.278226,0.57726 -0.239579,0.0919 -0.671071,0.62872 -0.958871,1.19286 -0.526038,1.03112 -0.9873,1.42657 -0.656323,0.56268 z m 42.477135,-3.88699 c 0,-2.40968 0.0935,-4.38124 0.20779,-4.38124 0.11427,0 1.74244,1.63711 3.61814,3.63802 1.8757,2.00091 3.53837,3.63802 3.69482,3.63802 0.18297,0 0.33224,-1.3216 0.41838,-3.70417 l 0.13391,-3.70416 0.13226,4.23333 c 0.0727,2.32833 0.06,4.32868 -0.0283,4.4452 -0.0883,0.11653 -0.92246,-0.59438 -1.85368,-1.57981 -4.50495,-4.76716 -5.37056,-5.64352 -5.5743,-5.64352 -0.12093,0 -0.21987,1.60032 -0.21987,3.55626 0,2.08544 -0.10943,3.6239 -0.26458,3.71979 -0.17232,0.1065 -0.26459,-1.36427 -0.26459,-4.21772 z"
                           style="fill:#e078ae;stroke-width:0.26458335" />
                        <path
                           inkscape:connector-curvature="0"
                           id="path138"
                           d="m 77.246211,137.37839 c -0.240693,-0.69045 -0.236485,-0.80574 0.02004,-0.54921 0.178579,0.17858 0.422695,0.32469 0.542479,0.32469 0.119784,0 1.007621,-1.66804 1.972972,-3.70675 0.96535,-2.03872 1.797445,-3.66449 1.849101,-3.61283 0.119964,0.11996 -3.499555,7.8376 -3.831426,8.16947 -0.154982,0.15499 -0.363196,-0.0804 -0.553172,-0.62537 z m 15.535126,0.65307 c 0.190995,-0.0764 0.419198,-0.067 0.507119,0.0209 0.08792,0.0879 -0.06835,0.15045 -0.347266,0.13896 -0.308226,-0.0127 -0.370919,-0.0754 -0.159853,-0.15985 z m -32.472633,-0.21613 c 0.0026,-0.14553 0.470643,-1.15756 1.040154,-2.24896 0.832698,-1.59578 1.004523,-1.80303 0.877421,-1.05834 -0.08693,0.50933 -0.380191,1.17184 -0.651693,1.47226 -0.271502,0.30043 -0.49364,0.66462 -0.49364,0.80933 0,0.14471 -0.174807,0.49422 -0.388461,0.7767 -0.213653,0.28247 -0.386354,0.39453 -0.383781,0.24901 z m 7.395984,-0.90809 c -0.29192,-0.57221 -0.651528,-1.11502 -0.799128,-1.20624 -0.1476,-0.0912 -0.268364,-0.42077 -0.268364,-0.73233 0,-0.77591 0.323033,-0.3629 1.140045,1.45759 0.776017,1.72915 0.727683,2.04957 -0.07255,0.48098 z m 22.742318,0.44506 c -1.365639,-0.92944 -1.92323,-1.87062 -2.055879,-3.4702 -0.09662,-1.16506 -0.0013,-1.65189 0.496409,-2.53759 0.553495,-0.98481 1.909566,-2.12974 2.519431,-2.12715 0.128347,5.5e-4 -0.137102,0.22688 -0.589881,0.50298 -2.045909,1.24756 -2.783991,3.84351 -1.660922,5.84174 0.346282,0.61613 1.091618,1.38706 1.684864,1.74272 0.585132,0.3508 0.932657,0.63894 0.772274,0.64031 -0.16038,0.001 -0.685212,-0.26538 -1.166296,-0.59281 z m 5.558718,-0.62658 c 0.582798,-0.52652 1.167715,-1.3302 1.299816,-1.78594 0.139457,-0.48112 0.25019,-0.6198 0.264044,-0.33068 0.03228,0.67366 -0.896681,2.12904 -1.69128,2.64968 -1.052129,0.68939 -1.004327,0.4894 0.12742,-0.53306 z m 6.937426,-3.23192 c -0.0319,-2.37684 0.042,-4.28184 0.16436,-4.23334 0.12232,0.0485 1.7397,1.72531 3.59418,3.72622 2.07135,2.23491 3.56726,3.63802 3.87864,3.63802 0.33048,0 0.50687,0.18415 0.50687,0.52917 0,0.29104 -0.0913,0.52916 -0.20283,0.52916 -0.11155,0 -1.68913,-1.60651 -3.50573,-3.57002 -1.81659,-1.96352 -3.5079,-3.57086 -3.75846,-3.57188 -0.40507,-0.002 -0.46461,0.40128 -0.53727,3.63617 l -0.0817,3.63803 z m -27.130409,0.86964 c -0.621551,-1.3034 -0.534111,-1.5252 0.115695,-0.29346 0.295132,0.55944 0.489802,1.06396 0.432601,1.12116 -0.0572,0.0572 -0.303934,-0.31526 -0.548296,-0.8277 z m 21.800118,-0.64916 c -0.06533,-1.15931 -0.681831,-2.48652 -1.552956,-3.34318 -0.59644,-0.58654 -0.755031,-0.84643 -0.405204,-0.66403 1.176076,0.61321 2.487745,3.16073 2.107422,4.09303 -0.0774,0.18973 -0.13562,0.15625 -0.149262,-0.0858 z m 13.300461,-1.98437 c 0.001,-1.16417 0.0475,-1.6075 0.10337,-0.98519 0.0559,0.62231 0.0551,1.57481 -0.002,2.11666 -0.0567,0.54186 -0.10247,0.0327 -0.10151,-1.13147 z m -36.688079,-0.80605 c -0.621552,-1.30341 -0.534111,-1.5252 0.115695,-0.29346 0.295132,0.55943 0.489802,1.06395 0.432601,1.12115 -0.0572,0.0572 -0.303934,-0.31526 -0.548296,-0.82769 z m -10.187133,-0.79543 c 0.119663,-0.5747 0.589232,-0.60987 0.696635,-0.0522 0.05578,0.28962 -0.074,0.46302 -0.346506,0.46302 -0.254192,0 -0.400041,-0.17114 -0.350129,-0.41085 z"
                           style="fill:#de6da7;stroke-width:0.26458335" />
                      </g>
                    </g>
                  </g>
                </g>
              </g>
            </g>
          </g>
        </g>
      </g>
    </g>
  </g>
</svg>
