<?xml version="1.0" encoding="UTF-8" standalone="no"?>
<!-- Created with Inkscape (http://www.inkscape.org/) -->

<svg
   xmlns:dc="http://purl.org/dc/elements/1.1/"
   xmlns:cc="http://creativecommons.org/ns#"
   xmlns:rdf="http://www.w3.org/1999/02/22-rdf-syntax-ns#"
   xmlns:svg="http://www.w3.org/2000/svg"
   xmlns="http://www.w3.org/2000/svg"
   xmlns:sodipodi="http://sodipodi.sourceforge.net/DTD/sodipodi-0.dtd"
   xmlns:inkscape="http://www.inkscape.org/namespaces/inkscape"
   width="210mm"
   height="297mm"
   viewBox="0 0 210 297"
   version="1.1"
   id="svg47"
   inkscape:version="0.92.1 r15371"
   sodipodi:docname="Cigna.svg">
  <defs
     id="defs41" />
  <sodipodi:namedview
     id="base"
     pagecolor="#ffffff"
     bordercolor="#666666"
     borderopacity="1.0"
     inkscape:pageopacity="0.0"
     inkscape:pageshadow="2"
     inkscape:zoom="0.35"
     inkscape:cx="400"
     inkscape:cy="560"
     inkscape:document-units="mm"
     inkscape:current-layer="layer1"
     showgrid="false"
     inkscape:window-width="1920"
     inkscape:window-height="1001"
     inkscape:window-x="-9"
     inkscape:window-y="-9"
     inkscape:window-maximized="1" />
  <metadata
     id="metadata44">
    <rdf:RDF>
      <cc:Work
         rdf:about="">
        <dc:format>image/svg+xml</dc:format>
        <dc:type
           rdf:resource="http://purl.org/dc/dcmitype/StillImage" />
        <dc:title></dc:title>
      </cc:Work>
    </rdf:RDF>
  </metadata>
  <g
     inkscape:label="Layer 1"
     inkscape:groupmode="layer"
     id="layer1">
    <g
       id="g60"
       transform="translate(-15.119048,-11.339286)">
      <path
         style="fill:#fcfdfd;stroke-width:0.48387095"
         d="M 48.947914,122.64592 V 83.210442 h 74.999996 75 v 39.435478 39.43549 h -75 -74.999996 z"
         id="path76"
         inkscape:connector-curvature="0" />
      <path
         style="fill:#a3cee7;stroke-width:0.48387095"
         d="m 85.509666,140.83881 c -0.166468,-0.26935 -0.154147,-1.93939 0.02738,-3.7112 l 0.330049,-3.22147 -2.612816,0.33409 c -1.437049,0.18375 -4.441812,0.75669 -6.677251,1.2732 -2.23544,0.51651 -4.182157,0.82139 -4.326038,0.6775 -0.9795,-0.9795 4.455427,-3.24436 10.113835,-4.21467 l 3.447009,-0.59109 -0.299617,-1.8737 c -0.164788,-1.03054 -0.734959,-2.72705 -1.267046,-3.77003 l -0.96743,-1.89632 -1.381067,1.02107 c -1.144214,0.84595 -1.560976,0.92478 -2.430102,0.45964 -0.737199,-0.39454 -0.960512,-0.84034 -0.751238,-1.4997 0.198728,-0.62614 0.07044,-0.93827 -0.385624,-0.93827 -0.37588,0 -1.054106,-0.40961 -1.507167,-0.91023 -0.759235,-0.83895 -0.762378,-0.97161 -0.04012,-1.69386 0.722258,-0.72226 0.707225,-0.88076 -0.191951,-2.02388 -1.121964,-1.42634 -0.881453,-2.63009 0.525496,-2.63009 0.735884,0 0.881703,-0.20288 0.608627,-0.84678 -0.197513,-0.46572 -0.384116,-1.28226 -0.414672,-1.81451 -0.04614,-0.80364 0.211114,-0.94692 1.517023,-0.84494 1.464146,0.11434 1.572581,0.0188 1.572581,-1.38556 0,-1.40074 0.103588,-1.49317 1.451613,-1.29532 1.238324,0.18174 1.451613,0.0563 1.451613,-0.85358 0,-0.58664 0.338485,-1.34754 0.752189,-1.69089 0.628474,-0.52158 0.921671,-0.45478 1.782622,0.40617 l 1.030432,1.03043 0.871557,-1.43316 c 1.090457,-1.79311 1.556953,-1.7951 2.875061,-0.0123 l 1.050511,1.42089 0.824093,-1.01771 c 1.117978,-1.38065 2.426438,-0.83366 2.426438,1.01434 0,1.29092 0.140101,1.41082 1.572581,1.34583 1.367317,-0.062 1.592138,0.0979 1.722425,1.22548 0.124176,1.07468 0.372828,1.28189 1.451613,1.20967 1.214065,-0.0813 1.294595,0.0351 1.195265,1.72738 -0.0786,1.3384 0.0841,1.81452 0.62003,1.81452 1.27559,0 1.358,1.44172 0.15557,2.72165 -1.05926,1.12753 -1.08242,1.25687 -0.30315,1.69297 1.20923,0.67672 1.04025,1.8069 -0.36595,2.44761 -0.7645,0.34833 -1.209674,0.94871 -1.209674,1.63141 0,0.98043 -0.813891,1.66765 -1.97506,1.66765 -0.24436,0 -0.897357,-0.45307 -1.451099,-1.00681 -0.969128,-0.96913 -1.031262,-0.97365 -1.66041,-0.12097 -0.683166,0.9259 -1.618032,3.95535 -1.814738,5.88068 -0.1039,1.01696 0.112554,1.14282 2.275363,1.32299 4.292818,0.35764 11.400138,2.91077 11.400138,4.09523 0,0.60291 0.27528,0.63098 -4.4376,-0.45239 -2.21658,-0.50953 -5.270683,-1.06812 -6.7869,-1.24131 l -2.756757,-0.31488 0.28088,3.35034 c 0.20697,2.46873 0.115976,3.45226 -0.3458,3.73765 -0.850558,0.52568 -2.290339,-1.32237 -2.690007,-3.45278 -0.378966,-2.02007 -0.61972,-1.84885 -1.615483,1.14888 -0.729654,2.19662 -1.993083,3.19187 -2.667227,2.10109 z m 4.668537,-14.07998 0.72531,-2.17742 h -1.622961 c -1.76163,0 -1.844579,0.12612 -1.178455,1.79175 0.244478,0.61131 0.576216,1.52369 0.737196,2.0275 0.364494,1.14075 0.444833,1.04224 1.33891,-1.64183 z m 5.774487,-6.29033 c 0.828634,0 0.95049,0.21066 0.699751,1.20968 -0.344174,1.3713 0.558893,1.70742 0.975012,0.36291 0.14414,-0.46573 0.43739,-1.18239 0.651672,-1.59259 0.246871,-0.47259 0.08348,-1.12385 -0.446003,-1.77774 l -0.835602,-1.03192 -1.240806,1.24081 c -1.363266,1.36326 -2.706175,1.23665 -3.10615,-0.29286 -0.161152,-0.61624 -0.536851,-0.83086 -1.166316,-0.66625 -0.510722,0.13355 -1.254039,-0.0273 -1.651814,-0.3574 -0.573849,-0.47625 -0.87187,-0.47687 -1.442874,-0.003 -0.395805,0.32849 -1.056001,0.46818 -1.467103,0.31042 -0.500051,-0.19188 -0.898528,0.11052 -1.203863,0.91361 -0.558637,1.46933 -1.398746,1.51721 -3.10273,0.17686 -0.833595,-0.65571 -1.248291,-1.39479 -1.153861,-2.05645 0.123869,-0.86795 0.437131,-1.01587 1.96182,-0.92638 1.696796,0.0996 1.814414,0.0172 1.814414,-1.27142 0,-0.75784 0.3247,-1.64737 0.721557,-1.97673 0.595952,-0.4946 0.96864,-0.33434 2.140959,0.92063 1.335137,1.42927 1.437874,1.46127 1.730567,0.53908 0.171142,-0.53922 0.745822,-1.21302 1.277068,-1.49733 1.300557,-0.69604 2.355655,0.20725 2.355655,2.01672 0,1.27982 0.107126,1.35885 1.472026,1.08587 1.091772,-0.21836 1.635163,-0.0713 2.103559,0.56927 0.874552,1.19602 1.484868,0.0947 0.67468,-1.21743 -0.431566,-0.69895 -0.942939,-0.92642 -1.674945,-0.74506 -1.27828,0.31671 -2.573567,-0.83964 -2.273541,-2.02967 0.145567,-0.57738 -0.209076,-1.04939 -1.091458,-1.45266 -1.14667,-0.52405 -1.389637,-0.47952 -1.979691,0.3629 -0.853528,1.21859 -2.371408,1.23636 -3.014197,0.0353 -0.42382,-0.79192 -0.66936,-0.84412 -1.706798,-0.3629 -0.73459,0.34074 -1.213249,0.96746 -1.215537,1.59154 -0.0047,1.29379 -1.086333,2.22694 -2.120999,1.8299 -1.199888,-0.46044 -2.768939,1.67456 -2.06227,2.80611 0.403352,0.64587 0.393119,1.10408 -0.04016,1.79786 -0.464374,0.74358 -0.431955,1.23079 0.160981,2.41936 0.898059,1.8002 1.283105,1.92346 0.87027,0.27859 -0.254151,-1.01261 -0.132158,-1.20967 0.748872,-1.20967 0.578865,0 1.781634,0.55615 2.672819,1.23589 1.612938,1.23025 1.62182,1.23122 1.945168,0.21244 0.178657,-0.5629 0.849415,-1.26247 1.490573,-1.5546 0.947531,-0.43173 1.347261,-0.36688 2.135452,0.34642 0.53334,0.48267 0.969708,1.30187 0.969708,1.82045 0,0.82918 0.20624,0.76179 1.710385,-0.55887 0.940712,-0.82595 2.161898,-1.50174 2.713746,-1.50174 z m 36.99337,16.78741 c -0.53125,-0.38846 -0.79993,-1.0876 -0.69733,-1.81452 0.15531,-1.10028 0.33626,-1.17171 2.60059,-1.02661 1.97148,0.12633 2.60601,-0.0345 3.34113,-0.84678 0.99705,-1.10173 0.98301,-1.10855 -2.14576,-1.04332 -3.51817,0.0734 -5.32258,-2.05762 -5.32258,-6.28583 0,-3.25329 1.30865,-5.56611 3.88061,-6.8583 1.85832,-0.93366 5.05454,-1.10579 6.97498,-0.37563 l 1.24118,0.47189 v 6.80171 c 0,7.70617 -0.50753,9.64467 -2.84108,10.85139 -1.78048,0.92073 -5.84528,0.99356 -7.03174,0.126 z m 5.00045,-8.53056 c 0.43018,-0.27222 0.7725,-1.54879 0.90444,-3.37275 0.1731,-2.39318 0.067,-2.99048 -0.57492,-3.23681 -1.29273,-0.49607 -3.12053,1.07097 -3.4792,2.98286 -0.57369,3.05801 1.0656,4.94557 3.14968,3.6267 z m -23.67144,2.94222 c -0.92064,-0.49374 -2.32275,-1.69942 -3.11583,-2.67929 -2.0003,-2.47143 -2.33791,-6.9532 -0.76807,-10.19606 1.81122,-3.74148 7.91388,-6.20983 11.1331,-4.50301 2.61867,1.3884 1.58107,3.81444 -1.45712,3.40694 -3.94424,-0.52904 -6.28053,1.67713 -6.28053,5.93071 0,1.82916 0.25873,2.4974 1.4144,3.65306 1.47286,1.47286 1.77831,1.56529 5.3598,1.62191 1.92959,0.0305 2.19641,0.16901 2.34434,1.21698 0.1026,0.72692 -0.16608,1.42606 -0.69732,1.81452 -1.29808,0.94918 -5.95851,0.79305 -7.93277,-0.26576 z m 10.9861,0.59806 c -0.19003,-0.19003 -0.34551,-3.12905 -0.34551,-6.53115 0,-5.22193 0.12324,-6.2546 0.79103,-6.62832 0.7108,-0.39778 0.68626,-0.54746 -0.24193,-1.47565 -1.26536,-1.26536 -1.30427,-2.08908 -0.1481,-3.1354 1.21274,-1.09751 2.30517,-1.00379 3.20059,0.27461 0.97383,1.39034 0.95252,1.62854 -0.25356,2.83462 -0.91158,0.91158 -0.93301,1.06076 -0.22661,1.5773 0.66136,0.48359 0.75943,1.52785 0.6439,6.85609 l -0.13629,6.28561 -1.46901,0.1439 c -0.80795,0.0791 -1.62448,-0.0116 -1.81451,-0.20161 z m 20.20002,-0.30113 c -0.13983,-0.36441 -0.19277,-3.37227 -0.11763,-6.68413 l 0.13661,-6.02154 2.17742,-0.11975 c 1.19758,-0.0659 3.09724,-0.25151 4.22146,-0.41254 1.82719,-0.26174 2.20104,-0.13579 3.52411,1.18728 l 1.48007,1.48008 -0.13701,5.46472 -0.13702,5.46472 -1.3991,0.15972 c -0.79468,0.0907 -1.57538,-0.11833 -1.80711,-0.48387 -0.2244,-0.35398 -0.41134,-2.42441 -0.41541,-4.60096 -0.008,-4.442 -0.72858,-5.90308 -2.45465,-4.97932 -1.1373,0.60867 -1.38619,1.62075 -1.54323,6.2754 l -0.12243,3.62903 -1.57591,0.15188 c -1.00219,0.0966 -1.66847,-0.0893 -1.83017,-0.51072 z m 15.04138,-0.82288 c -1.20507,-1.26168 -1.45835,-1.96934 -1.61497,-4.51215 -0.15728,-2.5535 -0.0109,-3.27541 0.95499,-4.70935 1.66668,-2.47436 3.91344,-3.47837 7.29801,-3.26129 1.5342,0.0984 2.98244,0.38253 3.2183,0.63139 0.23586,0.24886 0.5048,3.28312 0.59763,6.7428 l 0.1688,6.29032 -1.69355,-0.10693 c -2.23699,-0.14124 -2.27887,-0.13991 -5.08064,0.16138 -2.23175,0.24 -2.53018,0.14414 -3.84857,-1.23617 z m 6.03796,-3.20462 c 0.74946,-1.97121 0.59312,-5.51687 -0.25764,-5.84334 -2.13835,-0.82056 -4.24146,2.98155 -3.1855,5.75891 0.68679,1.80642 2.76904,1.85748 3.44314,0.0844 z m 7.8086,3.71938 c -0.35595,-0.22562 -0.57369,-0.92995 -0.48387,-1.56518 0.12242,-0.86582 0.46613,-1.15495 1.37298,-1.15495 0.90684,0 1.25056,0.28913 1.37298,1.15495 0.21999,1.55593 -0.97367,2.38185 -2.26209,1.56518 z"
         id="path74"
         inkscape:connector-curvature="0" />
      <path
         style="fill:#a4d9a0;stroke-width:0.48387095"
         d="m 86.108419,135.04695 c 0.24003,-5.82573 -0.404117,-8.74803 -2.577669,-11.69411 -2.248425,-3.04757 -0.999601,-3.3691 1.771471,-0.4561 2.500451,2.62852 3.533497,6.21792 3.193499,11.09607 -0.265205,3.80505 -1.076175,6.3144 -2.040684,6.3144 -0.407294,0 -0.503311,-1.45715 -0.346617,-5.26026 z m 4.587409,3.44575 c -0.514775,-1.1924 -0.786406,-3.22465 -0.792262,-5.92742 -0.01032,-4.76346 0.965587,-7.50243 3.577412,-10.04032 2.745382,-2.66767 3.214095,-1.91833 0.991879,1.58574 -2.04532,3.22514 -2.650509,6.33087 -2.274896,11.6744 0.348441,4.95698 -0.146161,5.84851 -1.502133,2.7076 z m 42.459132,-1.79825 c -1.06522,-1.28351 -0.32944,-1.92395 2.04276,-1.77808 1.73063,0.10643 2.45404,-0.0872 3.2319,-0.86505 1.67496,-1.67497 1.32031,-2.51609 -0.91048,-2.15938 -1.05195,0.16822 -2.47402,0.16494 -3.16016,-0.007 -2.77985,-0.69769 -4.04757,-5.75571 -2.34293,-9.34797 1.32058,-2.78292 5.81008,-4.29029 9.07778,-3.04791 l 1.24118,0.47189 -0.002,6.6652 c -0.001,5.80792 -0.12608,6.86902 -0.96797,8.24985 -0.53138,0.87155 -1.52458,1.79695 -2.20711,2.05645 -1.88202,0.71554 -5.32518,0.57919 -6.00316,-0.23773 z m 5.52358,-8.1078 c 1.02385,-1.46176 1.04321,-6.58563 0.0264,-6.97584 -1.32254,-0.50751 -3.11563,0.30236 -3.86108,1.7439 -1.47307,2.84856 -0.41652,6.30734 1.92666,6.30734 0.64482,0 1.48746,-0.47492 1.90805,-1.0754 z m -66.50482,7.16279 c 0,-0.64991 5.126596,-2.64278 8.638896,-3.35822 3.821905,-0.7785 5.042682,-0.63296 4.81034,0.5735 -0.106506,0.55304 -1.404698,0.99386 -4.741497,1.61006 -7.20793,1.33108 -8.707739,1.5334 -8.707739,1.17466 z m 31.06809,-0.12439 c -0.344,-0.13802 -2.73916,-0.61234 -5.322578,-1.05406 -4.100091,-0.70105 -4.697124,-0.92568 -4.697124,-1.76732 0,-0.84493 0.26934,-0.94353 2.177419,-0.79708 2.837753,0.2178 9.395623,2.29741 10.163913,3.22314 0.50402,0.6073 0.41652,0.71655 -0.54822,0.68444 -0.63137,-0.021 -1.42941,-0.15111 -1.77341,-0.28912 z m 11.00934,-4.65787 c -5.8035,-3.06897 -5.76118,-12.59009 0.0694,-15.60519 1.83917,-0.95107 7.17638,-1.04371 7.75207,-0.13455 0.76027,1.20065 0.1136,1.6114 -2.92185,1.85591 -2.62256,0.21125 -3.20741,0.4451 -4.37145,1.74789 -4.01003,4.488 -0.47844,11.56864 5.3085,10.64327 1.4169,-0.22657 1.89003,-0.11671 2.12408,0.49322 0.88686,2.3111 -4.25872,2.95711 -7.96072,0.99945 z m 11.37145,0.51374 c -0.14106,-0.3676 -0.19452,-3.15908 -0.11881,-6.20329 l 0.13767,-5.53493 h 1.20968 1.20968 v 6.04839 c 0,5.90756 -0.0254,6.05199 -1.09088,6.20329 -0.6028,0.0856 -1.20562,-0.14413 -1.34734,-0.51346 z m 20.4425,0.29832 c -0.18865,-0.18865 -0.34299,-2.92644 -0.34299,-6.08399 0,-4.86378 0.12069,-5.7873 0.7899,-6.0441 0.43445,-0.16672 1.15462,-0.0754 1.60038,0.20304 0.58478,0.3652 1.13961,0.32386 1.99236,-0.14843 1.85801,-1.02905 3.31614,-0.80647 4.86527,0.74267 1.4231,1.42309 1.43073,1.46094 1.29343,6.41129 -0.13736,4.95232 -0.14478,4.97975 -1.34779,4.97975 -1.18989,0 -1.21199,-0.071 -1.35103,-4.33925 -0.18003,-5.52729 -1.31936,-7.15793 -3.7581,-5.37874 -0.77791,0.56752 -0.98082,1.46106 -1.1812,5.20161 -0.21877,4.0841 -0.33647,4.52992 -1.22959,4.65776 -0.5432,0.0778 -1.14199,-0.013 -1.33064,-0.20161 z m 15.31523,-0.40437 c -1.53202,-1.07306 -2.26298,-3.3359 -1.99121,-6.16421 0.2014,-2.09607 0.52077,-2.7614 1.95749,-4.07806 1.9544,-1.79108 4.51741,-2.45104 7.06937,-1.82033 l 1.74161,0.43043 0.24194,5.73545 c 0.13306,3.1545 0.0987,5.96545 -0.0763,6.24657 -0.21871,0.3513 -0.79451,0.31383 -1.84144,-0.11982 -1.14358,-0.47369 -1.66123,-0.49294 -2.07694,-0.0772 -0.78091,0.7809 -3.82359,0.68837 -5.02454,-0.15281 z m 5.40453,-2.87651 c 1.12956,-1.72393 0.81258,-6.74543 -0.44087,-6.98417 -2.12004,-0.4038 -4.17027,1.895 -4.17027,4.67587 0,3.10736 3.07799,4.64818 4.61114,2.3083 z m -88.051895,-3.63135 c -0.149634,-0.24211 -0.154071,-0.74768 -0.0099,-1.12349 0.160112,-0.41725 -0.21607,-0.9012 -0.966172,-1.24297 -1.424572,-0.64908 -1.598097,-1.772 -0.381599,-2.46941 0.780603,-0.44752 0.759546,-0.54758 -0.269467,-1.28045 -1.417697,-1.00968 -1.263165,-2.81587 0.259432,-3.03227 1.035124,-0.14711 1.046761,-0.20201 0.288238,-1.35966 -0.711211,-1.08545 -0.715863,-1.28094 -0.04642,-1.95038 0.589069,-0.58907 0.957321,-0.62987 1.768213,-0.19589 0.955976,0.51162 1.024195,0.4306 1.024195,-1.21629 0,-1.74596 0.01729,-1.76118 1.651941,-1.45452 1.422914,0.26694 1.620955,0.19055 1.428442,-0.55099 -0.122924,-0.47349 0.113686,-1.29638 0.525801,-1.82864 0.742571,-0.95905 0.758403,-0.95697 1.763099,0.23185 0.986243,1.16699 1.032268,1.17434 1.693226,0.27042 0.373685,-0.51104 0.679426,-1.10529 0.679426,-1.32055 0,-0.94885 1.99956,-0.2963 2.507397,0.81828 0.669518,1.46943 0.905473,1.49352 2.008729,0.20501 0.688681,-0.80432 0.999609,-0.889 1.559149,-0.42463 0.384405,0.31903 0.698919,1.07542 0.698919,1.68086 0,0.93399 0.238309,1.09 1.572581,1.02946 1.472777,-0.0668 1.568274,0.0264 1.504732,1.46907 -0.06081,1.38071 0.03953,1.50078 0.967742,1.15818 0.569574,-0.21022 1.307771,-0.28647 1.640431,-0.16944 0.72182,0.25394 0.80727,1.8854 0.12097,2.30956 -0.823209,0.50877 -0.53404,1.20968 0.49905,1.20968 1.48992,0 1.71022,1.33973 0.44225,2.68943 -1.044,1.11129 -1.062,1.22852 -0.27682,1.80266 1.08588,0.79402 0.57141,2.19636 -0.94543,2.57706 -0.808306,0.20287 -1.110798,0.59043 -1.035338,1.32647 0.09077,0.88544 -0.143904,1.03986 -1.580313,1.03986 -1.983545,0 -2.769964,-1.56766 -1.016455,-2.02621 0.658477,-0.1722 1.009826,-0.65539 1.009826,-1.38877 0,-0.61857 0.231924,-1.26802 0.51539,-1.44321 0.339407,-0.20977 0.243624,-0.61883 -0.2805,-1.19798 -0.614913,-0.67947 -0.678503,-1.09881 -0.279648,-1.84407 0.809395,-1.51237 -0.324329,-3.22879 -2.132662,-3.22879 -1.187923,0 -1.477418,-0.21974 -1.593674,-1.20968 -0.08774,-0.74709 -0.62742,-1.43812 -1.411287,-1.80705 -1.110034,-0.52244 -1.353586,-0.47693 -1.941828,0.3629 -0.851188,1.21525 -1.498291,1.21087 -2.80741,-0.019 -0.933978,-0.87742 -1.175477,-0.91021 -2.32225,-0.31525 -0.70393,0.3652 -1.154416,0.78946 -1.00108,0.94279 0.153337,0.15334 0.128527,0.75225 -0.05513,1.33091 -0.265179,0.8355 -0.622936,1.00969 -1.737729,0.84607 -0.772091,-0.11332 -1.403802,-0.0416 -1.403802,0.15947 0,0.20103 -0.356164,0.72167 -0.791475,1.15698 -0.590702,0.59071 -0.652073,0.93088 -0.241935,1.34102 0.80176,0.80176 0.671611,2.14109 -0.242132,2.49173 -0.72966,0.27999 -0.728078,0.37406 0.02019,1.20088 0.446522,0.4934 0.748339,1.12672 0.670704,1.40737 -0.07764,0.28066 0.275272,0.82078 0.784238,1.20027 1.315072,0.98054 0.674369,2.28154 -1.123586,2.28154 -0.791034,0 -1.560671,-0.19809 -1.710305,-0.4402 z m 8.703822,-0.69419 c -1.1985,-0.87636 -0.64594,-3.06674 0.957994,-3.79754 0.981881,-0.44738 1.366878,-0.38807 2.164071,0.33338 2.545807,2.30393 -0.335934,5.50143 -3.122065,3.46416 z m -4.016998,-4.7215 c -1.435498,-0.5336 -2.445681,-2.65417 -1.64554,-3.45431 0.430326,-0.43033 0.929907,-0.44004 1.993017,-0.0388 1.396122,0.52697 1.421084,0.50741 1.565823,-1.22712 0.115725,-1.38684 0.372214,-1.79468 1.203054,-1.91296 0.708013,-0.10079 1.247797,0.21809 1.638123,0.96775 0.845965,1.62474 0.830743,1.62298 1.931023,0.2242 0.555301,-0.70595 1.405713,-1.28355 1.889805,-1.28355 0.963189,0 1.659936,1.8425 1.174813,3.10671 -0.348478,0.90812 -0.01386,0.9648 1.204347,0.20402 1.170194,-0.7308 2.476886,-0.20651 2.476886,0.9938 0,1.42997 -2.290526,3.05653 -3.43881,2.44199 -0.503816,-0.26964 -0.916029,-0.82387 -0.916029,-1.23164 0,-0.50242 -0.289907,-0.64937 -0.899427,-0.45592 -0.522701,0.1659 -1.159772,-0.0282 -1.520992,-0.46347 -0.560049,-0.67482 -0.70704,-0.67158 -1.485251,0.0327 -0.538299,0.48715 -1.241342,0.66176 -1.866105,0.46347 -0.781282,-0.24797 -1.002418,-0.10889 -1.002418,0.63043 0,1.16638 -0.857378,1.53978 -2.302319,1.00267 z m 42.076511,-2.46669 c -0.76522,-0.76522 -0.73287,-1.13348 0.17973,-2.04608 0.95475,-0.95476 1.39529,-0.95494 2.34927,-9.7e-4 0.57323,0.57324 0.63684,0.98843 0.25947,1.69355 -0.56368,1.05326 -1.91713,1.22484 -2.78847,0.3535 z"
         id="path72"
         inkscape:connector-curvature="0" />
      <path
         style="fill:#5baad8;stroke-width:0.48387095"
         d="m 86.108419,135.04695 c 0.24003,-5.82573 -0.404117,-8.74803 -2.577669,-11.69411 -2.248425,-3.04757 -0.999601,-3.3691 1.771471,-0.4561 2.500451,2.62852 3.533497,6.21792 3.193499,11.09607 -0.265205,3.80505 -1.076175,6.3144 -2.040684,6.3144 -0.407294,0 -0.503311,-1.45715 -0.346617,-5.26026 z m 4.587409,3.44575 c -0.514775,-1.1924 -0.786406,-3.22465 -0.792262,-5.92742 -0.01032,-4.76346 0.965587,-7.50243 3.577412,-10.04032 2.745382,-2.66767 3.214095,-1.91833 0.991879,1.58574 -2.04532,3.22514 -2.650509,6.33087 -2.274896,11.6744 0.348441,4.95698 -0.146161,5.84851 -1.502133,2.7076 z m 42.459132,-1.79825 c -1.06522,-1.28351 -0.32944,-1.92395 2.04276,-1.77808 1.73063,0.10643 2.45404,-0.0872 3.2319,-0.86505 1.67496,-1.67497 1.32031,-2.51609 -0.91048,-2.15938 -1.05195,0.16822 -2.47402,0.16494 -3.16016,-0.007 -2.77985,-0.69769 -4.04757,-5.75571 -2.34293,-9.34797 1.32058,-2.78292 5.81008,-4.29029 9.07778,-3.04791 l 1.24118,0.47189 -0.002,6.6652 c -0.001,5.80792 -0.12608,6.86902 -0.96797,8.24985 -0.53138,0.87155 -1.52458,1.79695 -2.20711,2.05645 -1.88202,0.71554 -5.32518,0.57919 -6.00316,-0.23773 z m 5.52358,-8.1078 c 1.02385,-1.46176 1.04321,-6.58563 0.0264,-6.97584 -1.32254,-0.50751 -3.11563,0.30236 -3.86108,1.7439 -1.47307,2.84856 -0.41652,6.30734 1.92666,6.30734 0.64482,0 1.48746,-0.47492 1.90805,-1.0754 z m -59.00482,4.69089 c 2.238191,-0.73766 5.080646,-0.90313 5.080646,-0.29579 0,0.22906 -1.143146,0.55378 -2.540323,0.7216 -3.798302,0.45623 -4.738469,0.29864 -2.540323,-0.42581 z m 15.967742,0.38768 c -0.798387,-0.11366 -1.658467,-0.40765 -1.91129,-0.6533 -0.682409,-0.66306 2.535377,-0.48553 4.814516,0.26562 l 1.935482,0.63788 -1.693546,-0.0218 c -0.931452,-0.012 -2.346775,-0.11476 -3.145162,-0.22843 z m 18.609688,-2.69804 c -5.8035,-3.06897 -5.76118,-12.59009 0.0694,-15.60519 1.83917,-0.95107 7.17638,-1.04371 7.75207,-0.13455 0.76027,1.20065 0.1136,1.6114 -2.92185,1.85591 -2.62256,0.21125 -3.20741,0.4451 -4.37145,1.74789 -4.01003,4.488 -0.47844,11.56864 5.3085,10.64327 1.4169,-0.22657 1.89003,-0.11671 2.12408,0.49322 0.88686,2.3111 -4.25872,2.95711 -7.96072,0.99945 z m 11.37145,0.51374 c -0.14106,-0.3676 -0.19452,-3.15908 -0.11881,-6.20329 l 0.13767,-5.53493 h 1.20968 1.20968 v 6.04839 c 0,5.90756 -0.0254,6.05199 -1.09088,6.20329 -0.6028,0.0856 -1.20562,-0.14413 -1.34734,-0.51346 z m 20.4425,0.29832 c -0.18865,-0.18865 -0.34299,-2.92644 -0.34299,-6.08399 0,-4.86378 0.12069,-5.7873 0.7899,-6.0441 0.43445,-0.16672 1.15462,-0.0754 1.60038,0.20304 0.58478,0.3652 1.13961,0.32386 1.99236,-0.14843 1.85801,-1.02905 3.31614,-0.80647 4.86527,0.74267 1.4231,1.42309 1.43073,1.46094 1.29343,6.41129 -0.13736,4.95232 -0.14478,4.97975 -1.34779,4.97975 -1.18989,0 -1.21199,-0.071 -1.35103,-4.33925 -0.18003,-5.52729 -1.31936,-7.15793 -3.7581,-5.37874 -0.77791,0.56752 -0.98082,1.46106 -1.1812,5.20161 -0.21877,4.0841 -0.33647,4.52992 -1.22959,4.65776 -0.5432,0.0778 -1.14199,-0.013 -1.33064,-0.20161 z m 15.31523,-0.40437 c -1.53202,-1.07306 -2.26298,-3.3359 -1.99121,-6.16421 0.2014,-2.09607 0.52077,-2.7614 1.95749,-4.07806 1.9544,-1.79108 4.51741,-2.45104 7.06937,-1.82033 l 1.74161,0.43043 0.24194,5.73545 c 0.13306,3.1545 0.0987,5.96545 -0.0763,6.24657 -0.21871,0.3513 -0.79451,0.31383 -1.84144,-0.11982 -1.14358,-0.47369 -1.66123,-0.49294 -2.07694,-0.0772 -0.78091,0.7809 -3.82359,0.68837 -5.02454,-0.15281 z m 5.40453,-2.87651 c 1.12956,-1.72393 0.81258,-6.74543 -0.44087,-6.98417 -2.12004,-0.4038 -4.17027,1.895 -4.17027,4.67587 0,3.10736 3.07799,4.64818 4.61114,2.3083 z m -87.245679,-4.23914 c 0.249943,-0.74983 1.770485,-0.87597 1.949056,-0.16168 0.06653,0.26613 -0.393205,0.55663 -1.021637,0.64555 -0.783347,0.11085 -1.074946,-0.0413 -0.927419,-0.48387 z m 8.481314,0.0415 c -1.711223,-0.99669 -0.879961,-3.83221 1.123454,-3.83221 1.91489,0 2.741232,1.56108 1.682039,3.17761 -0.833658,1.27233 -1.484289,1.42414 -2.805493,0.6546 z m 8.830645,-0.23865 c 0,-0.4506 0.329211,-0.69744 0.806676,-0.60484 1.213921,0.23543 1.380604,1.36612 0.201387,1.36612 -0.594355,0 -1.008063,-0.31243 -1.008063,-0.76128 z m -19.598886,-2.62923 c -0.37851,-0.61244 0.968539,-1.16121 1.937595,-0.78934 0.399194,0.15318 0.725807,0.50309 0.725807,0.77757 0,0.64294 -2.267124,0.65296 -2.663402,0.0118 z m 21.168462,-0.11755 c 0.308342,-0.93904 2.785264,-1.07519 2.785264,-0.15311 0,0.52414 -0.46024,0.75795 -1.491935,0.75795 -0.976892,0 -1.423375,-0.2088 -1.293329,-0.60484 z m -20.816751,-3.05163 c -2.094551,-1.46708 -0.533787,-2.85753 1.622002,-1.44501 0.997919,0.65386 1.126597,0.946 0.662823,1.50482 -0.725098,0.87369 -0.960882,0.86751 -2.284825,-0.0598 z m 5.311691,0.1726 c -0.67494,-0.67494 -0.781619,-2.32258 -0.150379,-2.32258 0.873365,0 2.618561,1.7923 2.279456,2.34099 -0.448643,0.72592 -1.392914,0.71775 -2.129077,-0.0184 z m 10.548387,-0.37008 c 0,-1.192 1.809979,-2.27156 2.556644,-1.52489 0.367104,0.3671 0.260021,0.80151 -0.368878,1.49644 -1.126366,1.24462 -2.187766,1.25842 -2.187766,0.0285 z m 5.161292,0.62814 c -0.697703,-0.6977 -0.260439,-1.66048 0.965889,-2.12673 1.908446,-0.72559 2.706246,0.28372 1.198246,1.51592 -1.223006,0.99933 -1.65398,1.12097 -2.164135,0.61081 z m 26.870965,-1.70968 c -0.76522,-0.76522 -0.73287,-1.13348 0.17973,-2.04608 0.95475,-0.95476 1.39529,-0.95494 2.34927,-9.7e-4 0.57323,0.57324 0.63684,0.98843 0.25947,1.69355 -0.56368,1.05326 -1.91713,1.22484 -2.78847,0.3535 z m -39.273297,-0.83915 c -0.641015,-1.19775 -0.639303,-2.30851 0.0042,-2.7062 0.83091,-0.51353 1.914298,0.75972 1.914298,2.24976 0,1.62625 -1.146419,1.89901 -1.918459,0.45644 z m 4.176524,0.61335 c -0.601218,-0.60122 -0.326591,-1.94316 0.562294,-2.74759 1.202632,-1.08837 1.53448,-1.0085 1.53448,0.3693 0,2.22903 -1.05237,3.42269 -2.096774,2.37829 z m -11.572581,-2.15096 c -1.005285,-0.56721 -1.131164,-1.8813 -0.180215,-1.8813 0.366608,0 0.945283,0.33584 1.285945,0.74631 0.809458,0.97534 0.02976,1.77568 -1.10573,1.13499 z m 19.277928,0.12547 c -0.476468,-0.77094 0.976872,-2.18274 1.887319,-1.83337 0.825507,0.31678 0.825287,0.37081 -0.005,1.2883 -0.937292,1.03569 -1.481652,1.19333 -1.882297,0.54507 z m -16.468232,-2.11443 c -0.879385,-1.2555 -0.960279,-2.12663 -0.238883,-2.57247 0.773829,-0.47826 2.388865,1.22083 2.388865,2.51319 0,1.44722 -1.155512,1.47908 -2.149982,0.0593 z m 13.117724,0.75282 c -0.588116,-0.58811 -0.335032,-1.60045 0.645161,-2.58064 1.24164,-1.24164 1.935484,-1.23024 1.935484,0.0318 0,2.04718 -1.550707,3.57877 -2.580645,2.54883 z m -6.364347,-2.40121 c -0.58171,-0.58171 -0.735361,-1.25348 -0.526062,-2.29997 0.424324,-2.12162 1.157195,-2.68381 2.003628,-1.53698 1.568115,2.12463 0.245274,5.55979 -1.477566,3.83695 z m -3.796944,-0.98589 c -0.497798,-0.49779 -0.381361,-2.58064 0.144266,-2.58064 0.647748,0 1.577819,1.85123 1.220522,2.42935 -0.33974,0.54971 -0.903836,0.61225 -1.364788,0.15129 z m 7.903226,-0.85854 c 0,-0.64961 0.236715,-1.32741 0.526032,-1.50622 0.81009,-0.50066 1.543444,0.53516 1.182976,1.6709 -0.450637,1.41983 -1.709008,1.29858 -1.709008,-0.16468 z"
         id="path70"
         inkscape:connector-curvature="0" />
      <path
         style="fill:#c3b657;stroke-width:0.48387095"
         d="m 90.980308,138.00883 c -0.342816,-0.99799 -0.601391,-3.55645 -0.574611,-5.68549 0.05526,-4.39364 1.130971,-7.46158 3.308339,-9.43548 0.733904,-0.66532 1.239627,-0.99194 1.123827,-0.72581 -0.1158,0.26613 -0.853331,1.79033 -1.638957,3.3871 -1.342325,2.72826 -1.426979,3.24587 -1.404649,8.58871 0.01307,3.12701 -0.02448,5.68548 -0.08344,5.68548 -0.05896,0 -0.38769,-0.81653 -0.730506,-1.81451 z M 86.447914,133.611 c 0,-5.50957 -0.05982,-5.84447 -1.565563,-8.76404 -1.432391,-2.77735 -1.473551,-2.97453 -0.483871,-2.31809 0.594931,0.39461 1.626047,1.77368 2.291369,3.0646 1.027698,1.99403 1.209678,3.00435 1.209678,6.71592 0,4.3393 -0.420235,7.03008 -1.097928,7.03008 -0.194527,0 -0.353685,-2.57781 -0.353685,-5.72847 z m 47.016126,2.98653 c -0.7706,-0.7706 -0.17478,-1.12903 1.87683,-1.12903 2.57029,0 4.57479,-1.58047 4.57479,-3.60704 0,-1.23545 -1.0937,-1.71838 -1.69355,-0.74779 -0.16448,0.26612 -1.15717,0.48387 -2.20598,0.48387 -3.24298,0 -4.68457,-2.29271 -4.1916,-6.66633 0.42693,-3.78773 4.0088,-6.03167 8.33306,-5.22044 l 1.69355,0.31772 v 6.28393 c 0,7.08525 -0.59374,9.33775 -2.66939,10.1269 -1.42915,0.54337 -5.22746,0.64847 -5.71771,0.15821 z m 5.20665,-7.21125 c 1.01857,-1.01857 1.33547,-2.46595 1.15414,-5.27124 -0.17157,-2.65422 -1.00096,-3.47933 -2.99445,-2.979 -1.95646,0.49104 -3.30609,2.97527 -3.03875,5.59336 0.31815,3.11568 2.97402,4.56192 4.87906,2.65688 z m -58.99697,3.89126 c 2.238191,-0.73766 5.080646,-0.90313 5.080646,-0.29579 0,0.22906 -1.143146,0.55378 -2.540323,0.7216 -3.798302,0.45623 -4.738469,0.29864 -2.540323,-0.42581 z m 15.967742,0.38768 c -0.798387,-0.11366 -1.658467,-0.40765 -1.91129,-0.6533 -0.682409,-0.66306 2.535377,-0.48553 4.814516,0.26562 l 1.935482,0.63788 -1.693546,-0.0218 c -0.931452,-0.012 -2.346775,-0.11476 -3.145162,-0.22843 z m 19.354838,-2.75074 c -4.16892,-1.85289 -5.89145,-7.46288 -3.64407,-11.8681 1.44808,-2.83848 3.65839,-3.9793 7.36864,-3.80324 3.72157,0.17661 3.83751,1.01921 0.18685,1.35788 -2.07279,0.19229 -2.96746,0.55391 -4.13294,1.6705 -2.94112,2.81778 -2.9397,7.65018 0.003,10.12628 1.53483,1.29147 4.27908,2.05744 5.58115,1.55779 1.12833,-0.43298 1.81044,0.14405 1.13391,0.95922 -0.7203,0.8679 -4.54345,0.86772 -6.49651,-3.3e-4 z m 11.21976,0.37056 c -0.18297,-0.18297 -0.33266,-2.80041 -0.33266,-5.81654 0,-5.18984 0.0527,-5.48387 0.9831,-5.48387 0.93983,0 0.97709,0.24846 0.84677,5.64601 -0.12636,5.23317 -0.50153,6.65007 -1.49721,5.6544 z m 20.3125,-0.0101 c -0.17742,-0.17742 -0.32258,-2.79033 -0.32258,-5.80646 0,-4.177 0.1499,-5.48387 0.62903,-5.48387 0.34597,0 0.8653,0.23628 1.15408,0.52505 0.37748,0.37748 0.94189,0.30949 2.00823,-0.24193 2.07061,-1.07076 3.3187,-0.959 4.69839,0.4207 1.1045,1.10449 1.18769,1.53061 1.18769,6.08386 0,4.40187 -0.0855,4.87991 -0.84678,4.73497 -0.71283,-0.13571 -0.88504,-0.87486 -1.08871,-4.67283 -0.20033,-3.7358 -0.40344,-4.62944 -1.18119,-5.19684 -1.32648,-0.96773 -2.07711,-0.85802 -3.43757,0.50245 -1.07569,1.07568 -1.18769,1.5776 -1.18769,5.32258 0,3.12317 -0.15786,4.1349 -0.64516,4.1349 -0.35484,0 -0.79032,-0.14516 -0.96774,-0.32258 z m 15.27208,-10e-4 c -1.0458,-0.42077 -2.04636,-2.91461 -2.04446,-5.09567 0.004,-4.22213 3.28089,-7.03303 7.62846,-6.543 1.15222,0.12987 2.18048,0.32166 2.28502,0.4262 0.10453,0.10454 0.22968,2.67952 0.27812,5.7222 0.0594,3.73539 -0.0885,5.59099 -0.45566,5.71336 -0.29903,0.0997 -0.67598,-0.16348 -0.83765,-0.58481 -0.37063,-0.96585 -1.34247,-0.98424 -2.12591,-0.0402 -0.57843,0.69696 -3.39877,0.93674 -4.72792,0.40195 z m 4.93457,-1.8874 c 1.03627,-1.03628 1.32909,-2.4468 1.15258,-5.55201 -0.1191,-2.09524 -0.32975,-2.66518 -1.0346,-2.79925 -3.53206,-0.67185 -6.40911,3.90453 -4.60703,7.32819 0.30597,0.5813 0.79589,1.21687 1.08871,1.4124 0.90301,0.60295 2.60266,0.40835 3.40034,-0.38933 z m -87.196029,-5.12708 c 0.249943,-0.74983 1.770485,-0.87597 1.949056,-0.16168 0.06653,0.26613 -0.393205,0.55663 -1.021637,0.64555 -0.783347,0.11085 -1.074946,-0.0413 -0.927419,-0.48387 z m 8.481314,0.0415 c -1.711223,-0.99669 -0.879961,-3.83221 1.123454,-3.83221 1.91489,0 2.741232,1.56108 1.682039,3.17761 -0.833658,1.27233 -1.484289,1.42414 -2.805493,0.6546 z m 8.830645,-0.23865 c 0,-0.4506 0.329211,-0.69744 0.806676,-0.60484 1.213921,0.23543 1.380604,1.36612 0.201387,1.36612 -0.594355,0 -1.008063,-0.31243 -1.008063,-0.76128 z m -19.598886,-2.62923 c -0.37851,-0.61244 0.968539,-1.16121 1.937595,-0.78934 0.399194,0.15318 0.725807,0.50309 0.725807,0.77757 0,0.64294 -2.267124,0.65296 -2.663402,0.0118 z m 21.168462,-0.11755 c 0.308342,-0.93904 2.785264,-1.07519 2.785264,-0.15311 0,0.52414 -0.46024,0.75795 -1.491935,0.75795 -0.976892,0 -1.423375,-0.2088 -1.293329,-0.60484 z M 77.603965,118.2639 c -2.094551,-1.46708 -0.533787,-2.85753 1.622002,-1.44501 0.997919,0.65386 1.126597,0.946 0.662823,1.50482 -0.725098,0.87369 -0.960882,0.86751 -2.284825,-0.0598 z m 5.311691,0.1726 c -0.67494,-0.67494 -0.781619,-2.32258 -0.150379,-2.32258 0.873365,0 2.618561,1.7923 2.279456,2.34099 -0.448643,0.72592 -1.392914,0.71775 -2.129077,-0.0184 z m 10.548387,-0.37008 c 0,-1.192 1.809979,-2.27156 2.556644,-1.52489 0.367104,0.3671 0.260021,0.80151 -0.368878,1.49644 -1.126366,1.24462 -2.187766,1.25842 -2.187766,0.0285 z m 5.161292,0.62814 c -0.697703,-0.6977 -0.260439,-1.66048 0.965889,-2.12673 1.908446,-0.72559 2.706246,0.28372 1.198246,1.51592 -1.223006,0.99933 -1.65398,1.12097 -2.164135,0.61081 z m -12.402332,-2.54883 c -0.641015,-1.19775 -0.639303,-2.30851 0.0042,-2.7062 0.83091,-0.51353 1.914298,0.75972 1.914298,2.24976 0,1.62625 -1.146419,1.89901 -1.918459,0.45644 z m 4.176524,0.61335 c -0.601218,-0.60122 -0.326591,-1.94316 0.562294,-2.74759 1.202632,-1.08837 1.53448,-1.0085 1.53448,0.3693 0,2.22903 -1.05237,3.42269 -2.096774,2.37829 z m 35.213233,-0.20773 c -0.42658,-0.69022 0.9856,-2.10239 1.67582,-1.67581 0.92212,0.56991 0.61886,2.20612 -0.40888,2.20612 -0.51655,0 -1.08667,-0.23864 -1.26694,-0.53031 z m -46.785814,-1.94323 c -1.005285,-0.56721 -1.131164,-1.8813 -0.180215,-1.8813 0.366608,0 0.945283,0.33584 1.285945,0.74631 0.809458,0.97534 0.02976,1.77568 -1.10573,1.13499 z m 19.277928,0.12547 c -0.476468,-0.77094 0.976872,-2.18274 1.887319,-1.83337 0.825507,0.31678 0.825287,0.37081 -0.005,1.2883 -0.937292,1.03569 -1.481652,1.19333 -1.882297,0.54507 z m -16.468232,-2.11443 c -0.879385,-1.2555 -0.960279,-2.12663 -0.238883,-2.57247 0.773829,-0.47826 2.388865,1.22083 2.388865,2.51319 0,1.44722 -1.155512,1.47908 -2.149982,0.0593 z m 13.117724,0.75282 c -0.588116,-0.58811 -0.335032,-1.60045 0.645161,-2.58064 1.24164,-1.24164 1.935484,-1.23024 1.935484,0.0318 0,2.04718 -1.550707,3.57877 -2.580645,2.54883 z m -6.364347,-2.40121 c -0.58171,-0.58171 -0.735361,-1.25348 -0.526062,-2.29997 0.424324,-2.12162 1.157195,-2.68381 2.003628,-1.53698 1.568115,2.12463 0.245274,5.55979 -1.477566,3.83695 z m -3.796944,-0.98589 c -0.497798,-0.49779 -0.381361,-2.58064 0.144266,-2.58064 0.647748,0 1.577819,1.85123 1.220522,2.42935 -0.33974,0.54971 -0.903836,0.61225 -1.364788,0.15129 z m 7.903226,-0.85854 c 0,-0.64961 0.236715,-1.32741 0.526032,-1.50622 0.81009,-0.50066 1.543444,0.53516 1.182976,1.6709 -0.450637,1.41983 -1.709008,1.29858 -1.709008,-0.16468 z"
         id="path68"
         inkscape:connector-curvature="0" />
      <path
         style="fill:#64c05f;stroke-width:0.48387095"
         d="m 90.980308,138.00883 c -0.342816,-0.99799 -0.601391,-3.55645 -0.574611,-5.68549 0.05526,-4.39364 1.130971,-7.46158 3.308339,-9.43548 0.733904,-0.66532 1.239627,-0.99194 1.123827,-0.72581 -0.1158,0.26613 -0.853331,1.79033 -1.638957,3.3871 -1.342325,2.72826 -1.426979,3.24587 -1.404649,8.58871 0.01307,3.12701 -0.02448,5.68548 -0.08344,5.68548 -0.05896,0 -0.38769,-0.81653 -0.730506,-1.81451 z M 86.447914,133.611 c 0,-5.50957 -0.05982,-5.84447 -1.565563,-8.76404 -1.432391,-2.77735 -1.473551,-2.97453 -0.483871,-2.31809 0.594931,0.39461 1.626047,1.77368 2.291369,3.0646 1.027698,1.99403 1.209678,3.00435 1.209678,6.71592 0,4.3393 -0.420235,7.03008 -1.097928,7.03008 -0.194527,0 -0.353685,-2.57781 -0.353685,-5.72847 z m 47.016126,2.98653 c -0.7706,-0.7706 -0.17478,-1.12903 1.87683,-1.12903 2.57029,0 4.57479,-1.58047 4.57479,-3.60704 0,-1.23545 -1.0937,-1.71838 -1.69355,-0.74779 -0.16448,0.26612 -1.15717,0.48387 -2.20598,0.48387 -3.24298,0 -4.68457,-2.29271 -4.1916,-6.66633 0.42693,-3.78773 4.0088,-6.03167 8.33306,-5.22044 l 1.69355,0.31772 v 6.28393 c 0,7.08525 -0.59374,9.33775 -2.66939,10.1269 -1.42915,0.54337 -5.22746,0.64847 -5.71771,0.15821 z m 5.20665,-7.21125 c 1.01857,-1.01857 1.33547,-2.46595 1.15414,-5.27124 -0.17157,-2.65422 -1.00096,-3.47933 -2.99445,-2.979 -1.95646,0.49104 -3.30609,2.97527 -3.03875,5.59336 0.31815,3.11568 2.97402,4.56192 4.87906,2.65688 z m -58.99697,3.89126 c 2.238191,-0.73766 5.080646,-0.90313 5.080646,-0.29579 0,0.22906 -1.143146,0.55378 -2.540323,0.7216 -3.798302,0.45623 -4.738469,0.29864 -2.540323,-0.42581 z m 15.967742,0.38768 c -0.798387,-0.11366 -1.658467,-0.40765 -1.91129,-0.6533 -0.682409,-0.66306 2.535377,-0.48553 4.814516,0.26562 l 1.935482,0.63788 -1.693546,-0.0218 c -0.931452,-0.012 -2.346775,-0.11476 -3.145162,-0.22843 z m 19.354838,-2.75074 c -4.16892,-1.85289 -5.89145,-7.46288 -3.64407,-11.8681 1.44808,-2.83848 3.65839,-3.9793 7.36864,-3.80324 3.72157,0.17661 3.83751,1.01921 0.18685,1.35788 -2.07279,0.19229 -2.96746,0.55391 -4.13294,1.6705 -2.94112,2.81778 -2.9397,7.65018 0.003,10.12628 1.53483,1.29147 4.27908,2.05744 5.58115,1.55779 1.12833,-0.43298 1.81044,0.14405 1.13391,0.95922 -0.7203,0.8679 -4.54345,0.86772 -6.49651,-3.3e-4 z m 11.21976,0.37056 c -0.18297,-0.18297 -0.33266,-2.80041 -0.33266,-5.81654 0,-5.18984 0.0527,-5.48387 0.9831,-5.48387 0.93983,0 0.97709,0.24846 0.84677,5.64601 -0.12636,5.23317 -0.50153,6.65007 -1.49721,5.6544 z m 20.3125,-0.0101 c -0.17742,-0.17742 -0.32258,-2.79033 -0.32258,-5.80646 0,-4.177 0.1499,-5.48387 0.62903,-5.48387 0.34597,0 0.8653,0.23628 1.15408,0.52505 0.37748,0.37748 0.94189,0.30949 2.00823,-0.24193 2.07061,-1.07076 3.3187,-0.959 4.69839,0.4207 1.1045,1.10449 1.18769,1.53061 1.18769,6.08386 0,4.40187 -0.0855,4.87991 -0.84678,4.73497 -0.71283,-0.13571 -0.88504,-0.87486 -1.08871,-4.67283 -0.20033,-3.7358 -0.40344,-4.62944 -1.18119,-5.19684 -1.32648,-0.96773 -2.07711,-0.85802 -3.43757,0.50245 -1.07569,1.07568 -1.18769,1.5776 -1.18769,5.32258 0,3.12317 -0.15786,4.1349 -0.64516,4.1349 -0.35484,0 -0.79032,-0.14516 -0.96774,-0.32258 z m 15.27208,-10e-4 c -1.0458,-0.42077 -2.04636,-2.91461 -2.04446,-5.09567 0.004,-4.22213 3.28089,-7.03303 7.62846,-6.543 1.15222,0.12987 2.18048,0.32166 2.28502,0.4262 0.10453,0.10454 0.22968,2.67952 0.27812,5.7222 0.0594,3.73539 -0.0885,5.59099 -0.45566,5.71336 -0.29903,0.0997 -0.67598,-0.16348 -0.83765,-0.58481 -0.37063,-0.96585 -1.34247,-0.98424 -2.12591,-0.0402 -0.57843,0.69696 -3.39877,0.93674 -4.72792,0.40195 z m 4.93457,-1.8874 c 1.03627,-1.03628 1.32909,-2.4468 1.15258,-5.55201 -0.1191,-2.09524 -0.32975,-2.66518 -1.0346,-2.79925 -3.53206,-0.67185 -6.40911,3.90453 -4.60703,7.32819 0.30597,0.5813 0.79589,1.21687 1.08871,1.4124 0.90301,0.60295 2.60266,0.40835 3.40034,-0.38933 z m -87.196029,-5.12708 c 0.249943,-0.74983 1.770485,-0.87597 1.949056,-0.16168 0.06653,0.26613 -0.393205,0.55663 -1.021637,0.64555 -0.783347,0.11085 -1.074946,-0.0413 -0.927419,-0.48387 z M 96.85114,124.0623 c 0,-0.4506 0.329211,-0.69744 0.806676,-0.60484 1.213921,0.23543 1.380604,1.36612 0.201387,1.36612 -0.594355,0 -1.008063,-0.31243 -1.008063,-0.76128 z m -19.598886,-2.62923 c -0.37851,-0.61244 0.968539,-1.16121 1.937595,-0.78934 0.399194,0.15318 0.725807,0.50309 0.725807,0.77757 0,0.64294 -2.267124,0.65296 -2.663402,0.0118 z m 21.168462,-0.11755 c 0.308342,-0.93904 2.785264,-1.07519 2.785264,-0.15311 0,0.52414 -0.46024,0.75795 -1.491935,0.75795 -0.976892,0 -1.423375,-0.2088 -1.293329,-0.60484 z m -20.816751,-3.05163 c -2.094551,-1.46708 -0.533787,-2.85753 1.622002,-1.44501 0.997919,0.65386 1.126597,0.946 0.662823,1.50482 -0.725098,0.87369 -0.960882,0.86751 -2.284825,-0.0598 z m 5.311691,0.1726 c -0.67494,-0.67494 -0.781619,-2.32258 -0.150379,-2.32258 0.873365,0 2.618561,1.7923 2.279456,2.34099 -0.448643,0.72592 -1.392914,0.71775 -2.129077,-0.0184 z m 10.548387,-0.37008 c 0,-1.192 1.809979,-2.27156 2.556644,-1.52489 0.367104,0.3671 0.260021,0.80151 -0.368878,1.49644 -1.126366,1.24462 -2.187766,1.25842 -2.187766,0.0285 z m 5.161292,0.62814 c -0.697703,-0.6977 -0.260439,-1.66048 0.965889,-2.12673 1.908446,-0.72559 2.706246,0.28372 1.198246,1.51592 -1.223006,0.99933 -1.65398,1.12097 -2.164135,0.61081 z m -12.402332,-2.54883 c -0.641015,-1.19775 -0.639303,-2.30851 0.0042,-2.7062 0.83091,-0.51353 1.914298,0.75972 1.914298,2.24976 0,1.62625 -1.146419,1.89901 -1.918459,0.45644 z m 4.176524,0.61335 c -0.601218,-0.60122 -0.326591,-1.94316 0.562294,-2.74759 1.202632,-1.08837 1.53448,-1.0085 1.53448,0.3693 0,2.22903 -1.05237,3.42269 -2.096774,2.37829 z m 35.213233,-0.20773 c -0.42658,-0.69022 0.9856,-2.10239 1.67582,-1.67581 0.92212,0.56991 0.61886,2.20612 -0.40888,2.20612 -0.51655,0 -1.08667,-0.23864 -1.26694,-0.53031 z m -46.785814,-1.94323 c -1.005285,-0.56721 -1.131164,-1.8813 -0.180215,-1.8813 0.366608,0 0.945283,0.33584 1.285945,0.74631 0.809458,0.97534 0.02976,1.77568 -1.10573,1.13499 z m 19.277928,0.12547 c -0.476468,-0.77094 0.976872,-2.18274 1.887319,-1.83337 0.825507,0.31678 0.825287,0.37081 -0.005,1.2883 -0.937292,1.03569 -1.481652,1.19333 -1.882297,0.54507 z m -16.468232,-2.11443 c -0.879385,-1.2555 -0.960279,-2.12663 -0.238883,-2.57247 0.773829,-0.47826 2.388865,1.22083 2.388865,2.51319 0,1.44722 -1.155512,1.47908 -2.149982,0.0593 z m 13.117724,0.75282 c -0.588116,-0.58811 -0.335032,-1.60045 0.645161,-2.58064 1.24164,-1.24164 1.935484,-1.23024 1.935484,0.0318 0,2.04718 -1.550707,3.57877 -2.580645,2.54883 z m -6.364347,-2.40121 c -0.58171,-0.58171 -0.735361,-1.25348 -0.526062,-2.29997 0.424324,-2.12162 1.157195,-2.68381 2.003628,-1.53698 1.568115,2.12463 0.245274,5.55979 -1.477566,3.83695 z m -3.796944,-0.98589 c -0.497798,-0.49779 -0.381361,-2.58064 0.144266,-2.58064 0.647748,0 1.577819,1.85123 1.220522,2.42935 -0.33974,0.54971 -0.903836,0.61225 -1.364788,0.15129 z m 7.903226,-0.85854 c 0,-0.64961 0.236715,-1.32741 0.526032,-1.50622 0.81009,-0.50066 1.543444,0.53516 1.182976,1.6709 -0.450637,1.41983 -1.709008,1.29858 -1.709008,-0.16468 z"
         id="path66"
         inkscape:connector-curvature="0" />
      <path
         style="fill:#1589ca;stroke-width:0.48387095"
         d="m 90.980308,138.00883 c -0.342816,-0.99799 -0.601391,-3.55645 -0.574611,-5.68549 0.05526,-4.39364 1.130971,-7.46158 3.308339,-9.43548 0.733904,-0.66532 1.239627,-0.99194 1.123827,-0.72581 -0.1158,0.26613 -0.853331,1.79033 -1.638957,3.3871 -1.342325,2.72826 -1.426979,3.24587 -1.404649,8.58871 0.01307,3.12701 -0.02448,5.68548 -0.08344,5.68548 -0.05896,0 -0.38769,-0.81653 -0.730506,-1.81451 z M 86.447914,133.611 c 0,-5.50957 -0.05982,-5.84447 -1.565563,-8.76404 -1.432391,-2.77735 -1.473551,-2.97453 -0.483871,-2.31809 0.594931,0.39461 1.626047,1.77368 2.291369,3.0646 1.027698,1.99403 1.209678,3.00435 1.209678,6.71592 0,4.3393 -0.420235,7.03008 -1.097928,7.03008 -0.194527,0 -0.353685,-2.57781 -0.353685,-5.72847 z m 47.016126,2.98653 c -0.7706,-0.7706 -0.17478,-1.12903 1.87683,-1.12903 2.57029,0 4.57479,-1.58047 4.57479,-3.60704 0,-1.23545 -1.0937,-1.71838 -1.69355,-0.74779 -0.16448,0.26612 -1.15717,0.48387 -2.20598,0.48387 -3.24298,0 -4.68457,-2.29271 -4.1916,-6.66633 0.42693,-3.78773 4.0088,-6.03167 8.33306,-5.22044 l 1.69355,0.31772 v 6.28393 c 0,7.08525 -0.59374,9.33775 -2.66939,10.1269 -1.42915,0.54337 -5.22746,0.64847 -5.71771,0.15821 z m 5.20665,-7.21125 c 1.01857,-1.01857 1.33547,-2.46595 1.15414,-5.27124 -0.17157,-2.65422 -1.00096,-3.47933 -2.99445,-2.979 -1.95646,0.49104 -3.30609,2.97527 -3.03875,5.59336 0.31815,3.11568 2.97402,4.56192 4.87906,2.65688 z m -23.67439,1.5282 c -4.16892,-1.85289 -5.89145,-7.46288 -3.64407,-11.8681 1.44808,-2.83848 3.65839,-3.9793 7.36864,-3.80324 3.72157,0.17661 3.83751,1.01921 0.18685,1.35788 -2.07279,0.19229 -2.96746,0.55391 -4.13294,1.6705 -2.94112,2.81778 -2.9397,7.65018 0.003,10.12628 1.53483,1.29147 4.27908,2.05744 5.58115,1.55779 1.12833,-0.43298 1.81044,0.14405 1.13391,0.95922 -0.7203,0.8679 -4.54345,0.86772 -6.49651,-3.3e-4 z m 11.21976,0.37056 c -0.18297,-0.18297 -0.33266,-2.80041 -0.33266,-5.81654 0,-5.18984 0.0527,-5.48387 0.9831,-5.48387 0.93983,0 0.97709,0.24846 0.84677,5.64601 -0.12636,5.23317 -0.50153,6.65007 -1.49721,5.6544 z m 20.3125,-0.0101 c -0.17742,-0.17742 -0.32258,-2.79033 -0.32258,-5.80646 0,-4.177 0.1499,-5.48387 0.62903,-5.48387 0.34597,0 0.8653,0.23628 1.15408,0.52505 0.37748,0.37748 0.94189,0.30949 2.00823,-0.24193 2.07061,-1.07076 3.3187,-0.959 4.69839,0.4207 1.1045,1.10449 1.18769,1.53061 1.18769,6.08386 0,4.40187 -0.0855,4.87991 -0.84678,4.73497 -0.71283,-0.13571 -0.88504,-0.87486 -1.08871,-4.67283 -0.20033,-3.7358 -0.40344,-4.62944 -1.18119,-5.19684 -1.32648,-0.96773 -2.07711,-0.85802 -3.43757,0.50245 -1.07569,1.07568 -1.18769,1.5776 -1.18769,5.32258 0,3.12317 -0.15786,4.1349 -0.64516,4.1349 -0.35484,0 -0.79032,-0.14516 -0.96774,-0.32258 z m 15.27208,-10e-4 c -1.0458,-0.42077 -2.04636,-2.91461 -2.04446,-5.09567 0.004,-4.22213 3.28089,-7.03303 7.62846,-6.543 1.15222,0.12987 2.18048,0.32166 2.28502,0.4262 0.10453,0.10454 0.22968,2.67952 0.27812,5.7222 0.0594,3.73539 -0.0885,5.59099 -0.45566,5.71336 -0.29903,0.0997 -0.67598,-0.16348 -0.83765,-0.58481 -0.37063,-0.96585 -1.34247,-0.98424 -2.12591,-0.0402 -0.57843,0.69696 -3.39877,0.93674 -4.72792,0.40195 z m 4.93457,-1.8874 c 1.03627,-1.03628 1.32909,-2.4468 1.15258,-5.55201 -0.1191,-2.09524 -0.32975,-2.66518 -1.0346,-2.79925 -3.53206,-0.67185 -6.40911,3.90453 -4.60703,7.32819 0.30597,0.5813 0.79589,1.21687 1.08871,1.4124 0.90301,0.60295 2.60266,0.40835 3.40034,-0.38933 z m -41.12245,-12.8352 c -0.42658,-0.69022 0.9856,-2.10239 1.67582,-1.67581 0.92212,0.56991 0.61886,2.20612 -0.40888,2.20612 -0.51655,0 -1.08667,-0.23864 -1.26694,-0.53031 z"
         id="path64"
         inkscape:connector-curvature="0" />
      <path
         style="fill:#007ec6;stroke-width:0.48387095"
         d="m 136.23242,135.97904 c 1.61641,-0.2241 2.65037,-0.68014 3.26612,-1.44056 0.94849,-1.17134 1.2276,-4.13358 0.4356,-4.62307 -0.29792,-0.18413 -0.29792,-0.72805 0,-1.51166 0.65647,-1.72663 0.57914,-6.6602 -0.11526,-7.3546 -0.7793,-0.7793 -2.55986,-0.73301 -4.18789,0.10887 -3.71373,1.92045 -3.13259,9.01455 0.78725,9.6101 1.07084,0.16269 0.98413,0.21423 -0.4594,0.27305 -2.38298,0.0971 -3.78512,-1.61193 -3.78512,-4.61356 0,-4.03273 2.40647,-6.45418 6.39575,-6.43557 2.8353,0.0132 2.89111,0.1667 2.71559,7.46721 -0.15856,6.59528 -0.16964,6.65229 -1.51735,7.81038 -1.05335,0.90514 -1.86672,1.15212 -3.62903,1.10197 l -2.27141,-0.0647 z m -48.982299,-1.47828 c 0,-0.66532 0.109826,-0.9375 0.244058,-0.60484 0.134232,0.33266 0.134232,0.87702 0,1.20968 -0.134232,0.33266 -0.244058,0.0605 -0.244058,-0.60484 z m 3.405026,-1.69355 c 0.0099,-0.79838 0.118306,-1.06642 0.240988,-0.59563 0.122683,0.4708 0.114614,1.12402 -0.01793,1.45162 -0.132545,0.32759 -0.232922,-0.0576 -0.223061,-0.85599 z m -3.369167,-1.69354 c 0,-0.93146 0.09958,-1.3125 0.221285,-0.84678 0.121707,0.46573 0.121707,1.22782 0,1.69355 -0.121707,0.46573 -0.221285,0.0847 -0.221285,-0.84677 z m 27.57396,-0.80472 c -2.39076,-1.17836 -3.65758,-3.28716 -3.85771,-6.4217 -0.32655,-5.11461 2.63189,-8.31353 7.57369,-8.18933 l 2.7107,0.0681 -2.44782,0.29949 c -1.34631,0.16472 -3.05418,0.69678 -3.79526,1.18236 -1.88495,1.23507 -3.37352,4.76475 -2.95354,7.00343 0.74188,3.95456 2.57301,5.62811 6.97225,6.37225 l 2.22437,0.37626 -2.41935,0.0459 c -1.34299,0.0255 -3.12584,-0.30232 -4.00733,-0.73679 z m 11.50733,-4.51786 c 0,-3.22581 0.19061,-5.32259 0.48387,-5.32259 0.29325,0 0.48387,2.09678 0.48387,5.32259 0,3.2258 -0.19062,5.32258 -0.48387,5.32258 -0.29326,0 -0.48387,-2.09678 -0.48387,-5.32258 z m 20.32258,-0.10369 c 0,-4.59914 0.10028,-5.31827 0.65787,-4.71774 0.4971,0.53537 0.60124,1.86145 0.42616,5.42626 -0.12745,2.59476 -0.42349,4.71775 -0.65788,4.71775 -0.23438,0 -0.42615,-2.44182 -0.42615,-5.42627 z m 7.63913,0.96819 -0.13913,-4.45807 -1.64414,-1.10644 c -1.64246,-1.10532 -1.64283,-1.10645 -0.3629,-1.10645 2.52036,0 3.21672,1.41411 3.21672,6.53226 0,5.93405 -0.88612,6.04886 -1.07055,0.1387 z m 7.12337,3.49524 c -1.24917,-1.38033 -1.52331,-5.26149 -0.51003,-7.22096 0.88213,-1.70586 3.20966,-2.94524 5.53112,-2.94524 2.89614,0 2.95967,0.12382 2.94363,5.73726 -0.0119,4.17221 -0.12248,4.96613 -0.5824,4.1821 -0.3358,-0.57244 -0.50968,-2.40846 -0.42567,-4.4948 0.15553,-3.86269 -0.31551,-4.94069 -2.15886,-4.94069 -3.14088,0 -5.366,2.90537 -4.89791,6.39526 0.28769,2.14485 1.38613,3.61335 2.92847,3.91504 0.72945,0.14269 0.59283,0.22267 -0.4594,0.26897 -0.94452,0.0416 -1.81939,-0.28969 -2.36895,-0.89694 z m -70.369462,-1.25491 c 0.02322,-0.56368 0.137875,-0.67833 0.292339,-0.29233 0.139777,0.34929 0.122586,0.76663 -0.0382,0.92741 -0.160787,0.16079 -0.275149,-0.125 -0.254139,-0.63508 z m 35.136242,-12.60781 c -0.38658,-0.38658 0.0504,-1.14219 0.66057,-1.14219 0.25042,0 0.45531,0.32662 0.45531,0.72581 0,0.74826 -0.57095,0.96131 -1.11588,0.41638 z"
         id="path62"
         inkscape:connector-curvature="0" />
    </g>
  </g>
</svg>
