<?xml version="1.0" encoding="UTF-8" standalone="no"?>
<!-- Created with Inkscape (http://www.inkscape.org/) -->

<svg
   xmlns:dc="http://purl.org/dc/elements/1.1/"
   xmlns:cc="http://creativecommons.org/ns#"
   xmlns:rdf="http://www.w3.org/1999/02/22-rdf-syntax-ns#"
   xmlns:svg="http://www.w3.org/2000/svg"
   xmlns="http://www.w3.org/2000/svg"
   xmlns:sodipodi="http://sodipodi.sourceforge.net/DTD/sodipodi-0.dtd"
   xmlns:inkscape="http://www.inkscape.org/namespaces/inkscape"
   width="210mm"
   height="297mm"
   viewBox="0 0 210 297"
   version="1.1"
   id="svg8"
   inkscape:version="0.92.1 r15371"
   sodipodi:docname="DuPont.svg">
  <defs
     id="defs2" />
  <sodipodi:namedview
     id="base"
     pagecolor="#ffffff"
     bordercolor="#666666"
     borderopacity="1.0"
     inkscape:pageopacity="0.0"
     inkscape:pageshadow="2"
     inkscape:zoom="0.98994949"
     inkscape:cx="554.21349"
     inkscape:cy="627.76394"
     inkscape:document-units="mm"
     inkscape:current-layer="g23"
     showgrid="false"
     inkscape:window-width="1920"
     inkscape:window-height="1001"
     inkscape:window-x="-9"
     inkscape:window-y="-9"
     inkscape:window-maximized="1" />
  <metadata
     id="metadata5">
    <rdf:RDF>
      <cc:Work
         rdf:about="">
        <dc:format>image/svg+xml</dc:format>
        <dc:type
           rdf:resource="http://purl.org/dc/dcmitype/StillImage" />
        <dc:title></dc:title>
      </cc:Work>
    </rdf:RDF>
  </metadata>
  <g
     inkscape:label="Layer 1"
     inkscape:groupmode="layer"
     id="layer1">
    <g
       id="g23"
       transform="matrix(0.98908174,0,0,0.98908174,3.9680529,-26.525108)">
      <path
         style="fill:#fefefe;stroke-width:0.12637985"
         d="m 20.724922,132.36198 v -29.57289 h 75.82791 75.827908 v 29.57289 29.57288 H 96.552832 20.724922 Z"
         id="path39"
         inkscape:connector-curvature="0" />
      <path
         style="fill:#f8cdd4;stroke-width:0.12637985"
         d="m 88.590901,161.353 c -0.451808,-0.0236 -2.101065,-0.1035 -3.665015,-0.17761 -22.139083,-1.04905 -40.720411,-5.39039 -51.976571,-12.14381 -3.620607,-2.17228 -7.014667,-5.1195 -8.793193,-7.63555 -1.088296,-1.53959 -2.216029,-3.87258 -2.62586,-5.43223 -0.447228,-1.70197 -0.558904,-4.61974 -0.241855,-6.31899 0.635533,-3.40621 2.187278,-6.11871 5.24251,-9.16408 2.777551,-2.76859 5.303206,-4.51667 9.738727,-6.74047 11.174,-5.60221 26.646021,-8.9858 46.950114,-10.26757 4.257598,-0.26878 18.086702,-0.38451 22.643582,-0.1895 11.85784,0.50745 21.85708,1.70083 30.92801,3.69119 19.81016,4.34676 32.28883,12.07795 34.78897,21.55358 0.48033,1.82051 0.55643,4.74007 0.17242,6.61437 -1.89788,9.26288 -12.78717,16.835 -30.90377,21.48965 -9.26364,2.38008 -18.93065,3.75454 -32.03729,4.5551 -2.06735,0.12627 -18.410659,0.26037 -20.220779,0.16592 z m 19.588879,-3.45544 c 16.29433,-0.8731 28.96402,-2.99373 39.64836,-6.63629 11.16403,-3.80609 18.26571,-9.14016 20.29147,-15.24092 0.98322,-2.96104 0.74628,-6.2331 -0.66299,-9.1559 -4.92312,-10.21044 -24.73686,-17.58039 -53.14742,-19.76879 -6.28521,-0.48413 -9.14692,-0.57669 -17.756368,-0.57431 -8.216832,0.002 -10.672823,0.0767 -16.74533,0.50717 -14.810263,1.04994 -27.912826,3.64354 -37.598006,7.44236 -3.793279,1.48783 -8.221791,3.89157 -10.798868,5.86146 -1.173041,0.89667 -3.299839,3.01003 -4.110417,4.08446 -3.048331,4.04057 -3.613927,8.69458 -1.589209,13.07682 3.636737,7.87124 16.409814,14.3024 35.202712,17.72433 8.707861,1.58559 16.751955,2.38469 28.688226,2.84989 2.194139,0.0855 16.19974,-0.0429 18.57784,-0.17028 z m -24.617406,-2.78074 c -1.52531,-0.055 -1.95739,-0.10958 -2.051737,-0.25923 -0.07392,-0.11724 -0.120255,-8.70873 -0.121452,-22.51818 -0.0016,-19.0122 0.02444,-22.35499 0.175665,-22.50621 0.206937,-0.20694 2.420872,-0.39651 7.152431,-0.61242 3.787099,-0.17282 5.246956,-0.11358 6.202641,0.25171 0.810075,0.30963 1.646425,0.97838 2.077418,1.66112 0.719476,1.13972 0.700697,0.73014 0.663706,14.47601 l -0.03399,12.62902 -0.336222,0.71722 c -0.443898,0.94692 -1.200231,1.74791 -2.10662,2.23101 -1.36576,0.72795 -1.896993,0.80975 -5.677064,0.87419 l -3.443851,0.0587 v 6.42765 c 0,6.22549 -0.0077,6.43177 -0.244451,6.55848 -0.134448,0.072 -0.262408,0.11952 -0.284355,0.1057 -0.02195,-0.0138 -0.909403,-0.0565 -1.972124,-0.0948 z m 8.761596,-17.75673 c 0.253858,-0.10607 0.505374,-0.33264 0.596245,-0.53711 0.121452,-0.27329 0.157171,-2.89059 0.157171,-11.51685 0,-11.0165 -0.0033,-11.16566 -0.25276,-11.35053 -0.215056,-0.15939 -0.724054,-0.17453 -3.412256,-0.10151 -1.737722,0.0472 -3.202448,0.12501 -3.254947,0.1729 -0.0525,0.0479 -0.08093,5.31605 -0.06319,11.70703 l 0.03226,11.61996 1.832508,0.0685 c 3.549096,0.13265 3.910561,0.12749 4.364968,-0.0624 z m 14.59201,17.80549 c -3.33588,-0.58631 -4.74194,-1.87205 -5.05853,-4.62565 -0.16348,-1.42183 -0.16133,-35.07905 0.002,-36.50267 0.35823,-3.1162 2.50954,-4.65978 6.50958,-4.6707 1.67385,-0.005 3.9742,0.22333 5.06177,0.50148 1.23077,0.31478 2.58645,1.03089 3.16597,1.67235 0.25165,0.27854 0.63601,0.88311 0.85414,1.3435 l 0.39661,0.83706 0.039,18.13551 c 0.0289,13.43098 8.9e-4,18.31582 -0.1079,18.83059 -0.48168,2.27859 -2.23382,3.72816 -5.11329,4.2303 -1.07365,0.18723 -5.10623,0.36132 -5.7497,0.24823 z m 4.86399,-4.80813 c 0.88652,-0.21797 1.40303,-0.65097 1.58569,-1.32933 0.0824,-0.30606 0.11482,-6.25366 0.0928,-17.02647 l -0.0339,-16.5561 -0.26464,-0.35678 c -0.41714,-0.56238 -1.13412,-0.89163 -2.30289,-1.05754 -2.15491,-0.30589 -3.5871,0.017 -4.14198,0.93383 -0.23439,0.38727 -0.24138,0.88751 -0.24138,17.27054 0,16.74181 0.002,16.87508 0.25723,17.30956 0.14148,0.24082 0.4331,0.54057 0.64806,0.66611 0.81553,0.4763 2.79141,0.54193 4.40103,0.14618 z m 10.45325,3.5902 c -0.11676,-0.11676 -0.15166,-5.08545 -0.15166,-21.59548 0,-19.00485 0.0218,-21.4619 0.19154,-21.60278 0.15241,-0.12649 0.46865,-0.12853 1.54815,-0.01 1.92676,0.21163 2.90698,0.39218 3.04417,0.56072 0.0653,0.0803 1.61578,5.59135 3.44542,12.24683 1.82964,6.65548 3.37104,12.10087 3.42533,12.10087 0.0543,0 0.0987,-5.23391 0.0987,-11.63091 0,-9.96936 0.0258,-11.64082 0.18073,-11.70027 0.23493,-0.0902 3.81108,0.70624 4.09123,0.91109 0.20012,0.14633 0.21452,1.42665 0.21452,19.07103 0,17.88906 -0.012,18.92295 -0.22182,19.07636 -0.29781,0.21776 -4.39023,1.00811 -4.51698,0.87235 -0.055,-0.0589 -1.56651,-5.29655 -3.35896,-11.63924 -1.79245,-6.34269 -3.30557,-11.53216 -3.36249,-11.53216 -0.0569,0 -0.1035,5.45625 -0.1035,12.12501 0,7.05148 -0.0476,12.15443 -0.11378,12.19532 -0.0902,0.0557 -3.9165,0.6965 -4.18946,0.70159 -0.0382,7.5e-4 -0.13775,-0.0669 -0.22116,-0.15037 z m -57.65449,-0.55908 c -0.951463,-0.1178 -3.279658,-0.57982 -4.385765,-0.87033 -2.137387,-0.56137 -3.687443,-1.574 -4.32634,-2.82634 -0.661729,-1.29709 -0.640004,-0.64565 -0.640004,-19.19169 V 113.2732 l 0.284355,-0.12254 c 0.47301,-0.20384 3.79173,-0.89787 3.968696,-0.82996 0.134351,0.0515 0.171322,3.2484 0.199201,17.22435 0.03318,16.63527 0.04163,17.17326 0.275609,17.55986 0.132757,0.21935 0.445547,0.51151 0.69509,0.64923 1.068679,0.58981 4.528054,1.11222 5.286038,0.79825 0.778373,-0.32241 0.725276,1.00416 0.761661,-19.02932 0.0183,-10.07624 0.07899,-18.36616 0.134876,-18.42204 0.05588,-0.0559 1.032541,-0.22035 2.170353,-0.36548 2.00343,-0.25553 2.0741,-0.25655 2.238224,-0.0321 0.140342,0.19193 0.163098,3.53439 0.132381,19.4442 -0.04153,21.51057 0.02632,19.98462 -0.952421,21.41892 -0.873503,1.28008 -1.968324,1.77391 -4.072636,1.83699 -0.729844,0.0219 -1.526037,0.0151 -1.769318,-0.015 z m -19.525687,-4.83592 c -3.287338,-1.14739 -7.299189,-2.89863 -8.688615,-3.79273 l -0.600304,-0.38629 v -12.07048 -12.07047 l 0.486393,-0.30705 c 0.800279,-0.50519 3.671633,-1.91167 5.307217,-2.59963 3.913068,-1.64593 5.4991,-1.91734 7.067031,-1.20936 1.284128,0.57983 2.044563,1.60798 2.303734,3.11477 0.09667,0.56204 0.127687,4.69983 0.101733,13.57289 l -0.03734,12.76437 -0.30489,0.75828 c -0.405655,1.00889 -1.584805,2.20695 -2.466385,2.50594 -0.942595,0.31968 -1.621912,0.2596 -3.168578,-0.28024 z m 0.9408,-5.0622 c 0.135141,-0.13514 0.279774,-0.43371 0.321409,-0.66349 0.04163,-0.22978 0.05902,-5.11791 0.03864,-10.8625 -0.03571,-10.06563 -0.04579,-10.45436 -0.277807,-10.71069 -0.156091,-0.17245 -0.394043,-0.26598 -0.676679,-0.26598 -0.427356,0 -3.173123,1.00806 -4.359731,1.6006 l -0.601108,0.30017 0.0324,9.43405 0.0324,9.43406 1.832507,0.81151 c 2.940241,1.30205 3.210136,1.3701 3.657967,0.92227 z m 102.470927,4.89017 c -0.0166,-0.0174 -0.0593,-6.19761 -0.0948,-13.73385 l -0.0646,-13.70225 -1.30863,-0.49134 c -0.71975,-0.27023 -1.99934,-0.68009 -2.84355,-0.91079 l -1.53491,-0.41947 -0.0345,-2.29312 c -0.0291,-1.93521 -0.005,-2.30438 0.15356,-2.36527 0.38475,-0.14764 6.20745,1.72159 8.76309,2.81317 2.2524,0.96206 5.8748,2.84493 6.8205,3.54519 l 0.41074,0.30414 v 2.4425 c 0,1.96829 -0.0352,2.47174 -0.18145,2.59309 -0.14656,0.12164 -0.3955,0.007 -1.29539,-0.59822 -1.24375,-0.83605 -4.00072,-2.42815 -4.20469,-2.42815 -0.0907,0 -0.13194,3.67081 -0.13194,11.75008 v 11.75008 l -0.40087,0.2073 c -1.21627,0.62895 -3.93501,1.66001 -4.05261,1.53691 z"
         id="path37"
         inkscape:connector-curvature="0" />
      <path
         style="fill:#f5bac3;stroke-width:0.12637985"
         d="m 89.41237,161.29361 c -28.163345,-0.85147 -50.54754,-6.62939 -61.306845,-15.82484 -6.509893,-5.56368 -8.567389,-12.41705 -5.729753,-19.0854 1.350763,-3.17425 4.246452,-6.4196 8.269968,-9.26859 7.040114,-4.98499 18.582948,-9.01762 32.479622,-11.34715 22.826595,-3.82648 51.891028,-3.37286 72.969008,1.13884 8.11943,1.73795 14.61416,3.88604 20.4257,6.75568 3.90767,1.92953 6.58234,3.66819 9.06661,5.8937 8.8572,7.93467 8.48305,18.44223 -0.93379,26.22414 -5.60415,4.63118 -13.80671,8.27373 -24.81496,11.0197 -13.79531,3.4412 -31.89431,5.05418 -50.42556,4.49392 z m 13.64902,-3.15022 c 22.31655,-0.65053 40.05041,-3.96016 51.87701,-9.68169 7.8365,-3.79119 12.37763,-8.34322 13.60262,-13.63532 0.33881,-1.4637 0.31247,-3.91872 -0.0583,-5.43433 -0.354,-1.44703 -1.42349,-3.64797 -2.40666,-4.95273 -6.54748,-8.68917 -23.99896,-14.8654 -48.48098,-17.15785 -6.72631,-0.62985 -12.64997,-0.87578 -21.042248,-0.87364 -16.223427,0.004 -29.515429,1.31468 -41.554118,4.09703 -20.463702,4.72951 -31.621728,13.13649 -30.502204,22.98179 0.655543,5.76497 5.153138,10.70321 13.479262,14.79988 6.869268,3.37986 15.741917,5.92643 26.602958,7.63542 11.597198,1.82482 25.18371,2.60911 38.48266,2.22144 z m -20.220772,-3.1523 -1.263798,-0.0703 V 132.36355 109.8063 l 0.571215,-0.0817 c 1.420666,-0.20322 5.910012,-0.41534 8.907274,-0.42087 l 3.285876,-0.006 0.796253,0.36767 c 0.972908,0.44923 1.789942,1.31292 2.198475,2.32402 l 0.291148,0.72057 0.03521,12.22358 c 0.0383,13.2969 0.04062,13.24633 -0.663031,14.44702 -0.419281,0.71545 -1.349156,1.5397 -2.151275,1.90693 -1.233102,0.56453 -2.144216,0.67484 -5.593564,0.67721 l -3.191092,0.002 v 6.32731 c 0,4.11988 -0.04564,6.41258 -0.130825,6.57175 -0.142506,0.26627 -0.381764,0.27596 -3.091861,0.12519 z M 92.527684,137.407 c 0.618238,-0.33087 0.612892,-0.22538 0.612892,-12.09408 0,-8.68165 -0.03443,-11.1484 -0.157975,-11.31726 -0.14323,-0.19577 -0.470566,-0.21277 -3.507041,-0.18213 l -3.349066,0.0338 -0.03225,11.74546 c -0.02557,9.31283 6.32e-4,11.76632 0.12638,11.84617 0.247731,0.15729 6.007999,0.12809 6.307063,-0.032 z m 13.530006,17.51935 c -2.32739,-0.53098 -3.67399,-1.82993 -4.05858,-3.91496 -0.19062,-1.0334 -0.19447,-36.37156 -0.004,-37.40146 0.391,-2.11512 1.76626,-3.46303 4.02088,-3.94093 0.99819,-0.21158 4.04294,-0.23898 5.57945,-0.0502 2.95879,0.3635 4.84173,1.37738 5.70665,3.07275 0.61023,1.19616 0.60464,1.01539 0.60464,19.54406 0,18.6428 0.01,18.33544 -0.63038,19.65799 -0.67621,1.39686 -2.27197,2.47583 -4.29405,2.90341 -1.36551,0.28874 -5.85803,0.37266 -6.92452,0.12935 z m 5.95701,-4.49071 c 0.26722,-0.0804 0.69376,-0.33671 0.94785,-0.56957 l 0.46199,-0.42337 0.0334,-16.91303 c 0.0246,-12.4717 -0.005,-17.00496 -0.11118,-17.26313 -0.19228,-0.46573 -0.76934,-0.93655 -1.34789,-1.09975 -0.95487,-0.26935 -2.86386,-0.40845 -3.64324,-0.26548 -0.83286,0.15279 -1.2422,0.40394 -1.66079,1.01896 l -0.28435,0.4178 v 16.86552 c 0,15.40905 0.018,16.90345 0.20846,17.30482 0.2277,0.47983 0.55192,0.73539 1.27765,1.00706 0.56016,0.20969 3.33469,0.1559 4.11813,-0.0798 z m 10.25162,3.37932 c -0.033,-0.0869 -0.0455,-9.7976 -0.0276,-21.57936 l 0.0324,-21.42139 0.88466,0.009 c 1.16265,0.0116 3.29271,0.30121 3.53867,0.48105 0.12165,0.089 1.46694,4.76601 3.59869,12.51125 1.87242,6.80305 3.43531,12.40008 3.47307,12.43784 0.0378,0.0378 0.0687,-5.28846 0.0687,-11.83607 0,-11.00946 0.0159,-11.91083 0.21129,-11.98582 0.24225,-0.093 3.8152,0.67776 4.05403,0.8745 0.20468,0.1686 0.23454,37.70541 0.0302,37.95164 -0.0703,0.0847 -1.06923,0.34071 -2.21987,0.56892 -1.78458,0.35396 -2.11589,0.38895 -2.25406,0.23811 -0.0891,-0.0973 -1.62896,-5.38052 -3.42192,-11.74058 -1.79297,-6.36007 -3.30703,-11.64907 -3.36459,-11.75333 -0.0576,-0.10426 -0.10725,5.35535 -0.11043,12.13247 -0.003,7.073 -0.0542,12.39858 -0.11951,12.50173 -0.0734,0.11594 -0.75656,0.28162 -1.92536,0.46691 -2.13535,0.33852 -2.36889,0.35219 -2.44833,0.14327 z m -58.753197,-0.66682 c -1.786627,-0.28885 -4.160732,-0.90449 -5.027001,-1.30358 -1.594228,-0.73445 -2.350729,-1.53269 -2.9035,-3.06368 l -0.292811,-0.81099 -0.03504,-17.19039 c -0.02813,-13.79944 -0.0032,-17.23045 0.12638,-17.39347 0.171536,-0.21582 3.582684,-1.04537 3.98224,-0.96844 0.211858,0.0408 0.226582,0.93058 0.286525,17.31544 l 0.06319,17.27245 0.379139,0.39777 c 0.478555,0.50207 0.897512,0.67677 2.407636,1.00395 1.844716,0.39967 2.948308,0.4632 3.499877,0.20146 0.250315,-0.11878 0.502171,-0.3111 0.559679,-0.42737 0.05751,-0.11627 0.132996,-8.47399 0.16775,-18.5727 0.05207,-15.12911 0.0929,-18.37966 0.231987,-18.4656 0.23963,-0.14809 3.876809,-0.56908 4.117745,-0.47663 0.181128,0.0695 0.199737,1.86994 0.197749,19.13246 -0.0024,20.76299 0.02109,20.05952 -0.714668,21.41135 -0.440197,0.80878 -1.148627,1.41952 -2.053466,1.77028 -0.91286,0.35387 -3.338059,0.43531 -4.993411,0.16769 z m -19.281549,-4.97687 c -3.41181,-1.26911 -6.505286,-2.6475 -7.857665,-3.50122 l -0.483405,-0.30516 v -12.06955 -12.06955 l 0.410735,-0.25315 c 1.558958,-0.96084 5.491266,-2.7353 7.993525,-3.60709 1.203448,-0.41929 1.542958,-0.48505 2.527597,-0.48961 0.901849,-0.004 1.258407,0.0506 1.721597,0.26422 0.837921,0.38652 1.566486,1.09637 1.97125,1.9206 l 0.351308,0.71538 v 13.45946 13.45945 l -0.353958,0.75828 c -0.730265,1.56443 -2.019205,2.4681 -3.500627,2.45427 -0.678192,-0.006 -1.163128,-0.13476 -2.780357,-0.73633 z m 1.927293,-4.70726 c 0.20689,-0.2445 0.221165,-0.96236 0.221165,-11.12178 v -10.86041 l -0.310206,-0.31021 c -0.190414,-0.19041 -0.455488,-0.3102 -0.686423,-0.3102 -0.378387,0 -4.244703,1.48741 -4.782818,1.83999 l -0.288394,0.18897 0.0324,9.42969 c 0.02827,8.22635 0.05659,9.44358 0.221968,9.53852 0.425309,0.24418 4.008279,1.79256 4.360105,1.88422 0.518429,0.13506 0.968103,0.0333 1.232204,-0.27879 z m 102.420343,4.73757 c -0.0463,-0.0463 -0.0843,-6.18694 -0.0843,-13.64578 v -13.56152 l -0.34914,-0.18054 c -0.55837,-0.28875 -2.89535,-1.0779 -4.19505,-1.41659 -0.65731,-0.17129 -1.23937,-0.38109 -1.29345,-0.46622 -0.0541,-0.0851 -0.0992,-1.08073 -0.10028,-2.21243 -0.002,-1.75762 0.0271,-2.06878 0.19722,-2.13406 0.36602,-0.14045 4.53368,1.13444 7.56398,2.31383 2.59653,1.01057 7.23944,3.34988 8.06594,4.06398 0.19639,0.16968 0.22117,0.46421 0.22117,2.62845 0,1.47295 -0.0495,2.46798 -0.12518,2.51473 -0.0688,0.0426 -0.68773,-0.29357 -1.3753,-0.74694 -1.54631,-1.01958 -3.94913,-2.36459 -4.12161,-2.30711 -0.0848,0.0283 -0.14957,4.03201 -0.19138,11.84122 l -0.0632,11.79851 -1.8957,0.79491 c -1.92784,0.80838 -2.10478,0.86456 -2.25377,0.71556 z"
         id="path35"
         inkscape:connector-curvature="0" />
      <path
         style="fill:#f29eab;stroke-width:0.12637985"
         d="m 87.137533,161.16238 c -14.223702,-0.57559 -27.244897,-2.46663 -37.828447,-5.49373 -4.929569,-1.40995 -8.469183,-2.75773 -12.597113,-4.7966 -4.717223,-2.32992 -7.172451,-4.0105 -10.054676,-6.8823 -3.039173,-3.02819 -4.60426,-5.77017 -5.24656,-9.19182 -0.284452,-1.51533 -0.195804,-4.61593 0.170929,-5.97848 1.347325,-5.00581 4.8856,-9.13851 11.1471,-13.01981 2.37645,-1.47308 6.127968,-3.269 9.48073,-4.53859 11.847434,-4.48628 26.871109,-7.08685 45.347149,-7.84951 4.102235,-0.16933 17.900025,-0.089 21.318225,0.12407 12.79003,0.79738 22.02596,2.08014 31.02625,4.30918 6.65707,1.64872 11.45895,3.34057 16.49257,5.81083 4.48419,2.20063 7.35113,4.14572 10.06206,6.82665 2.86146,2.82979 4.49202,5.63557 5.1779,8.90978 0.29823,1.42373 0.32265,4.03115 0.0512,5.46236 -1.52365,8.03199 -9.68696,14.75947 -23.67523,19.51102 -11.41819,3.87855 -25.22266,6.09481 -42.42059,6.81049 -3.49336,0.14538 -14.728097,0.13713 -18.451457,-0.0135 z m 21.105437,-3.13622 c 24.93875,-1.37162 43.02991,-5.91218 53.1794,-13.34708 1.39372,-1.02095 3.74373,-3.3098 4.66564,-4.54421 0.92151,-1.23387 2.02185,-3.43892 2.39672,-4.80297 0.4009,-1.45874 0.40395,-4.72577 0.006,-6.16528 -2.49628,-9.02446 -15.25654,-16.07188 -36.07218,-19.92248 -7.15782,-1.3241 -14.60695,-2.14824 -24.30165,-2.68864 -3.92625,-0.21885 -18.972422,-0.21858 -22.937944,4.2e-4 -9.609634,0.5307 -16.951095,1.34255 -24.391312,2.69732 -18.40415,3.35115 -31.017976,9.56967 -34.963355,17.23668 -1.09534,2.12857 -1.49685,3.91992 -1.399051,6.24192 0.07968,1.89179 0.376079,3.10721 1.165194,4.77804 0.768625,1.62744 1.677388,2.89667 3.22311,4.50159 5.460112,5.66922 15.763698,10.09895 30.141595,12.9585 9.115848,1.813 17.815011,2.73192 30.520733,3.22399 2.225428,0.0862 16.46414,-0.0411 18.76741,-0.1678 z m -1.91766,-3.10311 c -2.25977,-0.41 -3.58376,-1.49415 -4.16989,-3.41453 -0.21982,-0.72019 -0.23144,-1.68513 -0.23144,-19.20973 v -18.45146 l 0.28122,-0.89399 c 0.63639,-2.02298 2.05537,-3.03336 4.74122,-3.37599 1.44563,-0.18441 5.04776,0.0424 6.45461,0.40642 1.97531,0.51111 3.42166,1.63787 4.02715,3.1373 l 0.29328,0.72626 v 18.45146 18.45145 l -0.29507,0.73106 c -0.37575,0.93094 -1.42803,2.07858 -2.31693,2.52691 -0.97697,0.49273 -2.42982,0.82612 -4.24107,0.9732 -2.03671,0.16538 -3.40687,0.14778 -4.54308,-0.0584 z m 5.39965,-4.37728 c 0.76903,-0.16266 1.32268,-0.51665 1.59866,-1.02214 0.21504,-0.39386 0.22911,-1.30838 0.26074,-16.95173 0.0237,-11.74112 -0.007,-16.68532 -0.10578,-17.05244 -0.31763,-1.17959 -1.42436,-1.6507 -3.90862,-1.6638 -1.36252,-0.007 -1.64828,0.0276 -2.07811,0.2531 -0.60852,0.31922 -0.93509,0.7373 -1.08676,1.39129 -0.15208,0.65569 -0.15208,32.81541 0,33.4711 0.22443,0.96768 0.91211,1.54124 2.06374,1.72126 0.7317,0.11438 2.37113,0.0405 3.25613,-0.14664 z m -29.990165,4.3017 c -0.209315,-0.12192 -0.221165,-1.32631 -0.221165,-22.4763 0,-17.7265 0.03266,-22.37355 0.157975,-22.47354 0.377748,-0.30143 10.788991,-0.79227 12.121509,-0.57146 1.615192,0.26764 2.744607,1.07704 3.372918,2.41719 l 0.334649,0.71379 v 12.89074 12.89075 l -0.286771,0.62183 c -0.624077,1.35324 -1.764423,2.27519 -3.414537,2.76057 -0.715241,0.21039 -1.393737,0.26206 -4.323813,0.32927 l -3.475445,0.0797 -0.03274,6.47697 -0.03274,6.47697 -1.989336,-0.004 c -1.11479,-0.002 -2.086562,-0.0605 -2.210499,-0.13266 z M 92.714692,137.2686 c 0.22009,-0.22009 0.371182,-0.54764 0.436832,-0.94701 0.119145,-0.72479 0.151799,-21.31298 0.03473,-21.89832 -0.155881,-0.7794 -0.297242,-0.804 -3.929555,-0.68375 l -3.256586,0.10781 v 11.81651 11.81652 l 1.769317,0.075 c 0.973125,0.0412 2.4082,0.0693 3.189056,0.0624 1.361094,-0.0121 1.433636,-0.0265 1.756204,-0.34906 z m 29.648588,16.55636 c -0.12164,-0.12164 -0.15534,-4.78038 -0.15534,-21.47279 0,-18.28288 0.0256,-21.33869 0.17986,-21.46671 0.18198,-0.15103 1.65083,-0.0446 3.44819,0.24972 0.40263,0.0659 0.77014,0.12023 0.81668,0.12063 0.13612,0.001 0.31832,0.6382 3.57885,12.51234 3.79373,13.81591 3.4625,12.66185 3.6082,12.57181 0.0764,-0.0472 0.12155,-4.48074 0.12155,-11.93992 0,-7.19395 0.0463,-11.89343 0.11775,-11.93756 0.0972,-0.0601 3.06862,0.53385 3.83162,0.76591 0.20935,0.0637 0.22116,1.0818 0.22116,19.06521 v 18.99795 l -0.28663,0.0719 c -1.37536,0.3452 -4.06745,0.8334 -4.14814,0.75225 -0.0873,-0.0877 -6.80973,-23.66344 -6.81497,-23.90007 -10e-4,-0.0481 -0.0571,-0.002 -0.12444,0.10215 -0.0769,0.11904 -0.12323,4.78307 -0.12445,12.53574 -0.001,6.95038 -0.0504,12.37615 -0.11292,12.41477 -0.061,0.0377 -0.84302,0.18475 -1.73772,0.32671 -0.89471,0.14197 -1.7701,0.28673 -1.94533,0.32169 -0.17522,0.035 -0.38849,-0.006 -0.47392,-0.0918 z m -58.099564,-0.62909 c -2.472386,-0.31666 -5.159791,-1.03373 -6.396169,-1.70665 -0.854185,-0.4649 -1.796801,-1.51927 -2.158079,-2.41393 l -0.293277,-0.72626 -0.03376,-17.45475 c -0.02702,-13.97265 -0.0018,-17.47906 0.12638,-17.57664 0.247301,-0.18825 3.798492,-0.93771 3.910837,-0.82536 0.05468,0.0547 0.114641,7.77515 0.133248,17.15661 0.0336,16.94025 0.03561,17.06023 0.293049,17.49953 0.37243,0.63551 1.128121,0.99527 2.812024,1.33873 1.764908,0.35998 3.121518,0.39749 3.548928,0.0981 0.674966,-0.47276 0.646669,0.36656 0.646669,-19.1817 0,-11.31285 0.04514,-18.16001 0.120036,-18.2063 0.06602,-0.0408 0.985262,-0.18557 2.042761,-0.32172 1.44682,-0.18626 1.965572,-0.21197 2.095828,-0.10386 0.145489,0.12074 0.166602,3.20993 0.132358,19.36602 -0.03594,16.9581 -0.06389,19.29679 -0.237288,19.85425 -0.850804,2.73536 -2.878861,3.6989 -6.743546,3.20391 z M 46.127272,148.8038 c -3.728029,-1.2669 -8.719517,-3.43403 -9.826033,-4.26611 l -0.410735,-0.30887 v -11.92729 -11.9273 l 0.328139,-0.25811 c 0.94066,-0.73992 5.786911,-2.93539 8.202501,-3.71592 1.790991,-0.57871 2.171839,-0.63524 3.120581,-0.4632 1.476868,0.2678 2.510087,1.07628 3.034938,2.37479 l 0.289853,0.71711 0.03606,12.63799 c 0.02402,8.42007 -0.0085,12.9258 -0.09737,13.50036 -0.328646,2.12405 -1.754889,3.59533 -3.586467,3.69972 -0.42653,0.0243 -0.917686,-0.004 -1.091458,-0.0632 z m 0.0096,-5.26734 0.306384,-0.32609 0.03812,-10.57418 c 0.02648,-7.34621 -0.0038,-10.71822 -0.09924,-11.04603 -0.155437,-0.53398 -0.504379,-0.77458 -1.091349,-0.75251 -0.369029,0.0139 -2.493817,0.80556 -4.250267,1.58364 l -0.72672,0.32191 v 9.53264 9.53264 l 2.180052,0.95304 c 2.556178,1.11746 2.450298,1.07827 2.947898,1.09104 0.263154,0.007 0.487664,-0.0953 0.695089,-0.3161 z m 102.434818,4.54947 c -0.0422,-0.10995 -0.0767,-6.27631 -0.0767,-13.70303 v -13.50312 l -0.97944,-0.37568 c -0.98007,-0.37592 -2.95044,-1.00266 -4.13894,-1.31653 l -0.6319,-0.16688 -0.0348,-2.13488 c -0.0191,-1.17458 0.0172,-2.18687 0.0808,-2.25047 0.23215,-0.23216 5.99336,1.62856 8.97053,2.89723 2.36085,1.00604 6.49285,3.22513 6.74583,3.62285 0.0519,0.0816 0.0952,1.188 0.0963,2.45872 0.002,1.83914 -0.0333,2.32392 -0.17091,2.37673 -0.0951,0.0365 -0.75877,-0.31389 -1.47488,-0.77859 -1.69345,-1.09894 -3.92384,-2.337 -4.05931,-2.25328 -0.0585,0.0362 -0.10643,5.35011 -0.10643,11.80874 v 11.74295 l -0.28436,0.18476 c -0.25421,0.16517 -3.66148,1.59039 -3.80212,1.59039 -0.0314,0 -0.0915,-0.09 -0.13373,-0.19991 z"
         id="path33"
         inkscape:connector-curvature="0" />
      <path
         style="fill:#ed7487;stroke-width:0.12637985"
         d="m 89.033231,161.17649 c -19.510013,-0.68466 -36.00451,-3.56198 -47.961153,-8.36641 -2.01643,-0.81024 -5.805136,-2.63992 -7.412602,-3.57976 -6.810877,-3.98213 -10.910881,-8.68283 -12.060239,-13.82717 -1.343453,-6.01309 1.171759,-11.91153 7.123519,-16.70541 6.58201,-5.30152 16.671011,-9.32661 30.168881,-12.0361 21.460329,-4.30785 50.932463,-4.49097 73.047553,-0.45388 10.01327,1.82792 17.83986,4.24057 24.58088,7.57738 4.29683,2.12693 6.95147,3.91183 9.57947,6.44094 3.06367,2.94838 4.85593,5.99738 5.53651,9.41873 0.25589,1.2864 0.22207,4.16169 -0.0647,5.49752 -1.6003,7.45525 -8.90882,13.74414 -21.36446,18.38383 -11.15708,4.15598 -25.46987,6.66656 -42.9118,7.52709 -3.59467,0.17735 -14.602969,0.25164 -18.261889,0.12324 z M 106.66322,158.134 c 24.83109,-0.99477 44.60241,-5.85124 54.88796,-13.48224 1.60326,-1.18949 3.98528,-3.56944 4.86792,-4.86372 3.9952,-5.85843 3.19924,-12.2574 -2.18956,-17.60257 -8.18547,-8.1192 -27.01643,-13.74678 -51.56328,-15.40952 -13.391786,-0.90713 -28.260882,-0.62739 -40.567929,0.76321 -25.267352,2.85502 -42.106318,9.89388 -46.597748,19.47834 -1.331216,2.84074 -1.535413,6.01745 -0.579126,9.00949 0.69357,2.17005 2.030929,4.22682 4.071522,6.26172 3.681615,3.67135 9.215966,6.74776 16.695735,9.28076 15.211874,5.15143 37.188426,7.51744 60.974506,6.56453 z M 82.714238,154.86824 81.7032,154.7944 v -22.42724 -22.42725 l 0.433029,-0.0886 c 0.952885,-0.19489 5.571243,-0.41638 8.7927,-0.42169 l 3.412256,-0.006 0.797232,0.36811 c 0.957217,0.44197 1.665668,1.19497 2.073694,2.20409 l 0.28857,0.71368 v 12.63798 12.63799 l -0.28857,0.71368 c -0.541229,1.33855 -1.601619,2.25977 -3.222995,2.8 -0.694856,0.23152 -1.200384,0.26987 -4.387176,0.33288 l -3.601825,0.0712 -0.06319,6.50857 -0.06319,6.50856 -1.074229,0.0106 c -0.590826,0.006 -1.529196,-0.0226 -2.085268,-0.0632 z m 9.794439,-17.35991 c 0.173772,-0.0868 0.415385,-0.35612 0.536918,-0.59844 0.205356,-0.40944 0.220982,-1.22657 0.221165,-11.56547 1.26e-4,-9.86457 -0.02209,-11.15672 -0.19654,-11.40578 -0.19413,-0.27716 -0.23744,-0.28088 -3.270078,-0.28088 -1.69034,0 -3.251065,0.0355 -3.46828,0.079 l -0.394937,0.079 v 11.85628 11.85628 l 0.473924,0.0496 c 0.260658,0.0273 1.668214,0.0583 3.127901,0.069 1.903609,0.0139 2.743306,-0.0252 2.969927,-0.13849 z m 13.447043,17.29604 c -2.12267,-0.48431 -3.41078,-1.73381 -3.82752,-3.7128 -0.10008,-0.47525 -0.14049,-5.94319 -0.13917,-18.8306 0.002,-15.84873 0.0265,-18.26525 0.19508,-18.98064 0.44612,-1.89285 1.62609,-2.9766 3.79774,-3.48805 0.71532,-0.16847 1.33386,-0.1927 3.46173,-0.13562 1.60323,0.043 2.90734,0.14186 3.42125,0.25931 2.55268,0.58339 4.00504,1.69048 4.63406,3.53239 0.20763,0.60799 0.22501,1.83918 0.25894,18.34491 0.0251,12.22937 -0.006,17.93952 -0.0999,18.4909 -0.17368,1.01704 -0.60105,1.96431 -1.19285,2.64397 -0.58307,0.66964 -2.16768,1.46346 -3.48292,1.7448 -1.33695,0.28599 -5.96934,0.37264 -7.02649,0.13143 z m 5.5506,-4.178 c 0.47417,-0.10047 1.05104,-0.29942 1.28194,-0.44212 0.88397,-0.54633 0.82585,0.70724 0.82585,-17.81384 0,-18.25653 0.0443,-17.19644 -0.74684,-17.86217 -0.49019,-0.41246 -1.00563,-0.55882 -2.51981,-0.71547 -2.06038,-0.21317 -3.27909,0.15266 -3.78081,1.13492 l -0.28614,0.56019 0.0334,16.93609 0.0334,16.9361 0.29432,0.41264 c 0.31036,0.43513 0.84408,0.76895 1.475,0.92255 0.6531,0.159 2.49044,0.12166 3.38973,-0.0689 z m 10.828,-18.28332 v -21.5035 l 1.10982,0.0788 c 1.36045,0.0966 2.96846,0.32946 3.18079,0.46069 0.0866,0.0535 1.71083,5.74133 3.60939,12.63955 1.89857,6.89823 3.51381,12.60412 3.58944,12.67975 0.0991,0.0991 0.13751,-3.25924 0.13751,-12.02024 v -12.15774 l 0.28435,0.002 c 0.42096,0.003 3.66472,0.73694 3.78382,0.85604 0.1396,0.13961 0.13159,37.78113 -0.008,37.86744 -0.29135,0.18006 -4.19441,0.87311 -4.29585,0.76279 -0.0788,-0.0857 -6.11955,-21.23293 -6.81243,-23.84884 -0.0322,-0.12165 -0.10882,-0.22117 -0.17022,-0.22117 -0.0639,0 -0.11164,5.37617 -0.11164,12.55932 0,9.89679 -0.0335,12.58572 -0.15798,12.68384 -0.14504,0.11433 -3.40764,0.66894 -3.91777,0.66599 -0.20977,-0.001 -0.22117,-1.11 -0.22117,-21.50478 z m -59.208958,20.61552 c -4.334298,-0.77733 -6.295638,-1.72695 -7.131015,-3.45261 -0.646458,-1.3354 -0.636938,-1.05 -0.637216,-19.10287 -1.26e-4,-9.24469 0.04152,-16.872 0.09259,-16.94958 0.09346,-0.14198 3.32602,-0.93317 3.812669,-0.93317 h 0.261146 v 17.09485 c 0,16.36799 0.0099,17.11357 0.232995,17.5352 0.325838,0.61583 1.209578,1.06129 2.727678,1.37494 2.67363,0.55239 3.657136,0.48466 4.125908,-0.28412 0.23612,-0.38723 0.242518,-0.87729 0.242978,-18.61252 3.74e-4,-14.42046 0.03338,-18.24087 0.158447,-18.33987 0.151068,-0.11958 3.110461,-0.5378 3.805587,-0.5378 h 0.333353 l -0.0019,19.11495 c -0.002,20.87111 0.02814,19.97882 -0.722346,21.3577 -0.408133,0.74988 -0.879103,1.16666 -1.803383,1.59591 -0.621006,0.2884 -0.876931,0.3263 -2.401218,0.35556 -1.263559,0.0242 -2.066739,-0.0319 -3.096306,-0.21657 z m -16.682141,-4.17806 c -1.840287,-0.36241 -9.569015,-3.68151 -10.318998,-4.43149 -0.22404,-0.22404 -0.233719,-0.72311 -0.233719,-12.05023 0,-11.38613 0.0086,-11.82515 0.237001,-12.05352 0.687629,-0.68763 6.922795,-3.45236 9.173634,-4.06767 2.285575,-0.62481 4.204485,0.0846 5.086386,1.8805 l 0.352611,0.71804 v 13.45946 13.45945 l -0.363913,0.78789 c -0.753833,1.63209 -2.40733,2.59802 -3.933002,2.29757 z m -0.186726,-5.26624 c 0.244565,-0.31091 0.249916,-0.55028 0.249916,-11.17906 v -10.86135 l -0.369418,-0.36941 c -0.212637,-0.21264 -0.504436,-0.36942 -0.687557,-0.36942 -0.586936,0 -4.958531,1.73967 -5.15692,2.05218 -0.05568,0.0877 -0.102098,4.3474 -0.103162,9.46598 -0.0018,8.68631 0.0128,9.32302 0.21923,9.55427 0.235468,0.26378 4.175539,2.00336 4.707649,2.07847 0.529973,0.0748 0.878397,-0.0387 1.140262,-0.37166 z m 102.364835,-8.93773 v -13.58292 l -0.29263,-0.19174 c -0.41074,-0.26913 -2.83731,-1.11456 -4.19385,-1.46117 -0.62558,-0.15983 -1.20851,-0.345 -1.2954,-0.41147 -0.11503,-0.088 -0.15797,-0.68353 -0.15797,-2.19065 0,-2.41031 -0.1477,-2.24854 1.5972,-1.74946 4.85838,1.38961 9.55878,3.35325 13.18924,5.50995 l 0.94785,0.56307 0.0343,2.49042 c 0.0189,1.36973 0,2.49041 -0.0406,2.49041 -0.0412,0 -0.63282,-0.36791 -1.31479,-0.81758 -1.42677,-0.94076 -3.90485,-2.34191 -4.14192,-2.34191 -0.1291,0 -0.16088,2.30693 -0.16088,11.67613 0,10.93584 -0.014,11.69279 -0.22117,11.93875 -0.19631,0.23309 -3.47653,1.66109 -3.81565,1.66109 -0.0932,0 -0.13372,-4.11494 -0.13372,-13.58292 z"
         id="path31"
         inkscape:connector-curvature="0" />
      <path
         style="fill:#e9586e;stroke-width:0.12637985"
         d="m 87.011153,161.03668 c -28.639213,-1.21299 -50.513716,-7.40314 -60.234198,-17.04537 -2.88345,-2.86024 -4.489982,-5.62504 -5.178552,-8.91217 -0.297739,-1.42136 -0.322896,-4.03926 -0.0524,-5.45301 2.611496,-13.64906 25.255139,-23.41637 59.714867,-25.75795 5.683743,-0.38621 9.657128,-0.4784 17.660706,-0.40975 7.752454,0.0665 10.818034,0.18934 16.459884,0.65963 14.86121,1.23878 27.60004,3.96729 37.4736,8.02641 2.14084,0.88012 6.09845,2.8798 7.75162,3.91668 5.92122,3.71387 9.49423,7.92955 10.78126,12.72046 0.37662,1.40195 0.46902,4.47991 0.18061,6.01632 -0.41348,2.20267 -1.394,4.4457 -2.82767,6.46861 -0.97708,1.37865 -3.70947,4.09286 -5.35471,5.31908 -10.38176,7.73769 -29.10793,12.79534 -52.6156,14.21064 -6.33192,0.38122 -17.715313,0.49641 -23.759417,0.24042 z m 21.105437,-2.88281 c 10.72849,-0.5816 18.9891,-1.569 27.12694,-3.24253 17.16388,-3.52971 28.50436,-9.46919 32.33258,-16.93391 1.0488,-2.04507 1.46705,-3.99851 1.35794,-6.34218 -0.0881,-1.89214 -0.4116,-3.12348 -1.28659,-4.89718 -3.33845,-6.76746 -12.67451,-12.20567 -27.30401,-15.90446 -9.14748,-2.31276 -19.32306,-3.7008 -32.29005,-4.40464 -3.97744,-0.21589 -18.913226,-0.21591 -22.874754,-3e-5 -16.041694,0.87418 -28.434831,2.8841 -38.861804,6.3026 -8.117487,2.66134 -13.986488,5.91912 -17.757988,9.85715 -2.005154,2.09369 -3.308944,4.28408 -3.936744,6.61379 -0.420365,1.55994 -0.423308,4.51695 -0.006,6.06623 0.386361,1.43452 1.467926,3.62343 2.438623,4.93536 5.870706,7.93448 21.200627,13.92208 42.51604,16.60602 6.230919,0.78457 10.858986,1.13261 20.094397,1.51115 2.082043,0.0853 16.14259,-0.0422 18.45146,-0.16737 z m -1.7832,-3.35584 c -2.60873,-0.47361 -3.94147,-1.87695 -4.22909,-4.4531 -0.0779,-0.6976 -0.11143,-7.78329 -0.0893,-18.87051 l 0.0354,-17.75347 0.28565,-0.84085 c 0.50197,-1.47755 1.56299,-2.40887 3.38476,-2.971 1.0135,-0.31272 4.97201,-0.31012 6.73929,0.004 2.50521,0.4459 4.17517,1.54371 4.8305,3.17552 l 0.30452,0.75828 v 18.45146 18.45145 l -0.29115,0.72057 c -0.59207,1.46534 -1.93954,2.51151 -3.87111,3.00552 -1.85228,0.47374 -5.3812,0.63364 -7.09943,0.3217 z m 5.412,-4.13026 c 0.68317,-0.14457 1.28624,-0.51802 1.66753,-1.03262 l 0.26438,-0.35681 V 132.3843 c 0,-15.777 -0.0144,-16.92045 -0.21864,-17.29361 -0.4907,-0.89678 -1.43425,-1.27057 -3.51143,-1.39106 -1.68771,-0.0979 -2.5609,0.11927 -3.14239,0.78154 -0.2149,0.24476 -0.4342,0.60037 -0.48734,0.79025 -0.0531,0.18987 -0.0966,7.88062 -0.0966,17.09056 0,16.7236 3.8e-4,16.74598 0.26334,17.25085 0.31715,0.60881 1.06387,1.06158 1.98999,1.20661 0.73357,0.11489 2.37011,0.039 3.27117,-0.15167 z m -29.953724,4.03816 c -0.226275,-0.22627 -0.220014,-44.50063 0.0063,-44.6835 0.395567,-0.31962 10.612265,-0.79493 11.993977,-0.55799 1.578317,0.27065 2.701271,1.08722 3.312224,2.40853 l 0.270115,0.58418 v 12.89074 12.89075 l -0.349332,0.71106 c -0.415978,0.84672 -1.388321,1.79608 -2.213351,2.16103 -1.281552,0.56689 -1.740833,0.62741 -5.399248,0.71155 l -3.538635,0.0814 -0.03274,6.47697 -0.03274,6.47697 h -1.932464 c -1.334521,0 -1.979389,-0.0469 -2.08412,-0.15166 z m 10.862205,-17.20461 c 0.694613,-0.4624 0.676275,-0.13628 0.676275,-12.02705 0,-6.04727 -0.04129,-11.14169 -0.09175,-11.32092 -0.169064,-0.60045 -0.494453,-0.64586 -3.944403,-0.5505 -1.762781,0.0487 -3.237553,0.14322 -3.325469,0.21308 -0.238935,0.18987 -0.230477,23.51012 0.0086,23.70853 0.167562,0.13907 2.631475,0.24314 5.07819,0.2145 0.978418,-0.0114 1.339393,-0.0651 1.598563,-0.23764 z m 29.759669,16.15185 c -0.12055,-0.31415 -0.0907,-42.43555 0.0302,-42.62622 0.0856,-0.13501 0.34648,-0.13989 1.38287,-0.0258 1.70865,0.18801 2.702,0.35484 2.81995,0.47359 0.0534,0.0538 1.63612,5.69958 3.51713,12.54621 1.881,6.84662 3.48346,12.59059 3.56102,12.76436 0.13442,0.30118 0.14578,0.30414 0.24311,0.0632 0.0562,-0.13902 0.10609,-5.66972 0.11097,-12.29044 0.005,-6.62072 0.0362,-12.03768 0.0696,-12.03768 0.0334,0 0.87223,0.17681 1.8641,0.39292 1.10443,0.24063 1.86464,0.47041 1.96139,0.59286 0.12478,0.15793 0.15757,4.10553 0.15604,18.78523 -0.001,10.89399 -0.0494,18.66021 -0.11653,18.76635 -0.14089,0.22265 -4.06498,1.05304 -4.22616,0.89431 -0.061,-0.0601 -1.63033,-5.47878 -3.48742,-12.04159 -1.85708,-6.56281 -3.4209,-12.00418 -3.47513,-12.09193 -0.0783,-0.1267 -0.12098,-0.12425 -0.20726,0.0119 -0.0597,0.0943 -0.10951,5.84434 -0.11058,12.77785 -10e-4,6.93352 -0.0291,12.60639 -0.0624,12.60639 -0.0942,0 -3.2484,0.50409 -3.62014,0.57854 -0.23328,0.0467 -0.35499,0.005 -0.41073,-0.14002 z m -58.053205,-0.57296 c -1.455521,-0.18935 -3.627463,-0.65117 -4.78456,-1.01734 -2.017088,-0.63834 -3.244168,-1.67289 -3.802181,-3.20565 -0.218957,-0.60143 -0.232765,-1.54355 -0.264369,-18.03806 l -0.03334,-17.40348 0.475674,-0.12546 c 0.493734,-0.13023 3.31812,-0.76988 3.399395,-0.76988 0.02541,0 0.04621,7.5326 0.04621,16.73911 0,11.45812 0.04285,16.93891 0.135823,17.37243 0.10098,0.47085 0.25047,0.73398 0.582749,1.02572 0.574432,0.50436 0.814009,0.59363 2.567304,0.9566 1.901293,0.39361 3.124511,0.40365 3.600097,0.0296 0.734275,-0.57758 0.696818,0.45705 0.696818,-19.24765 0,-9.97676 0.01422,-18.13963 0.0316,-18.13971 0.01738,-8e-5 0.910059,-0.1133 1.983738,-0.25161 1.537593,-0.19806 1.973767,-0.21816 2.053974,-0.0946 0.05601,0.0862 0.08747,8.77277 0.06991,19.30337 l -0.03192,19.14655 -0.287767,0.84774 c -0.825038,2.43051 -2.859527,3.33806 -6.439146,2.8724 z m -19.433672,-4.83562 c -3.45925,-1.25357 -7.038095,-2.82052 -8.372665,-3.66586 l -0.537114,-0.34022 v -11.94317 -11.94317 l 0.410734,-0.25315 c 1.640653,-1.01119 5.429071,-2.70525 7.962228,-3.56045 2.503647,-0.84524 3.951342,-0.68338 5.218142,0.58342 1.21219,1.21219 1.124449,0.11862 1.166991,14.5449 0.02485,8.42595 -0.0072,12.9254 -0.09616,13.50036 -0.31828,2.05705 -1.686673,3.46701 -3.4736,3.57911 -0.652653,0.0409 -0.979614,-0.0311 -2.278554,-0.50177 z m 1.167577,-4.44896 c 0.151782,-0.10632 0.334732,-0.40489 0.406555,-0.6635 0.08497,-0.30594 0.130832,-4.10295 0.131291,-10.869 7.58e-4,-11.11334 0.0035,-11.06204 -0.612186,-11.39155 -0.140333,-0.0751 -0.456134,-0.13655 -0.701781,-0.13655 -0.439859,0 -3.014344,0.95286 -4.372421,1.6183 l -0.695089,0.34059 -0.0324,9.53455 c -0.02078,6.11458 0.01211,9.57906 0.09168,9.65864 0.06824,0.0682 1.134938,0.56779 2.370427,1.11011 2.324227,1.02021 2.903749,1.15575 3.413923,0.79841 z m 102.52709,-9.34514 V 120.8679 l -0.36413,-0.18829 c -0.53817,-0.27831 -3.47776,-1.26341 -4.53309,-1.51912 l -0.91625,-0.22201 v -2.13725 -2.13725 l 0.34754,0.0821 c 2.39058,0.56504 7.02019,2.19207 9.63647,3.38663 1.72466,0.78746 5.05864,2.58671 5.46592,2.9498 0.19496,0.1738 0.22117,0.46356 0.22117,2.44495 0,1.26053 -0.052,2.27992 -0.11836,2.32094 -0.0651,0.0402 -0.76175,-0.34875 -1.54815,-0.86439 -1.8683,-1.22505 -3.87794,-2.29378 -4.02906,-2.14265 -0.0691,0.0691 -0.12973,4.92611 -0.14884,11.91683 l -0.0322,11.80025 -1.75518,0.73729 c -0.96534,0.40551 -1.86106,0.7373 -1.99048,0.7373 -0.22803,0 -0.23531,-0.42001 -0.23531,-13.58259 z"
         id="path29"
         inkscape:connector-curvature="0" />
      <path
         style="fill:#e42f4b;stroke-width:0.12637985"
         d="m 89.53875,161.04175 c -33.621769,-1.00688 -58.586759,-8.97943 -65.913456,-21.04941 -2.189081,-3.60629 -2.793382,-7.7471 -1.698139,-11.63603 0.420698,-1.49379 1.635423,-3.89065 2.677545,-5.28325 7.131237,-9.52957 25.713693,-16.29673 51.348216,-18.69947 3.056308,-0.28647 3.324617,-0.30722 6.571753,-0.50828 9.635528,-0.59662 20.543311,-0.54931 30.204781,0.13101 30.22789,2.12852 51.61671,10.20595 57.37494,21.66752 2.61462,5.20432 2.02152,10.94342 -1.63412,15.81217 -1.17724,1.56791 -3.5162,3.857 -5.26053,5.1484 -4.0344,2.9868 -9.71451,5.75057 -16.10497,7.83619 -15.02331,4.90308 -35.48562,7.2424 -57.56602,6.58115 z m 17.5668,-2.77221 c 34.92114,-1.59655 58.21364,-10.27802 61.5662,-22.94666 0.44995,-1.70024 0.48382,-4.24168 0.0782,-5.86764 -1.30548,-5.23327 -5.99767,-9.88261 -13.69452,-13.56944 -10.13173,-4.85316 -24.55457,-8.0097 -42.19961,-9.2357 -9.7045,-0.67428 -20.715319,-0.71999 -30.457541,-0.12643 -23.288665,1.4189 -41.19445,6.1136 -50.905915,13.34696 -1.543923,1.14995 -3.929551,3.53805 -4.791819,4.79677 -4.790051,6.99244 -2.714303,14.6776 5.550988,20.55172 10.749874,7.63992 31.110858,12.3337 57.160827,13.17719 3.864608,0.12514 13.72923,0.0545 17.69318,-0.12677 z m -24.170147,-3.50359 -1.169013,-0.0442 V 132.3718 110.02187 l 0.663494,-0.0761 c 1.868594,-0.21422 5.329454,-0.37119 8.435855,-0.38261 l 3.475446,-0.0128 0.703503,0.32994 c 1.226503,0.57523 1.997158,1.5993 2.26454,3.0092 0.182782,0.96381 0.173918,23.85509 -0.0096,24.84794 -0.333197,1.80243 -1.362995,2.93622 -3.281192,3.61255 -0.75277,0.26541 -1.093036,0.29255 -4.479665,0.35723 l -3.665016,0.07 -0.06319,6.50857 -0.06319,6.50856 -0.821469,0.008 c -0.451808,0.004 -1.347526,-0.012 -1.990483,-0.0363 z m 9.761115,-17.24362 c 0.720069,-0.56641 0.696818,-0.15876 0.696818,-12.21652 0,-11.04675 -0.0015,-11.1103 -0.261933,-11.44144 l -0.261932,-0.33299 -3.245108,0.002 c -1.78481,9.5e-4 -3.373069,0.036 -3.529464,0.0779 l -0.284354,0.0762 v 11.93223 11.93222 l 0.284354,0.1143 c 0.156395,0.0629 1.62737,0.1179 3.268833,0.12231 2.876389,0.008 2.997093,-0.002 3.332786,-0.26597 z m 13.361172,17.14251 c -2.20247,-0.47825 -3.42867,-1.67333 -3.8168,-3.71993 -0.18347,-0.96745 -0.17368,-36.35821 0.0103,-37.35365 0.2574,-1.39238 1.05622,-2.54155 2.15712,-3.10319 1.03279,-0.52689 1.64558,-0.64646 3.65091,-0.71238 5.98745,-0.19685 8.9272,1.20648 9.46447,4.51798 0.088,0.54232 0.13221,6.62373 0.13139,18.06831 -0.001,14.33345 -0.0313,17.39257 -0.17887,18.08888 -0.55105,2.59976 -2.29448,3.8682 -5.88422,4.2811 -1.52535,0.17544 -4.58835,0.1383 -5.53434,-0.0671 z m 5.92835,-3.96853 c 0.68597,-0.20747 1.28557,-0.6567 1.53384,-1.14919 0.20856,-0.41372 0.2198,-1.44439 0.18957,-17.37471 l -0.0322,-16.9349 -0.30451,-0.42696 c -0.45111,-0.6325 -1.35015,-0.9865 -2.93351,-1.15508 -2.34154,-0.2493 -3.68553,0.21491 -4.14678,1.43229 -0.093,0.2455 -0.1348,5.5642 -0.1348,17.16012 0,18.32376 -0.0435,17.24986 0.72716,17.97399 0.61941,0.58206 1.27458,0.72425 3.06424,0.66501 0.86886,-0.0288 1.78548,-0.11452 2.03694,-0.19057 z m 10.47466,-18.35063 v -21.3745 l 1.10582,0.091 c 1.79812,0.14794 2.96435,0.36499 3.08167,0.57352 0.0587,0.10426 1.64216,5.79136 3.51889,12.63798 1.87673,6.84663 3.46998,12.57959 3.54056,12.7399 0.0706,0.16032 0.18495,0.25648 0.25416,0.21371 0.0821,-0.0508 0.12585,-4.33279 0.12585,-12.32916 0,-10.53864 0.0253,-12.25139 0.1807,-12.25139 0.25681,0 3.46281,0.73007 3.61264,0.82267 0.16644,0.10286 0.17172,37.55266 0.005,37.6555 -0.26504,0.16381 -3.96129,0.84 -4.05587,0.74198 -0.056,-0.0581 -1.62062,-5.47989 -3.47684,-12.04848 -1.85622,-6.5686 -3.42995,-12.04853 -3.49718,-12.17763 -0.0727,-0.13959 -0.16845,-0.1885 -0.23628,-0.12067 -0.0659,0.0659 -0.12767,5.49962 -0.14627,12.86686 l -0.0322,12.7528 -1.76932,0.28296 c -0.97313,0.15563 -1.86884,0.28623 -1.99048,0.29021 -0.20979,0.007 -0.22117,-1.09207 -0.22117,-21.36724 z m -58.19792,20.6621 c -1.428865,-0.21339 -3.844739,-0.75273 -4.802434,-1.07213 -2.423025,-0.8081 -3.530903,-2.02357 -3.848677,-4.22244 -0.152776,-1.05715 -0.183636,-34.13518 -0.03193,-34.22894 0.134837,-0.0833 3.408717,-0.83755 3.635611,-0.83755 0.15355,0 0.183836,2.45329 0.212066,17.17841 l 0.03294,17.17841 0.26438,0.35679 c 0.145409,0.19624 0.446097,0.48052 0.668197,0.63173 0.73578,0.50093 4.286688,1.17981 5.237811,1.00137 0.261653,-0.0491 0.658048,-0.25214 0.880877,-0.45123 l 0.405146,-0.36199 0.03285,-18.32102 c 0.02581,-14.39567 0.06643,-18.3476 0.18957,-18.44503 0.134625,-0.10653 3.082647,-0.53676 3.677951,-0.53676 0.19079,0 0.206899,1.47476 0.206019,18.86219 -6.32e-4,12.30389 -0.04616,19.14782 -0.130958,19.68367 -0.256367,1.61994 -1.197115,2.88398 -2.49748,3.35576 -0.587028,0.21297 -3.250305,0.36042 -4.13193,0.22876 z m -19.471583,-4.90037 c -3.174738,-1.13376 -6.866281,-2.73977 -8.11146,-3.5289 l -0.537755,-0.34081 0.03224,-11.95594 0.03224,-11.95595 1.011038,-0.57724 c 1.891782,-1.0801 5.91415,-2.78385 8.135439,-3.44592 1.055782,-0.31469 2.241715,-0.28819 3.089304,0.069 0.712825,0.30043 1.533733,1.12019 1.872852,1.87025 l 0.29867,0.66059 v 13.39627 13.39626 l -0.334649,0.71379 c -0.184057,0.39258 -0.572971,0.95211 -0.864253,1.24339 -1.191087,1.19109 -2.266516,1.29696 -4.623658,0.45518 z m 1.068296,-4.13219 c 0.807048,-0.28134 0.773298,0.22552 0.773298,-11.61324 0,-9.34544 -0.02501,-10.80322 -0.190878,-11.12396 -0.437,-0.84507 -0.963386,-0.82573 -3.342798,0.12282 -2.274191,0.9066 -2.855664,1.19434 -2.9593,1.46441 -0.133869,0.34886 -0.09134,18.75559 0.04392,19.00833 0.06748,0.12608 0.349043,0.31982 0.625693,0.43051 0.276649,0.11069 1.230897,0.52463 2.120549,0.91985 1.364287,0.60608 1.986475,0.83915 2.451755,0.91843 0.04176,0.007 0.256754,-0.0501 0.477764,-0.12715 z m 102.888217,-9.52081 v -13.57867 l -0.2621,-0.18358 c -0.25813,-0.1808 -4.09349,-1.47153 -5.14064,-1.73 l -0.53711,-0.13257 v -2.01721 c 0,-1.62253 0.0338,-2.0172 0.17292,-2.0172 0.26838,0 4.15362,1.1865 5.70374,1.74185 2.7319,0.97874 5.59366,2.29659 8.1515,3.7538 1.65642,0.94368 1.51656,0.64324 1.51656,3.25766 0,2.6039 0.1246,2.46298 -1.31732,1.48997 -0.90173,-0.60847 -3.56767,-2.14411 -4.01819,-2.31455 -0.11941,-0.0452 -0.26159,-0.0135 -0.31595,0.0703 -0.0543,0.0838 -0.12726,5.46305 -0.16201,11.95379 l -0.0632,11.80132 -1.81951,0.74188 c -1.00071,0.40802 -1.83956,0.74187 -1.8641,0.74187 -0.0245,0 -0.0446,-6.1104 -0.0446,-13.57867 z"
         id="path27"
         inkscape:connector-curvature="0" />
      <path
         style="fill:#e21736;stroke-width:0.12637985"
         d="m 88.906851,160.91441 c -29.694568,-0.93984 -52.881736,-7.4455 -62.529877,-17.54409 -5.046904,-5.28254 -6.25624,-11.76427 -3.291174,-17.63987 5.109027,-10.12409 22.47307,-17.6486 47.811922,-20.71875 14.299596,-1.73259 31.990358,-1.92405 46.760548,-0.50607 12.05028,1.15687 22.47622,3.26044 31.18655,6.29231 3.92604,1.36656 8.87468,3.65899 11.63527,5.38996 6.49001,4.06942 10.17567,8.74411 10.95855,13.89924 2.19642,14.46302 -17.11149,25.8331 -50.30493,29.62368 -9.83048,1.12261 -21.277646,1.55013 -32.226859,1.20359 z m 17.566799,-2.52692 c 24.12073,-0.94596 43.79507,-5.60246 54.24108,-12.83771 4.04468,-2.80146 6.57893,-5.83285 7.7564,-9.2779 1.45779,-4.26525 0.65816,-8.45122 -2.35235,-12.31416 -5.34739,-6.86157 -17.49948,-12.17978 -34.78089,-15.22144 -19.03236,-3.34983 -44.745299,-3.64903 -64.673893,-0.75256 -22.068597,3.2075 -36.649529,9.74685 -41.133235,18.44768 -1.541364,2.99109 -1.8601,6.12278 -0.945653,9.29137 2.080145,7.20779 10.924625,13.30543 25.207178,17.37856 14.888243,4.24586 35.112943,6.13203 56.681363,5.28616 z m -23.727817,-3.75 -0.853064,-0.0442 v -22.22301 -22.22302 l 0.410735,-0.0716 c 1.07949,-0.18822 5.313748,-0.38269 8.499045,-0.39034 3.467704,-0.008 3.55201,-0.002 4.205849,0.29302 0.843371,0.38112 1.70414,1.32277 2.009451,2.19825 0.216518,0.62086 0.230072,1.39684 0.230072,13.17133 0,14.18118 0.06695,13.24482 -1.034577,14.46998 -0.737163,0.81991 -1.400479,1.2025 -2.629949,1.51695 -0.865117,0.22126 -1.401907,0.25288 -4.292344,0.25288 -2.400941,0 -3.345012,0.0414 -3.45523,0.15166 -0.113975,0.11397 -0.151656,1.74685 -0.151656,6.57175 v 6.4201 l -1.042634,-0.0248 c -0.573448,-0.0136 -1.426512,-0.0446 -1.895698,-0.069 z m 9.834142,-16.89961 c 0.318273,-0.13299 0.511291,-0.33678 0.688255,-0.72669 0.237607,-0.52352 0.246029,-0.9176 0.24871,-11.63798 0.003,-12.07361 0.02251,-11.73691 -0.689849,-11.9157 -0.52957,-0.13291 -6.864245,-0.003 -7.010958,0.14402 -0.09201,0.0921 -0.123279,3.84752 -0.101019,12.13247 l 0.03224,11.99912 0.695089,0.0742 c 0.382299,0.0408 1.820116,0.0835 3.195151,0.0948 1.944557,0.016 2.598343,-0.0205 2.94238,-0.16421 z m 13.374095,16.81331 c -2.00619,-0.45741 -3.22013,-1.66122 -3.5823,-3.5524 -0.10529,-0.54982 -0.13414,-5.75171 -0.10653,-19.20552 0.0372,-18.11538 0.0425,-18.46275 0.29063,-19.07116 0.13902,-0.34083 0.50256,-0.89847 0.80788,-1.23919 1.08608,-1.21206 2.48919,-1.64272 5.32439,-1.63422 5.05063,0.0151 7.5195,1.00903 8.49519,3.41989 l 0.28537,0.70512 0.0366,17.75637 c 0.0258,12.51186 -0.005,17.99677 -0.10268,18.57031 -0.37149,2.17135 -1.6711,3.42952 -4.19841,4.06454 -1.37256,0.34487 -6.02968,0.46451 -7.25012,0.18626 z m 6.1059,-3.79274 c 0.78545,-0.24371 1.39858,-0.72898 1.63452,-1.29364 0.14264,-0.34139 0.17238,-3.29241 0.17238,-17.10283 0,-14.73382 -0.0228,-16.7448 -0.19439,-17.1555 -0.37237,-0.89122 -0.9932,-1.30573 -2.31444,-1.54532 -1.04886,-0.19019 -2.85684,-0.19627 -3.53297,-0.0119 -0.71918,0.19615 -1.50273,0.9136 -1.66798,1.52728 -0.086,0.31949 -0.1182,6.13125 -0.096,17.34128 l 0.0334,16.86073 0.33627,0.50811 c 0.32774,0.49521 0.91242,0.86635 1.68581,1.07009 0.60589,0.15961 3.21223,0.0285 3.94338,-0.19833 z m 10.52711,-18.41461 v -21.24995 l 1.10582,0.0888 c 0.60821,0.0489 1.5021,0.15654 1.98643,0.23929 l 0.8806,0.15046 3.5569,12.92601 c 1.95629,7.10931 3.59071,12.95982 3.63203,13.00115 0.0413,0.0413 0.16289,0.0414 0.27015,2.5e-4 0.17393,-0.0667 0.19502,-1.40783 0.19502,-12.4008 0,-10.33308 0.0279,-12.326 0.17258,-12.326 0.16889,0 2.83436,0.57759 3.27127,0.70886 0.20934,0.0629 0.22116,1.06882 0.22116,18.81521 v 18.74876 l -0.85306,0.1887 c -1.61941,0.35822 -3.07735,0.61933 -3.13519,0.56149 -0.0319,-0.0319 -1.61427,-5.55732 -3.51636,-12.2787 -1.90209,-6.72137 -3.49155,-12.25388 -3.53213,-12.29446 -0.0406,-0.0406 -0.16154,-0.0401 -0.2688,0.001 -0.17401,0.0668 -0.19502,1.46179 -0.19502,12.94682 v 12.87195 l -1.80092,0.27797 c -0.9905,0.15289 -1.84356,0.27688 -1.89569,0.27553 -0.0521,-0.001 -0.0948,-9.56493 -0.0948,-21.2524 z M 64.1364,152.87601 c -0.208526,-0.0264 -1.221705,-0.21882 -2.251508,-0.42759 -3.741454,-0.7585 -5.100084,-1.59254 -5.927479,-3.63876 l -0.288462,-0.71339 -0.03463,-17.27115 -0.03463,-17.27114 1.361614,-0.31743 c 0.748888,-0.17458 1.57488,-0.35661 1.835539,-0.4045 l 0.473924,-0.0871 v 16.94074 c 0,11.66209 0.04189,17.05159 0.13442,17.29651 0.195132,0.51646 0.73696,1.04659 1.336441,1.30759 0.816826,0.35564 3.038219,0.7838 4.158102,0.80147 1.145747,0.0181 1.536399,-0.15018 1.959389,-0.8439 0.241063,-0.39536 0.246264,-0.78666 0.246726,-18.56352 2.53e-4,-9.9878 0.0463,-18.18797 0.102319,-18.22259 0.118799,-0.0734 2.973093,-0.45749 3.399945,-0.45749 h 0.289604 v 18.96362 c 0,20.98366 0.0342,20.07264 -0.800308,21.3213 -0.493757,0.7388 -1.390203,1.3543 -2.236972,1.5359 -0.597787,0.1282 -2.86987,0.15957 -3.724042,0.0514 z m -17.629989,-4.30094 c -0.470781,-0.0905 -4.402145,-1.57088 -6.066232,-2.28429 -1.620164,-0.69458 -3.090463,-1.41705 -3.816256,-1.87522 l -0.480659,-0.30343 v -11.77039 c 0,-8.1225 0.04161,-11.82052 0.134274,-11.93217 0.205821,-0.248 4.281415,-2.22361 6.069857,-2.94232 4.069868,-1.63552 5.669661,-1.68343 7.139276,-0.21382 1.142443,1.14244 1.073412,0.12535 1.034593,15.24356 l -0.03389,13.19806 -0.331093,0.70602 c -0.70458,1.50244 -2.275547,2.43817 -3.649873,2.174 z m -0.372139,-4.58989 c 0.639419,-0.34221 0.624899,-0.0713 0.624899,-11.66143 v -10.79306 l -0.288605,-0.42943 c -0.445585,-0.663 -0.979019,-0.74014 -2.177038,-0.31483 -1.056304,0.37499 -3.801774,1.52147 -4.106109,1.71467 -0.165278,0.10492 -0.193599,1.33143 -0.221009,9.57188 -0.02448,7.3599 0.0035,9.51891 0.126379,9.756 0.102444,0.19763 0.4904,0.448 1.105669,0.71355 0.521317,0.22501 1.544993,0.67 2.274837,0.98887 1.354257,0.59169 2.149802,0.72735 2.660977,0.45378 z M 148.87409,134.4594 c 0,-12.62066 -0.0135,-13.45944 -0.22116,-13.70223 -0.25249,-0.29523 -2.80699,-1.23893 -4.54968,-1.68076 l -1.16901,-0.29638 v -1.92924 c 0,-1.06108 0.0505,-1.92923 0.11224,-1.92923 0.19788,0 2.29845,0.62299 4.12148,1.22237 3.33579,1.09673 6.04751,2.27045 8.90378,3.85384 1.01118,0.56056 1.91099,1.08714 1.99957,1.17018 0.12111,0.11354 0.15246,0.68807 0.12638,2.31611 l -0.0347,2.16512 -1.05416,-0.69699 c -1.17287,-0.77548 -3.84961,-2.29885 -4.09554,-2.33083 -0.087,-0.0113 -0.22934,-0.0138 -0.31623,-0.006 -0.12513,0.0118 -0.15838,2.46533 -0.15991,11.79989 -0.001,6.48171 -0.0437,11.84623 -0.0948,11.92116 -0.0873,0.12802 -1.40885,0.72268 -2.90481,1.30703 l -0.66349,0.25917 V 134.459 Z"
         id="path25"
         inkscape:connector-curvature="0" />
    </g>
  </g>
</svg>
