<?xml version="1.0" encoding="UTF-8" standalone="no"?>
<!-- Created with Inkscape (http://www.inkscape.org/) -->

<svg
   xmlns:dc="http://purl.org/dc/elements/1.1/"
   xmlns:cc="http://creativecommons.org/ns#"
   xmlns:rdf="http://www.w3.org/1999/02/22-rdf-syntax-ns#"
   xmlns:svg="http://www.w3.org/2000/svg"
   xmlns="http://www.w3.org/2000/svg"
   xmlns:sodipodi="http://sodipodi.sourceforge.net/DTD/sodipodi-0.dtd"
   xmlns:inkscape="http://www.inkscape.org/namespaces/inkscape"
   width="210mm"
   height="297mm"
   viewBox="0 0 210 297"
   version="1.1"
   id="svg84"
   inkscape:version="0.92.1 r15371"
   sodipodi:docname="Merck.svg">
  <defs
     id="defs78" />
  <sodipodi:namedview
     id="base"
     pagecolor="#ffffff"
     bordercolor="#666666"
     borderopacity="1.0"
     inkscape:pageopacity="0.0"
     inkscape:pageshadow="2"
     inkscape:zoom="0.35"
     inkscape:cx="400"
     inkscape:cy="560"
     inkscape:document-units="mm"
     inkscape:current-layer="layer1"
     showgrid="false"
     inkscape:window-width="1920"
     inkscape:window-height="1001"
     inkscape:window-x="-9"
     inkscape:window-y="-9"
     inkscape:window-maximized="1" />
  <metadata
     id="metadata81">
    <rdf:RDF>
      <cc:Work
         rdf:about="">
        <dc:format>image/svg+xml</dc:format>
        <dc:type
           rdf:resource="http://purl.org/dc/dcmitype/StillImage" />
        <dc:title></dc:title>
      </cc:Work>
    </rdf:RDF>
  </metadata>
  <g
     inkscape:label="Layer 1"
     inkscape:groupmode="layer"
     id="layer1">
    <g
       id="g97"
       transform="matrix(1.0370654,0,0,1.0370654,-19.609221,-33.868813)">
      <path
         style="fill:#f8f9f9;stroke-width:0.35277778"
         d="m 39.561504,136.7381 v -22.40139 h 72.319446 72.31945 v 22.40139 22.40139 H 111.88095 39.561504 Z"
         id="path113"
         inkscape:connector-curvature="0" />
      <path
         style="fill:#9fd5d3;stroke-width:0.35277778"
         d="m 59.275533,156.88856 c -3.752221,-1.34086 -6.166998,-4.01927 -7.177638,-7.96126 -0.378245,-1.47534 -0.500807,-1.59427 -2.050463,-1.98959 -9.508504,-2.42564 -11.344426,-14.49534 -2.99166,-19.66773 0.532334,-0.32964 1.796178,-0.81133 2.808543,-1.07041 1.762443,-0.45104 1.857608,-0.53696 2.23942,-2.02182 0.97208,-3.78041 3.641747,-6.83165 6.934108,-7.9252 2.326746,-0.77282 6.243019,-0.55268 8.216719,0.46187 2.93319,1.50776 5.243633,4.55882 5.76502,7.61299 0.235014,1.37666 0.330115,1.47177 1.706776,1.70678 3.249562,0.55474 6.265124,2.92589 7.734596,6.08175 1.216812,2.61325 1.189214,6.43871 -0.0646,8.95479 -1.650245,3.31161 -3.95581,4.94337 -8.879985,6.28482 -0.242535,0.0661 -0.442523,0.56167 -0.444419,1.10134 -0.01038,2.95415 -3.791365,7.38852 -7.150413,8.38605 -2.170194,0.64448 -4.917399,0.66334 -6.646003,0.0456 z M 71.992172,145.9257 c 0.443308,-0.27398 -0.20405,-2.5165 -1.248503,-4.32495 -1.031985,-1.78687 -2.677156,-3.10209 -4.968116,-3.97172 -0.932795,-0.35408 -1.695992,-0.85362 -1.695992,-1.11009 0,-0.25647 0.639129,-0.70895 1.420285,-1.00552 3.352027,-1.2726 5.863354,-3.86721 6.373118,-6.58449 0.440229,-2.34662 0.789823,-2.2667 -9.460279,-2.16268 l -9.269236,0.0941 -0.116292,0.82094 c -0.178384,1.25924 1.578681,4.48505 3.197902,5.87104 0.798109,0.68315 2.250135,1.54016 3.226725,1.90446 0.97659,0.3643 1.829109,0.82283 1.894487,1.01897 0.06538,0.19613 -0.704396,0.65264 -1.710607,1.01447 -1.006212,0.36183 -2.544293,1.28708 -3.417958,2.05611 -1.605927,1.41359 -3.240869,4.30008 -3.247199,5.73291 -0.0032,0.7376 0.164427,0.78582 3.083359,0.88659 4.517011,0.15594 15.566826,-0.0105 15.938306,-0.24011 z m 81.656368,1.42459 c -4.52201,-1.41533 -7.90092,-6.01274 -7.90092,-10.75015 v -1.61333 l -0.86445,1.27216 c -0.47545,0.69969 -1.11045,1.36656 -1.41111,1.48193 -0.30066,0.11538 -0.54666,0.38812 -0.54666,0.6061 0,0.21797 1.19063,2.04934 2.64583,4.0697 1.45521,2.02036 2.64584,3.89376 2.64584,4.16312 0,0.67751 -0.7931,0.918 -3.02747,0.918 -2.33419,0 -2.30371,0.0284 -5.96837,-5.5603 -1.55222,-2.36718 -2.94128,-4.30701 -3.0868,-4.31072 -0.14552,-0.004 -0.26459,2.05141 -0.26459,4.56694 0,4.16083 -0.0616,4.60667 -0.68236,4.93889 -0.80478,0.4307 -3.53396,0.47715 -4.17376,0.071 -0.34703,-0.22028 -0.42556,-2.59466 -0.35278,-10.66613 l 0.0936,-10.38276 5.22661,-0.0978 c 4.87614,-0.0912 5.32202,-0.0442 6.64918,0.70176 1.66207,0.93414 2.97732,2.98197 3.32933,5.18376 l 0.24852,1.55442 0.84179,-1.65637 c 1.09634,-2.15724 3.08412,-4.11816 5.25121,-5.18025 3.51458,-1.72249 10.32167,-1.20113 10.86686,0.83231 0.31693,1.18205 0.2486,3.53625 -0.11953,4.1183 -0.27912,0.44133 -0.54117,0.39702 -1.78452,-0.30178 -1.76338,-0.99108 -4.91408,-1.13943 -6.5214,-0.30707 -4.41428,2.28597 -4.41978,9.18568 -0.009,11.4665 1.61875,0.83709 4.31537,0.72906 6.2693,-0.25117 0.92026,-0.46167 1.77667,-0.73593 1.90312,-0.60948 0.12646,0.12646 0.30628,1.02458 0.39961,1.99583 0.2136,2.22303 -0.41103,3.25993 -2.30576,3.8276 -1.80106,0.53961 -5.49837,0.49883 -7.3512,-0.0811 z m -14.05849,-13.0656 c 1.76635,-1.76635 0.52372,-4.07298 -2.1942,-4.07298 h -1.52601 v 2.46944 2.46945 h 1.42715 c 1.04487,0 1.65909,-0.23194 2.29306,-0.86591 z m -46.521075,12.77216 c -0.547885,-0.40108 -0.59388,-1.36654 -0.508398,-10.67153 l 0.09399,-10.23055 h 3.688849 3.688844 l 1.77921,4.4951 c 0.97856,2.47231 1.87104,4.49637 1.98328,4.49792 0.11225,0.002 1.00644,-2.02125 1.9871,-4.49511 l 1.78302,-4.49791 h 3.65735 3.65735 l 0.094,10.23055 c 0.0855,9.30499 0.0395,10.27045 -0.5084,10.67153 -0.76784,0.56209 -3.7209,0.57427 -4.27753,0.0176 -0.29354,-0.29354 -0.42333,-2.13235 -0.42333,-5.99723 0,-3.06563 -0.11907,-5.57165 -0.26459,-5.56893 -0.14552,0.003 -1.28239,2.42366 -2.52639,5.37986 -2.32109,5.51579 -2.88117,6.4994 -3.4875,6.12467 -0.19193,-0.11862 -1.43397,-2.75678 -2.76008,-5.86258 -1.326112,-3.1058 -2.533688,-5.6469 -2.683502,-5.6469 -0.149811,0 -0.272383,2.60239 -0.272383,5.78309 0,4.94798 -0.08058,5.81401 -0.558021,5.99722 -0.968551,0.37167 -3.515783,0.23219 -4.142846,-0.22684 z m 23.988895,0 c -0.54789,-0.40108 -0.59388,-1.36654 -0.5084,-10.67153 l 0.094,-10.23055 6.14748,-0.0968 c 6.75216,-0.10631 6.71811,-0.11663 6.71811,2.03707 0,2.09369 -0.30153,2.2744 -4.12038,2.46945 l -3.45354,0.17639 v 1.5875 1.5875 l 3.15663,0.10294 c 1.73615,0.0566 3.36334,0.2745 3.61598,0.48417 0.25263,0.20967 0.45934,1.05672 0.45934,1.88233 0,0.82561 -0.20671,1.67266 -0.45934,1.88233 -0.25264,0.20967 -1.87983,0.42755 -3.61598,0.48417 l -3.15663,0.10294 v 1.94028 1.94028 l 3.3323,0.10235 c 1.83276,0.0563 3.53932,0.27416 3.79236,0.48417 0.64113,0.53209 0.5782,2.94912 -0.0943,3.62161 -0.45546,0.45546 -1.51341,0.55437 -5.9298,0.55437 -3.74388,0 -5.55826,-0.13384 -5.97781,-0.44097 z m 47.82252,0.14681 c -0.34703,-0.22028 -0.42556,-2.59466 -0.35278,-10.66613 l 0.0936,-10.38276 h 2.46944 2.46945 l 0.10012,3.79236 c 0.0551,2.08579 0.21383,3.78846 0.35278,3.7837 0.13896,-0.005 1.49529,-1.75747 3.01408,-3.8949 l 2.76143,-3.88625 2.67831,0.10254 c 1.5104,0.0578 2.73306,0.26819 2.80385,0.48241 0.0691,0.20893 -1.2364,2.27128 -2.901,4.583 -1.72416,2.39445 -2.96225,4.44892 -2.87717,4.77431 0.0822,0.31414 1.67816,2.79979 3.54667,5.52365 1.86853,2.72387 3.39731,5.11032 3.39731,5.30323 0,0.1929 -0.2511,0.44709 -0.55802,0.56487 -0.6892,0.26447 -3.59865,0.27249 -4.56589,0.0126 -0.41847,-0.11245 -2.02521,-2.14984 -3.88055,-4.92066 -1.7415,-2.60082 -3.28543,-4.73479 -3.43095,-4.74216 -0.14552,-0.007 -0.26459,2.04476 -0.26459,4.56029 0,4.16083 -0.0616,4.60667 -0.68236,4.93889 -0.80478,0.4307 -3.53396,0.47715 -4.17376,0.071 z"
         id="path111"
         inkscape:connector-curvature="0" />
      <path
         style="fill:#a1a0a1;stroke-width:0.35277778"
         d="m 59.434344,156.39126 c -3.581893,-1.27997 -6.039637,-4.03362 -6.855981,-7.68143 -0.408514,-1.82543 -0.45577,-1.87894 -1.867295,-2.11427 -8.423075,-1.40433 -11.441446,-11.89713 -5.070158,-17.62547 1.628054,-1.46376 4.273183,-2.63894 5.939808,-2.63894 0.417009,0 0.677975,-0.40692 0.848396,-1.32291 1.294015,-6.95515 8.102288,-10.70358 14.389529,-7.92243 2.94471,1.30259 5.345003,4.46752 5.776674,7.6169 0.21091,1.53876 0.223035,1.55025 1.866519,1.76826 3.566454,0.47311 7.187277,3.74673 8.173108,7.3894 0.535774,1.97969 0.218517,5.40982 -0.658668,7.12144 -1.522953,2.97169 -4.497808,5.14014 -7.769339,5.66328 -1.252285,0.20025 -1.484319,0.3661 -1.484319,1.06097 0,1.59858 -1.412028,4.59233 -2.851955,6.04666 -2.821802,2.85001 -6.934659,3.88983 -10.436319,2.63854 z m 13.16643,-11.18762 c -0.448641,-3.2732 -3.07601,-6.64228 -6.072335,-7.78659 -0.861813,-0.32913 -1.566933,-0.69684 -1.566933,-0.81714 0,-0.12029 0.759427,-0.56711 1.687616,-0.99293 3.088414,-1.41684 5.546347,-4.65302 5.97793,-7.87071 l 0.188465,-1.40512 H 62.49925 52.182983 l 0.234172,1.32292 c 0.606658,3.42721 2.869359,6.39448 6.057135,7.94322 0.85158,0.41373 1.548327,0.86211 1.548327,0.99641 0,0.1343 -0.631626,0.4969 -1.403612,0.80579 -1.778319,0.71154 -4.101521,2.79781 -4.935124,4.4318 -0.829417,1.6258 -1.514396,4.1739 -1.240957,4.61634 0.130606,0.21132 4.112703,0.34463 10.294297,0.34463 H 72.81852 Z m 81.941366,2.16458 c -3.58889,-0.96767 -6.08162,-3.09049 -7.65932,-6.52273 -1.74871,-3.80426 -0.52391,-9.28198 2.71035,-12.12171 2.2843,-2.00563 4.79708,-2.92269 7.97251,-2.90961 1.84585,0.008 3.2799,0.21487 4.14514,0.59908 l 1.32292,0.58746 v 2.31105 c 0,2.60922 -0.13666,2.7049 -2.29306,1.6055 -4.38752,-2.23688 -9.37914,0.8307 -9.42371,5.7913 -0.0446,4.95914 5.01311,8.09902 9.42371,5.85037 2.11944,-1.08055 2.29379,-0.97973 2.28765,1.32292 -0.003,1.11566 -0.1361,2.23452 -0.29585,2.48636 -0.36355,0.57311 -3.69731,1.48055 -5.34319,1.45439 -0.6791,-0.0108 -1.96031,-0.21526 -2.84715,-0.45438 z m -61.551506,-0.66867 c -0.09403,-0.24503 -0.128729,-4.96784 -0.07712,-10.49514 l 0.09383,-10.04964 3.048435,-0.10137 c 2.343033,-0.0779 3.171006,0.0212 3.578158,0.42835 0.291352,0.29135 1.288923,2.44041 2.216833,4.77568 0.92791,2.33527 1.80085,4.24595 1.93986,4.24595 0.13902,0 1.08149,-2.06519 2.09438,-4.58931 2.08581,-5.1978 1.87767,-5.02905 6.0001,-4.86465 l 2.64168,0.10535 v 10.40694 10.40694 l -1.88072,0.10763 c -2.88387,0.16502 -2.88178,0.16977 -2.88178,-6.55962 0,-3.21004 -0.11907,-5.72006 -0.26459,-5.57783 -0.14552,0.14223 -1.37965,2.82775 -2.74251,5.96782 -1.54513,3.56003 -2.66782,5.70923 -2.98237,5.70923 -0.31552,0 -1.41109,-2.11397 -2.92527,-5.64445 -1.331451,-3.10444 -2.569073,-5.79526 -2.750264,-5.97958 -0.204304,-0.20784 -0.329441,1.82471 -0.329441,5.35101 0,3.12738 -0.09636,5.93725 -0.214133,6.24416 -0.273621,0.71305 -4.296579,0.81221 -4.565075,0.11253 z m 23.992176,0.009 c -0.0958,-0.24973 -0.13201,-4.9764 -0.0804,-10.5037 l 0.0938,-10.04964 5.29167,-0.10113 c 7.03715,-0.13448 6.94206,-0.16437 6.80902,2.14085 l -0.10624,1.84083 -3.52778,0.17639 -3.52778,0.17639 v 1.94028 1.94027 l 3.35139,0.17639 3.35139,0.17639 0.10618,1.83909 0.10618,1.83909 -3.45757,0.10119 -3.45757,0.10119 -0.10503,2.20486 -0.10502,2.20486 3.28002,0.005 c 1.80402,0.003 3.48816,0.13739 3.74254,0.29871 0.30614,0.19415 0.42541,0.87812 0.35278,2.02307 l -0.10973,1.72976 -5.91682,0.0968 c -4.56993,0.0747 -5.95647,-0.007 -6.09105,-0.3573 z m 13.84547,0.21667 c -0.13756,-0.13756 -0.2501,-4.72859 -0.2501,-10.20228 0,-8.32223 0.0849,-10.02261 0.51818,-10.38223 0.36934,-0.30652 1.92231,-0.39493 5.40649,-0.30778 4.64234,0.11612 4.96206,0.17111 6.35402,1.09281 3.52329,2.33298 3.90794,7.88079 0.71032,10.24489 -0.55754,0.41221 -0.94554,0.92711 -0.86222,1.14423 0.0833,0.21712 1.27825,1.99321 2.6554,3.94685 1.37716,1.95365 2.50392,3.80671 2.50392,4.11793 0,0.46535 -0.43832,0.56584 -2.46811,0.56584 h -2.46811 l -3.41413,-5.12442 c -1.87778,-2.81843 -3.54039,-4.99817 -3.6947,-4.84386 -0.15431,0.15431 -0.32511,2.42061 -0.37956,5.03623 l -0.099,4.75566 -2.13115,0.10312 c -1.17213,0.0567 -2.24369,-0.009 -2.38125,-0.14699 z m 9.06394,-12.46477 c 0.89363,-0.89363 0.87808,-2.67964 -0.0312,-3.58897 -0.90676,-0.90676 -3.57944,-1.3204 -4.02143,-0.62238 -0.3635,0.57407 -0.4279,3.86393 -0.0927,4.73734 0.18839,0.49095 0.52067,0.55878 1.84691,0.377 0.88945,-0.12192 1.92378,-0.52826 2.29851,-0.90299 z m 24.77278,12.14271 c -0.12108,-0.31554 -0.22015,-4.90692 -0.22015,-10.20306 0,-7.88418 0.0907,-9.70462 0.50053,-10.04474 0.28833,-0.2393 1.29784,-0.36978 2.38125,-0.30778 l 1.88072,0.10763 0.17639,3.94097 c 0.097,2.16753 0.26975,4.03361 0.38387,4.14684 0.11412,0.11323 1.28749,-1.34271 2.60747,-3.23542 3.58226,-5.13655 3.45204,-5.02878 6.07706,-5.02878 1.66841,0 2.29464,0.13554 2.44577,0.52937 0.12401,0.32317 -0.97963,2.16563 -2.83329,4.72999 -1.67004,2.31033 -3.03644,4.30353 -3.03644,4.42934 0,0.12581 1.60776,2.58345 3.57279,5.46143 1.96504,2.87797 3.46379,5.40905 3.33057,5.62461 -0.13963,0.22592 -1.2701,0.39192 -2.66906,0.39192 h -2.42683 l -3.43504,-5.11221 c -1.88927,-2.81172 -3.52627,-5.02163 -3.63776,-4.91092 -0.1115,0.11071 -0.2821,2.37151 -0.37911,5.02401 l -0.17639,4.82273 -2.1611,0.1039 c -1.73388,0.0833 -2.20461,-0.01 -2.38125,-0.46983 z"
         id="path109"
         inkscape:connector-curvature="0" />
      <path
         style="fill:#5ab0ab;stroke-width:0.35277778"
         d="m 59.434344,156.39126 c -3.581893,-1.27997 -6.039637,-4.03362 -6.855981,-7.68143 -0.408514,-1.82543 -0.45577,-1.87894 -1.867295,-2.11427 -8.423075,-1.40433 -11.441446,-11.89713 -5.070158,-17.62547 1.628054,-1.46376 4.273183,-2.63894 5.939808,-2.63894 0.417009,0 0.677975,-0.40692 0.848396,-1.32291 1.294015,-6.95515 8.102288,-10.70358 14.389529,-7.92243 2.94471,1.30259 5.345003,4.46752 5.776674,7.6169 0.21091,1.53876 0.223035,1.55025 1.866519,1.76826 3.566454,0.47311 7.187277,3.74673 8.173108,7.3894 0.535774,1.97969 0.218517,5.40982 -0.658668,7.12144 -1.522953,2.97169 -4.497808,5.14014 -7.769339,5.66328 -1.252285,0.20025 -1.484319,0.3661 -1.484319,1.06097 0,1.59858 -1.412028,4.59233 -2.851955,6.04666 -2.821802,2.85001 -6.934659,3.88983 -10.436319,2.63854 z m 13.16643,-11.18762 c -0.435569,-3.17782 -2.821648,-6.34716 -5.755649,-7.64501 -0.841963,-0.37244 -1.530841,-0.81432 -1.530841,-0.98196 0,-0.16764 0.690539,-0.63908 1.534532,-1.04765 2.965394,-1.43553 5.35843,-4.66287 5.778236,-7.79275 l 0.188465,-1.40512 H 62.49925 52.182983 l 0.234172,1.32292 c 0.328812,1.85757 1.756426,4.69907 2.921855,5.81562 0.541599,0.51889 1.832458,1.40701 2.868575,1.97362 l 1.88385,1.03019 -0.81846,0.57327 c -0.450153,0.3153 -0.998912,0.57327 -1.219464,0.57327 -0.704143,0 -3.681187,2.86179 -4.358832,4.19009 -0.838692,1.64397 -1.526648,4.19271 -1.251755,4.6375 0.130606,0.21132 4.112703,0.34463 10.294297,0.34463 H 72.81852 Z m 81.714426,1.78239 c -5.01701,-1.56794 -7.84653,-5.26342 -7.84653,-10.24793 0,-4.28296 2.02458,-7.51367 5.90601,-9.42449 2.06989,-1.01901 2.6954,-1.15858 5.18358,-1.15661 1.80838,0.001 3.21161,0.19353 3.88798,0.53226 0.96759,0.48458 1.0674,0.70366 1.16413,2.5554 0.0582,1.11396 0.0358,2.02538 -0.0497,2.02538 -0.0855,0 -0.84749,-0.31401 -1.6933,-0.69781 -1.85317,-0.84089 -4.09723,-0.90628 -5.85778,-0.17068 -1.6758,0.7002 -2.47719,1.44261 -3.30231,3.0593 -1.29971,2.54655 -0.64877,6.67258 1.33583,8.46727 1.90402,1.72182 5.37868,2.16581 7.69754,0.98359 0.76115,-0.38806 1.50909,-0.70556 1.66209,-0.70556 0.46511,0 0.31709,3.76373 -0.16278,4.13922 -0.65434,0.51202 -3.56017,1.15582 -5.09511,1.12885 -0.7387,-0.013 -2.01205,-0.23267 -2.82968,-0.48819 z m -61.048715,-10.31836 0.09363,-10.16013 2.767472,-0.10363 c 1.638455,-0.0614 2.956923,0.0536 3.231864,0.28178 0.255418,0.21198 1.289449,2.44142 2.297849,4.95433 1.00839,2.5129 1.94951,4.56891 2.09137,4.56891 0.31272,0 0.72839,-0.88975 2.55456,-5.46805 0.77392,-1.94028 1.5762,-3.73224 1.78285,-3.98214 0.26384,-0.31908 1.22612,-0.42412 3.23182,-0.35278 l 2.85611,0.10158 0.0936,10.16013 0.0936,10.16013 -2.03391,-0.10596 -2.03392,-0.10596 -0.0962,-6.4382 c -0.0529,-3.54101 -0.23204,-6.43819 -0.39813,-6.43819 -0.16609,0 -1.48012,2.73843 -2.92007,6.08541 -1.53869,3.57648 -2.81426,6.08542 -3.09388,6.08542 -0.27985,0 -1.53095,-2.46546 -3.03802,-5.98683 -1.409237,-3.29276 -2.731391,-6.04322 -2.93813,-6.11213 -0.254603,-0.0849 -0.406947,1.96068 -0.472143,6.33961 l -0.09626,6.46491 -2.033912,0.10596 -2.033912,0.10596 z m 23.770765,9.57512 c -0.11957,-0.31161 -0.21741,-4.74102 -0.21741,-9.84313 0,-7.47182 0.095,-9.35543 0.48846,-9.68194 0.33317,-0.2765 2.21174,-0.37435 5.90903,-0.30778 l 5.42057,0.0976 v 1.5875 1.5875 l -3.52778,0.17639 -3.52778,0.17639 -0.10745,2.08394 c -0.0737,1.42839 0.0373,2.17577 0.35278,2.37585 0.25312,0.16055 1.84929,0.29434 3.54704,0.29731 l 3.0868,0.005 v 1.54976 c 0,1.80077 -0.17391,1.90719 -2.82222,1.72704 -1.06715,-0.0726 -2.46328,-0.0373 -3.1025,0.0784 l -1.16221,0.21041 0.10388,2.36233 0.10388,2.36232 3.52778,0.17639 3.52778,0.17639 v 1.5875 1.5875 l -5.69162,0.0967 c -4.95806,0.0843 -5.71964,0.0237 -5.90903,-0.46982 z m 14.0532,0.1035 c -0.0941,-0.24529 -0.12883,-4.80936 -0.0771,-10.14237 l 0.094,-9.69638 h 5.11528 c 4.65739,0 5.22701,0.0695 6.36344,0.77632 3.43598,2.13709 3.78821,7.77879 0.62622,10.03033 -0.61841,0.44035 -0.95914,0.94212 -0.84381,1.24265 0.10638,0.27723 1.30709,2.06391 2.66824,3.97038 1.36114,1.90648 2.4748,3.64603 2.4748,3.86568 0,0.25534 -0.80731,0.39936 -2.23862,0.39936 h -2.23861 l -2.74399,-4.14513 c -1.50919,-2.27983 -3.1495,-4.6876 -3.64512,-5.35061 -0.81473,-1.08988 -0.92655,-1.14062 -1.16621,-0.52916 -0.1458,0.37196 -0.27624,2.77973 -0.28987,5.3506 l -0.0248,4.6743 h -1.95135 c -1.24733,0 -2.01309,-0.1609 -2.12249,-0.44597 z m 8.92453,-11.65617 c 1.10907,-1.00719 1.08267,-3.02566 -0.0535,-4.09306 -1.17775,-1.10644 -3.68123,-1.42387 -4.3217,-0.54797 -0.48357,0.66132 -0.63516,3.58817 -0.25857,4.99247 0.18886,0.70427 0.36853,0.75498 2.02365,0.57115 1.10865,-0.12313 2.12567,-0.48261 2.61014,-0.92259 z m 24.94214,11.65617 c -0.0941,-0.24529 -0.12883,-4.80936 -0.0771,-10.14237 l 0.094,-9.69638 1.83021,-0.10587 c 2.08459,-0.12059 2.4773,0.28079 2.34709,2.39893 -0.13236,2.15302 0.28055,6.36189 0.60448,6.16169 0.17131,-0.10587 1.67529,-2.09119 3.34218,-4.41182 l 3.0307,-4.21932 h 2.07477 c 1.14112,0 2.17141,0.15637 2.28952,0.34748 0.11812,0.19112 -1.14251,2.22828 -2.8014,4.52702 -1.65889,2.29875 -3.01616,4.30157 -3.01616,4.45072 0,0.14915 1.51252,2.47609 3.36116,5.17097 1.84863,2.69489 3.45608,5.14715 3.57209,5.44949 0.18064,0.47074 -0.13746,0.53456 -2.21461,0.44437 l -2.42556,-0.10532 -2.56986,-3.70417 c -1.41342,-2.03729 -3.06464,-4.41758 -3.66937,-5.28953 -0.98702,-1.42317 -1.12851,-1.5134 -1.3829,-0.88195 -0.15587,0.38688 -0.28206,2.60842 -0.28043,4.93676 0.002,2.32833 -0.006,4.43177 -0.016,4.6743 -0.0263,0.61127 -3.85811,0.60658 -4.0928,-0.005 z"
         id="path107"
         inkscape:connector-curvature="0" />
      <path
         style="fill:#079892;stroke-width:0.35277778"
         d="m 60.634498,156.29004 c -3.138974,-0.7486 -5.654094,-2.78604 -6.934175,-5.61722 -0.394772,-0.87313 -0.721254,-2.02406 -0.725515,-2.55764 l -0.0077,-0.97014 h 9.536072 c 7.646123,0 9.572033,0.0937 9.717516,0.47283 0.283349,0.7384 -1.133174,4.15095 -2.320576,5.59051 -1.93064,2.34063 -6.29134,3.79096 -9.265575,3.08166 z m 93.680702,-9.30401 c -5.01701,-1.56794 -7.84653,-5.26342 -7.84653,-10.24793 0,-4.28296 2.02458,-7.51367 5.90601,-9.42449 2.06989,-1.01901 2.6954,-1.15858 5.18358,-1.15661 1.80838,0.001 3.21161,0.19353 3.88798,0.53226 0.96759,0.48458 1.0674,0.70366 1.16413,2.5554 0.0582,1.11396 0.0358,2.02538 -0.0497,2.02538 -0.0855,0 -0.84749,-0.31401 -1.6933,-0.69781 -1.85317,-0.84089 -4.09723,-0.90628 -5.85778,-0.17068 -1.6758,0.7002 -2.47719,1.44261 -3.30231,3.0593 -1.29971,2.54655 -0.64877,6.67258 1.33583,8.46727 1.90402,1.72182 5.37868,2.16581 7.69754,0.98359 0.76115,-0.38806 1.50909,-0.70556 1.66209,-0.70556 0.46511,0 0.31709,3.76373 -0.16278,4.13922 -0.65434,0.51202 -3.56017,1.15582 -5.09511,1.12885 -0.7387,-0.013 -2.01205,-0.23267 -2.82968,-0.48819 z m -61.048715,-10.31836 0.09363,-10.16013 2.767472,-0.10363 c 1.638455,-0.0614 2.956923,0.0536 3.231864,0.28178 0.255418,0.21198 1.289449,2.44142 2.297849,4.95433 1.00839,2.5129 1.94951,4.56891 2.09137,4.56891 0.31272,0 0.72839,-0.88975 2.55456,-5.46805 0.77392,-1.94028 1.5762,-3.73224 1.78285,-3.98214 0.26384,-0.31908 1.22612,-0.42412 3.23182,-0.35278 l 2.85611,0.10158 0.0936,10.16013 0.0936,10.16013 -2.03391,-0.10596 -2.03392,-0.10596 -0.0962,-6.4382 c -0.0529,-3.54101 -0.23204,-6.43819 -0.39813,-6.43819 -0.16609,0 -1.48012,2.73843 -2.92007,6.08541 -1.53869,3.57648 -2.81426,6.08542 -3.09388,6.08542 -0.27985,0 -1.53095,-2.46546 -3.03802,-5.98683 -1.409237,-3.29276 -2.731391,-6.04322 -2.93813,-6.11213 -0.254603,-0.0849 -0.406947,1.96068 -0.472143,6.33961 l -0.09626,6.46491 -2.033912,0.10596 -2.033912,0.10596 z m 23.770765,9.57512 c -0.11957,-0.31161 -0.21741,-4.74102 -0.21741,-9.84313 0,-7.47182 0.095,-9.35543 0.48846,-9.68194 0.33317,-0.2765 2.21174,-0.37435 5.90903,-0.30778 l 5.42057,0.0976 v 1.5875 1.5875 l -3.52778,0.17639 -3.52778,0.17639 -0.10745,2.08394 c -0.0737,1.42839 0.0373,2.17577 0.35278,2.37585 0.25312,0.16055 1.84929,0.29434 3.54704,0.29731 l 3.0868,0.005 v 1.54976 c 0,1.80077 -0.17391,1.90719 -2.82222,1.72704 -1.06715,-0.0726 -2.46328,-0.0373 -3.1025,0.0784 l -1.16221,0.21041 0.10388,2.36233 0.10388,2.36232 3.52778,0.17639 3.52778,0.17639 v 1.5875 1.5875 l -5.69162,0.0967 c -4.95806,0.0843 -5.71964,0.0237 -5.90903,-0.46982 z m 14.0532,0.1035 c -0.0941,-0.24529 -0.12883,-4.80936 -0.0771,-10.14237 l 0.094,-9.69638 h 5.11528 c 4.65739,0 5.22701,0.0695 6.36344,0.77632 3.43598,2.13709 3.78821,7.77879 0.62622,10.03033 -0.61841,0.44035 -0.95914,0.94212 -0.84381,1.24265 0.10638,0.27723 1.30709,2.06391 2.66824,3.97038 1.36114,1.90648 2.4748,3.64603 2.4748,3.86568 0,0.25534 -0.80731,0.39936 -2.23862,0.39936 h -2.23861 l -2.74399,-4.14513 c -1.50919,-2.27983 -3.1495,-4.6876 -3.64512,-5.35061 -0.81473,-1.08988 -0.92655,-1.14062 -1.16621,-0.52916 -0.1458,0.37196 -0.27624,2.77973 -0.28987,5.3506 l -0.0248,4.6743 h -1.95135 c -1.24733,0 -2.01309,-0.1609 -2.12249,-0.44597 z m 8.92453,-11.65617 c 1.10907,-1.00719 1.08267,-3.02566 -0.0535,-4.09306 -1.17775,-1.10644 -3.68123,-1.42387 -4.3217,-0.54797 -0.48357,0.66132 -0.63516,3.58817 -0.25857,4.99247 0.18886,0.70427 0.36853,0.75498 2.02365,0.57115 1.10865,-0.12313 2.12567,-0.48261 2.61014,-0.92259 z m 24.94214,11.65617 c -0.0941,-0.24529 -0.12883,-4.80936 -0.0771,-10.14237 l 0.094,-9.69638 1.83021,-0.10587 c 2.08459,-0.12059 2.4773,0.28079 2.34709,2.39893 -0.13236,2.15302 0.28055,6.36189 0.60448,6.16169 0.17131,-0.10587 1.67529,-2.09119 3.34218,-4.41182 l 3.0307,-4.21932 h 2.07477 c 1.14112,0 2.17141,0.15637 2.28952,0.34748 0.11812,0.19112 -1.14251,2.22828 -2.8014,4.52702 -1.65889,2.29875 -3.01616,4.30157 -3.01616,4.45072 0,0.14915 1.51252,2.47609 3.36116,5.17097 1.84863,2.69489 3.45608,5.14715 3.57209,5.44949 0.18064,0.47074 -0.13746,0.53456 -2.21461,0.44437 l -2.42556,-0.10532 -2.56986,-3.70417 c -1.41342,-2.03729 -3.06464,-4.41758 -3.66937,-5.28953 -0.98702,-1.42317 -1.12851,-1.5134 -1.3829,-0.88195 -0.15587,0.38688 -0.28206,2.60842 -0.28043,4.93676 0.002,2.32833 -0.006,4.43177 -0.016,4.6743 -0.0263,0.61127 -3.85811,0.60658 -4.0928,-0.005 z M 48.380949,145.35345 c -5.543779,-2.50655 -7.437153,-9.51723 -3.914433,-14.49415 1.291264,-1.82431 3.909631,-3.51618 5.765412,-3.72535 l 1.539901,-0.17357 0.586314,2.10886 c 0.733399,2.63789 2.768518,5.27902 4.966034,6.44479 0.902058,0.47855 1.640106,0.9653 1.640106,1.08169 0,0.11639 -0.647819,0.50374 -1.439598,0.86078 -0.791779,0.35704 -2.056486,1.34999 -2.810458,2.20655 -1.263059,1.43491 -2.8055,4.68293 -2.8055,5.90773 0,0.74108 -1.630151,0.64065 -3.527778,-0.21733 z m 24.5538,-0.71023 c -0.126952,-0.79391 -0.530737,-2.03136 -0.897299,-2.74988 -0.736318,-1.4433 -3.409456,-4.06449 -4.783527,-4.69056 -1.162341,-0.52959 -1.117249,-0.70634 0.386868,-1.51636 2.620012,-1.41097 5.434604,-5.55781 5.434604,-8.007 0,-1.42215 3.838346,-0.41858 6.279149,1.64175 0.640129,0.54035 1.583976,1.7952 2.09744,2.78858 0.765736,1.48143 0.933694,2.28178 0.934265,4.45196 7.06e-4,2.83114 -0.5917,4.45174 -2.423103,6.62824 -1.125333,1.33738 -4.181476,2.89676 -5.677206,2.89676 -1.038492,0 -1.137237,-0.10549 -1.351191,-1.44349 z M 52.967061,125.23123 c 0,-2.6933 2.588149,-6.32538 5.518001,-7.7437 2.397951,-1.16083 5.804234,-1.09305 8.379107,0.16671 2.823917,1.38162 4.937506,4.19091 5.207936,6.92218 l 0.121346,1.22557 -9.613195,0.0939 -9.613195,0.0939 z"
         id="path105"
         inkscape:connector-curvature="0" />
      <path
         style="fill:#5d5b5c;stroke-width:0.35277778"
         d="m 154.3152,146.98603 c -5.01701,-1.56794 -7.84653,-5.26342 -7.84653,-10.24793 0,-4.28296 2.02458,-7.51367 5.90601,-9.42449 2.06989,-1.01901 2.6954,-1.15858 5.18358,-1.15661 1.80838,0.001 3.21161,0.19353 3.88798,0.53226 0.96759,0.48458 1.0674,0.70366 1.16413,2.5554 0.0582,1.11396 0.0358,2.02538 -0.0497,2.02538 -0.0855,0 -0.84749,-0.31401 -1.6933,-0.69781 -1.85317,-0.84089 -4.09723,-0.90628 -5.85778,-0.17068 -1.6758,0.7002 -2.47719,1.44261 -3.30231,3.0593 -1.29971,2.54655 -0.64877,6.67258 1.33583,8.46727 1.90402,1.72182 5.37868,2.16581 7.69754,0.98359 0.76115,-0.38806 1.50909,-0.70556 1.66209,-0.70556 0.46511,0 0.31709,3.76373 -0.16278,4.13922 -0.65434,0.51202 -3.56017,1.15582 -5.09511,1.12885 -0.7387,-0.013 -2.01205,-0.23267 -2.82968,-0.48819 z m -61.048715,-10.31836 0.09363,-10.16013 2.767472,-0.10363 c 1.638455,-0.0614 2.956923,0.0536 3.231864,0.28178 0.255418,0.21198 1.289449,2.44142 2.297849,4.95433 1.00839,2.5129 1.94951,4.56891 2.09137,4.56891 0.31272,0 0.72839,-0.88975 2.55456,-5.46805 0.77392,-1.94028 1.5762,-3.73224 1.78285,-3.98214 0.26384,-0.31908 1.22612,-0.42412 3.23182,-0.35278 l 2.85611,0.10158 0.0936,10.16013 0.0936,10.16013 -2.03391,-0.10596 -2.03392,-0.10596 -0.0962,-6.4382 c -0.0529,-3.54101 -0.23204,-6.43819 -0.39813,-6.43819 -0.16609,0 -1.48012,2.73843 -2.92007,6.08541 -1.53869,3.57648 -2.81426,6.08542 -3.09388,6.08542 -0.27985,0 -1.53095,-2.46546 -3.03802,-5.98683 -1.409237,-3.29276 -2.731391,-6.04322 -2.93813,-6.11213 -0.254603,-0.0849 -0.406947,1.96068 -0.472143,6.33961 l -0.09626,6.46491 -2.033912,0.10596 -2.033912,0.10596 z m 23.770765,9.57512 c -0.11957,-0.31161 -0.21741,-4.74102 -0.21741,-9.84313 0,-7.47182 0.095,-9.35543 0.48846,-9.68194 0.33317,-0.2765 2.21174,-0.37435 5.90903,-0.30778 l 5.42057,0.0976 v 1.5875 1.5875 l -3.52778,0.17639 -3.52778,0.17639 -0.10745,2.08394 c -0.0737,1.42839 0.0373,2.17577 0.35278,2.37585 0.25312,0.16055 1.84929,0.29434 3.54704,0.29731 l 3.0868,0.005 v 1.54976 c 0,1.80077 -0.17391,1.90719 -2.82222,1.72704 -1.06715,-0.0726 -2.46328,-0.0373 -3.1025,0.0784 l -1.16221,0.21041 0.10388,2.36233 0.10388,2.36232 3.52778,0.17639 3.52778,0.17639 v 1.5875 1.5875 l -5.69162,0.0967 c -4.95806,0.0843 -5.71964,0.0237 -5.90903,-0.46982 z m 14.0532,0.1035 c -0.0941,-0.24529 -0.12883,-4.80936 -0.0771,-10.14237 l 0.094,-9.69638 h 5.11528 c 4.65739,0 5.22701,0.0695 6.36344,0.77632 3.43598,2.13709 3.78821,7.77879 0.62622,10.03033 -0.61841,0.44035 -0.95914,0.94212 -0.84381,1.24265 0.10638,0.27723 1.30709,2.06391 2.66824,3.97038 1.36114,1.90648 2.4748,3.64603 2.4748,3.86568 0,0.25534 -0.80731,0.39936 -2.23862,0.39936 h -2.23861 l -2.74399,-4.14513 c -1.50919,-2.27983 -3.1495,-4.6876 -3.64512,-5.35061 -0.81473,-1.08988 -0.92655,-1.14062 -1.16621,-0.52916 -0.1458,0.37196 -0.27624,2.77973 -0.28987,5.3506 l -0.0248,4.6743 h -1.95135 c -1.24733,0 -2.01309,-0.1609 -2.12249,-0.44597 z m 8.92453,-11.65617 c 1.10907,-1.00719 1.08267,-3.02566 -0.0535,-4.09306 -1.17775,-1.10644 -3.68123,-1.42387 -4.3217,-0.54797 -0.48357,0.66132 -0.63516,3.58817 -0.25857,4.99247 0.18886,0.70427 0.36853,0.75498 2.02365,0.57115 1.10865,-0.12313 2.12567,-0.48261 2.61014,-0.92259 z m 24.94214,11.65617 c -0.0941,-0.24529 -0.12883,-4.80936 -0.0771,-10.14237 l 0.094,-9.69638 1.83021,-0.10587 c 2.08459,-0.12059 2.4773,0.28079 2.34709,2.39893 -0.13236,2.15302 0.28055,6.36189 0.60448,6.16169 0.17131,-0.10587 1.67529,-2.09119 3.34218,-4.41182 l 3.0307,-4.21932 h 2.07477 c 1.14112,0 2.17141,0.15637 2.28952,0.34748 0.11812,0.19112 -1.14251,2.22828 -2.8014,4.52702 -1.65889,2.29875 -3.01616,4.30157 -3.01616,4.45072 0,0.14915 1.51252,2.47609 3.36116,5.17097 1.84863,2.69489 3.45608,5.14715 3.57209,5.44949 0.18064,0.47074 -0.13746,0.53456 -2.21461,0.44437 l -2.42556,-0.10532 -2.56986,-3.70417 c -1.41342,-2.03729 -3.06464,-4.41758 -3.66937,-5.28953 -0.98702,-1.42317 -1.12851,-1.5134 -1.3829,-0.88195 -0.15587,0.38688 -0.28206,2.60842 -0.28043,4.93676 0.002,2.32833 -0.006,4.43177 -0.016,4.6743 -0.0263,0.61127 -3.85811,0.60658 -4.0928,-0.005 z"
         id="path103"
         inkscape:connector-curvature="0" />
      <path
         style="fill:#201c1d;stroke-width:0.35277778"
         d="m 154.62109,146.64793 c -2.28856,-0.57701 -4.40561,-2.00982 -5.93782,-4.01868 -3.76312,-4.93379 -1.80404,-12.26297 4.04426,-15.13013 1.72177,-0.84411 2.42773,-0.98425 4.83815,-0.96039 1.55222,0.0154 3.25878,0.20914 3.79236,0.43061 0.85607,0.35534 0.97014,0.59038 0.97014,1.99892 0,1.77374 -0.0826,1.8205 -1.88587,1.06706 -1.57307,-0.65727 -4.12237,-0.68173 -5.62199,-0.0539 -3.16934,1.32681 -5.0022,5.42155 -3.97501,8.88047 0.57306,1.92971 2.48766,4.0953 4.1857,4.7344 1.41828,0.53381 3.93478,0.46155 5.4113,-0.15538 1.7992,-0.75176 1.88587,-0.7047 1.88587,1.02382 0,1.42865 -0.09,1.58437 -1.12442,1.94496 -1.85053,0.6451 -4.57757,0.74381 -6.58267,0.23827 z M 93.536508,136.56677 v -9.91137 l 2.895643,0.10246 2.895639,0.10246 1.9301,4.85069 c 1.43254,3.60021 2.08629,4.8507 2.53596,4.8507 0.44921,0 1.10743,-1.25424 2.54563,-4.8507 l 1.93977,-4.85069 2.85918,-0.10246 2.85919,-0.10246 v 9.91137 9.91137 l -1.67569,-0.10752 -1.6757,-0.10752 -0.0958,-6.79097 c -0.0767,-5.43943 -0.19118,-6.79098 -0.575,-6.79098 -0.28486,0 -1.58656,2.57524 -3.20974,6.35 -1.50181,3.4925 -2.8431,6.35 -2.98065,6.35 -0.13754,0 -1.46001,-2.81781 -2.93881,-6.2618 -1.608336,-3.74567 -2.90527,-6.30704 -3.227628,-6.37439 -0.466069,-0.0974 -0.551861,0.80849 -0.634799,6.70278 l -0.0959,6.81536 -1.675694,0.10752 -1.675695,0.10752 z m 23.988892,-0.0143 v -9.88697 l 5.37986,0.0974 5.37986,0.0974 0.10874,1.31035 0.10874,1.31035 -3.63652,0.10076 -3.63651,0.10076 -0.10561,2.43787 c -0.0742,1.71177 0.0309,2.52446 0.35278,2.72862 0.25211,0.15992 1.84744,0.29319 3.54519,0.29617 l 3.0868,0.005 v 1.23472 1.23472 h -3.1318 c -2.2646,0 -3.24612,0.13774 -3.54462,0.49741 -0.25239,0.30412 -0.372,1.43515 -0.30778,2.91042 l 0.10504,2.41301 3.52777,0.17638 3.52778,0.17639 0.10949,1.32292 0.10949,1.32292 h -5.48935 -5.48935 v -9.88697 z m 13.84095,0.0974 0.0938,-9.78958 h 4.7625 c 4.12804,0 4.92208,0.094 5.96035,0.70556 1.67965,0.98934 2.55444,2.30381 2.76267,4.1512 0.24161,2.14358 -0.42398,3.96127 -1.87424,5.11843 -0.66237,0.52851 -1.20431,1.18032 -1.20432,1.44848 -1e-5,0.26815 1.08344,2.0144 2.40765,3.88055 1.32422,1.86615 2.52421,3.59144 2.66665,3.83397 0.19435,0.33092 -0.22955,0.44098 -1.69844,0.44098 h -1.95744 l -3.34662,-5.01258 -3.34663,-5.01258 1.65262,-0.41961 c 2.70598,-0.68708 3.86051,-2.76546 2.66926,-4.80517 -0.83752,-1.43402 -1.96667,-2.02426 -3.88535,-2.03097 -1.11241,-0.004 -1.57886,0.16665 -1.85208,0.67716 -0.22079,0.41254 -0.36519,3.83018 -0.36519,8.64305 v 7.9607 h -1.76947 -1.76947 z m 33.94335,9.34309 c -0.0942,-0.24557 -0.12894,-4.65088 -0.0771,-9.78958 l 0.0942,-9.34309 1.66501,-0.10709 1.66502,-0.10708 0.0989,4.34042 c 0.0544,2.38723 0.0514,6.84073 -0.007,9.89667 l -0.10544,5.55625 h -1.58132 c -0.95006,0 -1.64972,-0.17825 -1.75266,-0.4465 z m 8.36271,-4.81513 c -1.97072,-2.8939 -3.58312,-5.3646 -3.58312,-5.49045 0,-0.28442 4.80749,-7.12603 5.76885,-8.20973 0.54665,-0.61621 1.08491,-0.79375 2.40653,-0.79375 0.93632,0 1.7024,0.15458 1.7024,0.34351 0,0.18893 -1.27,2.11762 -2.82222,4.28597 -1.55222,2.16834 -2.82222,4.12809 -2.82222,4.35499 0,0.2269 1.50812,2.61742 3.35138,5.31227 1.84327,2.69485 3.35139,5.02552 3.35139,5.17927 0,0.15375 -0.84822,0.27955 -1.88494,0.27955 h -1.88494 z"
         id="path101"
         inkscape:connector-curvature="0" />
      <path
         style="fill:#1e1b1c;stroke-width:0.35277778"
         d="m 155.71582,146.41865 c -0.82339,-0.16191 -1.77589,-0.45676 -2.11666,-0.65522 -0.55477,-0.32307 -0.53655,-0.36194 0.17416,-0.37155 0.70186,-0.009 0.95395,-0.34841 0.84334,-1.13381 -0.0652,-0.4629 2.59988,0.15499 3.03721,0.70418 0.29791,0.3741 0.44098,0.40925 0.44098,0.10835 0,-0.32384 0.1427,-0.3027 0.52286,0.0775 0.28758,0.28757 0.72414,0.59468 0.97014,0.68246 1.38593,0.49451 -1.84922,0.9859 -3.87203,0.58812 z m 3.34182,-0.54508 c -0.11723,-0.11722 -0.4215,-0.12976 -0.67616,-0.0279 -0.28142,0.11262 -0.19783,0.19621 0.21314,0.21314 0.37188,0.0153 0.58024,-0.0681 0.46302,-0.18529 z m -65.117656,-5.34311 c 0.04534,-4.96921 0.0777,-5.24622 0.30625,-2.62181 0.256617,2.94665 0.64239,3.88808 1.401095,3.41917 0.2546,-0.15735 0.331195,-0.73698 0.203384,-1.53912 -0.112766,-0.70769 -0.04702,-1.52484 0.146092,-1.81588 0.43367,-0.65357 0.420494,-0.77026 0.488019,4.32153 l 0.05029,3.79236 h -1.322916 -1.322917 z m 1.227345,4.42782 c 0.21795,-0.35265 0.297967,-1.63336 0.165139,-2.64316 -0.0863,-0.65608 -1.069439,1.2533 -1.079186,2.09589 -0.01161,1.00446 0.457793,1.28551 0.914047,0.54727 z m 16.017461,-5.66254 c 0.009,-6.55021 0.0308,-6.75652 0.61196,-5.81904 0.33142,0.53457 0.76376,0.9186 0.96075,0.85341 0.19708,-0.0652 0.40363,-1.56067 0.45923,-3.32484 0.0896,-2.84166 0.0294,-3.22119 -0.52916,-3.33712 -0.52534,-0.10904 -0.49813,-0.16697 0.16352,-0.3481 l 0.79375,-0.21729 v 9.49198 9.49197 h -1.23472 -1.23472 l 0.009,-6.79097 z m 2.10728,4.60938 c 0,-0.55077 -0.15849,-0.63946 -0.79375,-0.44419 -1.03719,0.31881 -1.09357,0.38418 -0.85892,0.99568 0.28847,0.75173 1.65267,0.2965 1.65267,-0.55149 z m -1.05834,-3.48368 c 0,-0.3766 -0.15875,-0.68473 -0.35278,-0.68473 -0.19402,0 -0.35277,0.40624 -0.35277,0.90276 0,0.51201 0.15269,0.8084 0.35277,0.68474 0.19403,-0.11992 0.35278,-0.52616 0.35278,-0.90277 z m 0.9392,-4.3007 c -0.0979,-0.24254 -0.17794,-0.0441 -0.17794,0.44097 0,0.48507 0.0801,0.68351 0.17794,0.44097 0.0979,-0.24253 0.0979,-0.63941 0,-0.88194 z m 4.74041,5.11527 c 0.0216,-2.97748 0.14424,-4.51011 0.31761,-3.96875 0.19465,0.6078 0.29339,0.6866 0.31762,0.25352 0.0193,-0.34564 0.25574,-0.71308 0.52534,-0.81654 0.29929,-0.11484 0.41503,-0.4755 0.2972,-0.92608 -0.17486,-0.66866 -0.0842,-0.71623 0.96502,-0.50639 0.63691,0.12738 2.56693,0.23161 4.28892,0.23161 3.10445,0 3.13091,0.007 3.13091,0.88194 v 0.88194 h -3.52778 c -1.94028,0 -3.52778,0.13579 -3.52778,0.30175 0,0.16596 -0.51594,0.44907 -1.14653,0.62913 -1.49387,0.42658 -1.79477,1.71889 -0.45965,1.97412 0.69619,0.13308 0.90062,0.0278 0.90062,-0.46365 0,-0.3497 0.15875,-0.73393 0.35278,-0.85385 0.2219,-0.13713 0.35278,0.66662 0.35278,2.16641 0,1.85455 -0.0941,2.29035 -0.42333,1.96109 -0.7278,-0.72779 -1.08446,-0.46575 -0.86431,0.635 0.17803,0.89014 0.10093,1.05834 -0.48507,1.05834 -0.86264,0 -0.90497,0.54921 -0.0794,1.03007 0.55134,0.32113 0.53248,0.36073 -0.17639,0.37031 -0.78686,0.0106 -0.79345,-0.0314 -0.75859,-4.83997 z m 9.37225,-4.85069 c 0,-0.42145 -0.51784,-0.52917 -2.54385,-0.52917 -1.83082,0 -2.66693,0.14833 -2.98301,0.52917 -0.38448,0.46328 -0.0677,0.52917 2.54384,0.52917 2.41638,0 2.98302,-0.10052 2.98302,-0.52917 z m -3.82911,-0.0646 c 0.25466,-0.10191 0.55893,-0.0894 0.67615,0.0279 0.11723,0.11723 -0.0911,0.20061 -0.46302,0.18529 -0.41097,-0.0169 -0.49456,-0.10052 -0.21313,-0.21314 z m -3.04291,8.88404 c 0.5372,-0.61782 1.09115,-0.86611 1.84975,-0.82908 l 1.08291,0.0529 -0.99105,0.14899 c -1.12477,0.16908 -1.10806,0.98002 0.0202,0.98002 0.4019,0 0.8509,0.11906 0.99778,0.26459 0.14689,0.14552 -0.63147,0.26458 -1.72968,0.26458 h -1.99674 z m 6.56627,0.45862 c 0.58651,-0.58651 0.52962,-0.90827 -0.19402,-1.09738 -0.37983,-0.0993 -0.24409,-0.17708 0.35277,-0.20226 0.81055,-0.0342 0.97014,0.10417 0.97014,0.84102 0,0.67349 -0.18344,0.88195 -0.77611,0.88195 -0.60364,0 -0.68203,-0.0941 -0.35278,-0.42333 z m 4.68452,-0.7232 c 0.0153,-0.63059 0.10792,-0.94809 0.20579,-0.70555 0.0979,0.24253 0.40283,0.44097 0.6777,0.44097 0.27488,0 0.51157,-0.19844 0.52599,-0.44097 0.0641,-1.07772 0.37432,-2.21734 0.68943,-2.53246 0.18848,-0.18848 0.33015,-0.98562 0.31483,-1.77143 -0.0153,-0.78582 -0.10792,-1.23032 -0.20578,-0.98778 -0.26193,0.64912 -0.93794,0.5376 -1.62824,-0.26862 -0.4461,-0.521 -0.60613,-1.34137 -0.60217,-3.0868 0.004,-1.63149 0.11001,-2.21176 0.33885,-1.84977 0.28604,0.45246 0.40907,0.42738 0.86532,-0.17639 0.62312,-0.82457 0.69544,-1.45693 0.20154,-1.76217 -0.65651,-0.40575 -0.35778,-1.15151 0.52917,-1.32107 l 0.88194,-0.16859 v 7.88858 7.88858 h -1.41111 c -1.36255,0 -1.41015,-0.0395 -1.38326,-1.14653 z m 2.25977,-9.73622 c -0.33466,-0.33466 -1.27022,1.07547 -1.13033,1.7037 0.0656,0.2948 0.30834,0.49631 0.53936,0.4478 0.23101,-0.0485 0.44671,0.11024 0.47932,0.35278 0.0326,0.24253 0.12253,-0.17027 0.1998,-0.91734 0.0773,-0.74707 0.0376,-1.46119 -0.0882,-1.58694 z m 9.53044,10.52997 c -0.12741,-0.20615 0.23566,-0.35278 0.87354,-0.35278 0.98224,0 1.05374,-0.0707 0.71396,-0.70555 -0.54945,-1.02665 -0.2498,-0.86396 0.64977,0.35278 l 0.78246,1.05833 h -1.40085 c -0.77047,0 -1.49897,-0.15875 -1.61888,-0.35278 z m 17.02153,0.11914 c 0.24253,-0.0979 0.44097,-0.48221 0.44097,-0.85409 0,-0.37189 -0.19844,-0.68732 -0.44097,-0.70096 -0.24254,-0.0136 -0.12348,-0.16122 0.26458,-0.32798 1.11602,-0.47957 1.23472,-0.41537 1.23472,0.66781 0,0.97191 -0.55377,1.48686 -1.52816,1.42101 -0.28385,-0.0192 -0.27487,-0.0832 0.0289,-0.20579 z m 5.02708,-6.29275 c 0,-3.58951 0.13734,-6.52639 0.3052,-6.52639 0.16786,0 0.71318,0.32091 1.21181,0.71314 l 0.9066,0.71313 0.14285,-1.15411 c 0.0786,-0.63476 0.14663,-0.0429 0.15126,1.31534 0.005,1.3582 -0.0616,2.10299 -0.14716,1.6551 -0.11992,-0.62765 -0.26214,-0.72591 -0.62038,-0.42859 -0.25564,0.21216 -0.67995,0.34049 -0.94291,0.28517 -0.64915,-0.13655 -0.43797,3.27968 0.23524,3.8053 0.30698,0.23969 0.46953,1.02434 0.44404,2.14345 -0.0514,2.25697 0.50733,3.30016 0.82237,1.5354 0.19544,-1.09479 0.22569,-1.02483 0.26686,0.61737 l 0.0464,1.85208 h -1.41111 -1.41111 z m 11.47089,5.4789 c -0.52866,-1.02232 -0.51738,-1.06006 0.46962,-1.57045 0.95739,-0.49509 1.03501,-0.47866 1.45617,0.30829 0.24468,0.4572 0.33658,1.00649 0.20421,1.22066 -0.13647,0.22081 0.11281,0.53117 0.57575,0.71683 0.70029,0.28086 0.60444,0.33062 -0.67383,0.3498 -1.3059,0.0196 -1.55725,-0.10722 -2.03192,-1.02513 z m -53.31141,-0.42244 c -0.0999,-0.16168 0.38331,-0.29396 1.07386,-0.29396 0.69055,0 1.25555,0.0614 1.25555,0.13635 0,0.28969 -2.15756,0.43568 -2.32941,0.15761 z m -20.38702,-0.85198 c -0.35561,-0.92671 -0.24735,-1.20587 0.46765,-1.20587 0.38021,0 0.78457,-0.32385 0.91416,-0.73214 0.1278,-0.40268 0.29554,-0.66897 0.37275,-0.59176 0.21238,0.21237 -0.97857,3.08779 -1.2789,3.08779 -0.14384,0 -0.35789,-0.25111 -0.47566,-0.55802 z m 46.94903,-0.0593 c -0.0829,-0.14552 0.20957,-0.6119 0.64991,-1.0364 l 0.80061,-0.77181 0.65219,0.74426 c 0.35871,0.40934 0.47714,0.64268 0.26319,0.51853 -0.21395,-0.12415 -0.6902,0.002 -1.05834,0.28092 -0.76227,0.577 -1.09161,0.64362 -1.30756,0.2645 z m -6.39464,-0.69034 c -0.19145,-0.50278 -0.15093,-0.5433 0.19748,-0.19749 0.2411,0.23931 0.34949,0.52396 0.24087,0.63258 -0.10862,0.10862 -0.30588,-0.0872 -0.43835,-0.43509 z m -12.16567,-0.3092 c 0.0169,-0.41096 0.10052,-0.49456 0.21314,-0.21313 0.1019,0.25466 0.0894,0.55893 -0.0278,0.67615 -0.11722,0.11723 -0.2006,-0.0911 -0.18528,-0.46302 z m 42.32746,-1.99907 c -0.61736,-1.01865 -1.10242,-1.9856 -1.0779,-2.14879 0.0245,-0.1632 -0.24381,-0.5097 -0.59628,-0.77001 -0.54188,-0.4002 -0.56594,-0.54505 -0.15578,-0.93801 0.38212,-0.36609 0.51939,-0.37113 0.64676,-0.0238 0.0889,0.24254 0.51111,0.44097 0.93818,0.44097 0.50321,0 1.0126,0.4035 1.44743,1.14653 0.52377,0.89504 0.54734,1.04605 0.10746,0.68843 -0.79019,-0.64243 -1.08359,0.0115 -0.54976,1.22541 0.24105,0.54812 0.52088,1.07595 0.62185,1.17297 0.3315,0.31853 0.36662,1.05833 0.0502,1.05833 -0.17034,0 -0.81483,-0.83344 -1.4322,-1.85208 z m -31.06642,0.97014 c -0.24154,-0.29104 -0.35979,-0.52917 -0.26278,-0.52917 0.097,0 0.37402,0.23813 0.61556,0.52917 0.24154,0.29104 0.35979,0.52916 0.26278,0.52916 -0.097,0 -0.37402,-0.23812 -0.61556,-0.52916 z m 33.5,0.1678 c -0.3659,-0.22614 -0.40167,-0.42252 -0.12696,-0.69723 0.27471,-0.27471 0.50227,-0.23801 0.80793,0.13029 0.51058,0.6152 0.0362,1.01016 -0.68097,0.56694 z m -35.95327,-0.66676 c -0.21671,-0.40493 -0.24654,-0.73577 -0.0663,-0.73577 0.36257,0 0.86312,1.06852 0.61621,1.31543 -0.0859,0.0859 -0.33331,-0.17498 -0.54988,-0.57966 z m 7.54659,-0.55938 c -0.7885,-1.65454 -0.95614,-6.21857 -0.25419,-6.92051 0.33736,-0.33736 0.47522,-0.28443 0.64312,0.24694 0.11753,0.37199 0.36086,0.95201 0.54073,1.28893 0.17986,0.33691 0.34285,0.89254 0.36219,1.23472 0.0238,0.42086 0.12654,0.33681 0.31761,-0.2598 0.2514,-0.78498 0.28631,-0.73553 0.31761,0.44979 0.0319,1.2083 -0.0629,1.35136 -1.02317,1.54341 -1.16304,0.2326 -1.39738,1.03249 -0.49566,1.69184 0.34172,0.24987 0.50408,0.75 0.41346,1.27362 -0.13809,0.79792 -0.19933,0.75701 -0.8217,-0.54894 z m 0.19835,-4.60693 c 0,-0.27959 -0.15875,-0.50834 -0.35278,-0.50834 -0.19403,0 -0.35278,0.32686 -0.35278,0.72637 0,0.39951 0.15875,0.62826 0.35278,0.50835 0.19403,-0.11992 0.35278,-0.44679 0.35278,-0.72638 z m -44.57462,4.51431 c -0.0914,-0.14795 0.0465,-0.66389 0.30644,-1.14653 0.41496,-0.77031 0.50198,-0.80209 0.71235,-0.26015 0.41348,1.06518 -0.47321,2.28945 -1.01879,1.40668 z m 64.39895,-1.31849 c 0.007,-0.58208 0.0862,-0.7775 0.1757,-0.43426 0.0894,0.34325 0.0836,0.8195 -0.0131,1.05834 -0.0966,0.23884 -0.1698,-0.042 -0.16261,-0.62408 z m -29.14368,-0.12904 c -0.15197,-0.24589 -0.18103,-0.54234 -0.0646,-0.65878 0.31572,-0.31572 0.65997,0.14863 0.48944,0.6602 -0.11949,0.35849 -0.20259,0.35821 -0.42485,-0.001 z m -36.89132,-0.57263 c -0.23977,-0.2889 -0.55645,-0.45081 -0.70372,-0.35979 -0.14728,0.091 -0.7009,-0.79962 -1.23026,-1.9792 -0.700339,-1.56057 -0.856732,-2.25046 -0.5742,-2.53299 0.213558,-0.21356 0.388289,-0.25773 0.388289,-0.0982 0,0.15958 0.250221,0.0825 0.556051,-0.17135 0.67385,-0.55924 0.92136,-0.25669 1.8243,2.23001 0.33522,0.92318 0.88927,1.76732 1.23123,1.87585 0.81386,0.25831 0.7894,0.7408 -0.0606,1.19571 -0.87584,0.46874 -0.91261,0.46463 -1.43108,-0.16009 z m 35.43048,-1.6245 c -0.10866,-0.17581 0.20868,-0.31966 0.7052,-0.31966 1.08093,0 1.16825,0.20106 0.19756,0.4549 -0.38786,0.10143 -0.7941,0.0406 -0.90276,-0.13524 z m -32.41241,-0.42307 c 0.13248,-0.34792 0.32973,-0.54371 0.43835,-0.43509 0.10862,0.10861 2.3e-4,0.39327 -0.24087,0.63257 -0.34841,0.34582 -0.38893,0.3053 -0.19748,-0.19748 z m 1.9465,-0.31731 c -0.0229,-0.75336 -0.17488,-0.92177 -0.73446,-0.814 -0.84621,0.16296 -0.8679,-0.0545 -0.17166,-1.72081 0.60571,-1.44966 0.99654,-1.69969 0.67896,-0.43435 -0.25083,0.99939 0.45234,1.60582 0.7864,0.67821 0.1267,-0.35185 0.54043,-0.94046 0.91939,-1.30804 0.67841,-0.65803 0.68494,-0.65531 0.42392,0.17639 -0.14581,0.46459 -0.62703,1.63846 -1.06938,2.6086 -0.69004,1.51337 -0.80837,1.62898 -0.83317,0.814 z m 34.71632,-1.55271 c 0.12291,-2.22522 0.5302,-3.65545 0.53473,-1.87773 0.002,0.83487 0.013,0.83178 0.52465,-0.14922 0.3708,-0.71093 0.42137,-1.19068 0.17422,-1.6525 -0.19155,-0.3579 -0.34827,-1.01475 -0.34827,-1.45966 v -0.80893 l 0.89289,0.89289 c 0.95589,0.95589 1.44793,2.91245 1.09054,4.33641 -0.27525,1.09671 -1.8887,3.04495 -2.5217,3.04495 -0.36378,0 -0.44535,-0.54669 -0.34706,-2.32621 z m -45.681337,1.12088 c 0,-0.27487 -0.143112,-0.55268 -0.318022,-0.61736 -0.174911,-0.0647 -0.09554,-0.32229 0.176389,-0.57247 0.41536,-0.38215 0.494411,-0.28344 0.494411,0.61736 0,0.58973 -0.07937,1.07224 -0.176389,1.07224 -0.09701,0 -0.176389,-0.22489 -0.176389,-0.49977 z m 74.794297,0.0796 c -0.003,-0.3281 0.15335,-0.69465 0.34738,-0.81457 0.44647,-0.27594 0.44647,0.19107 0,0.88194 -0.29472,0.45603 -0.34272,0.44672 -0.34738,-0.0674 z m 2.42227,0.15557 c -0.023,-0.14552 -0.0164,-0.40352 0.0147,-0.57332 0.0311,-0.16981 -0.20381,-0.59637 -0.52195,-0.94791 -0.62439,-0.68995 -0.42636,-1.38919 0.39344,-1.38919 0.28535,0 0.50835,-0.33349 0.50835,-0.76023 0,-0.73789 0.0207,-0.74146 0.70556,-0.12171 0.38805,0.35118 0.70555,0.784 0.70555,0.96182 0,0.42118 -0.91398,1.33123 -1.33699,1.33123 -0.18098,0 -0.25319,0.39688 -0.16046,0.88195 0.0927,0.48507 0.0707,0.88194 -0.0489,0.88194 -0.11964,0 -0.23632,-0.11906 -0.25929,-0.26458 z m -55.28468,-4.49792 -0.0589,-4.23333 h 5.11516 5.11516 l -2.4e-4,0.99214 -2.4e-4,0.99215 -3.79236,-0.11873 c -2.0858,-0.0653 -4.05859,-0.2465 -4.38398,-0.40265 -0.47739,-0.2291 -0.55459,-0.14231 -0.39983,0.4495 0.26095,0.99787 -0.53302,0.94679 -0.93784,-0.0603 -0.27687,-0.68883 -0.322,-0.61888 -0.3414,0.52917 -0.0228,1.34552 0.17558,1.48567 2.00611,1.41769 0.29585,-0.011 0.44097,0.56089 0.44097,1.73771 0,1.24639 -0.12763,1.71159 -0.44097,1.60726 -0.24254,-0.0807 -0.49705,-0.45117 -0.56559,-0.82315 -0.0685,-0.37197 -0.38604,-0.97259 -0.70556,-1.33471 -0.55011,-0.62346 -0.59183,-0.54857 -0.78621,1.41111 -0.15542,1.56684 -0.2196,1.04126 -0.26423,-2.16383 z m 8.93617,-3.35139 c 0.13438,-0.21743 -0.46671,-0.35277 -1.56668,-0.35277 -0.98159,0 -1.78471,0.15875 -1.78471,0.35277 0,0.19403 0.70501,0.35278 1.56668,0.35278 0.86167,0 1.66479,-0.15875 1.78471,-0.35278 z m -6.96736,-0.24318 c -0.33955,-0.0887 -0.89517,-0.0887 -1.23472,0 -0.33955,0.0887 -0.0617,0.16134 0.61736,0.16134 0.6791,0 0.95691,-0.0726 0.61736,-0.16134 z m 29.75364,6.45549 c -0.55537,-0.66918 -0.26936,-1.6262 0.48599,-1.6262 0.57613,0 0.64927,0.47884 0.23424,1.53351 -0.23183,0.58914 -0.30084,0.59802 -0.72023,0.0927 z m -55.771431,-3.59587 -4.27e-4,-3.49838 2.505859,0.0654 c 1.378225,0.036 2.564479,0.12401 2.636125,0.19565 0.365806,0.36581 1.874704,4.87134 1.567914,4.68173 -0.19747,-0.12205 -0.35904,-0.43367 -0.35904,-0.69251 0,-0.25883 -0.23813,-0.56198 -0.52917,-0.67366 -0.291042,-0.11168 -0.529167,-0.45751 -0.529167,-0.7685 0,-0.78802 -0.867865,-1.57337 -1.73869,-1.57337 -0.401916,0 -0.730755,-0.15875 -0.730755,-0.35278 0,-0.19402 -0.547687,-0.35277 -1.217083,-0.35277 h -1.217083 v 3.03976 c 0,1.67188 -0.08731,3.12708 -0.194028,3.2338 -0.106716,0.10671 -0.194219,-1.38024 -0.194455,-3.30435 z m 0.75008,2.36655 c 0.07276,-0.21828 0.251354,-0.39688 0.396875,-0.39688 0.413134,0 0.310353,0.51391 -0.132292,0.66146 -0.218281,0.0728 -0.337344,-0.0463 -0.264583,-0.26458 z m 1.524032,-1.58041 c -0.201916,-0.20192 -0.300578,-0.82049 -0.219252,-1.37461 0.116152,-0.79139 0.308938,-0.98451 0.8988,-0.90036 1.016233,0.14496 1.290239,2.22298 0.326359,2.47504 -0.351335,0.0919 -0.803991,0.002 -1.005907,-0.20007 z m 69.957569,-0.25698 c -0.66691,-0.73042 -0.8389,-2.08726 -0.26458,-2.08726 0.19403,0 0.35278,0.16812 0.35278,0.37359 0,0.20548 0.15875,0.27549 0.35277,0.15557 0.19403,-0.11991 0.35495,-0.0102 0.3576,0.24377 0.003,0.25398 0.10054,0.81898 0.21753,1.25554 0.25619,0.95595 -0.17422,0.98086 -1.0161,0.0588 z m -25.77245,-1.58336 c -0.81245,-0.70318 -1.41297,-0.86808 -3.35139,-0.92027 -1.97901,-0.0533 -2.09012,-0.085 -0.68588,-0.19572 1.75253,-0.13819 2.24334,-0.64062 0.88194,-0.90284 -0.43656,-0.0841 0.3175,-0.15608 1.6757,-0.16 1.35819,-0.004 2.18273,0.0672 1.83231,0.15802 -0.59054,0.15307 -0.58207,0.21288 0.11574,0.81809 0.42045,0.36466 0.70176,0.96346 0.63713,1.35618 -0.11122,0.67579 -0.15436,0.6698 -1.10555,-0.15346 z m -31.76538,0.0366 c -0.10929,-0.28483 -0.0469,-0.6117 0.13865,-0.72637 0.18555,-0.11468 0.33737,-0.44664 0.33737,-0.73768 0,-0.29104 -0.15875,-0.43105 -0.35278,-0.31114 -0.19402,0.11992 -0.35277,0.0499 -0.35277,-0.15557 0,-0.20547 0.55222,-0.37359 1.22715,-0.37359 1.20394,0 1.21933,0.0184 0.813,0.97014 -0.78913,1.84841 -1.43162,2.32186 -1.81062,1.33421 z m 59.38991,-0.68745 c 0,-0.66293 -0.19041,-1.2688 -0.42313,-1.34637 -0.26467,-0.0882 -0.1986,-0.22721 0.17639,-0.37111 0.50906,-0.19534 0.59952,0.008 0.59952,1.34637 0,0.86704 -0.0794,1.57643 -0.17639,1.57643 -0.097,0 -0.17639,-0.5424 -0.17639,-1.20532 z m -55.88601,0.54711 c -0.15197,-0.24589 -0.18104,-0.54234 -0.0646,-0.65878 0.31572,-0.31572 0.65996,0.14863 0.48944,0.6602 -0.1195,0.35849 -0.20259,0.35821 -0.42485,-0.001 z m 39.91891,-0.20195 c -0.74479,-0.54913 -0.38708,-0.94489 1.60714,-1.77813 1.73663,-0.72561 2.15097,-0.67494 1.31519,0.16084 -0.38366,0.38366 -0.92253,0.61123 -1.19751,0.50571 -0.31481,-0.1208 -0.61171,0.13431 -0.80175,0.6889 -0.26304,0.76765 -0.38158,0.82193 -0.92307,0.42268 z m 2.1147,0.11083 c 0.2393,-0.2411 0.52396,-0.34949 0.63257,-0.24087 0.10862,0.10861 -0.0872,0.30587 -0.43509,0.43835 -0.50278,0.19145 -0.5433,0.15093 -0.19748,-0.19748 z m 5.73852,-0.1503 c -0.87313,-0.25009 -1.34938,-0.47253 -1.05834,-0.49431 0.42485,-0.0318 0.40283,-0.13539 -0.11168,-0.52543 -0.35247,-0.2672 -0.66997,-0.61934 -0.70556,-0.78253 -0.0356,-0.16319 -0.43638,-0.24874 -0.89064,-0.19012 -0.55593,0.0718 -0.74298,-0.0276 -0.57216,-0.30403 0.17034,-0.27562 0.82342,-0.33507 1.98628,-0.18081 2.82609,0.3749 3.46876,0.73748 3.46876,1.95702 0,0.58688 -0.11906,1.04633 -0.26458,1.02099 -0.14552,-0.0253 -0.97896,-0.25069 -1.85208,-0.50078 z m -27.15849,0.005 c 0.01,-0.60732 0.65456,-1.38531 0.92455,-1.11532 0.14452,0.14453 -0.006,0.53113 -0.33359,0.85913 -0.328,0.328 -0.59393,0.44329 -0.59096,0.25619 z m -37.840825,-1.10299 c 0.242535,-0.0979 0.63941,-0.0979 0.881944,0 0.242535,0.0979 0.0441,0.17794 -0.440972,0.17794 -0.485069,0 -0.683507,-0.0801 -0.440972,-0.17794 z m 83.872925,-0.82469 c 0.11991,-0.19403 0.28803,-0.35278 0.3736,-0.35278 0.0856,0 0.15556,0.15875 0.15556,0.35278 0,0.19403 -0.16812,0.35278 -0.37359,0.35278 -0.20548,0 -0.27549,-0.15875 -0.15557,-0.35278 z"
         id="path99"
         inkscape:connector-curvature="0" />
    </g>
  </g>
</svg>
