<?xml version="1.0" encoding="UTF-8" standalone="no"?>
<!-- Created with Inkscape (http://www.inkscape.org/) -->

<svg
   xmlns:dc="http://purl.org/dc/elements/1.1/"
   xmlns:cc="http://creativecommons.org/ns#"
   xmlns:rdf="http://www.w3.org/1999/02/22-rdf-syntax-ns#"
   xmlns:svg="http://www.w3.org/2000/svg"
   xmlns="http://www.w3.org/2000/svg"
   xmlns:sodipodi="http://sodipodi.sourceforge.net/DTD/sodipodi-0.dtd"
   xmlns:inkscape="http://www.inkscape.org/namespaces/inkscape"
   width="210mm"
   height="297mm"
   viewBox="0 0 210 297"
   version="1.1"
   id="svg119"
   inkscape:version="0.92.1 r15371"
   sodipodi:docname="MS SQL.svg">
  <defs
     id="defs113" />
  <sodipodi:namedview
     id="base"
     pagecolor="#ffffff"
     bordercolor="#666666"
     borderopacity="1.0"
     inkscape:pageopacity="0.0"
     inkscape:pageshadow="2"
     inkscape:zoom="0.35"
     inkscape:cx="400"
     inkscape:cy="560"
     inkscape:document-units="mm"
     inkscape:current-layer="layer1"
     showgrid="false"
     inkscape:window-width="1920"
     inkscape:window-height="1001"
     inkscape:window-x="-9"
     inkscape:window-y="-9"
     inkscape:window-maximized="1" />
  <metadata
     id="metadata116">
    <rdf:RDF>
      <cc:Work
         rdf:about="">
        <dc:format>image/svg+xml</dc:format>
        <dc:type
           rdf:resource="http://purl.org/dc/dcmitype/StillImage" />
        <dc:title></dc:title>
      </cc:Work>
    </rdf:RDF>
  </metadata>
  <g
     inkscape:label="Layer 1"
     inkscape:groupmode="layer"
     id="layer1">
    <g
       id="g161"
       transform="matrix(2.30459,0,0,2.30459,-320.80782,-368.00268)">
      <path
         style="fill:#fcfcfb;stroke-width:0.26458332"
         d="m 154.93243,223.67262 v -27.11979 h 32.54375 32.54375 v 27.11979 27.11979 h -32.54375 -32.54375 z"
         id="path177"
         inkscape:connector-curvature="0" />
      <path
         style="fill:#d0d1d2;stroke-width:0.26458332"
         d="m 179.92687,243.63906 c -0.26817,-0.29632 -1.00241,-0.7665 -1.63164,-1.04484 -0.62923,-0.27834 -1.21463,-0.68999 -1.30089,-0.91479 -0.12612,-0.32866 -0.3018,-0.25355 -0.89678,0.38338 -0.52031,0.557 -0.98845,0.7921 -1.57722,0.7921 -1.1129,0 -1.86083,-0.42912 -1.86083,-1.06764 0,-0.54979 0.14946,-0.6015 1.52136,-0.52639 0.47294,0.0259 0.85989,-0.0668 0.85989,-0.20591 0,-0.13914 -0.53578,-0.69201 -1.19062,-1.22861 -0.89941,-0.73699 -1.19063,-1.15827 -1.19063,-1.72235 0,-1.04909 0.75513,-1.85241 1.91599,-2.03827 1.10496,-0.17692 1.78818,0.20544 1.78818,1.00073 0,0.40318 -0.19939,0.49678 -1.05833,0.49678 -1.37406,0 -1.3853,0.50705 -0.0311,1.4032 l 1.02722,0.67978 0.15775,-0.98657 c 0.0985,-0.61573 0.46478,-1.28072 0.97454,-1.7691 0.6845,-0.65579 1.03312,-0.78252 2.15258,-0.78252 1.22005,0 1.41183,0.088 2.21313,1.01491 l 0.87732,1.01492 0.0846,-0.88046 c 0.0588,-0.61166 0.23647,-0.90926 0.58206,-0.9748 0.75682,-0.14353 0.94927,0.41867 0.9537,2.78602 l 0.004,2.16684 0.98998,0.0821 c 0.72056,0.0598 1.01568,0.2175 1.08437,0.57958 0.12879,0.67882 -0.39326,0.94889 -1.84352,0.95369 -1.3423,0.004 -1.72557,-0.28176 -1.86106,-1.38976 l -0.0896,-0.73235 -0.74924,0.94376 c -0.60064,0.7566 -0.6866,1.01923 -0.43342,1.3243 0.82438,0.99331 -0.59404,1.61224 -1.47187,0.64225 z m 0.78743,-2.95969 c 0.89475,-1.27742 0.20106,-3.11612 -1.17562,-3.11612 -1.38526,0 -2.14301,2.12262 -1.14962,3.22031 0.61163,0.67584 1.81671,0.62184 2.32524,-0.10419 z m 6.91307,1.75977 c -0.80056,-0.80056 -0.23505,-1.45959 1.07065,-1.2477 1.25654,0.20391 1.18621,-0.45463 -0.14244,-1.33389 -1.20851,-0.79975 -1.51273,-1.51273 -1.08554,-2.54407 0.64676,-1.56141 3.44572,-1.87284 3.44572,-0.38338 0,0.54514 -0.12654,0.63315 -0.91042,0.63315 -1.30943,0 -1.35481,0.36703 -0.16214,1.31164 l 1.04661,0.82893 0.40181,-0.77702 c 0.66165,-1.27947 2.80434,-1.63166 3.46117,-0.56889 0.12932,0.20925 0.32533,0.17048 0.65742,-0.13006 0.3489,-0.31576 0.88047,-0.40713 2.02425,-0.34797 1.51617,0.0784 1.56257,0.10375 2.06082,1.12456 l 0.50972,1.04433 0.47162,-1.11047 c 0.3279,-0.77208 0.63141,-1.11047 0.99601,-1.11047 0.28842,0 0.59202,0.10941 0.67467,0.24313 0.0851,0.13775 0.49688,0.0702 0.94998,-0.15582 0.73233,-0.36534 0.88709,-0.35573 1.83664,0.11407 0.83068,0.41099 1.06419,0.44198 1.174,0.15582 0.1914,-0.49879 3.48146,-0.50101 3.67277,-0.002 0.22274,0.58045 -0.15918,0.91972 -1.14015,1.01282 -0.87266,0.0828 -0.92763,0.14618 -0.99426,1.146 -0.12634,1.89602 -0.28215,2.24896 -0.99285,2.24896 -0.36103,-1e-4 -0.65642,-0.12592 -0.65642,-0.27969 0,-0.15671 -0.25843,-0.0986 -0.58803,0.1323 -0.89682,0.62815 -2.23637,0.52193 -2.99587,-0.23756 -0.35718,-0.35719 -0.64943,-0.83344 -0.64943,-1.05833 0,-0.74559 -0.4833,-0.42353 -0.79874,0.53225 -0.26459,0.80172 -0.41462,0.92912 -1.0127,0.8599 -0.59227,-0.0685 -0.8025,-0.33994 -1.34397,-1.73491 -0.89916,-2.31654 -1.76276,-2.1659 -1.9209,0.33507 -0.0656,1.03795 -0.18752,1.33367 -0.58053,1.40838 -0.2736,0.052 -0.60102,-0.066 -0.7276,-0.26221 -0.18597,-0.28829 -0.27234,-0.29148 -0.44999,-0.0167 -0.12091,0.18706 -0.66425,0.41222 -1.20742,0.50037 -0.77623,0.12596 -1.16053,0.0324 -1.79585,-0.43733 -0.46578,-0.34437 -0.87909,-0.48909 -0.97539,-0.34154 -0.56393,0.86405 -2.62903,1.14285 -3.32322,0.44867 z m 7.48314,-1.54262 c -0.0515,-0.0403 -0.62949,-0.007 -1.28433,0.0735 l -1.19062,0.14674 1.19062,0.14147 c 0.99249,0.11794 1.65816,-0.0695 1.28433,-0.3617 z m 10.74098,0.137 c -0.13824,-0.12865 -0.78713,-0.14355 -1.44198,-0.0331 l -1.19062,0.20078 1.44198,0.0331 c 0.84678,0.0195 1.33823,-0.0634 1.19062,-0.20077 z m -46.67642,-5.83413 c -0.15064,-0.28147 -0.27389,-1.00368 -0.27389,-1.60489 0,-2.16409 0.96669,-2.78638 1.8013,-1.15956 l 0.49102,0.9571 0.54342,-0.92103 c 0.48048,-0.81434 0.66951,-0.92102 1.63197,-0.92102 0.97648,0 1.08854,0.0662 1.08854,0.64321 0,0.54556 0.0899,0.61468 0.592,0.45531 0.8465,-0.26867 5.27613,-0.31389 5.80903,-0.0593 0.25601,0.12231 0.7344,0.0834 1.11664,-0.0907 0.51177,-0.23318 0.75977,-0.22916 1.05654,0.0171 0.28216,0.23416 0.53066,0.24538 0.91222,0.0412 0.28843,-0.15437 0.87937,-0.20967 1.31319,-0.12291 0.64059,0.12812 0.82118,0.0557 0.96124,-0.38562 0.24631,-0.77605 1.1308,-0.98304 1.76153,-0.41224 0.31122,0.28165 0.95577,0.47706 1.60593,0.48687 1.18304,0.0178 1.75043,0.5427 1.44556,1.33719 -0.14075,0.36677 -0.37636,0.43468 -1.10044,0.31718 -0.75587,-0.12266 -0.92136,-0.067 -0.92136,0.3101 0,0.25279 0.1325,0.59212 0.29445,0.75406 0.38454,0.38454 0.0727,0.86972 -0.55903,0.86972 -0.57759,0 -0.80299,-0.30071 -1.07347,-1.43211 l -0.19528,-0.81685 -0.0271,0.80698 c -0.0348,1.03587 -0.47904,1.50192 -1.1099,1.1643 -0.25991,-0.1391 -0.53581,-0.1506 -0.6131,-0.0255 -0.11093,0.17948 -6.07457,0.24923 -6.81907,0.0797 -0.0993,-0.0226 -0.26037,-0.29243 -0.35786,-0.5996 -0.17574,-0.5537 -0.1799,-0.55318 -0.48614,0.0611 -0.23165,0.46464 -0.56858,0.6395 -1.34743,0.69926 -0.57119,0.0438 -1.22366,-0.003 -1.44992,-0.10309 -0.22625,-0.10054 -0.53044,-0.15075 -0.67596,-0.11159 -0.74194,0.19967 -1.98443,0.0776 -2.35701,-0.23166 -0.28018,-0.23252 -0.42111,-0.2501 -0.42111,-0.0525 0,0.38689 -0.97232,0.38562 -1.21163,-0.002 -0.12615,-0.20412 -0.26078,-0.16228 -0.42563,0.13229 -0.32011,0.57201 -0.66477,0.5441 -0.99927,-0.0809 z m 7.66361,-1.22363 c 0,-0.2097 -0.23812,-0.38126 -0.52917,-0.38126 -0.57751,0 -0.73219,0.67682 -0.19843,0.86828 0.4476,0.16056 0.7276,-0.0268 0.7276,-0.48702 z m 3.43958,0.0156 c 0,-0.21829 -0.11906,-0.39688 -0.26458,-0.39688 -0.14552,0 -0.26458,0.17859 -0.26458,0.39688 0,0.21828 0.11906,0.39687 0.26458,0.39687 0.14552,0 0.26458,-0.17859 0.26458,-0.39687 z m 4.7625,0.1479 c 0,-0.13693 -0.11906,-0.32255 -0.26458,-0.41249 -0.14552,-0.0899 -0.26458,0.0221 -0.26458,0.24897 0,0.22687 0.11906,0.41249 0.26458,0.41249 0.14552,0 0.26458,-0.11203 0.26458,-0.24897 z m 16.36181,-1.48214 c -5.83295,-0.90866 -9.80905,-3.01641 -10.51529,-5.5742 -0.44403,-1.60816 0.175,-2.58956 3.99142,-6.32781 5.0295,-4.92648 6.25208,-7.08037 5.97541,-10.52717 -0.17231,-2.14656 -0.67369,-3.07385 -2.9117,-5.38512 -2.03804,-2.10475 -2.13425,-2.52325 -0.78861,-3.43008 1.968,-1.32623 6.67238,-2.90804 6.67238,-2.24353 0,0.16171 -0.2102,0.29403 -0.46711,0.29403 -0.56124,0 -2.74293,1.13217 -2.7999,1.45299 -0.0221,0.12474 0.61456,0.37958 1.41493,0.56632 2.17705,0.50793 2.20819,0.4993 2.03563,-0.56411 -0.20492,-1.26273 -10e-4,-1.16232 0.63007,0.31095 0.70344,1.64104 0.61326,2.05835 -0.33756,1.56211 -0.88566,-0.46223 -4.18023,-0.84816 -4.18023,-0.48968 0,0.4412 1.0022,1.18305 1.6382,1.21265 0.33592,0.0156 0.93501,-0.0575 1.33132,-0.1626 0.57986,-0.15371 0.69057,-0.11288 0.567,0.20914 -0.11828,0.30823 0.0505,0.39998 0.73466,0.39945 0.85946,-6.6e-4 1.43986,0.11272 6.84132,1.33658 3.26826,0.74051 6.00992,1.88746 7.88989,3.30066 1.6503,1.24056 3.35071,3.37926 3.13456,3.94253 -0.0771,0.20101 -0.92108,0.49081 -1.9424,0.667 -4.83532,0.83413 -15.37168,3.9517 -18.17312,5.37717 -1.15333,0.58686 -1.36423,0.84006 -2.04624,2.45661 -0.41821,0.99127 -0.70448,1.85821 -0.63617,1.92652 0.26127,0.26127 3.72489,-0.83266 4.14298,-1.3085 0.2416,-0.27498 0.562,-0.49996 0.71199,-0.49996 0.49716,0 0.62614,0.55582 0.23411,1.00886 -0.21243,0.24549 -0.56869,0.98213 -0.79168,1.63697 -0.22299,0.65485 -0.49736,1.41737 -0.6097,1.6945 -0.18733,0.4621 -0.1129,0.48926 0.89805,0.3276 0.60627,-0.0969 1.10232,-0.11775 1.10232,-0.0462 0,0.0715 -0.47625,0.37301 -1.05834,0.66997 -0.58208,0.29695 -1.05833,0.64671 -1.05833,0.77724 0,0.13053 0.56555,0.44627 1.25677,0.70164 0.69123,0.25537 1.40406,0.57617 1.58407,0.71289 0.18001,0.13671 0.60661,0.17846 0.94801,0.0928 0.47074,-0.11815 0.79122,-0.59037 1.32635,-1.95433 0.3881,-0.9892 0.70563,-2.05645 0.70563,-2.37168 0,-0.31523 0.11391,-0.64355 0.25313,-0.72959 0.45596,-0.28179 -0.0203,2.55757 -0.81979,4.88771 -0.42441,1.23693 -0.83648,2.4377 -0.9157,2.66838 -0.11341,0.3302 0.067,0.42735 0.84808,0.45672 1.07565,0.0404 1.56434,0.49291 1.11592,1.03322 -0.41269,0.49726 -1.1252,0.41492 -1.67598,-0.19367 l -0.4826,-0.53328 -0.56764,0.53328 c -0.67001,0.62943 -1.79499,0.65646 -5.20611,0.12508 z m 4.93036,-1.16617 c 0.49554,-0.95828 0.5375,-1.98049 0.0729,-1.77689 -2.22415,0.97473 -3.58792,1.48772 -3.96875,1.49289 -1.04712,0.0142 -0.35818,0.49334 1.05833,0.73604 2.32979,0.39916 2.40337,0.38744 2.83748,-0.45204 z m -2.78932,-1.4572 c 1.22703,-0.31056 2.27068,-0.6838 2.31922,-0.82942 0.0485,-0.14562 -0.63322,-0.41379 -1.51504,-0.59592 -0.88181,-0.18214 -1.7685,-0.39455 -1.97041,-0.47204 -0.22652,-0.0869 -0.7262,0.34864 -1.30469,1.13727 -1.09871,1.49783 -1.16479,1.78007 -0.35536,1.51771 0.32742,-0.10612 1.59924,-0.44705 2.82628,-0.7576 z m -4.04809,-0.41339 c 0.38716,-0.58504 0.63991,-1.12773 0.56167,-1.20597 -0.19132,-0.19133 -4.16289,1.02581 -4.16603,1.27673 -0.003,0.27441 1.59092,0.94517 2.30887,0.97137 0.41025,0.015 0.80731,-0.30444 1.29549,-1.04213 z m -1.75816,-1.71326 c 1.06775,-0.36316 1.99294,-0.71187 2.05598,-0.77491 0.1616,-0.1616 -1.59353,-1.72262 -1.9474,-1.73203 -0.16043,-0.004 -0.85294,0.70662 -1.53891,1.57974 -0.7343,0.93466 -1.09584,1.5875 -0.87912,1.5875 0.20245,0 1.2417,-0.29713 2.30945,-0.6603 z m -2.42081,-1.19178 c 0.61574,-0.87313 0.99107,-1.5875 0.83406,-1.5875 -0.82258,0 -3.70137,0.8998 -3.70052,1.15664 0.002,0.52448 1.03664,2.01836 1.39824,2.01836 0.19178,0 0.85247,-0.71438 1.46822,-1.5875 z m 7.28808,-1.87105 c 0.52633,-0.88355 0.95697,-1.77652 0.95697,-1.98437 0,-0.41592 -0.54432,-0.5055 -0.93927,-0.15459 -0.13825,0.12283 -0.96573,0.49859 -1.83886,0.83501 -0.87312,0.33642 -1.68463,0.69619 -1.80334,0.79949 -0.24629,0.21432 1.86441,2.11093 2.34921,2.11093 0.17508,0 0.74896,-0.72291 1.27529,-1.60647 z m -7.77428,-0.47379 1.71979,-0.49069 -0.0903,-1.16193 c -0.0497,-0.63905 -0.12791,-1.20046 -0.17385,-1.24757 -0.14495,-0.14865 -1.82606,0.78497 -2.47294,1.37337 -0.34125,0.3104 -0.79079,0.89179 -0.99898,1.29197 -0.4642,0.89227 -0.33896,0.90686 2.01631,0.23485 z m 4.34738,-3.104 c 0.5405,-0.81404 0.91193,-1.55087 0.82541,-1.6374 -0.0865,-0.0865 -0.69049,0.10172 -1.34214,0.41832 -1.05265,0.51141 -1.18482,0.67439 -1.18482,1.46101 0,0.86202 0.16277,1.23816 0.53581,1.23816 0.10066,0 0.62525,-0.66604 1.16574,-1.48009 z m 4.23835,-4.89965 c 0.15759,-0.14725 0.13525,-0.35094 -0.0599,-0.54609 -0.23861,-0.23861 -0.4362,-0.19817 -0.84666,0.1733 -0.29448,0.2665 -0.53542,0.59318 -0.53542,0.72595 0,0.26944 1.05115,0.012 1.44198,-0.35316 z m 3.052,-3.22834 c 0.002,-0.11845 -0.47232,0.0523 -1.0544,0.37945 -0.98768,0.55511 -1.32283,1.20303 -0.86112,1.66473 0.19575,0.19575 1.90798,-1.63147 1.91552,-2.04418 z m 2.84784,1.24011 c 0.9093,-0.27256 1.65344,-0.57429 1.65364,-0.67049 5.3e-4,-0.27001 -1.62763,-1.57671 -1.8562,-1.48967 -0.11135,0.0424 -0.709,0.72058 -1.32811,1.50708 -0.82103,1.04299 -0.98993,1.39192 -0.62414,1.28932 0.27584,-0.0774 1.24551,-0.36368 2.15481,-0.63624 z m -5.35542,-2.71806 0.19111,-0.635 -0.83514,0.59467 c -0.68219,0.48577 -0.77672,0.66506 -0.51617,0.979 0.38326,0.4618 0.85312,0.0816 1.1602,-0.93867 z m 10.16088,-0.44352 c 0.76687,-0.95698 1.34025,-1.79403 1.27416,-1.86012 -0.15568,-0.15567 -4.69019,1.48238 -4.69019,1.69428 0,0.21534 1.64674,1.90581 1.85651,1.90581 0.0909,0 0.79264,-0.78299 1.55952,-1.73997 z m 3.33084,1.20858 c 3.3016,-0.51653 3.18006,-0.46532 2.60939,-1.09941 -0.46685,-0.51872 -2.57829,-2.07337 -2.81595,-2.07337 -0.0612,0 -0.48174,0.56555 -0.9346,1.25677 -0.45286,0.69122 -1.03159,1.54067 -1.28606,1.88765 -0.44706,0.60958 -0.44516,0.6256 0.0562,0.4745 0.2854,-0.086 1.35235,-0.28677 2.37099,-0.44614 z m -11.00316,-1.02957 0.63851,-0.49086 -0.56125,-0.30037 c -0.4684,-0.25068 -0.60686,-0.21515 -0.83695,0.21476 -0.5946,1.11104 -0.26299,1.36267 0.75969,0.57647 z m -2.90149,-1.97003 c -0.0651,-0.0591 -0.38615,-0.18979 -0.71358,-0.29043 -0.54492,-0.1675 -0.59531,-0.098 -0.59531,0.82101 v 1.004 l 0.71357,-0.71357 c 0.39247,-0.39246 0.66036,-0.76192 0.59532,-0.82101 z m 5.78192,-0.6362 c 0.14487,-0.40018 0.35482,-0.95412 0.46654,-1.23097 0.17715,-0.43895 0.0282,-0.40817 -1.16356,0.24048 -1.47915,0.80506 -1.61391,1.01865 -0.90368,1.43232 0.79303,0.4619 1.32688,0.31455 1.6007,-0.44183 z m 3.5176,-0.0919 c 1.00485,-0.30521 1.82701,-0.5933 1.82701,-0.64019 0,-0.0469 -0.62508,-0.29076 -1.38906,-0.54194 -0.76399,-0.25117 -1.52965,-0.50844 -1.70148,-0.57171 -0.26089,-0.0961 -0.87125,1.37313 -0.87674,2.11034 -0.002,0.2803 0.0994,0.26339 2.14027,-0.3565 z m -8.13482,-0.96792 c 0.22333,-0.36136 -0.14695,-1.65214 -0.47394,-1.65214 -0.17595,0 -0.59686,0.29481 -0.93537,0.65512 l -0.61545,0.65513 0.63548,0.25414 c 0.79456,0.31777 1.23012,0.34528 1.38928,0.0877 z m 3.61183,-1.43628 c 0,-0.11872 -0.14883,-0.21717 -0.33073,-0.21877 -0.1819,-0.002 -0.78365,-0.0778 -1.33723,-0.16924 -1.00052,-0.16533 -1.00541,-0.16177 -0.82332,0.59823 0.10076,0.4205 0.23497,0.85656 0.29826,0.96903 0.13599,0.24169 2.19302,-0.86443 2.19302,-1.17925 z m -5.92803,-0.38893 c 0.74025,-0.48502 0.46652,-0.87381 -0.62041,-0.88121 -0.61662,-0.004 -0.70867,0.18644 -0.43471,0.90035 0.19926,0.51926 0.23439,0.51862 1.05512,-0.0191 z m -3.12765,-3.04917 c -0.19108,-0.57325 -0.95461,-0.89623 -1.30064,-0.55019 -0.2459,0.2459 -0.17358,0.37393 0.32344,0.57259 0.87408,0.34938 1.0994,0.34421 0.9772,-0.0224 z"
         id="path175"
         inkscape:connector-curvature="0" />
      <path
         style="fill:#ea9d9d;stroke-width:0.26458332"
         d="m 179.91042,243.35576 c -0.27722,-0.30663 -0.95399,-0.73766 -1.50394,-0.95786 -0.54995,-0.2202 -1.11968,-0.62418 -1.26608,-0.89772 -0.31507,-0.58873 -0.77672,-0.65736 -0.77672,-0.11548 0,0.56256 -1.0591,1.20622 -1.9771,1.20158 -1.02529,-0.005 -1.5824,-0.36015 -1.38257,-0.8809 0.11617,-0.30273 0.39278,-0.37093 1.06325,-0.26213 1.62521,0.26374 1.57532,-0.666 -0.0981,-1.82697 -0.8786,-0.60957 -1.04511,-0.87206 -1.04511,-1.64754 0,-1.13355 0.86418,-1.80525 2.16192,-1.68043 1.32772,0.12772 1.35819,0.95065 0.0392,1.05956 -1.45487,0.12014 -1.4496,0.77263 0.0144,1.77986 0.65292,0.44922 1.25497,0.81677 1.33789,0.81677 0.0829,0 0.15076,-0.42863 0.15076,-0.9525 0,-0.73046 0.20971,-1.16221 0.89959,-1.85209 1.21102,-1.21102 2.65958,-1.25809 3.92488,-0.12753 0.79441,0.7098 0.86408,0.90037 0.86408,2.36387 0,1.39631 -0.0943,1.69029 -0.76794,2.39339 -0.63216,0.65983 -0.71,0.87137 -0.44025,1.19641 0.36324,0.43767 0.17286,0.9472 -0.35392,0.9472 -0.18714,0 -0.56707,-0.25087 -0.84428,-0.55749 z m 0.83896,-2.37512 c 0.71496,-0.79002 0.63208,-2.57081 -0.14909,-3.20336 -0.80596,-0.65263 -1.49262,-0.60083 -2.26426,0.17082 -0.80339,0.80338 -0.84329,1.94316 -0.10106,2.88676 0.67507,0.85822 1.81011,0.92403 2.51441,0.14578 z m 2.41716,1.44518 c -0.10355,-0.10355 -0.18828,-1.48684 -0.18828,-3.07399 0,-2.60552 0.045,-2.87715 0.46303,-2.7975 0.38785,0.0739 0.48449,0.47436 0.59531,2.46679 l 0.13229,2.37858 1.00833,0.0831 c 0.77886,0.0642 0.98903,0.1846 0.92356,0.52917 -0.0636,0.33478 -0.41677,0.46556 -1.41537,0.52412 -0.73183,0.0429 -1.41532,-0.007 -1.51887,-0.11025 z m 4.58384,-0.22078 c -0.4921,-0.59295 -0.0965,-0.91845 0.91658,-0.75406 1.21941,0.19788 1.59213,-0.55335 0.63928,-1.28849 -1.51532,-1.16908 -1.83006,-1.53648 -1.83006,-2.13623 0,-1.3728 2.33725,-2.39848 3.1724,-1.39219 0.36284,0.43719 0.16491,0.57176 -1.05573,0.71776 -1.10585,0.13228 -0.95528,1.02227 0.32164,1.90109 0.83715,0.57616 1.13935,0.67422 1.23095,0.39942 0.22593,-0.67778 1.57823,-1.82451 2.15157,-1.82451 0.31344,0 0.91164,0.34177 1.32936,0.75949 0.72707,0.72706 0.76291,0.73553 0.83955,0.19843 0.0595,-0.41683 0.31809,-0.59588 1.00609,-0.69656 1.84472,-0.26995 2.38221,-0.0356 2.96698,1.29351 l 0.53817,1.22325 0.52943,-1.25677 c 0.52602,-1.24872 1.13532,-1.61737 1.42509,-0.86224 0.12784,0.33314 0.25558,0.31256 0.82113,-0.1323 0.36835,-0.28974 0.82667,-0.52681 1.01848,-0.52681 0.66648,0 1.64416,0.59285 1.9042,1.15466 0.25539,0.55178 0.26593,0.54856 0.4459,-0.1361 0.19415,-0.73857 0.99611,-0.98533 2.60329,-0.80104 0.88914,0.10196 0.81647,0.66878 -0.10256,0.80002 -1.02367,0.14618 -1.30219,0.55104 -1.30219,1.89288 0,1.47868 -0.57399,2.22792 -1.03988,1.35739 -0.15567,-0.29087 -0.28304,-0.85815 -0.28304,-1.26063 0,-0.56915 -0.0705,-0.66121 -0.3175,-0.41426 -0.17462,0.17462 -0.83939,0.3175 -1.47725,0.3175 -1.519,0 -1.38208,0.62904 0.16167,0.74281 0.60716,0.0447 1.10392,0.16977 1.10392,0.27782 0,0.68562 -1.44752,1.07162 -2.50169,0.66709 -0.52426,-0.20117 -1.19475,-1.44443 -1.22416,-2.2699 -0.0158,-0.44378 -0.19037,-0.23949 -0.64499,0.75482 -1.02387,2.23932 -1.45562,2.17088 -2.41298,-0.38254 -0.40525,-1.08087 -0.70375,-1.5099 -1.05052,-1.5099 -0.62859,0 -1.15267,1.0569 -1.1576,2.33451 -0.003,0.81949 -0.0918,0.99485 -0.46692,0.92348 -0.31041,-0.0591 -0.50662,-0.41193 -0.59531,-1.07061 -0.10705,-0.79505 -0.20801,-0.93416 -0.52917,-0.7291 -0.21828,0.13938 -0.85328,0.25524 -1.41111,0.25746 -1.40038,0.006 -1.13933,0.64026 0.3072,0.74687 1.1499,0.0847 1.32108,0.2571 0.78641,0.79177 -0.49961,0.49961 -1.92357,0.37163 -2.70512,-0.24314 l -0.71273,-0.56064 -0.59677,0.56064 c -0.69984,0.65746 -2.31786,0.75872 -2.80201,0.17535 z m 6.00966,-2.85586 c -0.0606,-0.1819 -0.269,-0.33073 -0.46303,-0.33073 -0.19402,0 -0.40238,0.14883 -0.46302,0.33073 -0.0656,0.19674 0.12201,0.33073 0.46302,0.33073 0.34102,0 0.5286,-0.13399 0.46303,-0.33073 z m 10.58333,0 c -0.0606,-0.1819 -0.26899,-0.33073 -0.46302,-0.33073 -0.19403,0 -0.40239,0.14883 -0.46302,0.33073 -0.0656,0.19674 0.122,0.33073 0.46302,0.33073 0.34102,0 0.5286,-0.13399 0.46302,-0.33073 z m -39.22508,-4.16816 c -0.0903,-0.14605 -0.45448,-0.19268 -0.80937,-0.1036 -0.60219,0.15114 -0.64524,0.0924 -0.64524,-0.88098 0,-1.20488 0.20031,-1.51383 0.70822,-1.0923 0.27427,0.22762 0.48257,0.18791 0.87439,-0.16668 0.28289,-0.25601 0.69738,-0.39524 0.92108,-0.3094 0.56898,0.21834 0.50675,0.61398 -0.12244,0.77852 -0.29104,0.0761 -0.52917,0.32393 -0.52917,0.55071 0,0.22679 0.23813,0.53978 0.52917,0.69554 0.29104,0.15576 0.52917,0.39807 0.52917,0.53847 0,0.33834 -1.24579,0.32955 -1.45581,-0.0103 z m 3.71977,-0.32248 c -0.22653,-0.32342 -0.41188,-0.8067 -0.41188,-1.07395 0,-0.26725 -0.11906,-0.41232 -0.26458,-0.32239 -0.14552,0.0899 -0.26459,0.52242 -0.26459,0.96106 0,0.60227 -0.10799,0.77659 -0.44108,0.71199 -0.32422,-0.0629 -0.44075,-0.36595 -0.43983,-1.14388 0.001,-1.02141 0.0327,-1.05945 0.9041,-1.0905 0.49657,-0.0177 1.23182,-0.12028 1.6339,-0.22798 0.46638,-0.12493 0.87631,-0.0752 1.13231,0.13721 0.31073,0.25789 0.55323,0.26379 1.07472,0.0262 0.8215,-0.3743 1.23931,-0.16372 1.02361,0.5159 -0.21221,0.6686 0.30676,0.6537 0.66685,-0.0192 0.35815,-0.66921 1.46944,-0.96104 1.99588,-0.52413 0.21991,0.18251 0.43299,0.2851 0.47352,0.22798 0.0405,-0.0571 0.28336,-0.43866 0.53963,-0.84788 0.53189,-0.84932 1.13543,-0.81632 1.00852,0.0551 -0.077,0.52868 -0.0329,0.55222 0.45874,0.24517 0.45818,-0.28614 0.61399,-0.26961 0.98848,0.10489 0.34615,0.34614 0.37617,0.52699 0.13561,0.81684 -0.18181,0.21907 -0.24051,0.71454 -0.14264,1.20391 0.13126,0.65627 0.0767,0.83163 -0.25858,0.83163 -0.24849,0 -0.4911,-0.30208 -0.58434,-0.72761 -0.27199,-1.24129 -0.36735,-1.42799 -0.64253,-1.25792 -0.14655,0.0906 -0.26645,0.51484 -0.26645,0.94281 0,0.78543 -0.6362,1.1185 -0.85911,0.44977 -0.0787,-0.23611 -0.23888,-0.19894 -0.57011,0.13229 -0.51815,0.51815 -1.49412,0.60649 -1.92625,0.17435 -0.20536,-0.20535 -0.43484,-0.19354 -0.81162,0.0418 -0.67741,0.42305 -1.57742,0.12874 -1.15667,-0.37824 0.16065,-0.19357 0.21374,-0.43028 0.11799,-0.52603 -0.29987,-0.29988 -0.61506,-0.19048 -0.61506,0.21347 0,0.96712 -1.88124,1.22863 -2.49854,0.34731 z m 1.61242,-0.60259 c 0.13446,-0.42469 -0.35035,-1.0107 -0.6718,-0.81203 -0.48145,0.29755 -0.35971,1.26042 0.14693,1.16216 0.2426,-0.047 0.47879,-0.20461 0.52487,-0.35013 z m 4.7625,0 c 0.13446,-0.42469 -0.35035,-1.0107 -0.6718,-0.81203 -0.48145,0.29755 -0.35971,1.26042 0.14693,1.16216 0.2426,-0.047 0.47879,-0.20461 0.52487,-0.35013 z m -15.93905,0.5617 c -0.0769,-0.20039 -0.10293,-0.94346 -0.0579,-1.65127 0.10591,-1.66261 0.79392,-1.91939 1.3806,-0.51525 0.21679,0.51885 0.49725,0.94337 0.62325,0.94337 0.12599,0 0.43214,-0.42584 0.68033,-0.9463 0.64917,-1.36132 1.08772,-1.0266 1.18073,0.90115 0.0793,1.6433 -0.1865,2.07086 -0.72708,1.16962 -0.2645,-0.44097 -0.29095,-0.44097 -0.55546,0 -0.15275,0.25467 -0.43767,0.46303 -0.63315,0.46303 -0.19548,0 -0.4357,-0.20836 -0.53381,-0.46303 -0.1699,-0.44097 -0.19077,-0.44097 -0.43833,0 -0.31172,0.55526 -0.72693,0.59983 -0.91923,0.0987 z m 20.38988,-1.49933 c -0.0939,-0.15189 -0.0218,-0.45552 0.16009,-0.67473 0.2894,-0.34871 0.37892,-0.35043 0.71555,-0.0138 0.21162,0.21163 0.30411,0.51526 0.20555,0.67474 -0.22719,0.36759 -0.85756,0.37564 -1.08119,0.0138 z m 18.82948,-0.70116 c -0.29796,-0.29797 -0.18147,-0.61016 0.22768,-0.61016 0.21828,0 0.39688,0.11203 0.39688,0.24896 0,0.33364 -0.41317,0.57259 -0.62456,0.3612 z m -9.51779,-0.77657 c -3.49263,-0.74925 -6.34361,-2.26229 -7.33914,-3.89495 -0.66925,-1.09756 -0.65819,-2.58648 0.0251,-3.38381 l 0.53532,-0.62463 -0.0307,1.19063 c -0.0169,0.65484 -0.0196,1.33531 -0.006,1.51215 0.0355,0.46501 1.60752,2.19202 1.99531,2.19202 0.18066,0 0.55528,0.255 0.83249,0.56666 0.50785,0.57097 2.87545,1.8072 3.47028,1.812 0.17624,0.001 0.55586,-0.25012 0.8436,-0.55898 0.47152,-0.50611 0.51119,-0.51264 0.40181,-0.0661 -0.0935,0.38183 0.16798,0.62939 1.14077,1.07982 1.52753,0.70728 0.89008,0.76706 -1.86873,0.17523 z m 1.80797,-4.33151 c -0.0899,-0.14552 0.0887,-0.26458 0.39688,-0.26458 0.30822,0 0.48681,0.11906 0.39687,0.26458 -0.0899,0.14552 -0.26853,0.26458 -0.39687,0.26458 -0.12835,0 -0.30694,-0.11906 -0.39688,-0.26458 z m -3.51124,-3.22461 c 0.16353,-0.4906 0.73312,-0.57197 0.73312,-0.10473 0,0.23041 -0.18852,0.41892 -0.41893,0.41892 -0.2304,0 -0.37179,-0.14138 -0.31419,-0.31419 z m -2.70647,-2.76871 c 0,-0.0949 1.05102,-1.25891 2.33559,-2.58676 3.06101,-3.16413 4.14993,-5.25562 4.13955,-7.95082 -0.01,-2.47055 -0.68951,-3.91098 -2.95315,-6.2557 -2.00339,-2.07516 -2.01568,-2.29179 -0.18933,-3.33665 1.22462,-0.70061 1.42984,-0.72971 1.42984,-0.20279 0,0.21828 -0.21967,0.39687 -0.48815,0.39687 -0.26849,0 -0.71024,0.2454 -0.98167,0.54532 -0.42236,0.4667 -0.43781,0.58056 -0.10716,0.7897 0.2125,0.13441 0.46636,0.2462 0.56414,0.24843 0.36213,0.008 11.1395,1.86987 12.33797,2.13119 3.36866,0.7345 6.47408,2.05206 8.57193,3.63688 1.42796,1.07874 3.03233,3.16518 2.69036,3.49874 -0.12657,0.12345 -1.897,0.60246 -3.93429,1.06445 -7.27853,1.65054 -17.92636,5.26944 -20.24063,6.87924 -0.70075,0.48744 -2.55217,1.31439 -2.94272,1.31439 -0.12775,0 -0.23228,-0.0776 -0.23228,-0.17249 z m 8.12808,-4.64711 c 0.665,-0.24047 0.87014,-0.45757 0.81253,-0.8599 -0.11295,-0.78882 -0.71091,-0.65762 -1.46613,0.32168 -0.73127,0.94826 -0.65471,1.01131 0.6536,0.53822 z m 3.1046,-2.49449 c 0.51599,-0.67577 0.93816,-1.33262 0.93816,-1.45967 0,-0.12704 -0.59531,0.0707 -1.32292,0.43938 -1.39722,0.70803 -1.40615,0.72079 -1.15615,1.65365 0.22906,0.85476 0.48495,0.74958 1.54091,-0.63336 z m 3.21453,0.27144 c 1.22185,-0.38095 2.22154,-0.79161 2.22154,-0.91257 0,-0.2765 -1.67723,-1.56978 -2.03581,-1.56978 -0.14634,0 -0.88742,0.71437 -1.64684,1.5875 -0.75942,0.87312 -1.24119,1.5875 -1.0706,1.5875 0.17059,0 1.30986,-0.31169 2.53171,-0.69265 z m -7.03887,-0.36569 c 0,-0.14552 -0.11906,-0.26458 -0.26459,-0.26458 -0.14552,0 -0.26458,0.11906 -0.26458,0.26458 0,0.14552 0.11906,0.26459 0.26458,0.26459 0.14553,0 0.26459,-0.11907 0.26459,-0.26459 z m 2.12381,-2.3985 c 0.44038,-1.06317 0.20197,-1.21153 -0.7801,-0.48545 -0.87445,0.6465 -0.996,1.00917 -0.50334,1.50182 0.3983,0.3983 0.8435,0.0457 1.28344,-1.01637 z m 10.1642,-0.53896 c 2.12851,-2.72033 2.1163,-2.72891 -1.77231,-1.24537 l -2.05201,0.78286 0.9594,1.17082 c 0.52767,0.64395 1.05732,1.17082 1.177,1.17082 0.11968,0 0.87925,-0.84561 1.68792,-1.87913 z m 5.24063,0.95842 c 0.69123,-0.0935 1.25678,-0.25846 1.25678,-0.36652 0,-0.39159 -3.05646,-2.9461 -3.525,-2.9461 -0.0748,0 -0.40643,0.44648 -0.73694,0.99218 -0.33051,0.54571 -0.93553,1.40627 -1.3445,1.91237 -0.40896,0.5061 -0.74357,0.99781 -0.74357,1.09269 0,0.0949 0.86321,0.0179 1.91823,-0.17103 1.05503,-0.18895 2.48378,-0.42006 3.175,-0.51359 z m -13.04193,-0.6973 c 0.86955,-0.53009 0.88997,-0.57589 0.41245,-0.92505 -0.74186,-0.54247 -1.17661,-0.45015 -1.46613,0.31133 -0.50968,1.34056 -0.31992,1.45109 1.05368,0.61372 z m -2.89921,-2.35447 c -0.21828,-0.13902 -0.66477,-0.25457 -0.99219,-0.2568 -0.49911,-0.003 -0.59531,0.13847 -0.59531,0.87789 0,1.26329 0.26068,1.36111 1.17706,0.44167 0.67722,-0.67949 0.74336,-0.85075 0.41044,-1.06276 z m 5.90645,-0.45929 c 0.81675,-1.8821 0.63075,-2.02867 -1.2101,-0.95356 -1.3995,0.81736 -1.53883,1.15141 -0.66146,1.58594 1.05691,0.52344 1.42377,0.39949 1.87156,-0.63238 z m 3.58029,0.0239 2.28722,-0.7037 -1.17471,-0.51884 c -0.64608,-0.28536 -1.6108,-0.57734 -2.14382,-0.64883 -0.89352,-0.11985 -0.98197,-0.0709 -1.13403,0.62723 -0.0907,0.41646 -0.2412,1.0251 -0.33443,1.35252 -0.21061,0.73962 -0.26401,0.74193 2.49977,-0.10838 z m -8.21476,-1.72314 c -0.0448,-0.60715 -0.2152,-1.14786 -0.37878,-1.20157 -0.31483,-0.10337 -1.95154,1.15211 -1.95154,1.49698 0,0.20062 1.39753,0.72932 2.06574,0.7815 0.24566,0.0192 0.32236,-0.29298 0.26458,-1.07691 z m 2.76291,0.0529 c 0.69123,-0.35306 1.25677,-0.7278 1.25677,-0.83276 0,-0.10496 -0.35718,-0.25983 -0.79375,-0.34415 -2.72253,-0.52586 -2.56471,-0.60762 -2.21381,1.14687 0.0921,0.46043 0.24091,0.79998 0.33072,0.75456 0.0898,-0.0454 0.72885,-0.37146 1.42007,-0.72452 z m -4.9984,-1.17411 c 0.83759,-0.68511 0.75413,-0.81626 -0.69215,-1.08758 -1.07073,-0.20087 -1.15863,-0.0752 -0.73214,1.04653 0.314,0.82589 0.45964,0.83009 1.42429,0.041 z m -2.74066,-1.21445 c 0,-0.14552 -0.12609,-0.26458 -0.2802,-0.26458 -0.15411,0 -0.20661,0.11906 -0.11667,0.26458 0.0899,0.14552 0.21602,0.26459 0.2802,0.26459 0.0642,0 0.11667,-0.11907 0.11667,-0.26459 z"
         id="path173"
         inkscape:connector-curvature="0" />
      <path
         style="fill:#aeaeaf;stroke-width:0.26458332"
         d="m 179.91042,243.35576 c -0.27722,-0.30663 -0.95399,-0.73766 -1.50394,-0.95786 -0.54995,-0.2202 -1.11968,-0.62418 -1.26608,-0.89772 -0.31507,-0.58873 -0.77672,-0.65736 -0.77672,-0.11548 0,0.56256 -1.0591,1.20622 -1.9771,1.20158 -1.02529,-0.005 -1.5824,-0.36015 -1.38257,-0.8809 0.11617,-0.30273 0.39278,-0.37093 1.06325,-0.26213 1.62521,0.26374 1.57532,-0.666 -0.0981,-1.82697 -0.8786,-0.60957 -1.04511,-0.87206 -1.04511,-1.64754 0,-1.13355 0.86418,-1.80525 2.16192,-1.68043 1.32772,0.12772 1.35819,0.95065 0.0392,1.05956 -1.45487,0.12014 -1.4496,0.77263 0.0144,1.77986 0.65292,0.44922 1.25497,0.81677 1.33789,0.81677 0.0829,0 0.15076,-0.42863 0.15076,-0.9525 0,-0.73046 0.20971,-1.16221 0.89959,-1.85209 1.21102,-1.21102 2.65958,-1.25809 3.92488,-0.12753 0.79441,0.7098 0.86408,0.90037 0.86408,2.36387 0,1.39631 -0.0943,1.69029 -0.76794,2.39339 -0.63216,0.65983 -0.71,0.87137 -0.44025,1.19641 0.36324,0.43767 0.17286,0.9472 -0.35392,0.9472 -0.18714,0 -0.56707,-0.25087 -0.84428,-0.55749 z m 0.83896,-2.37512 c 0.71496,-0.79002 0.63208,-2.57081 -0.14909,-3.20336 -0.80596,-0.65263 -1.49262,-0.60083 -2.26426,0.17082 -0.80339,0.80338 -0.84329,1.94316 -0.10106,2.88676 0.67507,0.85822 1.81011,0.92403 2.51441,0.14578 z m 2.41716,1.44518 c -0.10355,-0.10355 -0.18828,-1.48684 -0.18828,-3.07399 0,-2.60552 0.045,-2.87715 0.46303,-2.7975 0.38785,0.0739 0.48449,0.47436 0.59531,2.46679 l 0.13229,2.37858 1.00833,0.0831 c 0.77886,0.0642 0.98903,0.1846 0.92356,0.52917 -0.0636,0.33478 -0.41677,0.46556 -1.41537,0.52412 -0.73183,0.0429 -1.41532,-0.007 -1.51887,-0.11025 z m 4.58384,-0.22078 c -0.4921,-0.59295 -0.0965,-0.91845 0.91658,-0.75406 1.21941,0.19788 1.59213,-0.55335 0.63928,-1.28849 -1.51532,-1.16908 -1.83006,-1.53648 -1.83006,-2.13623 0,-1.3728 2.33725,-2.39848 3.1724,-1.39219 0.36284,0.43719 0.16491,0.57176 -1.05573,0.71776 -1.10585,0.13228 -0.95528,1.02227 0.32164,1.90109 0.83715,0.57616 1.13935,0.67422 1.23095,0.39942 0.22593,-0.67778 1.57823,-1.82451 2.15157,-1.82451 0.31344,0 0.91164,0.34177 1.32936,0.75949 0.72707,0.72706 0.76291,0.73553 0.83955,0.19843 0.0595,-0.41683 0.31809,-0.59588 1.00609,-0.69656 1.84472,-0.26995 2.38221,-0.0356 2.96698,1.29351 l 0.53817,1.22325 0.52943,-1.25677 c 0.52602,-1.24872 1.13532,-1.61737 1.42509,-0.86224 0.12784,0.33314 0.25558,0.31256 0.82113,-0.1323 0.36835,-0.28974 0.82667,-0.52681 1.01848,-0.52681 0.66648,0 1.64416,0.59285 1.9042,1.15466 0.25539,0.55178 0.26593,0.54856 0.4459,-0.1361 0.19415,-0.73857 0.99611,-0.98533 2.60329,-0.80104 0.88914,0.10196 0.81647,0.66878 -0.10256,0.80002 -1.02367,0.14618 -1.30219,0.55104 -1.30219,1.89288 0,1.47868 -0.57399,2.22792 -1.03988,1.35739 -0.15567,-0.29087 -0.28304,-0.85815 -0.28304,-1.26063 0,-0.56915 -0.0705,-0.66121 -0.3175,-0.41426 -0.17462,0.17462 -0.83939,0.3175 -1.47725,0.3175 -1.519,0 -1.38208,0.62904 0.16167,0.74281 0.60716,0.0447 1.10392,0.16977 1.10392,0.27782 0,0.68562 -1.44752,1.07162 -2.50169,0.66709 -0.52426,-0.20117 -1.19475,-1.44443 -1.22416,-2.2699 -0.0158,-0.44378 -0.19037,-0.23949 -0.64499,0.75482 -1.02387,2.23932 -1.45562,2.17088 -2.41298,-0.38254 -0.40525,-1.08087 -0.70375,-1.5099 -1.05052,-1.5099 -0.62859,0 -1.15267,1.0569 -1.1576,2.33451 -0.003,0.81949 -0.0918,0.99485 -0.46692,0.92348 -0.31041,-0.0591 -0.50662,-0.41193 -0.59531,-1.07061 -0.10705,-0.79505 -0.20801,-0.93416 -0.52917,-0.7291 -0.21828,0.13938 -0.85328,0.25524 -1.41111,0.25746 -1.40038,0.006 -1.13933,0.64026 0.3072,0.74687 1.1499,0.0847 1.32108,0.2571 0.78641,0.79177 -0.49961,0.49961 -1.92357,0.37163 -2.70512,-0.24314 l -0.71273,-0.56064 -0.59677,0.56064 c -0.69984,0.65746 -2.31786,0.75872 -2.80201,0.17535 z m 6.00966,-2.85586 c -0.0606,-0.1819 -0.269,-0.33073 -0.46303,-0.33073 -0.19402,0 -0.40238,0.14883 -0.46302,0.33073 -0.0656,0.19674 0.12201,0.33073 0.46302,0.33073 0.34102,0 0.5286,-0.13399 0.46303,-0.33073 z m 10.58333,0 c -0.0606,-0.1819 -0.26899,-0.33073 -0.46302,-0.33073 -0.19403,0 -0.40239,0.14883 -0.46302,0.33073 -0.0656,0.19674 0.122,0.33073 0.46302,0.33073 0.34102,0 0.5286,-0.13399 0.46302,-0.33073 z m -39.22508,-4.16816 c -0.0903,-0.14605 -0.45448,-0.19268 -0.80937,-0.1036 -0.60219,0.15114 -0.64524,0.0924 -0.64524,-0.88098 0,-1.20488 0.20031,-1.51383 0.70822,-1.0923 0.27427,0.22762 0.48257,0.18791 0.87439,-0.16668 0.28289,-0.25601 0.69738,-0.39524 0.92108,-0.3094 0.56898,0.21834 0.50675,0.61398 -0.12244,0.77852 -0.29104,0.0761 -0.52917,0.32393 -0.52917,0.55071 0,0.22679 0.23813,0.53978 0.52917,0.69554 0.29104,0.15576 0.52917,0.39807 0.52917,0.53847 0,0.33834 -1.24579,0.32955 -1.45581,-0.0103 z m 3.71977,-0.32248 c -0.22653,-0.32342 -0.41188,-0.8067 -0.41188,-1.07395 0,-0.26725 -0.11906,-0.41232 -0.26458,-0.32239 -0.14552,0.0899 -0.26459,0.52242 -0.26459,0.96106 0,0.60227 -0.10799,0.77659 -0.44108,0.71199 -0.32422,-0.0629 -0.44075,-0.36595 -0.43983,-1.14388 0.001,-1.02141 0.0327,-1.05945 0.9041,-1.0905 0.49657,-0.0177 1.23182,-0.12028 1.6339,-0.22798 0.46638,-0.12493 0.87631,-0.0752 1.13231,0.13721 0.31073,0.25789 0.55323,0.26379 1.07472,0.0262 0.8215,-0.3743 1.23931,-0.16372 1.02361,0.5159 -0.21221,0.6686 0.30676,0.6537 0.66685,-0.0192 0.35815,-0.66921 1.46944,-0.96104 1.99588,-0.52413 0.21991,0.18251 0.43299,0.2851 0.47352,0.22798 0.0405,-0.0571 0.28336,-0.43866 0.53963,-0.84788 0.53189,-0.84932 1.13543,-0.81632 1.00852,0.0551 -0.077,0.52868 -0.0329,0.55222 0.45874,0.24517 0.45818,-0.28614 0.61399,-0.26961 0.98848,0.10489 0.34615,0.34614 0.37617,0.52699 0.13561,0.81684 -0.18181,0.21907 -0.24051,0.71454 -0.14264,1.20391 0.13126,0.65627 0.0767,0.83163 -0.25858,0.83163 -0.24849,0 -0.4911,-0.30208 -0.58434,-0.72761 -0.27199,-1.24129 -0.36735,-1.42799 -0.64253,-1.25792 -0.14655,0.0906 -0.26645,0.51484 -0.26645,0.94281 0,0.78543 -0.6362,1.1185 -0.85911,0.44977 -0.0787,-0.23611 -0.23888,-0.19894 -0.57011,0.13229 -0.51815,0.51815 -1.49412,0.60649 -1.92625,0.17435 -0.20536,-0.20535 -0.43484,-0.19354 -0.81162,0.0418 -0.67741,0.42305 -1.57742,0.12874 -1.15667,-0.37824 0.16065,-0.19357 0.21374,-0.43028 0.11799,-0.52603 -0.29987,-0.29988 -0.61506,-0.19048 -0.61506,0.21347 0,0.96712 -1.88124,1.22863 -2.49854,0.34731 z m 1.61242,-0.60259 c 0.13446,-0.42469 -0.35035,-1.0107 -0.6718,-0.81203 -0.48145,0.29755 -0.35971,1.26042 0.14693,1.16216 0.2426,-0.047 0.47879,-0.20461 0.52487,-0.35013 z m 4.7625,0 c 0.13446,-0.42469 -0.35035,-1.0107 -0.6718,-0.81203 -0.48145,0.29755 -0.35971,1.26042 0.14693,1.16216 0.2426,-0.047 0.47879,-0.20461 0.52487,-0.35013 z m -15.93905,0.5617 c -0.0769,-0.20039 -0.10293,-0.94346 -0.0579,-1.65127 0.10591,-1.66261 0.79392,-1.91939 1.3806,-0.51525 0.21679,0.51885 0.49725,0.94337 0.62325,0.94337 0.12599,0 0.43214,-0.42584 0.68033,-0.9463 0.64917,-1.36132 1.08772,-1.0266 1.18073,0.90115 0.0793,1.6433 -0.1865,2.07086 -0.72708,1.16962 -0.2645,-0.44097 -0.29095,-0.44097 -0.55546,0 -0.15275,0.25467 -0.43767,0.46303 -0.63315,0.46303 -0.19548,0 -0.4357,-0.20836 -0.53381,-0.46303 -0.1699,-0.44097 -0.19077,-0.44097 -0.43833,0 -0.31172,0.55526 -0.72693,0.59983 -0.91923,0.0987 z m 20.38988,-1.49933 c -0.0939,-0.15189 -0.0218,-0.45552 0.16009,-0.67473 0.2894,-0.34871 0.37892,-0.35043 0.71555,-0.0138 0.21162,0.21163 0.30411,0.51526 0.20555,0.67474 -0.22719,0.36759 -0.85756,0.37564 -1.08119,0.0138 z m 18.82948,-0.70116 c -0.29796,-0.29797 -0.18147,-0.61016 0.22768,-0.61016 0.21828,0 0.39688,0.11203 0.39688,0.24896 0,0.33364 -0.41317,0.57259 -0.62456,0.3612 z m -9.51779,-0.77657 c -3.49263,-0.74925 -6.34361,-2.26229 -7.33914,-3.89495 -0.66925,-1.09756 -0.65819,-2.58648 0.0251,-3.38381 l 0.53532,-0.62463 -0.0307,1.19063 c -0.0169,0.65484 -0.0196,1.33531 -0.006,1.51215 0.0355,0.46501 1.60752,2.19202 1.99531,2.19202 0.18066,0 0.55528,0.255 0.83249,0.56666 0.50785,0.57097 2.87545,1.8072 3.47028,1.812 0.17624,0.001 0.55586,-0.25012 0.8436,-0.55898 0.47152,-0.50611 0.51119,-0.51264 0.40181,-0.0661 -0.0935,0.38183 0.16798,0.62939 1.14077,1.07982 1.52753,0.70728 0.89008,0.76706 -1.86873,0.17523 z m 1.80797,-4.33151 c -0.0899,-0.14552 0.0887,-0.26458 0.39688,-0.26458 0.30822,0 0.48681,0.11906 0.39687,0.26458 -0.0899,0.14552 -0.26853,0.26458 -0.39687,0.26458 -0.12835,0 -0.30694,-0.11906 -0.39688,-0.26458 z m -3.51124,-3.22461 c 0.16353,-0.4906 0.73312,-0.57197 0.73312,-0.10473 0,0.23041 -0.18852,0.41892 -0.41893,0.41892 -0.2304,0 -0.37179,-0.14138 -0.31419,-0.31419 z m -1.91272,-3.33375 c 0,-0.0838 0.93321,-1.11302 2.0738,-2.28712 2.76857,-2.84991 3.87933,-5.05047 3.87933,-7.68542 0,-2.40819 -0.91415,-4.36485 -2.85415,-6.10908 -1.87795,-1.68844 -2.17775,-2.14372 -1.75058,-2.65843 0.30733,-0.37031 2.14081,-1.42451 2.47752,-1.42451 0.0786,0 0.14283,0.1786 0.14283,0.39688 0,0.21828 -0.21967,0.39687 -0.48815,0.39687 -0.52515,0 -1.36393,0.77833 -1.36393,1.26562 0,0.16385 0.44649,0.36505 0.99219,0.44712 0.5457,0.0821 1.52797,0.25819 2.18281,0.39138 0.65484,0.13318 1.96453,0.37196 2.91042,0.5306 9.58538,1.6077 12.31689,2.44256 15.44329,4.72007 1.19591,0.87119 2.81296,2.74997 2.81296,3.26824 0,0.44698 -0.73523,0.21267 -0.86274,-0.27495 -0.16276,-0.62237 -3.07478,-2.93935 -3.69453,-2.93958 -0.25093,-9e-5 -0.63073,0.33729 -0.84402,0.74974 -0.21328,0.41244 -0.87395,1.36494 -1.46815,2.11666 l -1.08037,1.36677 0.73376,-0.006 c 0.40357,-0.004 1.21001,-0.10983 1.79209,-0.23615 0.58208,-0.12633 1.71318,-0.30289 2.51354,-0.39236 2.14921,-0.24026 1.1332,0.22664 -2.21451,1.01766 -8.14714,1.92505 -19.48132,6.02477 -19.48132,7.04665 0,0.15115 -0.11906,0.20123 -0.26459,0.11129 -0.14552,-0.0899 -0.26466,-0.0672 -0.26477,0.0505 -1e-4,0.11772 -0.29775,0.23122 -0.66146,0.2522 -0.36369,0.021 -0.66127,-0.0304 -0.66127,-0.11422 z m 4.85911,-3.77959 c 0.38343,-0.30161 0.69714,-0.66553 0.69714,-0.80871 0,-0.34322 -1.53256,0.56771 -1.70318,1.01235 -0.19329,0.50368 0.21082,0.42188 1.00604,-0.20364 z m 2.08085,0.11358 c 1.41932,-0.54618 1.86348,-1.05262 1.50715,-1.71843 -0.39575,-0.73946 -0.81597,-0.60737 -2.04202,0.64188 -1.59532,1.62551 -1.48238,1.85284 0.53487,1.07655 z m 2.99938,-1.71013 c 0.12539,-0.20288 0.234,-0.20703 0.35361,-0.0135 0.20355,0.32935 5.63456,-1.30637 5.7793,-1.74062 0.11885,-0.35654 -1.78142,-1.92641 -2.30805,-1.90676 -0.22151,0.008 -0.97777,0.72264 -1.68059,1.5875 -1.45214,1.78694 -2.23645,2.15149 -0.99399,0.46201 0.90333,-1.22834 0.99393,-1.53537 0.45308,-1.53537 -0.41107,0 -2.73533,1.25029 -2.94006,1.58155 -0.0735,0.1189 -0.0597,0.5856 0.0306,1.03711 0.16722,0.83614 0.9261,1.14297 1.30612,0.52809 z m -3.37767,-0.81842 c 0.47791,-0.47791 0.38171,-1.00541 -0.18336,-1.00541 -0.45903,0 -0.82206,0.47691 -0.82206,1.07997 0,0.347 0.63063,0.30023 1.00542,-0.0746 z m 2.16421,-2.31779 c 0.51298,-1.00552 0.71028,-2.12721 0.37418,-2.12721 -0.40004,0 -2.22089,1.67549 -2.22089,2.04359 0,0.39247 0.71023,1.10518 1.1191,1.123 0.10619,0.005 0.43361,-0.46309 0.72761,-1.03938 z m 10.30976,-1.00273 c 1.51843,-1.94571 1.90269,-2.71198 1.35998,-2.71198 -0.35487,0 -5.14847,1.84958 -5.37549,2.07409 -0.19713,0.19496 1.86075,2.68841 2.21878,2.68841 0.10808,0 0.91661,-0.92273 1.79673,-2.05052 z m -6.8648,-0.4626 c 0,-0.32602 -1.09665,-0.92646 -1.69211,-0.92646 -0.38537,0 -1.28545,2.05856 -1.05975,2.42375 0.18868,0.3053 2.75186,-1.08933 2.75186,-1.49729 z m -4.34797,-0.29641 c 1.08218,-0.82542 1.15247,-1.3441 0.2297,-1.69493 -1.43651,-0.54616 -1.70257,-0.37976 -1.70257,1.06488 0,0.76072 0.11995,1.32292 0.28224,1.32292 0.15523,0 0.69101,-0.31179 1.19063,-0.69287 z m 6.61189,-2.09167 c 1.04093,-2.05736 0.65021,-2.3393 -1.44748,-1.04454 -0.8856,0.54663 -1.61019,1.13394 -1.61019,1.30514 0,0.30738 1.43892,1.15129 2.01897,1.1841 0.16455,0.009 0.63197,-0.64081 1.0387,-1.4447 z m 3.30378,0.47457 c 1.30527,-0.39736 2.33593,-0.83435 2.29034,-0.9711 -0.12062,-0.36189 -3.35281,-1.52072 -3.98289,-1.42798 -0.39831,0.0586 -0.62327,0.41804 -0.87738,1.40175 -0.41765,1.61682 -0.4223,1.7198 -0.0776,1.7198 0.15088,0 1.34227,-0.32511 2.64754,-0.72247 z m -7.92035,-1.81176 c 0.0885,-0.57071 0.17779,-0.89657 0.19843,-0.72414 0.0206,0.17242 0.15454,0.62121 0.29753,0.99731 l 0.25999,0.6838 1.52595,-0.81429 c 0.83928,-0.44787 1.52596,-0.95131 1.52596,-1.11877 0,-0.34143 -3.02601,-1.02915 -3.42992,-0.77952 -0.14251,0.0881 -0.56648,0.13671 -0.94216,0.10809 -0.47489,-0.0362 -0.95547,0.22902 -1.57698,0.87026 -0.98759,1.01893 -0.93769,1.18803 0.48061,1.62858 1.33028,0.41321 1.47611,0.33845 1.66059,-0.85132 z m -2.47767,-1.04407 c 1.46618,-0.89305 1.00382,-1.39784 -1.43553,-1.56729 -0.55561,-0.0386 -1.21462,-0.15801 -1.46449,-0.26537 -0.24986,-0.10737 -0.57914,-0.15359 -0.73173,-0.10273 -0.43566,0.14522 0.48488,1.28035 1.03831,1.28035 0.26605,0 0.68361,0.30505 0.9279,0.67789 0.24429,0.37284 0.52588,0.63784 0.62574,0.58889 0.0999,-0.0489 0.56778,-0.32423 1.0398,-0.61174 z"
         id="path171"
         inkscape:connector-curvature="0" />
      <path
         style="fill:#e07d80;stroke-width:0.26458332"
         d="m 180.06529,243.24871 c -0.18256,-0.21998 -0.84353,-0.62626 -1.46882,-0.90286 -1.80526,-0.79855 -2.39767,-2.44883 -1.58085,-4.40375 0.45251,-1.08301 1.88888,-1.82499 3.04245,-1.57163 0.88041,0.19338 1.99913,1.33737 2.21714,2.26723 0.23268,0.99246 -0.27822,2.53685 -1.08746,3.28722 -0.55582,0.51538 -0.63783,0.72415 -0.38413,0.97784 0.17741,0.17742 0.32256,0.41782 0.32256,0.53424 0,0.35964 -0.71085,0.23347 -1.06089,-0.18829 z m 0.86245,-2.29818 c 0.5754,-0.66545 0.6023,-2.27695 0.0512,-3.06383 -0.30549,-0.43615 -0.6775,-0.58804 -1.44021,-0.58804 -1.2227,0 -1.85208,0.70026 -1.85208,2.06064 0,2.16481 1.92711,3.11092 3.24114,1.59123 z m -7.40833,1.46457 c -0.58436,-0.2358 -0.37554,-0.9246 0.26458,-0.87275 1.94151,0.15726 2.02893,-0.49805 0.27075,-2.02942 -1.16768,-1.01703 -1.23638,-1.14575 -0.98819,-1.85147 0.35886,-1.02041 1.53529,-1.58551 2.44132,-1.17269 0.79354,0.36156 0.53393,0.73217 -0.5994,0.85568 -1.23313,0.13439 -1.14349,0.97495 0.20771,1.9477 1.40235,1.00958 1.5923,1.93022 0.56497,2.73832 -0.6806,0.53536 -1.44926,0.67212 -2.16174,0.38463 z m 14.55208,0 c -0.1819,-0.0734 -0.33073,-0.30212 -0.33073,-0.50828 0,-0.25919 0.31777,-0.37482 1.03003,-0.37482 1.00803,0 1.50073,-0.42042 1.12831,-0.96279 -0.0957,-0.13933 -0.5702,-0.53021 -1.05448,-0.8686 -1.52387,-1.06481 -1.62932,-2.38121 -0.24798,-3.09553 0.89438,-0.4625 2.05454,-0.29211 2.05454,0.30175 0,0.27208 -0.28555,0.39183 -0.93434,0.39183 -1.29212,0 -1.51518,0.67609 -0.49903,1.51252 0.42455,0.34946 1.02313,0.86294 1.33019,1.14105 0.55657,0.50413 0.55951,0.50251 0.96637,-0.53326 0.43739,-1.11347 1.23782,-1.52067 2.41061,-1.22632 0.66206,0.16617 1.4034,1.51229 1.1017,2.00046 -0.0954,0.1543 -0.69512,0.28055 -1.33279,0.28055 -1.32275,0 -1.65221,0.29437 -1.02803,0.91855 0.29898,0.29898 0.66641,0.38056 1.19305,0.26489 0.87477,-0.19213 1.03723,0.23762 0.24925,0.65934 -0.83152,0.44501 -1.33302,0.32189 -2.19342,-0.53851 -0.6207,-0.6207 -0.86467,-0.72996 -1.03393,-0.46302 -0.12184,0.19216 -0.22335,0.41956 -0.22558,0.50534 -0.0124,0.4787 -1.83289,0.89782 -2.58374,0.59485 z m 5.95313,-3.06592 c -0.0606,-0.1819 -0.38806,-0.33073 -0.72761,-0.33073 -0.33954,0 -0.66697,0.14883 -0.7276,0.33073 -0.0727,0.21817 0.17492,0.33073 0.7276,0.33073 0.55269,0 0.80033,-0.11256 0.72761,-0.33073 z m 8.65308,2.59172 c -1.34404,-1.34404 -0.50726,-3.84849 1.28585,-3.84849 0.89476,0 1.82769,0.90629 1.719,1.66992 -0.0666,0.46802 -0.28532,0.59511 -1.14074,0.66287 -1.29548,0.10261 -1.66097,0.40778 -1.18101,0.9861 0.24304,0.29283 0.59549,0.38332 1.10004,0.28241 0.52407,-0.10481 0.74242,-0.042 0.74242,0.21347 0,0.87627 -1.66084,0.89844 -2.52556,0.0337 z m 1.93025,-2.59172 c -0.0606,-0.1819 -0.38805,-0.33073 -0.7276,-0.33073 -0.33955,0 -0.66697,0.14883 -0.72761,0.33073 -0.0727,0.21817 0.17492,0.33073 0.72761,0.33073 0.55268,0 0.80032,-0.11256 0.7276,-0.33073 z m -21.4533,2.80018 c -0.30815,-0.30816 -0.20113,-5.33334 0.11778,-5.53044 0.52439,-0.32409 0.75598,0.50291 0.76012,2.71429 l 0.004,2.16684 0.97174,0.0821 c 1.61954,0.13686 1.42034,0.74358 -0.24413,0.74358 -0.78824,0 -1.51253,-0.0794 -1.60955,-0.17639 z m 12.52361,-1.76111 v -1.9816 l 1.31073,-0.18027 c 0.7209,-0.0992 1.44512,-0.0972 1.60939,0.004 0.16428,0.10153 0.53113,0.72689 0.81524,1.38969 0.56285,1.31307 0.78934,1.26509 1.28028,-0.2712 0.17439,-0.54571 0.48643,-0.99219 0.69342,-0.99219 0.51755,0 0.48036,0.26381 -0.31843,2.25915 -0.87429,2.18393 -1.29415,2.15706 -2.26027,-0.14468 -0.55411,-1.32014 -0.83134,-1.69717 -1.19805,-1.62934 -0.77286,0.14297 -0.98478,0.50768 -1.13182,1.94782 -0.0765,0.74889 -0.28786,1.41073 -0.46976,1.47076 -0.24485,0.0808 -0.33073,-0.40537 -0.33073,-1.87246 z m 10.69371,1.5789 c -0.0757,-0.19723 -0.10171,-1.11483 -0.0578,-2.03911 l 0.0798,-1.68052 0.9861,-0.0621 c 1.09743,-0.0692 1.6399,0.38714 0.74001,0.62247 -0.68811,0.17994 -1.06465,1.05591 -1.06465,2.47679 0,1.00892 -0.40349,1.4119 -0.68338,0.68251 z m -45.62476,-7.46253 c -0.26127,-0.6872 -0.7877,-0.66612 -0.7877,0.0315 0,0.2097 -0.11906,0.38126 -0.26458,0.38126 -0.33905,0 -0.34849,-2.82733 -0.0101,-3.03644 0.13994,-0.0865 0.49954,0.32321 0.79912,0.91043 0.29958,0.58722 0.65974,1.06768 0.80035,1.06768 0.14061,0 0.42977,-0.41672 0.64258,-0.92604 0.3731,-0.89296 0.76679,-1.16077 1.04489,-0.7108 0.0732,0.11839 0.0347,0.803 -0.0856,1.52136 -0.12022,0.71836 -0.23259,1.03821 -0.2497,0.71079 -0.0414,-0.79123 -0.49814,-0.75662 -0.87301,0.0662 -0.38415,0.8431 -0.69148,0.83829 -1.01625,-0.0159 z m 4.2923,0.35988 c -0.17462,-0.17463 -0.3175,-0.51336 -0.3175,-0.75275 0,-0.51068 0.81039,-1.311 1.3275,-1.311 0.23163,0 0.15353,0.19215 -0.21927,0.53947 -0.69454,0.64706 -0.70381,0.73622 -0.14118,1.35792 0.36127,0.39919 0.37053,0.48386 0.0529,0.48386 -0.21173,0 -0.52784,-0.14288 -0.70247,-0.3175 z m 3.96875,0 c -0.17462,-0.17463 -0.3175,-0.56754 -0.3175,-0.87313 0,-1.1226 1.24395,-1.58355 2.12405,-0.78707 0.39965,0.36167 0.48066,0.36167 0.78083,0 0.48786,-0.58784 0.97682,-0.49364 0.95259,0.1835 -0.0304,0.84895 0.74735,0.89553 1.12468,0.0674 0.24212,-0.53139 0.47393,-0.67002 1.01268,-0.60563 0.8795,0.10512 1.27807,0.72355 1.05055,1.63006 -0.13792,0.54951 -0.33646,0.70241 -0.91208,0.70241 -0.40469,0 -0.87867,-0.14288 -1.0533,-0.3175 -0.24694,-0.24695 -0.38805,-0.24695 -0.635,0 -0.49108,0.49108 -0.95991,0.37663 -1.05316,-0.25709 -0.12318,-0.83715 -0.70156,-0.89968 -1.00241,-0.10838 -0.19457,0.51176 -0.44701,0.68297 -1.00704,0.68297 -0.41106,0 -0.89026,-0.14288 -1.06489,-0.3175 z m 1.48275,-0.77545 c 0.0495,-0.42509 -0.0705,-0.74947 -0.31138,-0.8419 -0.54543,-0.2093 -1.03923,0.47372 -0.82666,1.14345 0.24504,0.77206 1.03757,0.56207 1.13804,-0.30155 z m 4.76577,-0.0338 c 0.0667,-0.57764 -0.0244,-0.72534 -0.44741,-0.72534 -0.66804,0 -0.91045,0.37841 -0.68912,1.07575 0.2465,0.77667 1.03448,0.53373 1.13653,-0.35041 z m 2.95898,0.44789 c 0,-0.37337 -0.11656,-0.89665 -0.25902,-1.16284 -0.35578,-0.66479 0.30334,-1.25605 0.77145,-0.69202 0.2365,0.28497 0.24312,0.52323 0.0258,0.9293 -0.20895,0.39044 -0.21153,0.69691 -0.009,1.07525 0.22604,0.42235 0.20121,0.52917 -0.12298,0.52917 -0.25965,0 -0.40619,-0.24491 -0.40619,-0.67886 z m -14.32269,0.29088 c -0.076,-0.076 -0.0818,-0.52241 -0.0129,-0.99203 0.11838,-0.80655 0.13785,-0.82 0.35138,-0.24277 0.21465,0.58026 -0.0452,1.52812 -0.33852,1.2348 z m 3.389,-0.0506 c -0.34683,-0.34683 -0.17981,-1.69434 0.22948,-1.85139 0.60819,-0.23339 0.66123,-0.0406 0.28776,1.04572 -0.18614,0.54146 -0.4189,0.90401 -0.51724,0.80567 z m 9.24638,-0.96702 c -0.18794,-1.18384 0.0609,-2.03401 0.59523,-2.03401 0.20576,0 0.17757,1.31334 -0.0398,1.85209 -0.0881,0.21828 -0.20357,0.635 -0.25671,0.92604 -0.0531,0.29104 -0.18759,-0.0438 -0.29876,-0.74412 z m 7.06284,-4.38493 c -1.4979,-1.08507 -2.20522,-2.0752 -2.17351,-3.04257 l 0.027,-0.82422 0.28779,0.90155 c 0.28925,0.90612 1.7153,2.54412 2.70089,3.10232 0.29104,0.16483 0.45889,0.37402 0.37298,0.46487 -0.0859,0.0908 -0.63273,-0.18004 -1.21516,-0.60195 z m 1.76822,-8.41278 c 0,-0.0992 0.93321,-1.14101 2.0738,-2.31511 2.76857,-2.84991 3.87933,-5.05047 3.87933,-7.68542 0,-2.4731 -0.88093,-4.29415 -3.04452,-6.2936 -1.49478,-1.38137 -1.89043,-2.09135 -1.35119,-2.42462 0.12898,-0.0797 0.29437,0.084 0.36753,0.36377 0.0919,0.3514 0.4489,0.55654 1.15456,0.66342 0.56185,0.0851 1.55732,0.26369 2.21216,0.39688 0.65484,0.13318 1.96453,0.37196 2.91042,0.5306 9.58538,1.6077 12.31689,2.44256 15.44329,4.72007 1.19591,0.87119 2.81296,2.74997 2.81296,3.26824 0,0.44698 -0.73523,0.21267 -0.86274,-0.27495 -0.16276,-0.62237 -3.07478,-2.93935 -3.69453,-2.93958 -0.25093,-9e-5 -0.63073,0.33729 -0.84402,0.74974 -0.21328,0.41244 -0.87395,1.36494 -1.46815,2.11666 l -1.08037,1.36677 0.73376,-0.006 c 0.40357,-0.004 1.21001,-0.10983 1.79209,-0.23615 0.58208,-0.12633 1.71318,-0.30289 2.51354,-0.39236 2.14921,-0.24026 1.1332,0.22664 -2.21451,1.01766 -7.21113,1.70388 -14.84035,4.34761 -19.15738,6.63855 -1.73462,0.92052 -2.17603,1.0698 -2.17603,0.7359 z m 4.85911,-3.80758 c 0.38343,-0.30161 0.69714,-0.66553 0.69714,-0.80871 0,-0.34322 -1.53256,0.56771 -1.70318,1.01235 -0.19329,0.50368 0.21082,0.42188 1.00604,-0.20364 z m 2.08085,0.11358 c 1.41932,-0.54618 1.86348,-1.05262 1.50715,-1.71843 -0.39575,-0.73946 -0.81597,-0.60737 -2.04202,0.64188 -1.59532,1.62551 -1.48238,1.85284 0.53487,1.07655 z m 2.99938,-1.71013 c 0.12539,-0.20288 0.234,-0.20703 0.35361,-0.0135 0.20355,0.32935 5.63456,-1.30637 5.7793,-1.74062 0.11885,-0.35654 -1.78142,-1.92641 -2.30805,-1.90676 -0.22151,0.008 -0.97777,0.72264 -1.68059,1.5875 -1.45214,1.78694 -2.23645,2.15149 -0.99399,0.46201 0.90333,-1.22834 0.99393,-1.53537 0.45308,-1.53537 -0.41107,0 -2.73533,1.25029 -2.94006,1.58155 -0.0735,0.1189 -0.0597,0.5856 0.0306,1.03711 0.16722,0.83614 0.9261,1.14297 1.30612,0.52809 z m -3.37767,-0.81842 c 0.47791,-0.47791 0.38171,-1.00541 -0.18336,-1.00541 -0.45903,0 -0.82206,0.47691 -0.82206,1.07997 0,0.347 0.63063,0.30023 1.00542,-0.0746 z m 2.16421,-2.31779 c 0.51298,-1.00552 0.71028,-2.12721 0.37418,-2.12721 -0.40004,0 -2.22089,1.67549 -2.22089,2.04359 0,0.39247 0.71023,1.10518 1.1191,1.123 0.10619,0.005 0.43361,-0.46309 0.72761,-1.03938 z m 10.30976,-1.00273 c 1.51843,-1.94571 1.90269,-2.71198 1.35998,-2.71198 -0.35487,0 -5.14847,1.84958 -5.37549,2.07409 -0.19713,0.19496 1.86075,2.68841 2.21878,2.68841 0.10808,0 0.91661,-0.92273 1.79673,-2.05052 z m -6.8648,-0.4626 c 0,-0.32602 -1.09665,-0.92646 -1.69211,-0.92646 -0.38537,0 -1.28545,2.05856 -1.05975,2.42375 0.18868,0.3053 2.75186,-1.08933 2.75186,-1.49729 z m -4.34797,-0.29641 c 1.08218,-0.82542 1.15247,-1.3441 0.2297,-1.69493 -1.43651,-0.54616 -1.70257,-0.37976 -1.70257,1.06488 0,0.76072 0.11995,1.32292 0.28224,1.32292 0.15523,0 0.69101,-0.31179 1.19063,-0.69287 z m 6.61189,-2.09167 c 1.04093,-2.05736 0.65021,-2.3393 -1.44748,-1.04454 -0.8856,0.54663 -1.61019,1.13394 -1.61019,1.30514 0,0.30738 1.43892,1.15129 2.01897,1.1841 0.16455,0.009 0.63197,-0.64081 1.0387,-1.4447 z m 3.30378,0.47457 c 1.30527,-0.39736 2.33593,-0.83435 2.29034,-0.9711 -0.12062,-0.36189 -3.35281,-1.52072 -3.98289,-1.42798 -0.39831,0.0586 -0.62327,0.41804 -0.87738,1.40175 -0.41765,1.61682 -0.4223,1.7198 -0.0776,1.7198 0.15088,0 1.34227,-0.32511 2.64754,-0.72247 z m -7.92035,-1.81176 c 0.0885,-0.57071 0.17779,-0.89657 0.19843,-0.72414 0.0206,0.17242 0.15454,0.62121 0.29753,0.99731 l 0.25999,0.6838 1.52595,-0.81429 c 0.83928,-0.44787 1.52596,-0.95131 1.52596,-1.11877 0,-0.34143 -3.02601,-1.02915 -3.42992,-0.77952 -0.14251,0.0881 -0.56648,0.13671 -0.94216,0.10809 -0.47489,-0.0362 -0.95547,0.22902 -1.57698,0.87026 -0.98759,1.01893 -0.93769,1.18803 0.48061,1.62858 1.33028,0.41321 1.47611,0.33845 1.66059,-0.85132 z m -2.47767,-1.04407 c 1.46618,-0.89305 1.00382,-1.39784 -1.43553,-1.56729 -0.55561,-0.0386 -1.21462,-0.15801 -1.46449,-0.26537 -0.24986,-0.10737 -0.57914,-0.15359 -0.73173,-0.10273 -0.43566,0.14522 0.48488,1.28035 1.03831,1.28035 0.26605,0 0.68361,0.30505 0.9279,0.67789 0.24429,0.37284 0.52588,0.63784 0.62574,0.58889 0.0999,-0.0489 0.56778,-0.32423 1.0398,-0.61174 z"
         id="path169"
         inkscape:connector-curvature="0" />
      <path
         style="fill:#909090;stroke-width:0.26458332"
         d="m 180.06529,243.24871 c -0.18256,-0.21998 -0.84353,-0.62626 -1.46882,-0.90286 -1.80526,-0.79855 -2.39767,-2.44883 -1.58085,-4.40375 0.45251,-1.08301 1.88888,-1.82499 3.04245,-1.57163 0.88041,0.19338 1.99913,1.33737 2.21714,2.26723 0.23268,0.99246 -0.27822,2.53685 -1.08746,3.28722 -0.55582,0.51538 -0.63783,0.72415 -0.38413,0.97784 0.17741,0.17742 0.32256,0.41782 0.32256,0.53424 0,0.35964 -0.71085,0.23347 -1.06089,-0.18829 z m 0.86245,-2.29818 c 0.5754,-0.66545 0.6023,-2.27695 0.0512,-3.06383 -0.30549,-0.43615 -0.6775,-0.58804 -1.44021,-0.58804 -1.2227,0 -1.85208,0.70026 -1.85208,2.06064 0,2.16481 1.92711,3.11092 3.24114,1.59123 z m -7.40833,1.46457 c -0.58436,-0.2358 -0.37554,-0.9246 0.26458,-0.87275 1.94151,0.15726 2.02893,-0.49805 0.27075,-2.02942 -1.16768,-1.01703 -1.23638,-1.14575 -0.98819,-1.85147 0.35886,-1.02041 1.53529,-1.58551 2.44132,-1.17269 0.79354,0.36156 0.53393,0.73217 -0.5994,0.85568 -1.23313,0.13439 -1.14349,0.97495 0.20771,1.9477 1.40235,1.00958 1.5923,1.93022 0.56497,2.73832 -0.6806,0.53536 -1.44926,0.67212 -2.16174,0.38463 z m 14.55208,0 c -0.1819,-0.0734 -0.33073,-0.30212 -0.33073,-0.50828 0,-0.25919 0.31777,-0.37482 1.03003,-0.37482 1.00803,0 1.50073,-0.42042 1.12831,-0.96279 -0.0957,-0.13933 -0.5702,-0.53021 -1.05448,-0.8686 -1.52387,-1.06481 -1.62932,-2.38121 -0.24798,-3.09553 0.89438,-0.4625 2.05454,-0.29211 2.05454,0.30175 0,0.27208 -0.28555,0.39183 -0.93434,0.39183 -1.29212,0 -1.51518,0.67609 -0.49903,1.51252 0.42455,0.34946 1.02313,0.86294 1.33019,1.14105 0.55657,0.50413 0.55951,0.50251 0.96637,-0.53326 0.43739,-1.11347 1.23782,-1.52067 2.41061,-1.22632 0.66206,0.16617 1.4034,1.51229 1.1017,2.00046 -0.0954,0.1543 -0.69512,0.28055 -1.33279,0.28055 -1.32275,0 -1.65221,0.29437 -1.02803,0.91855 0.29898,0.29898 0.66641,0.38056 1.19305,0.26489 0.87477,-0.19213 1.03723,0.23762 0.24925,0.65934 -0.83152,0.44501 -1.33302,0.32189 -2.19342,-0.53851 -0.6207,-0.6207 -0.86467,-0.72996 -1.03393,-0.46302 -0.12184,0.19216 -0.22335,0.41956 -0.22558,0.50534 -0.0124,0.4787 -1.83289,0.89782 -2.58374,0.59485 z m 5.95313,-3.06592 c -0.0606,-0.1819 -0.38806,-0.33073 -0.72761,-0.33073 -0.33954,0 -0.66697,0.14883 -0.7276,0.33073 -0.0727,0.21817 0.17492,0.33073 0.7276,0.33073 0.55269,0 0.80033,-0.11256 0.72761,-0.33073 z m 8.65308,2.59172 c -1.34404,-1.34404 -0.50726,-3.84849 1.28585,-3.84849 0.89476,0 1.82769,0.90629 1.719,1.66992 -0.0666,0.46802 -0.28532,0.59511 -1.14074,0.66287 -1.29548,0.10261 -1.66097,0.40778 -1.18101,0.9861 0.24304,0.29283 0.59549,0.38332 1.10004,0.28241 0.52407,-0.10481 0.74242,-0.042 0.74242,0.21347 0,0.87627 -1.66084,0.89844 -2.52556,0.0337 z m 1.93025,-2.59172 c -0.0606,-0.1819 -0.38805,-0.33073 -0.7276,-0.33073 -0.33955,0 -0.66697,0.14883 -0.72761,0.33073 -0.0727,0.21817 0.17492,0.33073 0.72761,0.33073 0.55268,0 0.80032,-0.11256 0.7276,-0.33073 z m -21.4533,2.80018 c -0.30815,-0.30816 -0.20113,-5.33334 0.11778,-5.53044 0.52439,-0.32409 0.75598,0.50291 0.76012,2.71429 l 0.004,2.16684 0.97174,0.0821 c 1.61954,0.13686 1.42034,0.74358 -0.24413,0.74358 -0.78824,0 -1.51253,-0.0794 -1.60955,-0.17639 z m 12.52361,-1.76111 v -1.9816 l 1.31073,-0.18027 c 0.7209,-0.0992 1.44512,-0.0972 1.60939,0.004 0.16428,0.10153 0.53113,0.72689 0.81524,1.38969 0.56285,1.31307 0.78934,1.26509 1.28028,-0.2712 0.17439,-0.54571 0.48643,-0.99219 0.69342,-0.99219 0.51755,0 0.48036,0.26381 -0.31843,2.25915 -0.87429,2.18393 -1.29415,2.15706 -2.26027,-0.14468 -0.55411,-1.32014 -0.83134,-1.69717 -1.19805,-1.62934 -0.77286,0.14297 -0.98478,0.50768 -1.13182,1.94782 -0.0765,0.74889 -0.28786,1.41073 -0.46976,1.47076 -0.24485,0.0808 -0.33073,-0.40537 -0.33073,-1.87246 z m 10.69371,1.5789 c -0.0757,-0.19723 -0.10171,-1.11483 -0.0578,-2.03911 l 0.0798,-1.68052 0.9861,-0.0621 c 1.09743,-0.0692 1.6399,0.38714 0.74001,0.62247 -0.68811,0.17994 -1.06465,1.05591 -1.06465,2.47679 0,1.00892 -0.40349,1.4119 -0.68338,0.68251 z m -45.62476,-7.46253 c -0.26127,-0.6872 -0.7877,-0.66612 -0.7877,0.0315 0,0.2097 -0.11906,0.38126 -0.26458,0.38126 -0.33905,0 -0.34849,-2.82733 -0.0101,-3.03644 0.13994,-0.0865 0.49954,0.32321 0.79912,0.91043 0.29958,0.58722 0.65974,1.06768 0.80035,1.06768 0.14061,0 0.42977,-0.41672 0.64258,-0.92604 0.3731,-0.89296 0.76679,-1.16077 1.04489,-0.7108 0.0732,0.11839 0.0347,0.803 -0.0856,1.52136 -0.12022,0.71836 -0.23259,1.03821 -0.2497,0.71079 -0.0414,-0.79123 -0.49814,-0.75662 -0.87301,0.0662 -0.38415,0.8431 -0.69148,0.83829 -1.01625,-0.0159 z m 4.2923,0.35988 c -0.17462,-0.17463 -0.3175,-0.51336 -0.3175,-0.75275 0,-0.51068 0.81039,-1.311 1.3275,-1.311 0.23163,0 0.15353,0.19215 -0.21927,0.53947 -0.69454,0.64706 -0.70381,0.73622 -0.14118,1.35792 0.36127,0.39919 0.37053,0.48386 0.0529,0.48386 -0.21173,0 -0.52784,-0.14288 -0.70247,-0.3175 z m 3.96875,0 c -0.17462,-0.17463 -0.3175,-0.56754 -0.3175,-0.87313 0,-1.1226 1.24395,-1.58355 2.12405,-0.78707 0.39965,0.36167 0.48066,0.36167 0.78083,0 0.48786,-0.58784 0.97682,-0.49364 0.95259,0.1835 -0.0304,0.84895 0.74735,0.89553 1.12468,0.0674 0.24212,-0.53139 0.47393,-0.67002 1.01268,-0.60563 0.8795,0.10512 1.27807,0.72355 1.05055,1.63006 -0.13792,0.54951 -0.33646,0.70241 -0.91208,0.70241 -0.40469,0 -0.87867,-0.14288 -1.0533,-0.3175 -0.24694,-0.24695 -0.38805,-0.24695 -0.635,0 -0.49108,0.49108 -0.95991,0.37663 -1.05316,-0.25709 -0.12318,-0.83715 -0.70156,-0.89968 -1.00241,-0.10838 -0.19457,0.51176 -0.44701,0.68297 -1.00704,0.68297 -0.41106,0 -0.89026,-0.14288 -1.06489,-0.3175 z m 1.48275,-0.77545 c 0.0495,-0.42509 -0.0705,-0.74947 -0.31138,-0.8419 -0.54543,-0.2093 -1.03923,0.47372 -0.82666,1.14345 0.24504,0.77206 1.03757,0.56207 1.13804,-0.30155 z m 4.76577,-0.0338 c 0.0667,-0.57764 -0.0244,-0.72534 -0.44741,-0.72534 -0.66804,0 -0.91045,0.37841 -0.68912,1.07575 0.2465,0.77667 1.03448,0.53373 1.13653,-0.35041 z m 2.95898,0.44789 c 0,-0.37337 -0.11656,-0.89665 -0.25902,-1.16284 -0.35578,-0.66479 0.30334,-1.25605 0.77145,-0.69202 0.2365,0.28497 0.24312,0.52323 0.0258,0.9293 -0.20895,0.39044 -0.21153,0.69691 -0.009,1.07525 0.22604,0.42235 0.20121,0.52917 -0.12298,0.52917 -0.25965,0 -0.40619,-0.24491 -0.40619,-0.67886 z m -14.32269,0.29088 c -0.076,-0.076 -0.0818,-0.52241 -0.0129,-0.99203 0.11838,-0.80655 0.13785,-0.82 0.35138,-0.24277 0.21465,0.58026 -0.0452,1.52812 -0.33852,1.2348 z m 3.389,-0.0506 c -0.34683,-0.34683 -0.17981,-1.69434 0.22948,-1.85139 0.60819,-0.23339 0.66123,-0.0406 0.28776,1.04572 -0.18614,0.54146 -0.4189,0.90401 -0.51724,0.80567 z m 9.24638,-0.96702 c -0.18794,-1.18384 0.0609,-2.03401 0.59523,-2.03401 0.20576,0 0.17757,1.31334 -0.0398,1.85209 -0.0881,0.21828 -0.20357,0.635 -0.25671,0.92604 -0.0531,0.29104 -0.18759,-0.0438 -0.29876,-0.74412 z m 7.06284,-4.38493 c -1.4979,-1.08507 -2.20522,-2.0752 -2.17351,-3.04257 l 0.027,-0.82422 0.28779,0.90155 c 0.28925,0.90612 1.7153,2.54412 2.70089,3.10232 0.29104,0.16483 0.45889,0.37402 0.37298,0.46487 -0.0859,0.0908 -0.63273,-0.18004 -1.21516,-0.60195 z m 3.3986,-9.95753 c 1.35934,-1.3156 1.60725,-1.44988 2.6767,-1.44988 1.18364,0 3.65768,-0.83807 4.45379,-1.50871 0.23457,-0.1976 0.80567,-0.40726 1.26912,-0.46591 1.01617,-0.1286 5.87918,-1.7053 6.21745,-2.01583 0.31118,-0.28567 -0.10895,-0.78207 -1.44631,-1.70886 l -1.06195,-0.73593 -0.90146,0.87373 c -0.75966,0.73629 -0.87816,0.78462 -0.75332,0.30721 0.11784,-0.4506 0.0305,-0.56653 -0.42662,-0.56653 -0.54568,0 -0.53766,-0.0319 0.15843,-0.63069 l 0.73321,-0.63068 -0.9169,-0.56047 c -0.50429,-0.30825 -1.06572,-0.50069 -1.24762,-0.42765 -0.1819,0.073 -0.50767,0.20445 -0.72393,0.29201 -0.26009,0.1053 -0.47974,-0.0685 -0.64885,-0.51325 -0.30604,-0.80493 -1.99881,-1.40956 -2.58479,-0.92324 -0.43221,0.35871 -0.40701,0.38634 -1.10456,-1.21098 -0.65238,-1.49391 -0.55216,-1.81366 0.31355,-1.00037 0.57684,0.54191 0.63952,0.54838 1.25573,0.12958 l 0.64858,-0.44081 -0.48894,0.56035 c -0.26892,0.30819 -0.42081,0.67058 -0.33754,0.80531 0.24716,0.39993 2.48913,0.9272 3.00013,0.70559 0.2597,-0.11263 0.6654,-0.18156 0.90155,-0.15319 0.23616,0.0284 0.86124,-0.20321 1.38907,-0.51463 1.23077,-0.72618 1.26056,-0.47849 0.0336,0.27978 -0.50933,0.31478 -0.92605,0.71749 -0.92605,0.8949 0,0.17742 0.52394,0.57712 1.16431,0.88824 1.26462,0.6144 1.40093,0.56258 2.25494,-0.8571 0.2881,-0.47892 0.30356,-0.45952 0.16283,0.20425 -0.2034,0.9594 0.2305,1.11136 1.6965,0.59412 1.66605,-0.58781 1.58298,-0.33664 -0.12244,0.37021 -0.79859,0.331 -1.44708,0.73925 -1.44112,0.90724 0.0174,0.48829 2.00458,2.55439 2.45688,2.55439 0.2263,0 0.4929,-0.13177 0.59244,-0.29283 0.12769,-0.20661 0.24269,-0.19298 0.39057,0.0463 0.17034,0.27562 0.56372,0.27584 2.10062,0.001 2.50844,-0.44829 2.64802,-0.20248 0.21585,0.38015 -6.24871,1.49688 -14.08644,4.23562 -18.17178,6.34979 -0.98177,0.50806 -1.89635,0.92135 -2.03242,0.91842 -0.13606,-0.003 0.42676,-0.65777 1.2507,-1.45521 z m 2.92894,-3.56655 c 0.32442,-0.51947 0.99693,-0.73365 0.99693,-0.3175 0,0.33057 -0.5981,0.84667 -0.98119,0.84667 -0.27997,0 -0.28298,-0.10124 -0.0157,-0.52917 z m 1.79068,-0.44218 c 0,-0.0977 0.19304,-0.39091 0.42897,-0.65161 0.53849,-0.59503 0.29682,-1.28746 -0.44934,-1.28746 -0.4848,0 -0.54034,-0.10456 -0.38646,-0.7276 0.23593,-0.95531 0.67142,-1.40235 0.67142,-0.68924 0,0.59244 0.7649,1.41684 1.31458,1.41684 0.19078,0 0.50081,-0.20836 0.68896,-0.46302 0.24973,-0.33801 0.42199,-0.38435 0.63807,-0.17162 0.21731,0.21395 0.11657,0.40895 -0.37907,0.7337 -0.37127,0.24327 -0.67504,0.61816 -0.67504,0.83308 0,0.21493 -0.16402,0.39078 -0.36448,0.39078 -0.20046,0 -0.5127,0.17859 -0.69386,0.39687 -0.33895,0.40841 -0.79375,0.53405 -0.79375,0.21928 z m 12.17084,-2.86069 c 0,-0.24501 2.11328,-3.04713 2.29806,-3.04713 0.0644,0 -0.15043,0.47592 -0.47735,1.05759 -0.59769,1.06345 -1.82071,2.39987 -1.82071,1.98954 z m 5.31785,-2.56094 c -1.28815,-1.00189 -1.84046,-1.28039 -2.30703,-1.16328 -0.46003,0.11546 -0.71986,-0.008 -1.03909,-0.49569 -0.51117,-0.78016 -4.1068,-2.05572 -5.17112,-1.83448 -0.42355,0.088 -0.83843,-0.01 -1.08484,-0.25643 -0.44668,-0.44667 -2.91415,-0.96964 -4.57499,-0.96964 -0.59901,0 -1.20703,-0.11792 -1.35116,-0.26204 -0.14412,-0.14413 -0.85254,-0.33041 -1.57427,-0.41396 -2.01366,-0.23311 -2.50285,-0.367 -2.50285,-0.68503 0,-0.19071 0.29946,-0.22985 0.85989,-0.11239 0.47295,0.0991 2.9305,0.52811 5.46124,0.95329 5.55464,0.93323 8.03013,1.5864 10.47991,2.7652 1.89894,0.91373 3.89698,2.43551 4.37812,3.33452 0.34683,0.64807 0.40873,0.6819 -1.57381,-0.86007 z m -21.74816,-6.335 c -0.82083,-0.87871 -0.92273,-1.16783 -0.50303,-1.42723 0.14553,-0.0899 0.26459,0.07 0.26459,0.35538 0,0.33829 0.27535,0.61489 0.79108,0.79467 0.55562,0.19369 0.74408,0.39828 0.63315,0.68734 -0.21595,0.56277 -0.30605,0.5316 -1.18579,-0.41016 z"
         id="path167"
         inkscape:connector-curvature="0" />
      <path
         style="fill:#df5c5c;stroke-width:0.26458332"
         d="m 180.20915,243.12946 c -0.25843,-0.28557 -0.87033,-0.65138 -1.35978,-0.81291 -1.30083,-0.42931 -1.95652,-1.40161 -1.95652,-2.90122 0,-1.5617 0.71119,-2.55673 2.00025,-2.79856 1.8469,-0.34648 3.29263,0.90643 3.29042,2.85157 -10e-4,0.94317 -0.86069,2.59282 -1.35111,2.59282 -0.19394,0 -0.24489,0.28325 -0.14279,0.79375 0.18706,0.93529 0.14121,0.96149 -0.48047,0.27455 z m 0.38407,-1.59543 c 1.14821,-0.61451 1.19975,-3.27493 0.0799,-4.12436 -1.54576,-1.1725 -3.65537,0.62349 -3.14076,2.67385 0.35909,1.43071 1.81166,2.11906 3.06087,1.45051 z m -7.27225,0.52713 c -0.0969,-0.15678 0.20694,-0.26458 0.74574,-0.26458 1.0004,0 1.5989,-0.50112 1.35564,-1.13507 -0.0862,-0.22462 -0.62403,-0.71765 -1.19519,-1.09563 -0.81548,-0.53965 -1.03848,-0.85365 -1.03848,-1.46222 0,-0.8675 0.8064,-1.59875 1.76305,-1.59875 0.93404,0 0.97996,0.48624 0.0546,0.57818 -0.46103,0.0458 -0.9693,0.29954 -1.1295,0.56385 -0.24719,0.40786 -0.1011,0.64222 0.96551,1.54889 1.3651,1.1604 1.59202,1.95075 0.77291,2.69203 -0.53062,0.48021 -2.03439,0.5938 -2.29427,0.1733 z m 10.09827,0.0882 c -0.28122,-0.28122 -0.20705,-5.37986 0.0783,-5.37986 0.14006,0 0.28889,1.10132 0.33073,2.44739 l 0.0761,2.4474 0.99772,0.0824 c 0.54875,0.0453 0.92868,0.19418 0.84428,0.33073 -0.17444,0.28226 -2.0585,0.34047 -2.32707,0.0719 z m 4.58611,-0.0882 c 0,-0.14552 0.28792,-0.26458 0.63982,-0.26458 1.82941,0 1.94188,-0.87811 0.28622,-2.2348 -1.34807,-1.10464 -1.54812,-1.98271 -0.60259,-2.64499 0.65462,-0.45852 2.0578,-0.55895 2.0578,-0.14729 0,0.14552 -0.22839,0.26458 -0.50753,0.26458 -1.63097,0 -1.87749,1.29091 -0.41168,2.15576 1.489,0.87852 1.79099,1.73495 0.91921,2.60674 -0.55262,0.55262 -2.38125,0.7558 -2.38125,0.26458 z m 3.96875,-0.26458 c -1.12984,-1.12984 -0.21879,-3.70417 1.31089,-3.70417 0.74984,0 1.64936,0.96934 1.54965,1.66992 -0.0696,0.48893 -0.27801,0.59159 -1.33919,0.65968 -0.78327,0.0503 -1.25677,0.20477 -1.25677,0.41011 0,0.55237 0.59453,0.96446 1.39145,0.96446 0.43692,0 0.68738,0.11176 0.59293,0.26458 -0.2814,0.45531 -1.69542,0.28896 -2.24896,-0.26458 z m 2.11666,-2.36342 c 0,-0.68226 -0.9945,-0.9888 -1.51601,-0.46729 -0.53932,0.53932 -0.20809,0.97863 0.73788,0.97863 0.5927,0 0.77813,-0.12186 0.77813,-0.51134 z m 5.61991,2.57241 c -0.33205,-0.40009 -1.38657,-3.0058 -1.38657,-3.42618 0,-0.62106 0.71721,0.33089 1.02613,1.36196 0.48855,1.63065 0.72991,1.46629 1.74374,-1.18748 0.13484,-0.35296 0.24459,-0.41513 0.3296,-0.18669 0.12034,0.32336 -0.85623,3.12034 -1.24694,3.57134 -0.0999,0.11531 -0.30958,0.0555 -0.46596,-0.13295 z m 2.86596,-0.37696 c -0.91774,-1.16673 -0.53364,-2.72974 0.80731,-3.28518 1.05856,-0.43847 2.15302,0.25408 2.03374,1.2869 -0.0719,0.62252 -0.21388,0.72148 -1.14046,0.79487 -0.58208,0.0461 -1.16639,0.18988 -1.29847,0.31951 -0.39565,0.38832 0.3703,1.05187 1.21419,1.05187 0.45061,0 0.70828,0.11114 0.61345,0.26458 -0.33363,0.53983 -1.66858,0.28087 -2.22976,-0.43255 z m 2.23692,-1.96029 c 0.20944,-0.33887 -0.34131,-1.04674 -0.81441,-1.04674 -0.4721,0 -1.21707,0.77964 -1.03165,1.07966 0.20605,0.3334 1.63542,0.30791 1.84606,-0.0329 z m -8.97472,2.09672 c -0.10484,-0.23563 -0.15409,-1.06651 -0.10945,-1.8464 0.0802,-1.40017 0.0923,-1.41888 0.96924,-1.48889 l 0.88806,-0.0709 -0.579,0.46884 c -0.40246,0.3259 -0.63986,0.91049 -0.77861,1.91731 -0.12884,0.93491 -0.2672,1.29656 -0.39024,1.02004 z m 10.59916,0.11973 c -0.21643,-0.21642 -0.22589,-2.12565 -0.0145,-2.91403 0.11353,-0.42331 0.34866,-0.57136 0.88328,-0.55616 0.70916,0.0202 0.71551,0.0338 0.23855,0.51073 -0.3463,0.3463 -0.49002,0.87803 -0.49002,1.81294 0,1.22944 -0.18706,1.57683 -0.61736,1.14652 z m -45.42014,-7.36423 c 0,-0.21828 0.11906,-0.39688 0.26458,-0.39688 0.14552,0 0.26458,0.1786 0.26458,0.39688 0,0.21828 -0.11906,0.39687 -0.26458,0.39687 -0.14552,0 -0.26458,-0.17859 -0.26458,-0.39687 z m -1.45446,-1.45284 c -0.19195,-0.60479 0.0507,-1.14188 0.41441,-0.91711 0.32104,0.19841 0.32065,1.44391 -4.5e-4,1.44391 -0.13572,0 -0.322,-0.23706 -0.41396,-0.5268 z m 2.55367,-0.14841 c 0.0503,-0.25936 0.25161,-0.52491 0.44741,-0.59011 0.22771,-0.0758 0.32305,0.0514 0.26458,0.35302 -0.0503,0.25936 -0.25161,0.52491 -0.44741,0.59011 -0.22771,0.0758 -0.32305,-0.0514 -0.26458,-0.35302 z m 14.4302,0.24143 c -0.0931,-0.0931 -0.10467,-0.2736 -0.0258,-0.40119 0.16911,-0.27364 0.63598,-0.0377 0.63598,0.32141 0,0.28446 -0.35861,0.33134 -0.61017,0.0798 z m 1.6685,-0.2433 c 0,-0.22687 0.11907,-0.3389 0.26459,-0.24897 0.14552,0.0899 0.26458,0.27556 0.26458,0.41249 0,0.13694 -0.11906,0.24897 -0.26458,0.24897 -0.14552,0 -0.26459,-0.18562 -0.26459,-0.41249 z m 8.77413,-13.48346 c 1.35934,-1.3156 1.60725,-1.44988 2.6767,-1.44988 1.18364,0 3.65768,-0.83807 4.45379,-1.50871 0.23457,-0.1976 0.80567,-0.40726 1.26912,-0.46591 1.01617,-0.1286 5.87918,-1.7053 6.21745,-2.01583 0.31118,-0.28567 -0.10895,-0.78207 -1.44631,-1.70886 l -1.06195,-0.73593 -0.90146,0.87373 c -0.75966,0.73629 -0.87816,0.78462 -0.75332,0.30721 0.11784,-0.4506 0.0305,-0.56653 -0.42662,-0.56653 -0.54568,0 -0.53766,-0.0319 0.15843,-0.63069 l 0.73321,-0.63068 -0.9169,-0.56047 c -0.50429,-0.30825 -1.06572,-0.50069 -1.24762,-0.42765 -0.1819,0.073 -0.50767,0.20445 -0.72393,0.29201 -0.26009,0.1053 -0.47974,-0.0685 -0.64885,-0.51325 -0.30604,-0.80493 -1.99881,-1.40956 -2.58479,-0.92324 -0.43221,0.35871 -0.40701,0.38634 -1.10456,-1.21098 -0.65238,-1.49391 -0.55216,-1.81366 0.31355,-1.00037 0.57684,0.54191 0.63952,0.54838 1.25573,0.12958 l 0.64858,-0.44081 -0.48894,0.56035 c -0.26892,0.30819 -0.42081,0.67058 -0.33754,0.80531 0.24716,0.39993 2.48913,0.9272 3.00013,0.70559 0.2597,-0.11263 0.6654,-0.18156 0.90155,-0.15319 0.23616,0.0284 0.86124,-0.20321 1.38907,-0.51463 1.23077,-0.72618 1.26056,-0.47849 0.0336,0.27978 -0.50933,0.31478 -0.92605,0.71749 -0.92605,0.8949 0,0.17742 0.52394,0.57712 1.16431,0.88824 1.26462,0.6144 1.40093,0.56258 2.25494,-0.8571 0.2881,-0.47892 0.30356,-0.45952 0.16283,0.20425 -0.2034,0.9594 0.2305,1.11136 1.6965,0.59412 1.66605,-0.58781 1.58298,-0.33664 -0.12244,0.37021 -0.79859,0.331 -1.44708,0.73925 -1.44112,0.90724 0.0174,0.48829 2.00458,2.55439 2.45688,2.55439 0.2263,0 0.4929,-0.13177 0.59244,-0.29283 0.12769,-0.20661 0.24269,-0.19298 0.39057,0.0463 0.17034,0.27562 0.56372,0.27584 2.10062,0.001 2.50844,-0.44829 2.64802,-0.20248 0.21585,0.38015 -6.24871,1.49688 -14.08644,4.23562 -18.17178,6.34979 -0.98177,0.50806 -1.89635,0.92135 -2.03242,0.91842 -0.13606,-0.003 0.42676,-0.65777 1.2507,-1.45521 z m 2.92894,-3.56655 c 0.32442,-0.51947 0.99693,-0.73365 0.99693,-0.3175 0,0.33057 -0.5981,0.84667 -0.98119,0.84667 -0.27997,0 -0.28298,-0.10124 -0.0157,-0.52917 z m 1.79068,-0.44218 c 0,-0.0977 0.19304,-0.39091 0.42897,-0.65161 0.53849,-0.59503 0.29682,-1.28746 -0.44934,-1.28746 -0.4848,0 -0.54034,-0.10456 -0.38646,-0.7276 0.23593,-0.95531 0.67142,-1.40235 0.67142,-0.68924 0,0.59244 0.7649,1.41684 1.31458,1.41684 0.19078,0 0.50081,-0.20836 0.68896,-0.46302 0.24973,-0.33801 0.42199,-0.38435 0.63807,-0.17162 0.21731,0.21395 0.11657,0.40895 -0.37907,0.7337 -0.37127,0.24327 -0.67504,0.61816 -0.67504,0.83308 0,0.21493 -0.16402,0.39078 -0.36448,0.39078 -0.20046,0 -0.5127,0.17859 -0.69386,0.39687 -0.33895,0.40841 -0.79375,0.53405 -0.79375,0.21928 z m 12.17084,-2.86069 c 0,-0.24501 2.11328,-3.04713 2.29806,-3.04713 0.0644,0 -0.15043,0.47592 -0.47735,1.05759 -0.59769,1.06345 -1.82071,2.39987 -1.82071,1.98954 z m 5.31785,-2.56094 c -1.28815,-1.00189 -1.84046,-1.28039 -2.30703,-1.16328 -0.46003,0.11546 -0.71986,-0.008 -1.03909,-0.49569 -0.51117,-0.78016 -4.1068,-2.05572 -5.17112,-1.83448 -0.42355,0.088 -0.83843,-0.01 -1.08484,-0.25643 -0.44668,-0.44667 -2.91415,-0.96964 -4.57499,-0.96964 -0.59901,0 -1.20703,-0.11792 -1.35116,-0.26204 -0.14412,-0.14413 -0.85254,-0.33041 -1.57427,-0.41396 -2.01366,-0.23311 -2.50285,-0.367 -2.50285,-0.68503 0,-0.19071 0.29946,-0.22985 0.85989,-0.11239 0.47295,0.0991 2.9305,0.52811 5.46124,0.95329 5.55464,0.93323 8.03013,1.5864 10.47991,2.7652 1.89894,0.91373 3.89698,2.43551 4.37812,3.33452 0.34683,0.64807 0.40873,0.6819 -1.57381,-0.86007 z m -21.25881,-5.80951 c -0.2512,-0.14057 -0.58098,-0.48776 -0.73284,-0.77153 -0.2581,-0.48226 -0.22808,-0.49551 0.45977,-0.203 1.00504,0.42739 1.14145,0.56405 0.92027,0.92193 -0.12986,0.21012 -0.33583,0.22686 -0.6472,0.0526 z"
         id="path165"
         inkscape:connector-curvature="0" />
      <path
         style="fill:#626262;stroke-width:0.26458332"
         d="m 180.20915,243.12946 c -0.25843,-0.28557 -0.87033,-0.65138 -1.35978,-0.81291 -1.30083,-0.42931 -1.95652,-1.40161 -1.95652,-2.90122 0,-1.5617 0.71119,-2.55673 2.00025,-2.79856 1.8469,-0.34648 3.29263,0.90643 3.29042,2.85157 -10e-4,0.94317 -0.86069,2.59282 -1.35111,2.59282 -0.19394,0 -0.24489,0.28325 -0.14279,0.79375 0.18706,0.93529 0.14121,0.96149 -0.48047,0.27455 z m 0.38407,-1.59543 c 1.14821,-0.61451 1.19975,-3.27493 0.0799,-4.12436 -1.54576,-1.1725 -3.65537,0.62349 -3.14076,2.67385 0.35909,1.43071 1.81166,2.11906 3.06087,1.45051 z m -7.27225,0.52713 c -0.0969,-0.15678 0.20694,-0.26458 0.74574,-0.26458 1.0004,0 1.5989,-0.50112 1.35564,-1.13507 -0.0862,-0.22462 -0.62403,-0.71765 -1.19519,-1.09563 -0.81548,-0.53965 -1.03848,-0.85365 -1.03848,-1.46222 0,-0.8675 0.8064,-1.59875 1.76305,-1.59875 0.93404,0 0.97996,0.48624 0.0546,0.57818 -0.46103,0.0458 -0.9693,0.29954 -1.1295,0.56385 -0.24719,0.40786 -0.1011,0.64222 0.96551,1.54889 1.3651,1.1604 1.59202,1.95075 0.77291,2.69203 -0.53062,0.48021 -2.03439,0.5938 -2.29427,0.1733 z m 10.09827,0.0882 c -0.28122,-0.28122 -0.20705,-5.37986 0.0783,-5.37986 0.14006,0 0.28889,1.10132 0.33073,2.44739 l 0.0761,2.4474 0.99772,0.0824 c 0.54875,0.0453 0.92868,0.19418 0.84428,0.33073 -0.17444,0.28226 -2.0585,0.34047 -2.32707,0.0719 z m 4.58611,-0.0882 c 0,-0.14552 0.28792,-0.26458 0.63982,-0.26458 1.82941,0 1.94188,-0.87811 0.28622,-2.2348 -1.34807,-1.10464 -1.54812,-1.98271 -0.60259,-2.64499 0.65462,-0.45852 2.0578,-0.55895 2.0578,-0.14729 0,0.14552 -0.22839,0.26458 -0.50753,0.26458 -1.63097,0 -1.87749,1.29091 -0.41168,2.15576 1.489,0.87852 1.79099,1.73495 0.91921,2.60674 -0.55262,0.55262 -2.38125,0.7558 -2.38125,0.26458 z m 3.96875,-0.26458 c -1.12984,-1.12984 -0.21879,-3.70417 1.31089,-3.70417 0.74984,0 1.64936,0.96934 1.54965,1.66992 -0.0696,0.48893 -0.27801,0.59159 -1.33919,0.65968 -0.78327,0.0503 -1.25677,0.20477 -1.25677,0.41011 0,0.55237 0.59453,0.96446 1.39145,0.96446 0.43692,0 0.68738,0.11176 0.59293,0.26458 -0.2814,0.45531 -1.69542,0.28896 -2.24896,-0.26458 z m 2.11666,-2.36342 c 0,-0.68226 -0.9945,-0.9888 -1.51601,-0.46729 -0.53932,0.53932 -0.20809,0.97863 0.73788,0.97863 0.5927,0 0.77813,-0.12186 0.77813,-0.51134 z m 5.61991,2.57241 c -0.33205,-0.40009 -1.38657,-3.0058 -1.38657,-3.42618 0,-0.62106 0.71721,0.33089 1.02613,1.36196 0.48855,1.63065 0.72991,1.46629 1.74374,-1.18748 0.13484,-0.35296 0.24459,-0.41513 0.3296,-0.18669 0.12034,0.32336 -0.85623,3.12034 -1.24694,3.57134 -0.0999,0.11531 -0.30958,0.0555 -0.46596,-0.13295 z m 2.86596,-0.37696 c -0.91774,-1.16673 -0.53364,-2.72974 0.80731,-3.28518 1.05856,-0.43847 2.15302,0.25408 2.03374,1.2869 -0.0719,0.62252 -0.21388,0.72148 -1.14046,0.79487 -0.58208,0.0461 -1.16639,0.18988 -1.29847,0.31951 -0.39565,0.38832 0.3703,1.05187 1.21419,1.05187 0.45061,0 0.70828,0.11114 0.61345,0.26458 -0.33363,0.53983 -1.66858,0.28087 -2.22976,-0.43255 z m 2.23692,-1.96029 c 0.20944,-0.33887 -0.34131,-1.04674 -0.81441,-1.04674 -0.4721,0 -1.21707,0.77964 -1.03165,1.07966 0.20605,0.3334 1.63542,0.30791 1.84606,-0.0329 z m -8.97472,2.09672 c -0.10484,-0.23563 -0.15409,-1.06651 -0.10945,-1.8464 0.0802,-1.40017 0.0923,-1.41888 0.96924,-1.48889 l 0.88806,-0.0709 -0.579,0.46884 c -0.40246,0.3259 -0.63986,0.91049 -0.77861,1.91731 -0.12884,0.93491 -0.2672,1.29656 -0.39024,1.02004 z m 10.59916,0.11973 c -0.21643,-0.21642 -0.22589,-2.12565 -0.0145,-2.91403 0.11353,-0.42331 0.34866,-0.57136 0.88328,-0.55616 0.70916,0.0202 0.71551,0.0338 0.23855,0.51073 -0.3463,0.3463 -0.49002,0.87803 -0.49002,1.81294 0,1.22944 -0.18706,1.57683 -0.61736,1.14652 z m -45.42014,-7.36423 c 0,-0.21828 0.11906,-0.39688 0.26458,-0.39688 0.14552,0 0.26458,0.1786 0.26458,0.39688 0,0.21828 -0.11906,0.39687 -0.26458,0.39687 -0.14552,0 -0.26458,-0.17859 -0.26458,-0.39687 z m -1.45446,-1.45284 c -0.19195,-0.60479 0.0507,-1.14188 0.41441,-0.91711 0.32104,0.19841 0.32065,1.44391 -4.5e-4,1.44391 -0.13572,0 -0.322,-0.23706 -0.41396,-0.5268 z m 2.55367,-0.14841 c 0.0503,-0.25936 0.25161,-0.52491 0.44741,-0.59011 0.22771,-0.0758 0.32305,0.0514 0.26458,0.35302 -0.0503,0.25936 -0.25161,0.52491 -0.44741,0.59011 -0.22771,0.0758 -0.32305,-0.0514 -0.26458,-0.35302 z m 14.4302,0.24143 c -0.0931,-0.0931 -0.10467,-0.2736 -0.0258,-0.40119 0.16911,-0.27364 0.63598,-0.0377 0.63598,0.32141 0,0.28446 -0.35861,0.33134 -0.61017,0.0798 z m 1.6685,-0.2433 c 0,-0.22687 0.11907,-0.3389 0.26459,-0.24897 0.14552,0.0899 0.26458,0.27556 0.26458,0.41249 0,0.13694 -0.11906,0.24897 -0.26458,0.24897 -0.14552,0 -0.26459,-0.18562 -0.26459,-0.41249 z"
         id="path163"
         inkscape:connector-curvature="0" />
    </g>
  </g>
</svg>
