<?xml version="1.0" encoding="UTF-8" standalone="no"?>
<!-- Created with Inkscape (http://www.inkscape.org/) -->

<svg
   xmlns:dc="http://purl.org/dc/elements/1.1/"
   xmlns:cc="http://creativecommons.org/ns#"
   xmlns:rdf="http://www.w3.org/1999/02/22-rdf-syntax-ns#"
   xmlns:svg="http://www.w3.org/2000/svg"
   xmlns="http://www.w3.org/2000/svg"
   xmlns:sodipodi="http://sodipodi.sourceforge.net/DTD/sodipodi-0.dtd"
   xmlns:inkscape="http://www.inkscape.org/namespaces/inkscape"
   width="210mm"
   height="297mm"
   viewBox="0 0 210 297"
   version="1.1"
   id="svg84"
   inkscape:version="0.92.1 r15371"
   sodipodi:docname="python.svg">
  <defs
     id="defs78">
    <clipPath
       clipPathUnits="userSpaceOnUse"
       id="clipPath3787">
      <rect
         id="rect3789"
         width="127.12402"
         height="34.93327"
         x="42.103004"
         y="118.76157"
         style="stroke-width:0.26458332" />
    </clipPath>
  </defs>
  <sodipodi:namedview
     id="base"
     pagecolor="#ffffff"
     bordercolor="#666666"
     borderopacity="1.0"
     inkscape:pageopacity="0.0"
     inkscape:pageshadow="2"
     inkscape:zoom="1.28"
     inkscape:cx="333.4109"
     inkscape:cy="651.69434"
     inkscape:document-units="mm"
     inkscape:current-layer="layer1"
     showgrid="false"
     inkscape:window-width="1920"
     inkscape:window-height="1001"
     inkscape:window-x="-9"
     inkscape:window-y="-9"
     inkscape:window-maximized="1" />
  <metadata
     id="metadata81">
    <rdf:RDF>
      <cc:Work
         rdf:about="">
        <dc:format>image/svg+xml</dc:format>
        <dc:type
           rdf:resource="http://purl.org/dc/dcmitype/StillImage" />
        <dc:title></dc:title>
      </cc:Work>
    </rdf:RDF>
  </metadata>
  <g
     inkscape:label="Layer 1"
     inkscape:groupmode="layer"
     id="layer1">
    <g
       id="g97"
       transform="matrix(1.1799501,0,0,1.1799501,-14.332763,-41.035178)"
       clip-path="url(#clipPath3787)">
      <path
         style="fill:#fcfcfc;stroke-width:0.24958403"
         d="m 27.0567,140.91301 v -25.33278 h 75 75 v 25.33278 25.33278 h -75 -75 z"
         id="path113"
         inkscape:connector-curvature="0" />
      <path
         style="fill:#fde9a0;stroke-width:0.24958403"
         d="m 58.254703,151.43189 c -1.86867,-0.40321 -3.258791,-1.16495 -3.930948,-2.15404 -0.525015,-0.77256 -0.561504,-1.08791 -0.560631,-4.84518 7.49e-4,-3.54315 0.0585,-4.11323 0.487253,-4.81642 0.951849,-1.56107 1.388731,-1.68536 6.408277,-1.82304 4.113582,-0.11283 4.616998,-0.17483 5.253335,-0.64691 1.305142,-0.96825 1.826568,-2.02099 1.830314,-3.69533 0.002,-0.83764 0.06945,-1.76927 0.150175,-2.07029 0.180524,-0.67321 1.212769,-0.93918 2.750186,-0.70863 2.628212,0.39412 3.977831,3.08954 3.791202,7.57165 -0.08581,2.06085 -0.210792,2.64182 -0.842673,3.91723 -1.124551,2.26982 -1.403691,2.35887 -7.599385,2.42433 -3.416249,0.0361 -4.126385,0.0805 -2.137006,0.1335 1.65894,0.0442 3.124628,0.19993 3.306989,0.35127 0.464216,0.38527 0.414154,2.82291 -0.07933,3.86286 -0.526657,1.10985 -2.065697,2.0038 -4.244501,2.46542 -2.01453,0.42681 -2.736287,0.4321 -4.583254,0.0336 z m 6.836796,-2.96896 c 0.198671,-0.31694 0.198671,-0.55662 0,-0.87355 -0.404284,-0.64493 -1.261363,-0.68679 -1.587425,-0.0775 -0.622255,1.16269 0.887676,2.06735 1.587425,0.95109 z m 18.060898,2.62924 c -0.72466,-0.28904 -0.955203,-0.53837 -1.068616,-1.15572 -0.07954,-0.43294 -0.110678,-4.47784 -0.06921,-8.98867 l 0.0754,-8.20149 0.873544,-0.73138 c 1.281519,-1.07295 3.905676,-1.80463 5.898514,-1.64467 2.25444,0.18097 3.304418,0.92524 4.376216,3.10205 0.776042,1.57614 0.831759,1.85799 0.831759,4.20745 0,2.30836 -0.06264,2.64071 -0.751882,3.98917 -1.014766,1.98534 -2.33815,2.91775 -4.347474,3.06309 -0.968965,0.0701 -1.893152,-0.0325 -2.666386,-0.29596 -0.650875,-0.22178 -1.275719,-0.40323 -1.388536,-0.40323 -0.112817,0 -0.205123,1.61652 -0.205123,3.59226 0,3.99628 -0.03518,4.07456 -1.558213,3.4671 z m 6.279048,-8.67066 c 1.029067,-0.53215 1.591195,-1.93167 1.717779,-4.27673 0.13661,-2.53076 -0.390636,-4.56524 -1.386749,-5.35102 -0.572236,-0.45141 -0.933259,-0.52399 -2.207086,-0.44368 -0.877233,0.0553 -1.803165,0.27963 -2.18386,0.52907 l -0.660919,0.43305 v 4.24938 4.24938 l 1.060732,0.48148 c 1.269118,0.57608 2.698233,0.62647 3.660103,0.12907 z m 10.695505,8.44752 c -0.369573,-0.81112 0.0649,-1.20288 1.60764,-1.44957 1.62327,-0.25957 2.86286,-1.07953 3.30588,-2.18675 0.34685,-0.86686 0.54831,-3.1999 0.27631,-3.1999 -0.0601,0 -0.87439,0.17877 -1.80949,0.39727 -3.34039,0.78053 -5.835734,-0.0317 -6.830758,-2.22326 -0.412213,-0.90793 -0.474809,-1.66901 -0.479576,-5.83089 -0.0059,-5.17129 0.04616,-5.3866 1.384126,-5.72241 1.308589,-0.32843 1.3217,-0.27824 1.404092,5.37422 l 0.07652,5.24939 0.692029,0.69148 c 0.622477,0.622 0.865187,0.69149 2.415137,0.69149 1.36294,0 1.87041,-0.10992 2.42777,-0.52588 l 0.70466,-0.52588 0.0673,-5.3982 0.0673,-5.39821 0.6191,-0.15539 c 0.34051,-0.0855 0.90682,-0.0832 1.25847,0.005 l 0.63937,0.16047 -0.0778,8.16526 c -0.0742,7.79145 -0.1023,8.21095 -0.61281,9.16359 -0.84482,1.57644 -2.03438,2.38545 -4.45668,3.03092 -1.8521,0.49353 -2.33689,0.43691 -2.6785,-0.31284 z m 13.60296,-6.57761 c -1.89456,-0.86003 -2.06222,-1.41446 -2.06329,-6.82317 l -9.3e-4,-4.69269 -0.72875,-0.25404 c -0.4008,-0.13972 -0.7935,-0.4228 -0.87265,-0.62906 -0.21328,-0.5558 0.27321,-1.29108 0.91449,-1.38215 0.50736,-0.072 0.57427,-0.24944 0.68691,-1.82091 0.11078,-1.54565 0.19482,-1.77635 0.74875,-2.05539 0.34318,-0.17287 0.87212,-0.31596 1.17543,-0.31799 0.51883,-0.003 0.55576,0.11819 0.62396,2.05539 l 0.0725,2.05907 1.0596,0.0767 c 1.12209,0.0812 1.69599,0.65392 1.40781,1.40489 -0.14842,0.38677 -0.59466,0.55496 -1.84345,0.6948 l -0.62396,0.0699 -0.0618,4.36772 c -0.0692,4.89382 0.0629,5.44914 1.39971,5.88464 0.99586,0.32443 1.3327,0.79351 1.00692,1.40224 -0.3184,0.59494 -1.53976,0.57813 -2.90126,-0.0399 z m 22.55094,0.12348 c -1.25758,-0.44827 -2.53504,-1.69196 -3.34062,-3.25231 -0.9217,-1.78526 -1.06411,-4.69235 -0.32575,-6.64963 0.63989,-1.69627 2.46747,-3.53375 3.91425,-3.93546 2.45573,-0.68186 4.46206,-0.16193 6.25606,1.62123 1.61638,1.60661 2.19919,3.3066 2.0152,5.87809 -0.34721,4.85282 -4.34395,7.82632 -8.51914,6.33808 z m 4.00952,-2.01244 c 1.06487,-0.69773 1.56402,-2.20856 1.56402,-4.73404 0,-3.52057 -0.94591,-5.10017 -3.16871,-5.29156 -2.4975,-0.21503 -3.67537,1.40424 -3.67077,5.0464 0.003,1.88707 0.10236,2.45159 0.61882,3.49418 0.99355,2.0057 2.92294,2.62099 4.65664,1.48502 z m -90.147148,1.8973 c -1.262763,-0.30547 -1.863972,-0.83403 -2.558824,-2.24965 -1.303218,-2.65503 -1.033587,-7.90951 0.495223,-9.65073 1.338691,-1.52468 1.646527,-1.59452 7.028157,-1.59452 2.675506,0 4.923679,-0.0957 4.995946,-0.2126 0.07227,-0.11693 -1.239861,-0.29009 -2.915838,-0.38481 -1.675974,-0.0947 -3.145148,-0.27013 -3.264828,-0.38981 -0.119681,-0.11969 -0.173985,-1.08134 -0.120677,-2.13701 0.08982,-1.77865 0.154106,-1.9705 0.876637,-2.61608 1.012163,-0.90437 2.673838,-1.2484 6.021414,-1.24666 3.291941,0.002 4.39654,0.29297 5.573014,1.46944 1.112489,1.11249 1.334616,2.36861 1.166147,6.59449 -0.122242,3.06635 -0.441352,4.01324 -1.622217,4.81359 -0.605416,0.41033 -1.323956,0.49056 -5.361401,0.59863 -4.20763,0.11262 -4.729418,0.17497 -5.350635,0.63938 -1.388102,1.03771 -1.709152,1.73935 -1.799339,3.93238 -0.109333,2.65856 -0.617533,3.04966 -3.162779,2.43396 z m 7.706846,-16.87544 c 0.398071,-1.03735 -1.120984,-1.8555 -1.83893,-0.99043 -0.402564,0.48506 -0.125873,1.56088 0.434251,1.68843 0.565148,0.12869 1.21051,-0.19199 1.404679,-0.698 z m 61.319182,16.63846 c -0.17474,-0.3265 -0.26563,-3.82301 -0.26563,-10.21886 0,-8.93405 0.0359,-9.76683 0.44231,-10.26876 0.28258,-0.34897 0.75577,-0.56175 1.31032,-0.58922 l 0.868,-0.043 0.0646,4.11814 c 0.0355,2.26497 0.11753,4.26194 0.18226,4.4377 0.0883,0.23975 0.38384,0.17946 1.18335,-0.24139 0.82375,-0.43362 1.49057,-0.56281 2.93753,-0.56915 2.19591,-0.01 3.17714,0.51337 4.00396,2.13407 0.45919,0.90009 0.49318,1.39518 0.43113,6.28098 l -0.0674,5.30388 -0.98839,0.0806 c -1.56696,0.12777 -1.63225,-0.0962 -1.63225,-5.59999 0,-4.79985 -2e-5,-4.80006 -0.64614,-5.56793 -0.85397,-1.01489 -2.20268,-1.04039 -3.97116,-0.0751 l -1.24792,0.68116 -0.12479,5.24063 -0.1248,5.24064 -1.04469,0.076 c -0.83445,0.0607 -1.09814,-0.0239 -1.31031,-0.42037 z m 27.45424,0 c -0.16378,-0.30602 -0.26563,-2.52171 -0.26563,-5.77865 v -5.28233 l 0.76076,-0.71066 c 1.2674,-1.18392 3.29112,-1.83495 5.74666,-1.84869 1.93915,-0.0109 2.23923,0.0539 3.20184,0.69093 1.64516,1.08871 1.77161,1.62439 1.77161,7.50494 0,2.80725 -0.0682,5.28173 -0.1515,5.49887 -0.21176,0.55187 -2.23066,0.55187 -2.44243,0 -0.0833,-0.21714 -0.15149,-2.52693 -0.15149,-5.13288 0,-4.90796 -0.095,-5.45372 -1.08995,-6.25963 -0.66786,-0.54099 -2.82688,-0.58527 -4.02982,-0.0827 l -0.8608,0.35966 -0.0671,5.69275 -0.0671,5.69275 -1.04469,0.076 c -0.83446,0.0607 -1.09815,-0.0239 -1.31032,-0.42037 z M 163.59613,128.621 c -0.22141,-0.37569 -0.29107,-0.38542 -0.498,-0.0696 -0.34754,0.53038 -0.46917,0.28794 -0.56085,-1.11784 -0.0629,-0.96401 10e-4,-1.24598 0.28379,-1.24598 0.20077,0 0.47111,0.36986 0.60075,0.8219 0.27778,0.96856 0.93232,0.99781 1.15568,0.0516 0.0807,-0.34174 0.3383,-0.65825 0.57251,-0.70335 0.3562,-0.0686 0.42582,0.12503 0.42582,1.18421 0,1.27975 -0.15998,1.50557 -0.69065,0.9749 -0.22203,-0.22203 -0.32929,-0.19235 -0.45099,0.1248 -0.20587,0.53648 -0.51418,0.52888 -0.83806,-0.0207 z m -2.54967,-0.68636 c -0.0726,-0.54909 -0.21828,-1.19488 -0.32382,-1.43511 -0.15633,-0.35582 -0.0663,-0.43677 0.48547,-0.43677 0.5502,0 0.64214,0.082 0.48974,0.43677 -0.1032,0.24023 -0.2623,0.88602 -0.35355,1.43511 l -0.16591,0.99834 z"
         id="path111"
         inkscape:connector-curvature="0" />
      <path
         style="fill:#fed84e;stroke-width:0.24958403"
         d="m 100.54099,151.32523 c -0.37536,-0.25129 -0.590877,-0.92361 -0.39547,-1.23372 0.0902,-0.14324 0.86671,-0.43976 1.72547,-0.65894 1.95102,-0.49796 2.77988,-1.03253 3.21477,-2.07337 0.35879,-0.8587 0.4724,-3.32654 0.15314,-3.32619 -0.10296,1.2e-4 -1.02954,0.1772 -2.05907,0.39353 -2.13705,0.44905 -3.403781,0.32846 -4.801477,-0.45709 -1.828365,-1.0276 -2.044492,-1.70495 -2.149817,-6.73754 -0.120422,-5.75394 -0.05859,-6.0762 1.240468,-6.46541 0.839256,-0.25145 1.045814,-0.24218 1.234108,0.0554 0.12438,0.19655 0.227865,2.5141 0.229967,5.15011 0.0022,2.90604 0.110443,5.02676 0.274672,5.38721 0.641927,1.40887 3.121389,1.85752 5.157599,0.93325 l 1.06073,-0.48148 v -5.38361 -5.38361 l 0.62396,-0.2843 c 0.47002,-0.21415 0.78312,-0.21178 1.26904,0.01 l 0.64507,0.29392 -0.0835,7.92002 c -0.0807,7.6589 -0.10231,7.95819 -0.65385,9.07769 -0.61496,1.24824 -1.82229,2.23151 -3.423,2.78776 -1.3362,0.46434 -2.93288,0.69765 -3.2628,0.47678 z m -42.865818,-0.4299 c -1.757763,-0.48313 -3.093579,-1.45036 -3.366088,-2.4373 -0.125495,-0.45451 -0.171431,-2.49773 -0.102082,-4.54048 l 0.12609,-3.7141 0.817964,-0.89314 0.817964,-0.89314 4.449831,-0.12479 c 4.060855,-0.11389 4.53747,-0.17505 5.452453,-0.69966 1.617584,-0.92746 2.205207,-2.02025 2.359532,-4.38798 l 0.13202,-2.02551 h 1.705181 c 1.606248,0 1.746931,0.0467 2.424806,0.80542 2.116395,2.36871 2.166978,8.62257 0.09082,11.22852 l -0.553582,0.69485 -5.702162,0.12479 c -5.494178,0.12024 -5.702163,0.143 -5.702163,0.62396 0,0.46941 0.189673,0.50333 3.182196,0.56902 l 3.182196,0.0699 v 1.47831 c 0,0.81306 -0.131598,1.76713 -0.29244,2.12013 -0.862492,1.89297 -5.596308,2.94295 -9.022532,2.00125 z m 7.715628,-2.24522 c 0.378721,-0.578 0.378721,-0.66991 0,-1.24792 -0.273632,-0.41761 -0.638042,-0.62396 -1.101916,-0.62396 -0.866945,0 -1.292084,0.41061 -1.292084,1.24792 0,0.83732 0.425139,1.24792 1.292084,1.24792 0.463874,0 0.828284,-0.20634 1.101916,-0.62396 z m 17.572722,2.3027 -0.62396,-0.32062 -0.06551,-9.04364 -0.06551,-9.04365 1.180026,-0.74835 c 2.900983,-1.83975 6.484882,-1.92186 8.453174,-0.19367 1.15802,1.01675 1.759797,2.23967 2.120032,4.30829 0.479388,2.75285 -0.05383,5.24592 -1.4778,6.90951 -1.555091,1.81677 -3.881086,2.41012 -6.151061,1.56908 -0.549085,-0.20343 -1.110649,-0.39505 -1.24792,-0.42581 -0.153137,-0.0343 -0.297808,1.34256 -0.374376,3.56304 -0.116668,3.38338 -0.157285,3.62311 -0.62396,3.68271 -0.274542,0.0351 -0.77995,-0.0805 -1.123128,-0.25689 z m 6.984022,-8.87394 c 0.897385,-0.89739 1.249468,-2.17536 1.249468,-4.53525 0,-2.33374 -0.327981,-3.5474 -1.232104,-4.55929 -0.628847,-0.7038 -0.849372,-0.78774 -2.043664,-0.77787 -0.736315,0.006 -1.762537,0.19398 -2.280494,0.41755 l -0.941743,0.40648 0.0682,4.43833 0.0682,4.43833 0.873544,0.42688 c 0.48045,0.23479 1.471827,0.43228 2.203058,0.43887 1.135154,0.0102 1.43273,-0.0912 2.03554,-0.69403 z m 24.713146,2.47062 c -1.20504,-0.24096 -1.91976,-0.66664 -2.43344,-1.44934 -0.36688,-0.55901 -0.45674,-1.46454 -0.56156,-5.65848 l -0.1248,-4.99297 -0.62396,-0.14543 c -0.44724,-0.10425 -0.6464,-0.33785 -0.70321,-0.8248 -0.068,-0.58324 0.0291,-0.70101 0.68636,-0.83247 l 0.76561,-0.15312 v -1.72863 -1.72863 l 0.90267,-0.37716 c 1.42292,-0.59453 1.59317,-0.39232 1.59317,1.89231 v 2.0045 l 0.93594,0.004 c 1.20894,0.005 1.62376,0.28418 1.51934,1.02274 -0.0713,0.50414 -0.25692,0.61492 -1.20736,0.72053 l -1.12313,0.12479 -0.0684,4.48874 c -0.0799,5.24066 0.0404,5.7414 1.47071,6.12655 0.7771,0.20926 0.96874,0.3771 0.96874,0.8485 0,0.51801 -0.47375,0.94498 -0.95636,0.86192 -0.0917,-0.0158 -0.55987,-0.1073 -1.04032,-0.20337 z m 21.92305,-0.0482 c -1.33632,-0.3774 -2.82553,-1.77748 -3.62446,-3.40756 -0.60002,-1.22422 -0.70033,-1.73229 -0.70088,-3.55015 -9.7e-4,-3.18683 1.12726,-5.30848 3.49214,-6.56702 1.40533,-0.74789 4.09308,-0.74209 5.52185,0.0119 3.57365,1.88591 4.64055,7.4163 2.14698,11.12913 -1.39485,2.07688 -4.31559,3.09539 -6.83563,2.38369 z m 4.04689,-2.35305 c 0.99548,-0.95373 1.336,-2.11631 1.34869,-4.60466 0.018,-3.52557 -1.20432,-5.24126 -3.73401,-5.24126 -0.99383,0 -1.29756,0.12559 -1.99819,0.82622 -1.07555,1.07555 -1.46182,2.5409 -1.30079,4.93465 0.16728,2.4866 1.061,4.25722 2.42651,4.80735 0.85645,0.34504 2.53133,-0.0263 3.25779,-0.7223 z m -90.487408,2.15148 c -1.262763,-0.30547 -1.863972,-0.83403 -2.558824,-2.24965 -1.303218,-2.65503 -1.033587,-7.90951 0.495223,-9.65073 1.338691,-1.52468 1.646527,-1.59452 7.028157,-1.59452 2.675506,0 4.923679,-0.0957 4.995946,-0.2126 0.07227,-0.11693 -1.239861,-0.29009 -2.915838,-0.38481 -1.675974,-0.0947 -3.145148,-0.27013 -3.264828,-0.38981 -0.119681,-0.11969 -0.173985,-1.08134 -0.120677,-2.13701 0.08982,-1.77865 0.154106,-1.9705 0.876637,-2.61608 1.012163,-0.90437 2.673838,-1.2484 6.021414,-1.24666 3.291941,0.002 4.39654,0.29297 5.573014,1.46944 1.112489,1.11249 1.334616,2.36861 1.166147,6.59449 -0.122242,3.06635 -0.441352,4.01324 -1.622217,4.81359 -0.605416,0.41033 -1.323956,0.49056 -5.361401,0.59863 -4.20763,0.11262 -4.729418,0.17497 -5.350635,0.63938 -1.388102,1.03771 -1.709152,1.73935 -1.799339,3.93238 -0.109333,2.65856 -0.617533,3.04966 -3.162779,2.43396 z m 7.706846,-16.87544 c 0.398071,-1.03735 -1.120984,-1.8555 -1.83893,-0.99043 -0.402564,0.48506 -0.125873,1.56088 0.434251,1.68843 0.565148,0.12869 1.21051,-0.19199 1.404679,-0.698 z m 61.469532,16.94127 c -0.0915,-0.0915 -0.16639,-4.81439 -0.16639,-10.49527 v -10.32887 l 0.90267,-0.37717 c 1.57424,-0.65775 1.59317,-0.60711 1.59317,4.26336 0,2.40655 0.0419,4.37555 0.0931,4.37555 0.0512,0 0.59355,-0.22139 1.20525,-0.49197 0.61171,-0.27059 1.74006,-0.56577 2.50746,-0.65596 1.78541,-0.20984 3.38759,0.49099 4.2339,1.852 0.53907,0.86692 0.57548,1.20844 0.65161,6.11195 0.0902,5.81271 0.0477,5.98702 -1.43199,5.86299 l -0.8949,-0.075 -0.12479,-4.99169 c -0.15643,-6.25701 -0.39053,-6.86356 -2.64907,-6.86356 -0.96493,0 -2.46965,0.56049 -3.14463,1.17133 -0.39932,0.36139 -0.4459,0.91573 -0.4459,5.30662 0,3.48073 -0.0869,4.98997 -0.2995,5.20259 -0.31841,0.3184 -1.75074,0.41232 -2.02995,0.13311 z m 27.45424,0 c -0.0915,-0.0915 -0.16639,-2.78475 -0.16639,-5.98497 V 132.562 l 1.31031,-0.75533 c 1.76994,-1.02029 2.98013,-1.34629 5.05408,-1.36149 1.39029,-0.0102 1.95556,0.10648 2.76791,0.57131 1.85034,1.05879 1.96333,1.46144 2.05447,7.32124 0.0536,3.44437 -0.0116,5.3336 -0.19597,5.67803 -0.37422,0.69923 -1.87828,0.7216 -2.24658,0.0334 -0.15267,-0.28527 -0.25836,-2.46671 -0.25836,-5.3324 0,-4.48426 -0.0379,-4.89782 -0.50308,-5.48919 -0.95826,-1.21823 -3.01379,-1.44261 -4.79196,-0.52309 l -0.69498,0.35939 v 5.43452 c 0,3.89408 -0.0849,5.51942 -0.2995,5.73403 -0.3184,0.3184 -1.75074,0.41232 -2.02995,0.13311 z m 16.80532,-15.93178 c 0,-0.20591 0.16847,-0.37438 0.37438,-0.37438 0.20591,0 0.37437,0.16847 0.37437,0.37438 0,0.2059 -0.16846,0.37437 -0.37437,0.37437 -0.20591,0 -0.37438,-0.16847 -0.37438,-0.37437 z m -1.05602,-0.92778 c -0.12872,-1.23198 -0.1,-1.30759 0.4213,-1.10756 0.48411,0.18577 0.51031,1.49596 0.0378,1.88814 -0.28561,0.23703 -0.36725,0.0982 -0.45906,-0.78058 z m 2.36634,0.662 c -0.38385,-0.41478 -0.40952,-1.51636 -0.0406,-1.74434 0.4836,-0.29888 0.74401,0.26958 0.54518,1.19008 -0.15784,0.73068 -0.2488,0.8306 -0.50453,0.55426 z m -3.91751,-1.33477 c -0.25964,-0.42011 0.10762,-0.87407 0.43902,-0.54266 0.19539,0.19538 0.19539,0.34727 0,0.54266 -0.19538,0.19538 -0.31827,0.19538 -0.43902,0 z"
         id="path109"
         inkscape:connector-curvature="0" />
      <path
         style="fill:#feca3a;stroke-width:0.24958403"
         d="m 100.54099,151.32523 c -0.37536,-0.25129 -0.590877,-0.92361 -0.39547,-1.23372 0.0902,-0.14324 0.86671,-0.43976 1.72547,-0.65894 1.95102,-0.49796 2.77988,-1.03253 3.21477,-2.07337 0.35879,-0.8587 0.4724,-3.32654 0.15314,-3.32619 -0.10296,1.2e-4 -1.02954,0.1772 -2.05907,0.39353 -2.13705,0.44905 -3.403781,0.32846 -4.801477,-0.45709 -1.828365,-1.0276 -2.044492,-1.70495 -2.149817,-6.73754 -0.120422,-5.75394 -0.05859,-6.0762 1.240468,-6.46541 0.839256,-0.25145 1.045814,-0.24218 1.234108,0.0554 0.12438,0.19655 0.227865,2.5141 0.229967,5.15011 0.0022,2.90604 0.110443,5.02676 0.274672,5.38721 0.641927,1.40887 3.121389,1.85752 5.157599,0.93325 l 1.06073,-0.48148 v -5.38361 -5.38361 l 0.62396,-0.2843 c 0.47002,-0.21415 0.78312,-0.21178 1.26904,0.01 l 0.64507,0.29392 -0.0835,7.92002 c -0.0807,7.6589 -0.10231,7.95819 -0.65385,9.07769 -0.61496,1.24824 -1.82229,2.23151 -3.423,2.78776 -1.3362,0.46434 -2.93288,0.69765 -3.2628,0.47678 z m -17.577468,-0.37242 -0.62396,-0.32062 -0.06551,-9.04364 -0.06551,-9.04365 1.180026,-0.74835 c 2.900983,-1.83975 6.484882,-1.92186 8.453174,-0.19367 1.15802,1.01675 1.759797,2.23967 2.120032,4.30829 0.479388,2.75285 -0.05383,5.24592 -1.4778,6.90951 -1.555091,1.81677 -3.881086,2.41012 -6.151061,1.56908 -0.549085,-0.20343 -1.110649,-0.39505 -1.24792,-0.42581 -0.153137,-0.0343 -0.297808,1.34256 -0.374376,3.56304 -0.116668,3.38338 -0.157285,3.62311 -0.62396,3.68271 -0.274542,0.0351 -0.77995,-0.0805 -1.123128,-0.25689 z m 6.984022,-8.87394 c 0.897385,-0.89739 1.249468,-2.17536 1.249468,-4.53525 0,-2.33374 -0.327981,-3.5474 -1.232104,-4.55929 -0.628847,-0.7038 -0.849372,-0.78774 -2.043664,-0.77787 -0.736315,0.006 -1.762537,0.19398 -2.280494,0.41755 l -0.941743,0.40648 0.0682,4.43833 0.0682,4.43833 0.873544,0.42688 c 0.48045,0.23479 1.471827,0.43228 2.203058,0.43887 1.135154,0.0102 1.43273,-0.0912 2.03554,-0.69403 z m -31.770429,8.6019 c -0.660392,-0.1864 -1.312887,-0.45108 -1.449988,-0.58818 -0.165979,-0.16598 0.276951,-0.75418 1.325506,-1.76024 2.766429,-2.65432 2.60063,-2.57641 5.820978,-2.73502 l 2.866949,-0.1412 v 1.51545 c 0,1.8668 -0.664674,2.79987 -2.436871,3.4209 -1.619623,0.56755 -4.634563,0.70943 -6.126574,0.28829 z m 7.503519,-1.94523 c 0.658917,-1.38169 -0.706118,-2.86912 -2.064886,-2.25002 -0.818356,0.37287 -1.216253,1.38701 -0.831204,2.11854 0.409058,0.77714 0.720122,0.93376 1.707988,0.85994 0.663841,-0.0496 0.947221,-0.22335 1.188102,-0.72846 z m 48.980056,-4.18605 c -1.20504,-0.24096 -1.91976,-0.66664 -2.43344,-1.44934 -0.36688,-0.55901 -0.45674,-1.46454 -0.56156,-5.65848 l -0.1248,-4.99297 -0.62396,-0.14543 c -0.44724,-0.10425 -0.6464,-0.33785 -0.70321,-0.8248 -0.068,-0.58324 0.0291,-0.70101 0.68636,-0.83247 l 0.76561,-0.15312 v -1.72863 -1.72863 l 0.90267,-0.37716 c 1.42292,-0.59453 1.59317,-0.39232 1.59317,1.89231 v 2.0045 l 0.93594,0.004 c 1.20894,0.005 1.62376,0.28418 1.51934,1.02274 -0.0713,0.50414 -0.25692,0.61492 -1.20736,0.72053 l -1.12313,0.12479 -0.0684,4.48874 c -0.0799,5.24066 0.0404,5.7414 1.47071,6.12655 0.7771,0.20926 0.96874,0.3771 0.96874,0.8485 0,0.51801 -0.47375,0.94498 -0.95636,0.86192 -0.0917,-0.0158 -0.55987,-0.1073 -1.04032,-0.20337 z m 21.92305,-0.0482 c -1.33632,-0.3774 -2.82553,-1.77748 -3.62446,-3.40756 -0.60002,-1.22422 -0.70033,-1.73229 -0.70088,-3.55015 -9.7e-4,-3.18683 1.12726,-5.30848 3.49214,-6.56702 1.40533,-0.74789 4.09308,-0.74209 5.52185,0.0119 3.57365,1.88591 4.64055,7.4163 2.14698,11.12913 -1.39485,2.07688 -4.31559,3.09539 -6.83563,2.38369 z m 4.04689,-2.35305 c 0.99548,-0.95373 1.336,-2.11631 1.34869,-4.60466 0.018,-3.52557 -1.20432,-5.24126 -3.73401,-5.24126 -0.99383,0 -1.29756,0.12559 -1.99819,0.82622 -1.07555,1.07555 -1.46182,2.5409 -1.30079,4.93465 0.16728,2.4866 1.061,4.25722 2.42651,4.80735 0.85645,0.34504 2.53133,-0.0263 3.25779,-0.7223 z m -90.487408,2.15148 c -1.262763,-0.30547 -1.863972,-0.83403 -2.558824,-2.24965 -1.303218,-2.65503 -1.033587,-7.90951 0.495223,-9.65073 1.338691,-1.52468 1.646527,-1.59452 7.028157,-1.59452 2.675506,0 4.923679,-0.0957 4.995946,-0.2126 0.07227,-0.11693 -1.239861,-0.29009 -2.915838,-0.38481 -1.675974,-0.0947 -3.145148,-0.27013 -3.264828,-0.38981 -0.119681,-0.11969 -0.173985,-1.08134 -0.120677,-2.13701 0.08982,-1.77865 0.154106,-1.9705 0.876637,-2.61608 1.012163,-0.90437 2.673838,-1.2484 6.021414,-1.24666 3.291941,0.002 4.39654,0.29297 5.573014,1.46944 1.112489,1.11249 1.334616,2.36861 1.166147,6.59449 -0.122242,3.06635 -0.441352,4.01324 -1.622217,4.81359 -0.605416,0.41033 -1.323956,0.49056 -5.361401,0.59863 -4.20763,0.11262 -4.729418,0.17497 -5.350635,0.63938 -1.388102,1.03771 -1.709152,1.73935 -1.799339,3.93238 -0.109333,2.65856 -0.617533,3.04966 -3.162779,2.43396 z m 7.706846,-16.87544 c 0.398071,-1.03735 -1.120984,-1.8555 -1.83893,-0.99043 -0.402564,0.48506 -0.125873,1.56088 0.434251,1.68843 0.565148,0.12869 1.21051,-0.19199 1.404679,-0.698 z m 61.469532,16.94127 c -0.0915,-0.0915 -0.16639,-4.81439 -0.16639,-10.49527 v -10.32887 l 0.90267,-0.37717 c 1.57424,-0.65775 1.59317,-0.60711 1.59317,4.26336 0,2.40655 0.0419,4.37555 0.0931,4.37555 0.0512,0 0.59355,-0.22139 1.20525,-0.49197 0.61171,-0.27059 1.74006,-0.56577 2.50746,-0.65596 1.78541,-0.20984 3.38759,0.49099 4.2339,1.852 0.53907,0.86692 0.57548,1.20844 0.65161,6.11195 0.0902,5.81271 0.0477,5.98702 -1.43199,5.86299 l -0.8949,-0.075 -0.12479,-4.99169 c -0.15643,-6.25701 -0.39053,-6.86356 -2.64907,-6.86356 -0.96493,0 -2.46965,0.56049 -3.14463,1.17133 -0.39932,0.36139 -0.4459,0.91573 -0.4459,5.30662 0,3.48073 -0.0869,4.98997 -0.2995,5.20259 -0.31841,0.3184 -1.75074,0.41232 -2.02995,0.13311 z m 27.45424,0 c -0.0915,-0.0915 -0.16639,-2.78475 -0.16639,-5.98497 V 132.562 l 1.31031,-0.75533 c 1.76994,-1.02029 2.98013,-1.34629 5.05408,-1.36149 1.39029,-0.0102 1.95556,0.10648 2.76791,0.57131 1.85034,1.05879 1.96333,1.46144 2.05447,7.32124 0.0536,3.44437 -0.0116,5.3336 -0.19597,5.67803 -0.37422,0.69923 -1.87828,0.7216 -2.24658,0.0334 -0.15267,-0.28527 -0.25836,-2.46671 -0.25836,-5.3324 0,-4.48426 -0.0379,-4.89782 -0.50308,-5.48919 -0.95826,-1.21823 -3.01379,-1.44261 -4.79196,-0.52309 l -0.69498,0.35939 v 5.43452 c 0,3.89408 -0.0849,5.51942 -0.2995,5.73403 -0.3184,0.3184 -1.75074,0.41232 -2.02995,0.13311 z m -82.097025,-2.16736 c 7.378719,-6.92282 8.433771,-7.83928 8.629787,-7.49611 0.110907,0.19416 0.315479,1.05332 0.454605,1.90924 0.393806,2.42275 -0.267382,5.15016 -1.6025,6.6103 -0.494712,0.54104 -0.67168,0.56157 -4.842371,0.56157 h -4.328893 z m 98.902345,-13.76442 c 0,-0.20591 0.16847,-0.37438 0.37438,-0.37438 0.20591,0 0.37437,0.16847 0.37437,0.37438 0,0.2059 -0.16846,0.37437 -0.37437,0.37437 -0.20591,0 -0.37438,-0.16847 -0.37438,-0.37437 z m -1.05602,-0.92778 c -0.12872,-1.23198 -0.1,-1.30759 0.4213,-1.10756 0.48411,0.18577 0.51031,1.49596 0.0378,1.88814 -0.28561,0.23703 -0.36725,0.0982 -0.45906,-0.78058 z m 2.36634,0.662 c -0.38385,-0.41478 -0.40952,-1.51636 -0.0406,-1.74434 0.4836,-0.29888 0.74401,0.26958 0.54518,1.19008 -0.15784,0.73068 -0.2488,0.8306 -0.50453,0.55426 z m -3.91751,-1.33477 c -0.25964,-0.42011 0.10762,-0.87407 0.43902,-0.54266 0.19539,0.19538 0.19539,0.34727 0,0.54266 -0.19538,0.19538 -0.31827,0.19538 -0.43902,0 z"
         id="path107"
         inkscape:connector-curvature="0" />
      <path
         style="fill:#9f9f9f;stroke-width:0.24958403"
         d="m 100.54099,151.32523 c -0.37536,-0.25129 -0.590877,-0.92361 -0.39547,-1.23372 0.0902,-0.14324 0.86671,-0.43976 1.72547,-0.65894 1.95102,-0.49796 2.77988,-1.03253 3.21477,-2.07337 0.35879,-0.8587 0.4724,-3.32654 0.15314,-3.32619 -0.10296,1.2e-4 -1.02954,0.1772 -2.05907,0.39353 -2.13705,0.44905 -3.403781,0.32846 -4.801477,-0.45709 -1.828365,-1.0276 -2.044492,-1.70495 -2.149817,-6.73754 -0.120422,-5.75394 -0.05859,-6.0762 1.240468,-6.46541 0.839256,-0.25145 1.045814,-0.24218 1.234108,0.0554 0.12438,0.19655 0.227865,2.5141 0.229967,5.15011 0.0022,2.90604 0.110443,5.02676 0.274672,5.38721 0.641927,1.40887 3.121389,1.85752 5.157599,0.93325 l 1.06073,-0.48148 v -5.38361 -5.38361 l 0.62396,-0.2843 c 0.47002,-0.21415 0.78312,-0.21178 1.26904,0.01 l 0.64507,0.29392 -0.0835,7.92002 c -0.0807,7.6589 -0.10231,7.95819 -0.65385,9.07769 -0.61496,1.24824 -1.82229,2.23151 -3.423,2.78776 -1.3362,0.46434 -2.93288,0.69765 -3.2628,0.47678 z m -17.577468,-0.37242 -0.62396,-0.32062 -0.06551,-9.04364 -0.06551,-9.04365 1.180026,-0.74835 c 2.900983,-1.83975 6.484882,-1.92186 8.453174,-0.19367 1.15802,1.01675 1.759797,2.23967 2.120032,4.30829 0.479388,2.75285 -0.05383,5.24592 -1.4778,6.90951 -1.555091,1.81677 -3.881086,2.41012 -6.151061,1.56908 -0.549085,-0.20343 -1.110649,-0.39505 -1.24792,-0.42581 -0.153137,-0.0343 -0.297808,1.34256 -0.374376,3.56304 -0.116668,3.38338 -0.157285,3.62311 -0.62396,3.68271 -0.274542,0.0351 -0.77995,-0.0805 -1.123128,-0.25689 z m 6.984022,-8.87394 c 0.897385,-0.89739 1.249468,-2.17536 1.249468,-4.53525 0,-2.33374 -0.327981,-3.5474 -1.232104,-4.55929 -0.628847,-0.7038 -0.849372,-0.78774 -2.043664,-0.77787 -0.736315,0.006 -1.762537,0.19398 -2.280494,0.41755 l -0.941743,0.40648 0.0682,4.43833 0.0682,4.43833 0.873544,0.42688 c 0.48045,0.23479 1.471827,0.43228 2.203058,0.43887 1.135154,0.0102 1.43273,-0.0912 2.03554,-0.69403 z m 24.713146,2.47062 c -1.20504,-0.24096 -1.91976,-0.66664 -2.43344,-1.44934 -0.36688,-0.55901 -0.45674,-1.46454 -0.56156,-5.65848 l -0.1248,-4.99297 -0.62396,-0.14543 c -0.44724,-0.10425 -0.6464,-0.33785 -0.70321,-0.8248 -0.068,-0.58324 0.0291,-0.70101 0.68636,-0.83247 l 0.76561,-0.15312 v -1.72863 -1.72863 l 0.90267,-0.37716 c 1.42292,-0.59453 1.59317,-0.39232 1.59317,1.89231 v 2.0045 l 0.93594,0.004 c 1.20894,0.005 1.62376,0.28418 1.51934,1.02274 -0.0713,0.50414 -0.25692,0.61492 -1.20736,0.72053 l -1.12313,0.12479 -0.0684,4.48874 c -0.0799,5.24066 0.0404,5.7414 1.47071,6.12655 0.7771,0.20926 0.96874,0.3771 0.96874,0.8485 0,0.51801 -0.47375,0.94498 -0.95636,0.86192 -0.0917,-0.0158 -0.55987,-0.1073 -1.04032,-0.20337 z m 21.92305,-0.0482 c -1.33632,-0.3774 -2.82553,-1.77748 -3.62446,-3.40756 -0.60002,-1.22422 -0.70033,-1.73229 -0.70088,-3.55015 -9.7e-4,-3.18683 1.12726,-5.30848 3.49214,-6.56702 1.40533,-0.74789 4.09308,-0.74209 5.52185,0.0119 3.57365,1.88591 4.64055,7.4163 2.14698,11.12913 -1.39485,2.07688 -4.31559,3.09539 -6.83563,2.38369 z m 4.04689,-2.35305 c 0.99548,-0.95373 1.336,-2.11631 1.34869,-4.60466 0.018,-3.52557 -1.20432,-5.24126 -3.73401,-5.24126 -0.99383,0 -1.29756,0.12559 -1.99819,0.82622 -1.07555,1.07555 -1.46182,2.5409 -1.30079,4.93465 0.16728,2.4866 1.061,4.25722 2.42651,4.80735 0.85645,0.34504 2.53133,-0.0263 3.25779,-0.7223 z m -90.487408,2.15148 c -1.262763,-0.30547 -1.863972,-0.83403 -2.558824,-2.24965 -1.303218,-2.65503 -1.033587,-7.90951 0.495223,-9.65073 1.338691,-1.52468 1.646527,-1.59452 7.028157,-1.59452 2.675506,0 4.923679,-0.0957 4.995946,-0.2126 0.07227,-0.11693 -1.239861,-0.29009 -2.915838,-0.38481 -1.675974,-0.0947 -3.145148,-0.27013 -3.264828,-0.38981 -0.119681,-0.11969 -0.173985,-1.08134 -0.120677,-2.13701 0.08982,-1.77865 0.154106,-1.9705 0.876637,-2.61608 1.012163,-0.90437 2.673838,-1.2484 6.021414,-1.24666 3.291941,0.002 4.39654,0.29297 5.573014,1.46944 1.112489,1.11249 1.334616,2.36861 1.166147,6.59449 -0.122242,3.06635 -0.441352,4.01324 -1.622217,4.81359 -0.605416,0.41033 -1.323956,0.49056 -5.361401,0.59863 -4.20763,0.11262 -4.729418,0.17497 -5.350635,0.63938 -1.388102,1.03771 -1.709152,1.73935 -1.799339,3.93238 -0.109333,2.65856 -0.617533,3.04966 -3.162779,2.43396 z m 7.706846,-16.87544 c 0.398071,-1.03735 -1.120984,-1.8555 -1.83893,-0.99043 -0.402564,0.48506 -0.125873,1.56088 0.434251,1.68843 0.565148,0.12869 1.21051,-0.19199 1.404679,-0.698 z m 61.469532,16.94127 c -0.0915,-0.0915 -0.16639,-4.81439 -0.16639,-10.49527 v -10.32887 l 0.90267,-0.37717 c 1.57424,-0.65775 1.59317,-0.60711 1.59317,4.26336 0,2.40655 0.0419,4.37555 0.0931,4.37555 0.0512,0 0.59355,-0.22139 1.20525,-0.49197 0.61171,-0.27059 1.74006,-0.56577 2.50746,-0.65596 1.78541,-0.20984 3.38759,0.49099 4.2339,1.852 0.53907,0.86692 0.57548,1.20844 0.65161,6.11195 0.0902,5.81271 0.0477,5.98702 -1.43199,5.86299 l -0.8949,-0.075 -0.12479,-4.99169 c -0.15643,-6.25701 -0.39053,-6.86356 -2.64907,-6.86356 -0.96493,0 -2.46965,0.56049 -3.14463,1.17133 -0.39932,0.36139 -0.4459,0.91573 -0.4459,5.30662 0,3.48073 -0.0869,4.98997 -0.2995,5.20259 -0.31841,0.3184 -1.75074,0.41232 -2.02995,0.13311 z m 27.45424,0 c -0.0915,-0.0915 -0.16639,-2.78475 -0.16639,-5.98497 V 132.562 l 1.31031,-0.75533 c 1.76994,-1.02029 2.98013,-1.34629 5.05408,-1.36149 1.39029,-0.0102 1.95556,0.10648 2.76791,0.57131 1.85034,1.05879 1.96333,1.46144 2.05447,7.32124 0.0536,3.44437 -0.0116,5.3336 -0.19597,5.67803 -0.37422,0.69923 -1.87828,0.7216 -2.24658,0.0334 -0.15267,-0.28527 -0.25836,-2.46671 -0.25836,-5.3324 0,-4.48426 -0.0379,-4.89782 -0.50308,-5.48919 -0.95826,-1.21823 -3.01379,-1.44261 -4.79196,-0.52309 l -0.69498,0.35939 v 5.43452 c 0,3.89408 -0.0849,5.51942 -0.2995,5.73403 -0.3184,0.3184 -1.75074,0.41232 -2.02995,0.13311 z m 16.80532,-15.93178 c 0,-0.20591 0.16847,-0.37438 0.37438,-0.37438 0.20591,0 0.37437,0.16847 0.37437,0.37438 0,0.2059 -0.16846,0.37437 -0.37437,0.37437 -0.20591,0 -0.37438,-0.16847 -0.37438,-0.37437 z m -1.05602,-0.92778 c -0.12872,-1.23198 -0.1,-1.30759 0.4213,-1.10756 0.48411,0.18577 0.51031,1.49596 0.0378,1.88814 -0.28561,0.23703 -0.36725,0.0982 -0.45906,-0.78058 z m 2.36634,0.662 c -0.38385,-0.41478 -0.40952,-1.51636 -0.0406,-1.74434 0.4836,-0.29888 0.74401,0.26958 0.54518,1.19008 -0.15784,0.73068 -0.2488,0.8306 -0.50453,0.55426 z m -3.91751,-1.33477 c -0.25964,-0.42011 0.10762,-0.87407 0.43902,-0.54266 0.19539,0.19538 0.19539,0.34727 0,0.54266 -0.19538,0.19538 -0.31827,0.19538 -0.43902,0 z"
         id="path105"
         inkscape:connector-curvature="0" />
      <path
         style="fill:#5f91bb;stroke-width:0.24958403"
         d="m 100.57738,150.80099 c -0.28657,-0.46368 0.0207,-0.6795 1.41002,-0.99042 1.71968,-0.38485 2.81262,-1.06464 3.33462,-2.07408 0.52047,-1.00648 0.78509,-3.81141 0.38301,-4.05991 -0.15569,-0.0962 -1.06442,0.0149 -2.01939,0.24706 -3.09128,0.75133 -5.021885,0.30066 -6.355615,-1.48365 -0.472971,-0.63276 -0.520854,-1.09515 -0.592035,-5.71736 -0.07018,-4.55663 -0.0364,-5.05893 0.35968,-5.34855 0.240422,-0.1758 0.64029,-0.31964 0.888597,-0.31964 0.419915,0 0.451492,0.33575 0.451851,4.80449 2.5e-4,4.08218 0.066,4.93264 0.436773,5.65687 0.833383,1.62783 2.822429,2.15806 5.137019,1.3694 1.88763,-0.64318 1.91334,-0.73249 1.91334,-6.64503 v -5.18573 h 0.74875 0.74876 l -10e-4,7.54992 c -7.5e-4,4.49813 -0.10722,7.93099 -0.2632,8.49267 -0.36359,1.30927 -1.50251,2.51598 -2.9708,3.14763 -1.53527,0.66045 -3.37082,0.94333 -3.60999,0.55633 z M 82.901126,150.502 c -0.402599,-0.23449 -0.436772,-0.92714 -0.436772,-8.85264 0,-8.40303 0.0119,-8.61015 0.524334,-9.12258 1.239546,-1.23955 4.587099,-2.03594 6.807177,-1.61946 1.19377,0.22396 2.285318,1.18953 3.095079,2.73787 0.605189,1.15718 0.668823,1.53697 0.674086,4.02323 0.005,2.3448 -0.0728,2.8911 -0.532894,3.74376 -0.65269,1.20957 -1.711488,2.24648 -2.659737,2.60475 -1.076206,0.40662 -3.02574,0.31671 -4.392395,-0.20258 -0.878715,-0.33389 -1.308731,-0.39112 -1.500182,-0.19967 -0.165521,0.16552 -0.26838,1.58843 -0.26838,3.71264 0,3.11675 -0.04153,3.44354 -0.436772,3.43667 -0.240225,-0.004 -0.633319,-0.12207 -0.873544,-0.26199 z m 6.804941,-7.77951 c 1.166109,-0.79246 1.75624,-2.09467 1.917442,-4.23115 0.204454,-2.70968 -0.25998,-4.58647 -1.422712,-5.7492 -0.853949,-0.85395 -1.061084,-0.93895 -2.288139,-0.93895 -0.902812,0 -1.717632,0.1858 -2.462807,0.56157 l -1.113617,0.56156 -0.06798,4.38638 c -0.07638,4.92843 -0.07999,4.91753 1.860939,5.60976 1.424625,0.50808 2.634499,0.44044 3.576871,-0.19997 z m -39.77685,1.30901 c -1.551946,-0.47755 -2.434006,-1.90105 -2.897802,-4.67658 -0.484654,-2.90034 0.182572,-5.9141 1.61745,-7.30578 l 0.89691,-0.86991 4.916027,-0.0648 c 5.390504,-0.0711 6.039158,-0.14425 6.039158,-0.68123 0,-0.29391 -0.599748,-0.37533 -3.182197,-0.43202 l -3.182196,-0.0699 -0.07305,-1.94282 c -0.06968,-1.85325 -0.03986,-1.97602 0.646916,-2.66279 1.017163,-1.01716 2.471099,-1.35026 5.924826,-1.35737 2.699523,-0.006 3.128912,0.0561 4.229955,0.60735 1.968731,0.98567 2.231845,1.53535 2.33817,4.88471 0.132906,4.18681 -0.07615,5.445 -1.088371,6.55027 l -0.832482,0.909 -4.699438,0.1248 c -3.004343,0.0798 -4.88965,0.23388 -5.226776,0.42723 -0.909961,0.52189 -2.062944,2.02396 -2.206398,2.87442 -0.07575,0.44907 -0.165524,1.49036 -0.1995,2.31399 l -0.06177,1.4975 -1.123128,0.0467 c -0.617721,0.0257 -1.444057,-0.0521 -1.836302,-0.17278 z m 7.813792,-16.08177 c 0.517966,-0.62411 0.21857,-1.72459 -0.54148,-1.9903 -1.23911,-0.43318 -2.21751,1.03992 -1.300046,1.95738 0.490432,0.49044 1.447622,0.50755 1.841526,0.0329 z m 56.039061,15.86588 c -1.49664,-0.67988 -1.61722,-1.15414 -1.61722,-6.36082 0,-4.77473 -0.10193,-5.26906 -1.12313,-5.44677 -0.27454,-0.0478 -0.49916,-0.25227 -0.49916,-0.45441 0,-0.20215 0.22462,-0.40663 0.49916,-0.45441 0.80741,-0.14051 1.12313,-0.79547 1.12313,-2.32994 0,-1.16925 0.091,-1.48974 0.48276,-1.69938 0.89469,-0.47883 1.01475,-0.30834 1.01475,1.44102 0,2.03547 0.286,2.49264 1.62229,2.5932 0.68763,0.0517 0.99834,0.19165 0.99834,0.44951 0,0.25786 -0.31071,0.39776 -0.99834,0.4495 -1.53792,0.11574 -1.62247,0.37145 -1.6209,4.90186 0.002,5.09626 0.17303,5.76434 1.64458,6.41527 0.61119,0.27036 1.04581,0.59745 0.96583,0.72686 -0.23062,0.37314 -1.40027,0.26449 -2.49209,-0.23149 z m 22.2004,0.008 c -2.62373,-1.22561 -4.06185,-5.33484 -3.09076,-8.83143 1.16155,-4.18237 6.55377,-5.6215 9.61036,-2.56492 2.79431,2.79432 2.33802,8.73281 -0.84276,10.96835 -0.9129,0.64161 -1.34145,0.76545 -2.86709,0.82848 -1.35765,0.0561 -2.04077,-0.0413 -2.80975,-0.40048 z m 4.42425,-0.98217 c 1.2325,-0.71677 1.80489,-2.15627 1.91405,-4.81359 0.0845,-2.05642 0.0206,-2.56654 -0.46204,-3.68841 -0.6763,-1.5721 -1.65767,-2.32872 -3.20746,-2.47291 -1.26387,-0.11759 -2.41674,0.46846 -3.31883,1.6871 -1.04312,1.40914 -1.09445,5.7828 -0.0905,7.71184 1.06095,2.03857 3.23082,2.70068 5.16479,1.57597 z m -20.83754,1.02547 c -0.0915,-0.0915 -0.16639,-4.64296 -0.16639,-10.11433 v -9.94794 l 0.64021,-0.24341 c 0.35211,-0.13387 0.74521,-0.24341 0.87354,-0.24341 0.13586,0 0.23334,1.82803 0.23334,4.37556 0,4.96666 0.0164,5.00413 1.78529,4.07352 0.85043,-0.44742 1.4985,-0.57256 2.99841,-0.57898 1.70249,-0.007 1.9872,0.0606 2.58195,0.61576 1.29967,1.21314 1.36979,1.57746 1.36979,7.11657 v 5.14468 l -0.81115,-0.0782 -0.81115,-0.0782 -0.12479,-4.99168 c -0.10553,-4.22114 -0.19276,-5.0917 -0.56506,-5.63957 -0.90443,-1.33092 -2.35521,-1.54448 -4.30961,-0.63438 -2.19266,1.02105 -2.11368,0.78129 -2.11368,6.41657 v 4.97385 h -0.70716 c -0.38893,0 -0.78203,-0.0749 -0.87354,-0.16639 z m 27.45424,0 c -0.0915,-0.0915 -0.16639,-2.55437 -0.16639,-5.47302 0,-6.03029 -0.0961,-5.73186 2.1823,-6.77496 1.57544,-0.72125 4.54345,-1.02133 5.84693,-0.59115 0.4804,0.15855 1.20085,0.62975 1.60098,1.04711 l 0.72753,0.75885 0.0757,5.59978 0.0757,5.59978 h -0.88682 -0.88682 v -4.95477 c 0,-4.74432 -0.0242,-4.99064 -0.56905,-5.79919 -0.81127,-1.20385 -1.54035,-1.51027 -3.35921,-1.41183 -1.08382,0.0587 -1.76667,0.2406 -2.24625,0.59851 l -0.68905,0.51422 -0.0672,5.52653 -0.0672,5.52653 h -0.70238 c -0.38631,0 -0.77725,-0.0749 -0.86877,-0.16639 z"
         id="path103"
         inkscape:connector-curvature="0" />
      <path
         style="fill:#3672a4;stroke-width:0.24958403"
         d="m 100.57738,150.80099 c -0.28657,-0.46368 0.0207,-0.6795 1.41002,-0.99042 1.71968,-0.38485 2.81262,-1.06464 3.33462,-2.07408 0.52047,-1.00648 0.78509,-3.81141 0.38301,-4.05991 -0.15569,-0.0962 -1.06442,0.0149 -2.01939,0.24706 -3.09128,0.75133 -5.021885,0.30066 -6.355615,-1.48365 -0.472971,-0.63276 -0.520854,-1.09515 -0.592035,-5.71736 -0.07018,-4.55663 -0.0364,-5.05893 0.35968,-5.34855 0.240422,-0.1758 0.64029,-0.31964 0.888597,-0.31964 0.419915,0 0.451492,0.33575 0.451851,4.80449 2.5e-4,4.08218 0.066,4.93264 0.436773,5.65687 0.833383,1.62783 2.822429,2.15806 5.137019,1.3694 1.88763,-0.64318 1.91334,-0.73249 1.91334,-6.64503 v -5.18573 h 0.74875 0.74876 l -10e-4,7.54992 c -7.5e-4,4.49813 -0.10722,7.93099 -0.2632,8.49267 -0.36359,1.30927 -1.50251,2.51598 -2.9708,3.14763 -1.53527,0.66045 -3.37082,0.94333 -3.60999,0.55633 z M 82.901126,150.502 c -0.402599,-0.23449 -0.436772,-0.92714 -0.436772,-8.85264 0,-8.40303 0.0119,-8.61015 0.524334,-9.12258 1.239546,-1.23955 4.587099,-2.03594 6.807177,-1.61946 1.19377,0.22396 2.285318,1.18953 3.095079,2.73787 0.605189,1.15718 0.668823,1.53697 0.674086,4.02323 0.005,2.3448 -0.0728,2.8911 -0.532894,3.74376 -0.65269,1.20957 -1.711488,2.24648 -2.659737,2.60475 -1.076206,0.40662 -3.02574,0.31671 -4.392395,-0.20258 -0.878715,-0.33389 -1.308731,-0.39112 -1.500182,-0.19967 -0.165521,0.16552 -0.26838,1.58843 -0.26838,3.71264 0,3.11675 -0.04153,3.44354 -0.436772,3.43667 -0.240225,-0.004 -0.633319,-0.12207 -0.873544,-0.26199 z m 6.804941,-7.77951 c 1.166109,-0.79246 1.75624,-2.09467 1.917442,-4.23115 0.204454,-2.70968 -0.25998,-4.58647 -1.422712,-5.7492 -0.853949,-0.85395 -1.061084,-0.93895 -2.288139,-0.93895 -0.902812,0 -1.717632,0.1858 -2.462807,0.56157 l -1.113617,0.56156 -0.06798,4.38638 c -0.07638,4.92843 -0.07999,4.91753 1.860939,5.60976 1.424625,0.50808 2.634499,0.44044 3.576871,-0.19997 z m 24.076003,1.09312 c -1.49664,-0.67988 -1.61722,-1.15414 -1.61722,-6.36082 0,-4.77473 -0.10193,-5.26906 -1.12313,-5.44677 -0.27454,-0.0478 -0.49916,-0.25227 -0.49916,-0.45441 0,-0.20215 0.22462,-0.40663 0.49916,-0.45441 0.80741,-0.14051 1.12313,-0.79547 1.12313,-2.32994 0,-1.16925 0.091,-1.48974 0.48276,-1.69938 0.89469,-0.47883 1.01475,-0.30834 1.01475,1.44102 0,2.03547 0.286,2.49264 1.62229,2.5932 0.68763,0.0517 0.99834,0.19165 0.99834,0.44951 0,0.25786 -0.31071,0.39776 -0.99834,0.4495 -1.53792,0.11574 -1.62247,0.37145 -1.6209,4.90186 0.002,5.09626 0.17303,5.76434 1.64458,6.41527 0.61119,0.27036 1.04581,0.59745 0.96583,0.72686 -0.23062,0.37314 -1.40027,0.26449 -2.49209,-0.23149 z m 22.2004,0.008 c -2.62373,-1.22561 -4.06185,-5.33484 -3.09076,-8.83143 1.16155,-4.18237 6.55377,-5.6215 9.61036,-2.56492 2.79431,2.79432 2.33802,8.73281 -0.84276,10.96835 -0.9129,0.64161 -1.34145,0.76545 -2.86709,0.82848 -1.35765,0.0561 -2.04077,-0.0413 -2.80975,-0.40048 z m 4.42425,-0.98217 c 1.2325,-0.71677 1.80489,-2.15627 1.91405,-4.81359 0.0845,-2.05642 0.0206,-2.56654 -0.46204,-3.68841 -0.6763,-1.5721 -1.65767,-2.32872 -3.20746,-2.47291 -1.26387,-0.11759 -2.41674,0.46846 -3.31883,1.6871 -1.04312,1.40914 -1.09445,5.7828 -0.0905,7.71184 1.06095,2.03857 3.23082,2.70068 5.16479,1.57597 z m -90.323776,1.02165 c -0.811453,-0.16468 -1.998979,-1.45238 -2.326853,-2.52313 -0.524179,-1.71184 -0.582426,-5.07223 -0.115971,-6.69059 0.876021,-3.03935 1.602639,-3.34486 7.955375,-3.34486 5.031422,0 5.629777,-0.1212 5.266882,-1.0669 -0.212428,-0.55357 -0.909938,-0.67296 -3.95408,-0.67678 l -2.71912,-0.003 0.154702,-1.65668 c 0.269054,-2.88122 0.902281,-3.28602 5.499619,-3.51564 3.537968,-0.17671 5.110103,0.15944 6.118819,1.30831 0.928136,1.05709 1.108735,2.16403 0.992057,6.0806 -0.07621,2.55802 -0.164346,3.08963 -0.61225,3.69279 -0.894818,1.20499 -1.401112,1.3209 -5.786785,1.32487 -3.085747,0.003 -4.284879,0.0961 -4.982546,0.38758 -1.944933,0.81264 -2.629749,1.96754 -2.806265,4.73258 l -0.127465,1.99667 -0.998336,0.0341 c -0.549085,0.0187 -1.250087,-0.017 -1.557783,-0.0795 z m 7.808727,-15.66703 c 0.730802,-0.7308 0.776578,-1.37586 0.152341,-2.14676 -0.588577,-0.72686 -1.953612,-0.7769 -2.456376,-0.09 -0.553283,0.75587 -0.320389,2.15497 0.420811,2.52802 0.889373,0.44762 1.191035,0.40097 1.883224,-0.29122 z m 61.677509,15.67085 c -0.0915,-0.0915 -0.16639,-4.64296 -0.16639,-10.11433 v -9.94794 l 0.64021,-0.24341 c 0.35211,-0.13387 0.74521,-0.24341 0.87354,-0.24341 0.13586,0 0.23334,1.82803 0.23334,4.37556 0,4.96666 0.0164,5.00413 1.78529,4.07352 0.85043,-0.44742 1.4985,-0.57256 2.99841,-0.57898 1.70249,-0.007 1.9872,0.0606 2.58195,0.61576 1.29967,1.21314 1.36979,1.57746 1.36979,7.11657 v 5.14468 l -0.81115,-0.0782 -0.81115,-0.0782 -0.12479,-4.99168 c -0.10553,-4.22114 -0.19276,-5.0917 -0.56506,-5.63957 -0.90443,-1.33092 -2.35521,-1.54448 -4.30961,-0.63438 -2.19266,1.02105 -2.11368,0.78129 -2.11368,6.41657 v 4.97385 h -0.70716 c -0.38893,0 -0.78203,-0.0749 -0.87354,-0.16639 z m 27.45424,0 c -0.0915,-0.0915 -0.16639,-2.55437 -0.16639,-5.47302 0,-6.03029 -0.0961,-5.73186 2.1823,-6.77496 1.57544,-0.72125 4.54345,-1.02133 5.84693,-0.59115 0.4804,0.15855 1.20085,0.62975 1.60098,1.04711 l 0.72753,0.75885 0.0757,5.59978 0.0757,5.59978 h -0.88682 -0.88682 v -4.95477 c 0,-4.74432 -0.0242,-4.99064 -0.56905,-5.79919 -0.81127,-1.20385 -1.54035,-1.51027 -3.35921,-1.41183 -1.08382,0.0587 -1.76667,0.2406 -2.24625,0.59851 l -0.68905,0.51422 -0.0672,5.52653 -0.0672,5.52653 h -0.70238 c -0.38631,0 -0.77725,-0.0749 -0.86877,-0.16639 z"
         id="path101"
         inkscape:connector-curvature="0" />
      <path
         style="fill:#686868;stroke-width:0.24958403"
         d="m 100.57738,150.80099 c -0.28657,-0.46368 0.0207,-0.6795 1.41002,-0.99042 1.71968,-0.38485 2.81262,-1.06464 3.33462,-2.07408 0.52047,-1.00648 0.78509,-3.81141 0.38301,-4.05991 -0.15569,-0.0962 -1.06442,0.0149 -2.01939,0.24706 -3.09128,0.75133 -5.021885,0.30066 -6.355615,-1.48365 -0.472971,-0.63276 -0.520854,-1.09515 -0.592035,-5.71736 -0.07018,-4.55663 -0.0364,-5.05893 0.35968,-5.34855 0.240422,-0.1758 0.64029,-0.31964 0.888597,-0.31964 0.419915,0 0.451492,0.33575 0.451851,4.80449 2.5e-4,4.08218 0.066,4.93264 0.436773,5.65687 0.833383,1.62783 2.822429,2.15806 5.137019,1.3694 1.88763,-0.64318 1.91334,-0.73249 1.91334,-6.64503 v -5.18573 h 0.74875 0.74876 l -10e-4,7.54992 c -7.5e-4,4.49813 -0.10722,7.93099 -0.2632,8.49267 -0.36359,1.30927 -1.50251,2.51598 -2.9708,3.14763 -1.53527,0.66045 -3.37082,0.94333 -3.60999,0.55633 z M 82.901126,150.502 c -0.402599,-0.23449 -0.436772,-0.92714 -0.436772,-8.85264 0,-8.40303 0.0119,-8.61015 0.524334,-9.12258 1.239546,-1.23955 4.587099,-2.03594 6.807177,-1.61946 1.19377,0.22396 2.285318,1.18953 3.095079,2.73787 0.605189,1.15718 0.668823,1.53697 0.674086,4.02323 0.005,2.3448 -0.0728,2.8911 -0.532894,3.74376 -0.65269,1.20957 -1.711488,2.24648 -2.659737,2.60475 -1.076206,0.40662 -3.02574,0.31671 -4.392395,-0.20258 -0.878715,-0.33389 -1.308731,-0.39112 -1.500182,-0.19967 -0.165521,0.16552 -0.26838,1.58843 -0.26838,3.71264 0,3.11675 -0.04153,3.44354 -0.436772,3.43667 -0.240225,-0.004 -0.633319,-0.12207 -0.873544,-0.26199 z m 6.804941,-7.77951 c 1.166109,-0.79246 1.75624,-2.09467 1.917442,-4.23115 0.204454,-2.70968 -0.25998,-4.58647 -1.422712,-5.7492 -0.853949,-0.85395 -1.061084,-0.93895 -2.288139,-0.93895 -0.902812,0 -1.717632,0.1858 -2.462807,0.56157 l -1.113617,0.56156 -0.06798,4.38638 c -0.07638,4.92843 -0.07999,4.91753 1.860939,5.60976 1.424625,0.50808 2.634499,0.44044 3.576871,-0.19997 z m 24.076003,1.09312 c -1.49664,-0.67988 -1.61722,-1.15414 -1.61722,-6.36082 0,-4.77473 -0.10193,-5.26906 -1.12313,-5.44677 -0.27454,-0.0478 -0.49916,-0.25227 -0.49916,-0.45441 0,-0.20215 0.22462,-0.40663 0.49916,-0.45441 0.80741,-0.14051 1.12313,-0.79547 1.12313,-2.32994 0,-1.16925 0.091,-1.48974 0.48276,-1.69938 0.89469,-0.47883 1.01475,-0.30834 1.01475,1.44102 0,2.03547 0.286,2.49264 1.62229,2.5932 0.68763,0.0517 0.99834,0.19165 0.99834,0.44951 0,0.25786 -0.31071,0.39776 -0.99834,0.4495 -1.53792,0.11574 -1.62247,0.37145 -1.6209,4.90186 0.002,5.09626 0.17303,5.76434 1.64458,6.41527 0.61119,0.27036 1.04581,0.59745 0.96583,0.72686 -0.23062,0.37314 -1.40027,0.26449 -2.49209,-0.23149 z m 22.2004,0.008 c -2.62373,-1.22561 -4.06185,-5.33484 -3.09076,-8.83143 1.16155,-4.18237 6.55377,-5.6215 9.61036,-2.56492 2.79431,2.79432 2.33802,8.73281 -0.84276,10.96835 -0.9129,0.64161 -1.34145,0.76545 -2.86709,0.82848 -1.35765,0.0561 -2.04077,-0.0413 -2.80975,-0.40048 z m 4.42425,-0.98217 c 1.2325,-0.71677 1.80489,-2.15627 1.91405,-4.81359 0.0845,-2.05642 0.0206,-2.56654 -0.46204,-3.68841 -0.6763,-1.5721 -1.65767,-2.32872 -3.20746,-2.47291 -1.26387,-0.11759 -2.41674,0.46846 -3.31883,1.6871 -1.04312,1.40914 -1.09445,5.7828 -0.0905,7.71184 1.06095,2.03857 3.23082,2.70068 5.16479,1.57597 z m -20.83754,1.02547 c -0.0915,-0.0915 -0.16639,-4.64296 -0.16639,-10.11433 v -9.94794 l 0.64021,-0.24341 c 0.35211,-0.13387 0.74521,-0.24341 0.87354,-0.24341 0.13586,0 0.23334,1.82803 0.23334,4.37556 0,4.96666 0.0164,5.00413 1.78529,4.07352 0.85043,-0.44742 1.4985,-0.57256 2.99841,-0.57898 1.70249,-0.007 1.9872,0.0606 2.58195,0.61576 1.29967,1.21314 1.36979,1.57746 1.36979,7.11657 v 5.14468 l -0.81115,-0.0782 -0.81115,-0.0782 -0.12479,-4.99168 c -0.10553,-4.22114 -0.19276,-5.0917 -0.56506,-5.63957 -0.90443,-1.33092 -2.35521,-1.54448 -4.30961,-0.63438 -2.19266,1.02105 -2.11368,0.78129 -2.11368,6.41657 v 4.97385 h -0.70716 c -0.38893,0 -0.78203,-0.0749 -0.87354,-0.16639 z m 27.45424,0 c -0.0915,-0.0915 -0.16639,-2.55437 -0.16639,-5.47302 0,-6.03029 -0.0961,-5.73186 2.1823,-6.77496 1.57544,-0.72125 4.54345,-1.02133 5.84693,-0.59115 0.4804,0.15855 1.20085,0.62975 1.60098,1.04711 l 0.72753,0.75885 0.0757,5.59978 0.0757,5.59978 h -0.88682 -0.88682 v -4.95477 c 0,-4.74432 -0.0242,-4.99064 -0.56905,-5.79919 -0.81127,-1.20385 -1.54035,-1.51027 -3.35921,-1.41183 -1.08382,0.0587 -1.76667,0.2406 -2.24625,0.59851 l -0.68905,0.51422 -0.0672,5.52653 -0.0672,5.52653 h -0.70238 c -0.38631,0 -0.77725,-0.0749 -0.86877,-0.16639 z"
         id="path99"
         inkscape:connector-curvature="0" />
    </g>
  </g>
</svg>
