<?xml version="1.0" encoding="UTF-8" standalone="no"?>
<!-- Created with Inkscape (http://www.inkscape.org/) -->

<svg
   xmlns:dc="http://purl.org/dc/elements/1.1/"
   xmlns:cc="http://creativecommons.org/ns#"
   xmlns:rdf="http://www.w3.org/1999/02/22-rdf-syntax-ns#"
   xmlns:svg="http://www.w3.org/2000/svg"
   xmlns="http://www.w3.org/2000/svg"
   xmlns:sodipodi="http://sodipodi.sourceforge.net/DTD/sodipodi-0.dtd"
   xmlns:inkscape="http://www.inkscape.org/namespaces/inkscape"
   width="210mm"
   height="297mm"
   viewBox="0 0 210 297"
   version="1.1"
   id="svg45"
   inkscape:version="0.92.1 r15371"
   sodipodi:docname="R.svg">
  <defs
     id="defs39" />
  <sodipodi:namedview
     id="base"
     pagecolor="#ffffff"
     bordercolor="#666666"
     borderopacity="1.0"
     inkscape:pageopacity="0.0"
     inkscape:pageshadow="2"
     inkscape:zoom="0.35"
     inkscape:cx="400"
     inkscape:cy="560"
     inkscape:document-units="mm"
     inkscape:current-layer="layer1"
     showgrid="false"
     inkscape:window-width="1920"
     inkscape:window-height="1001"
     inkscape:window-x="-9"
     inkscape:window-y="-9"
     inkscape:window-maximized="1" />
  <metadata
     id="metadata42">
    <rdf:RDF>
      <cc:Work
         rdf:about="">
        <dc:format>image/svg+xml</dc:format>
        <dc:type
           rdf:resource="http://purl.org/dc/dcmitype/StillImage" />
        <dc:title></dc:title>
      </cc:Work>
    </rdf:RDF>
  </metadata>
  <g
     inkscape:label="Layer 1"
     inkscape:groupmode="layer"
     id="layer1">
    <g
       id="g58"
       transform="matrix(0.85039366,0,0,0.85039366,-0.15872918,23.454904)">
      <path
         style="fill:#fcfcfc;stroke-width:0.35277778"
         d="M 19.150793,145.80953 V 89.365082 h 88.194447 88.19445 v 56.444448 56.44444 H 107.34524 19.150793 Z"
         id="path74"
         inkscape:connector-curvature="0" />
      <path
         style="fill:#b4c4d3;stroke-width:0.35277778"
         d="m 98.344315,185.94407 c -0.0902,-0.24587 -0.205331,-2.73979 -0.255842,-5.54204 l -0.09184,-5.09499 -3.351389,-0.59222 C 81.98048,172.47681 71.847443,167.58605 64.45951,160.14553 c -3.884511,-3.91216 -6.030324,-7.12862 -7.418219,-11.11951 -5.237658,-15.06088 4.384951,-30.11486 24.450462,-38.25125 8.938027,-3.62429 21.100307,-5.36197 31.793497,-4.54247 23.02041,1.76424 40.86632,12.69215 45.62035,27.93556 1.17392,3.76409 1.17359,9.6488 -7.1e-4,13.39312 -1.7253,5.50098 -5.29609,10.79265 -9.81157,14.54007 -1.47742,1.22612 -3.09842,2.57048 -3.60221,2.98746 -0.89589,0.7415 -0.90351,0.7841 -0.34709,1.94028 0.31289,0.65017 2.8962,5.05974 5.74069,9.79904 2.84448,4.73931 5.09018,8.82956 4.99045,9.08946 -0.14688,0.38275 -2.11,0.45474 -10.33268,0.37891 l -10.1514,-0.0936 -2.82222,-5.30327 c -1.55223,-2.9168 -3.16142,-5.87194 -3.576,-6.56698 l -0.75376,-1.26372 -2.59763,0.64946 c -1.42869,0.35719 -3.86761,0.838 -5.41984,1.06846 -1.55222,0.23046 -3.01651,0.56778 -3.25396,0.7496 -0.29733,0.22766 -0.46208,1.9395 -0.52917,5.49852 l -0.0974,5.16793 -8.91638,0.0943 c -6.94504,0.0734 -8.952641,-0.005 -9.080385,-0.35278 z m 25.724175,-19.69559 c 0.18437,-0.17248 -0.17279,-0.75798 -0.84594,-1.38679 -1.1174,-1.04382 -1.27462,-1.08412 -3.84685,-0.9862 -2.65488,0.10107 -2.683,0.11215 -2.79635,1.10203 -0.22893,1.99926 -0.0452,2.0887 3.73199,1.81688 1.89094,-0.13608 3.58166,-0.38174 3.75715,-0.54592 z M 98.17302,145.82645 c 0,-16.3489 0.05911,-18.30856 0.558021,-18.50001 0.306909,-0.11778 8.468569,-0.21414 18.137019,-0.21414 19.39418,0 21.08628,0.14106 25.19077,2.09996 5.71954,2.72968 8.67808,7.64708 8.67808,14.42385 0,7.38057 -4.03033,12.97107 -11.24084,15.59224 l -2.24501,0.8161 1.88397,0.95468 c 2.10426,1.06631 2.18366,1.0556 4.8991,-0.661 4.31437,-2.72739 7.81231,-7.64114 8.78524,-12.34111 0.86212,-4.16469 0.31223,-9.60419 -1.34228,-13.27791 -3.98028,-8.8379 -15.65436,-14.13956 -32.78573,-14.8893 -18.798382,-0.82269 -35.751299,6.27338 -40.939027,17.13605 -1.214523,2.54311 -1.275147,2.84617 -1.275147,6.37422 0,3.55155 0.05441,3.81813 1.320754,6.47026 2.138221,4.47813 6.73989,8.75006 12.613969,11.71011 2.476944,1.24817 7.15112,2.96521 7.496528,2.75381 0.145521,-0.0891 0.264583,-8.39057 0.264583,-18.44781 z m 31.96633,2.70499 c 2.25005,-2.06202 1.95552,-5.8261 -0.55756,-7.12566 -0.80269,-0.41509 -2.34457,-0.53514 -6.87319,-0.53514 h -5.83836 v 4.40972 4.40972 h 6.00241 6.0024 z"
         id="path72"
         inkscape:connector-curvature="0" />
      <path
         style="fill:#b5bbc4;stroke-width:0.35277778"
         d="m 98.694923,185.58522 c -0.08883,-0.24253 -0.202907,-2.64644 -0.253509,-5.34202 -0.07394,-3.93878 -0.195901,-4.95288 -0.621172,-5.16502 -0.291041,-0.14518 -2.414203,-0.60821 -4.718138,-1.02896 -17.577253,-3.20998 -31.459804,-13.14024 -35.901837,-25.68076 -1.04974,-2.96357 -1.288852,-9.02235 -0.496609,-12.58334 2.656756,-11.9416 15.218986,-22.32075 32.526332,-26.87386 6.433133,-1.69239 11.46978,-2.31069 18.82081,-2.31044 17.35844,5.6e-4 32.2848,5.12008 42.01102,14.4091 9.56644,9.13642 12.02358,20.02894 6.90737,30.62044 -2.39424,4.95651 -7.14511,10.26926 -11.98264,13.39981 -0.56628,0.36646 -0.90877,0.84538 -0.80253,1.12222 0.10193,0.26562 2.72928,4.75231 5.83855,9.97043 3.10928,5.2181 5.65323,9.58105 5.65323,9.69542 0,0.11438 -4.43563,0.20795 -9.85696,0.20795 -7.17144,0 -9.93471,-0.11329 -10.14236,-0.41585 -0.15697,-0.22872 -1.79939,-3.20528 -3.64981,-6.61458 -2.15679,-3.97377 -3.54967,-6.17695 -3.88056,-6.13805 -0.28388,0.0334 -2.26239,0.45094 -4.3967,0.92792 -2.1343,0.47698 -4.67431,1.0053 -5.64444,1.17404 l -1.76389,0.3068 -0.0974,5.37986 -0.0974,5.37986 h -8.64494 c -6.59463,0 -8.683243,-0.10458 -8.806447,-0.44097 z m 24.789907,-18.82276 c 0.82462,-0.10025 1.4993,-0.30016 1.4993,-0.44424 0,-0.37459 -2.15032,-2.35918 -3.06361,-2.82747 -1.02569,-0.52593 -4.79831,-0.50597 -5.3325,0.0282 -0.44205,0.44205 -0.56994,2.31192 -0.22041,3.22277 0.16382,0.4269 0.72467,0.49741 2.91042,0.3659 1.48912,-0.0896 3.38218,-0.24493 4.2068,-0.34518 z m -25.04408,-20.54131 0.09134,-18.40329 18.42949,-0.0256 c 12.56903,-0.0175 19.09688,0.10371 20.52822,0.38112 4.90752,0.95113 9.53283,4.21717 11.31885,7.9925 2.58208,5.45806 1.73924,13.09663 -1.9605,17.76794 -1.54713,1.9534 -4.97529,4.11255 -7.97623,5.02365 -1.42539,0.43275 -2.54931,0.91866 -2.4976,1.07981 0.0517,0.16114 1.12164,0.73268 2.37762,1.27008 l 2.28358,0.97709 2.10814,-1.09369 c 2.86077,-1.48415 6.75258,-5.43303 8.21457,-8.33503 1.60928,-3.19435 2.31413,-6.82028 2.08978,-10.75033 -0.6274,-10.99032 -8.57858,-18.30683 -23.17221,-21.32259 -12.55923,-2.59535 -27.15405,-1.48137 -37.329425,2.84924 -7.759157,3.30228 -12.761754,7.49074 -15.453608,12.93862 -1.095417,2.21695 -1.309899,3.05078 -1.459456,5.67378 -0.260018,4.56034 0.596675,7.16523 3.76518,11.44855 1.544839,2.08838 5.564139,5.38408 8.715457,7.1464 2.616641,1.4633 8.938455,4.05836 9.482681,3.89256 0.227771,-0.0694 0.385145,-6.62877 0.444119,-18.51076 z m 30.93994,3.46873 c 1.54688,-0.78289 2.659,-2.64203 2.659,-4.44509 0,-2.04086 -0.57665,-3.17763 -2.08905,-4.11823 -1.17586,-0.73131 -1.67317,-0.78509 -7.25956,-0.78509 h -5.99723 l -0.0992,4.56745 c -0.0546,2.51211 -0.0146,4.78795 0.0888,5.05743 0.2752,0.71716 11.20423,0.47919 12.69732,-0.27647 z"
         id="path70"
         inkscape:connector-curvature="0" />
      <path
         style="fill:#abacb1;stroke-width:0.35277778"
         d="m 98.697174,185.59151 c -0.09024,-0.24599 -0.205412,-2.74607 -0.255923,-5.55572 l -0.09184,-5.10846 -4.7625,-0.95839 c -13.478261,-2.71233 -24.38107,-8.56083 -30.782128,-16.51219 -2.01936,-2.50844 -4.142874,-6.37236 -4.142874,-7.53832 0,-0.29672 0.15875,-0.6376 0.352777,-0.75751 0.194028,-0.11992 0.352778,-0.51321 0.352778,-0.874 0,-0.3799 0.556751,-0.99428 1.322917,-1.45986 0.727604,-0.44215 1.402292,-0.89532 1.499306,-1.00706 0.584796,-0.67355 4.491958,-2.8327 5.126009,-2.8327 0.28514,0 0.518435,-0.23489 0.518435,-0.52199 0,-0.2871 0.620357,-0.83848 1.378568,-1.22529 0.758215,-0.38681 1.432902,-0.8266 1.499305,-0.97731 0.148404,-0.3368 2.999797,-2.21196 3.37637,-2.22039 0.14968,-0.004 0.645996,-0.40023 1.102924,-0.88194 0.456929,-0.48172 0.972866,-0.87585 1.146528,-0.87585 0.397983,0 0.394984,0.0984 -0.03764,1.23634 -0.194367,0.51122 -0.521677,2.0141 -0.727358,3.33974 -0.948259,6.11169 1.963555,12.17555 8.223551,17.12557 3.955246,3.12756 12.738411,7.30673 14.187527,6.75066 0.477735,-0.18333 0.541895,-2.38126 0.541895,-18.56347 v -18.35551 l 18.961799,0.004 c 20.35694,0.004 20.5121,0.0163 24.57591,1.87681 2.60336,1.19187 5.61607,4.08033 6.74514,6.46699 1.26214,2.66793 1.81352,6.79874 1.32703,9.94171 -0.98886,6.38859 -4.98077,10.94248 -11.2641,12.84987 -1.42557,0.43275 -2.59344,0.89092 -2.59526,1.01815 -0.004,0.25716 4.46524,2.4145 5.00162,2.4145 0.66063,0 5.07067,-3.08258 6.60578,-4.61739 4.73541,-4.73446 6.73757,-11.2603 5.55463,-18.10474 -1.84973,-10.70242 -10.47982,-17.13679 -26.63539,-19.85867 -4.29668,-0.72391 -18.70195,-0.86553 -21.66258,-0.21297 -1.64896,0.36345 -1.67569,0.35534 -1.67569,-0.50821 0,-0.70974 0.13768,-0.84154 0.72004,-0.68924 0.58327,0.15252 0.67929,0.0599 0.50549,-0.48775 -0.15525,-0.48915 0.0114,-0.77196 0.60287,-1.023 1.08651,-0.46116 7.07473,-4.31053 7.6966,-4.94756 0.4578,-0.46897 3.09443,-2.04125 3.79699,-2.26423 0.43402,-0.13775 0.78912,-0.47789 0.78912,-0.75585 0,-0.27797 0.3175,-0.5054 0.70555,-0.5054 0.38806,0 0.70556,-0.13247 0.70556,-0.29439 0,-0.83185 10.00329,1.42187 14.99306,3.37791 7.23812,2.8374 12.07389,5.89928 16.78973,10.63079 3.71233,3.72466 5.81356,6.90604 7.29738,11.04863 1.21013,3.37853 1.51774,9.8791 0.63262,13.3693 -1.64136,6.47222 -5.81986,12.29827 -12.4607,17.37384 -1.21268,0.92683 -2.20487,1.79982 -2.20487,1.93995 0,0.14013 2.60171,4.61554 5.78157,9.94535 3.17987,5.32981 5.7105,9.80963 5.62363,9.95515 -0.0869,0.14552 -4.50483,0.26458 -9.8177,0.26458 -7.16898,0 -9.73334,-0.11014 -9.94515,-0.42716 -0.15697,-0.23494 -1.79551,-3.21151 -3.64119,-6.61459 -2.68382,-4.94843 -3.49619,-6.17807 -4.05694,-6.14077 -1.24232,0.0827 -10.561,1.95367 -11.10811,2.23031 -0.422,0.21338 -0.56489,1.33165 -0.70555,5.5217 l -0.17639,5.25413 -8.56352,0.0945 c -6.66253,0.0735 -8.59994,-0.005 -8.727603,-0.35278 z m 24.434876,-18.49113 c 1.03969,-0.12488 1.85208,-0.40162 1.85208,-0.63089 0,-0.22464 -0.63748,-1.03092 -1.41662,-1.79173 -1.32868,-1.29742 -1.5698,-1.39195 -3.88437,-1.52273 -1.62896,-0.0921 -2.64633,0.009 -2.99311,0.29656 -0.52994,0.43981 -0.74854,3.18381 -0.29016,3.6422 0.29631,0.29631 4.28762,0.30021 6.73218,0.007 z m 6.24864,-17.4105 c 3.32528,-1.68294 3.59856,-7.00333 0.44817,-8.72507 -0.96384,-0.52676 -2.06978,-0.62334 -7.13778,-0.62334 h -5.99723 l -0.0992,4.56745 c -0.0546,2.51211 -0.0146,4.78795 0.0888,5.05743 0.2752,0.71716 11.20423,0.47919 12.69732,-0.27647 z"
         id="path68"
         inkscape:connector-curvature="0" />
      <path
         style="fill:#6390bf;stroke-width:0.35277778"
         d="m 98.706018,185.59151 c -0.125712,-0.36218 -0.4338,-7.41939 -0.543151,-12.4417 -0.01266,-0.58209 0.103488,-10.98021 0.258138,-23.10695 l 0.281182,-22.04861 18.676343,-0.0913 c 15.78884,-0.0772 19.00682,-0.008 20.81389,0.44689 6.8135,1.71566 10.93231,6.04426 11.93884,12.54697 0.46709,3.01771 -0.0714,7.01511 -1.30922,9.71889 -1.71971,3.75634 -6.00846,7.28649 -10.24578,8.43347 -1.26678,0.3429 -2.30324,0.75707 -2.30324,0.92036 0,0.31315 4.16621,2.30177 5.54973,2.64901 1.02776,0.25795 2.21138,1.7423 2.21138,2.77324 0,0.43441 2.53871,5.05644 5.64158,10.27118 3.10287,5.21474 5.64287,9.68229 5.64445,9.92789 0.002,0.3518 -2.07402,0.42666 -9.78467,0.35278 l -9.78754,-0.0938 -3.35344,-6.24056 c -1.84439,-3.4323 -3.68861,-6.6073 -4.09826,-7.05555 -1.0982,-1.20166 -3.31212,-5.16014 -3.31212,-5.92205 0,-0.78876 -1.89062,-2.76198 -3.07944,-3.21397 -0.95583,-0.3634 -4.33291,-0.43373 -5.18198,-0.10791 -0.65799,0.25249 -0.80102,3.63509 -0.17997,4.25614 0.24726,0.24726 0.30597,1.5836 0.1697,3.86291 -0.11459,1.91668 -0.3244,5.9455 -0.46625,8.95293 l -0.25789,5.46806 -8.56352,0.0945 c -6.66613,0.0736 -8.597914,-0.005 -8.718762,-0.35278 z m 29.825952,-35.54839 c 2.01654,-0.56019 3.24389,-2.11533 3.42875,-4.34447 0.20794,-2.50749 -0.54033,-3.95733 -2.50207,-4.84799 -1.24609,-0.56574 -2.33784,-0.67129 -7.01134,-0.67783 -3.04448,-0.004 -5.62103,0.13076 -5.72565,0.30005 -0.2743,0.44381 -0.30804,9.11654 -0.0372,9.5548 0.29437,0.47629 10.14239,0.48913 11.8475,0.0155 z"
         id="path66"
         inkscape:connector-curvature="0" />
      <path
         style="fill:#2167bb;stroke-width:0.35277778"
         d="m 99.058263,185.32598 c -0.330214,-0.5343 -0.210326,-56.56026 0.121744,-56.89233 0.160651,-0.16065 8.850113,-0.24586 19.309913,-0.18936 l 19.01782,0.10274 2.42685,0.9429 c 6.71566,2.60924 9.82203,6.98016 9.85994,13.87376 0.0446,8.10889 -3.86069,13.28457 -11.73821,15.55668 -1.46588,0.42281 -2.66524,0.96359 -2.66524,1.20175 0,0.23815 1.39263,1.03314 3.09474,1.76665 3.71846,1.60243 3.8774,1.72503 4.81067,3.71047 0.40386,0.85917 3.19567,5.68492 6.20402,10.7239 3.00836,5.03897 5.46974,9.24918 5.46974,9.35602 0,0.10684 -4.19607,0.19426 -9.3246,0.19426 h -9.32458 l -0.67119,-0.97014 c -0.36916,-0.53358 -1.82931,-3.19264 -3.24477,-5.90903 -1.41547,-2.71639 -2.92559,-5.41514 -3.35584,-5.99722 -0.43025,-0.58209 -1.54667,-2.53294 -2.48094,-4.33525 -1.69783,-3.27527 -3.36429,-5.17968 -4.86124,-5.55539 -0.43706,-0.1097 -1.89908,-0.15168 -3.24893,-0.0933 l -2.45427,0.10615 -0.0821,11.0356 c -0.0452,6.06959 -0.17713,11.18927 -0.2932,11.37708 -0.28609,0.46291 -16.284058,0.45716 -16.570277,-0.006 z m 31.134667,-35.57552 c 1.54908,-1.10488 2.19954,-2.48377 2.19954,-4.66273 0,-2.30318 -0.79771,-3.67521 -2.66132,-4.57736 -1.25805,-0.60902 -2.18382,-0.69807 -7.25729,-0.69807 -4.05263,0 -5.9436,0.12832 -6.23862,0.42334 -0.60186,0.60187 -0.58634,9.50072 0.0176,10.11351 0.33161,0.33645 1.97201,0.41956 6.61459,0.33514 5.80527,-0.10556 6.24233,-0.16128 7.32546,-0.93383 z"
         id="path64"
         inkscape:connector-curvature="0" />
      <path
         style="fill:#1c63b5;stroke-width:0.35277778"
         d="m 99.303162,172.00328 c 0.03949,-7.32455 0.125913,-11.96888 0.192048,-10.32073 0.06613,1.64815 0.26035,3.13674 0.431596,3.30798 0.179954,0.17996 0.164704,0.69708 -0.03613,1.22533 -0.425298,1.11862 -0.01207,7.11033 0.490394,7.11033 0.21009,0 0.28037,-0.64575 0.17348,-1.59407 -0.13744,-1.21934 -0.0238,-1.7922 0.48329,-2.43689 0.38246,-0.48624 0.68904,-1.49094 0.72459,-2.37468 l 0.0616,-1.53186 0.13496,1.49771 c 0.1425,1.58129 1.04205,2.45985 2.10213,2.05306 0.4419,-0.16957 0.45971,-0.30608 0.097,-0.74317 -0.68515,-0.82555 0.1051,-2.27843 1.23929,-2.27843 0.61721,0 0.88951,-0.19196 0.88951,-0.62706 0,-0.91776 1.00169,-2.19516 1.72136,-2.19516 0.38764,0 0.92882,-0.61231 1.43245,-1.62073 0.73526,-1.47221 0.89453,-1.59694 1.73823,-1.36126 1.23386,0.34467 4.68232,0.25152 5.07081,-0.13698 0.17551,-0.1755 -0.54405,-0.30802 -1.67257,-0.30802 -2.42125,0 -2.93187,-0.39463 -2.11795,-1.63682 0.77511,-1.18297 1.8635,-1.52779 2.42002,-0.76671 0.34723,0.47486 0.77074,0.53783 2.27507,0.33828 2.04993,-0.27194 2.93568,-0.94453 1.07161,-0.81373 -2.698,0.18932 -3.17537,0.0326 -3.05482,-1.00304 0.0705,-0.60558 0.46484,-1.15638 1.07005,-1.49456 0.87764,-0.49042 0.99755,-0.48204 1.42269,0.0994 0.38984,0.53313 0.76063,0.59561 2.31269,0.38972 2.04993,-0.27193 2.93568,-0.94452 1.07162,-0.81372 -3.24298,0.22756 -3.96675,-0.41273 -2.25733,-1.99697 0.78921,-0.73141 1.25991,-0.80956 5.55625,-0.92239 4.18915,-0.11003 4.83719,-0.21232 6.02546,-0.95109 1.75671,-1.0922 2.48621,-2.5772 2.48847,-5.06561 0.001,-1.64331 -0.18691,-2.291 -1.02613,-3.52778 -1.25797,-1.85391 -1.44101,-1.99323 -2.39189,-1.82054 -0.44834,0.0814 -0.53989,0.0435 -0.22553,-0.0935 0.29104,-0.12684 0.97655,-0.54399 1.52336,-0.92701 0.63818,-0.44703 1.64881,-0.71686 2.82222,-0.75353 2.10497,-0.0658 3.07718,-0.46938 2.30666,-0.9576 -0.65979,-0.41807 -2.06613,-0.39173 -2.06613,0.0387 0,0.19403 -0.15875,0.35278 -0.35278,0.35278 -0.7197,0 -0.31437,-0.63621 0.97428,-1.52925 0.83185,-0.57647 1.72044,-0.89058 2.38125,-0.84173 0.73651,0.0544 1.05419,-0.0815 1.05419,-0.45124 0,-1.04757 0.64226,-1.3532 1.56955,-0.74692 0.51104,0.33413 0.76,0.38781 0.60085,0.12956 -0.15176,-0.24626 -0.10679,-0.44098 0.10184,-0.44098 0.20548,0 0.3736,0.13323 0.3736,0.29607 0,0.35053 1.80576,0.2905 2.40518,-0.08 0.72726,-0.44947 0.49703,-1.34468 -0.28852,-1.12182 -0.38805,0.11009 -1.01025,0.28617 -1.38266,0.39129 -0.80476,0.22717 -1.36118,-1.02292 -0.77154,-1.7334 0.26503,-0.31935 0.25301,-0.57059 -0.0414,-0.86501 -0.5882,-0.5882 -0.24913,-0.52039 1.69246,0.33847 2.17691,0.96295 5.24859,4.02844 6.1547,6.14232 1.14573,2.67288 1.55815,6.05011 1.10824,9.07512 -0.8181,5.50047 -3.257,8.92009 -7.99885,11.21527 -1.61661,0.78249 -3.74868,1.55065 -4.73793,1.70703 -0.98925,0.15638 -1.90881,0.39451 -2.04348,0.52917 -0.48609,0.48609 0.4709,1.33606 2.19964,1.95368 3.79066,1.35425 5.26222,2.2651 5.99722,3.71207 0.38806,0.76395 3.20587,5.57473 6.26181,10.69061 3.05594,5.11588 5.55625,9.37041 5.55625,9.45452 0,0.0841 -4.16719,0.15157 -9.26042,0.14994 l -9.26042,-0.003 -0.9899,-1.84912 c -0.54446,-1.01716 -1.87806,-3.59551 -2.96357,-5.72981 -1.08552,-2.13431 -2.32212,-4.35681 -2.74801,-4.93889 -0.42589,-0.58209 -1.4871,-2.41312 -2.35824,-4.06896 -2.25734,-4.29068 -2.70005,-4.8828 -4.23682,-5.6668 -1.10356,-0.563 -1.9353,-0.67936 -4.26764,-0.59704 l -2.89693,0.10224 v 5.99722 c 0,3.29848 -0.0397,8.41816 -0.0882,11.37709 l -0.0882,5.37986 h -8.11389 -8.113884 z m 1.683258,3.46087 c 0.23626,-0.57037 0.30642,-1.23629 0.15591,-1.47981 -0.18348,-0.29688 -0.41832,-0.0423 -0.7127,0.77246 -0.546893,1.51375 -0.571059,1.74439 -0.18274,1.74439 0.17048,0 0.50328,-0.46666 0.73953,-1.03704 z m 2.63711,-2.09671 c -0.39422,-0.39421 -0.82358,0.5678 -0.61293,1.37331 l 0.22835,0.87323 0.27759,-1.03797 c 0.15268,-0.57088 0.20082,-1.11473 0.10699,-1.20857 z m 1.41102,-2.19756 c 0.20004,-0.18691 -0.11992,-0.31313 -0.79375,-0.31313 -0.78984,0 -1.12889,0.16607 -1.12889,0.55294 0,0.40929 0.20621,0.49064 0.79375,0.31313 0.43656,-0.1319 0.94456,-0.38072 1.12889,-0.55294 z m 2.83986,-2.78257 c 0.12314,-0.19926 -0.16578,-0.35278 -0.66392,-0.35278 -0.48507,0 -0.98005,0.15875 -1.09997,0.35278 -0.12314,0.19925 0.16579,0.35277 0.66392,0.35277 0.48507,0 0.98005,-0.15875 1.09997,-0.35277 z m 2.82222,-2.82223 c 0.12315,-0.19925 -0.16578,-0.35278 -0.66392,-0.35278 -0.48506,0 -0.98005,0.15875 -1.09997,0.35278 -0.12314,0.19926 0.16579,0.35278 0.66392,0.35278 0.48507,0 0.98006,-0.15875 1.09997,-0.35278 z m 2.78078,-2.75516 c 0.0971,-0.15714 -0.60789,-0.29755 -1.56668,-0.31201 -0.9588,-0.0145 -1.74326,0.11411 -1.74326,0.28571 0,0.39095 3.0695,0.41534 3.30994,0.0263 z m 9.74283,-10.78818 c 0,-0.0758 -0.55562,-0.20266 -1.23472,-0.28194 -0.6791,-0.0793 -1.23472,-0.0173 -1.23472,0.13779 0,0.15506 0.55562,0.28194 1.23472,0.28194 0.6791,0 1.23472,-0.062 1.23472,-0.13779 z m 7.40834,-0.56777 c 0.45603,-0.29471 0.44672,-0.34272 -0.0674,-0.34738 -0.32809,-0.003 -0.69465,0.15335 -0.81457,0.34738 -0.27593,0.44648 0.19108,0.44648 0.88195,0 z m 2.64583,-11.28889 c 0.11992,-0.19403 -0.0295,-0.35278 -0.33196,-0.35278 -0.30249,0 -0.54998,0.15875 -0.54998,0.35278 0,0.19403 0.14938,0.35278 0.33195,0.35278 0.18258,0 0.43008,-0.15875 0.54999,-0.35278 z m -31.57361,22.26664 c 0,-0.19403 0.15875,-0.45089 0.35278,-0.5708 0.19402,-0.11992 0.35277,-0.0593 0.35277,0.13475 0,0.19402 -0.15875,0.45089 -0.35277,0.5708 -0.19403,0.11992 -0.35278,0.0593 -0.35278,-0.13475 z m 14.99305,-10.97775 c -0.11991,-0.19403 0.11821,-0.35278 0.52917,-0.35278 0.41096,0 0.64908,0.15875 0.52917,0.35278 -0.11992,0.19403 -0.35804,0.35278 -0.52917,0.35278 -0.17112,0 -0.40925,-0.15875 -0.52917,-0.35278 z m -1.93487,-1.32292 c 0.003,-0.14552 0.15929,-0.5027 0.34737,-0.79375 0.27654,-0.4279 0.34301,-0.37727 0.34738,0.26459 0.003,0.43656 -0.15335,0.79375 -0.34738,0.79375 -0.19402,0 -0.35034,-0.11906 -0.34737,-0.26459 z m 21.16126,-15.88479 c 0,-0.38841 1.31499,-1.46804 1.52829,-1.25474 0.0972,0.0972 -0.12746,0.48108 -0.49935,0.85296 -0.72319,0.72319 -1.02894,0.84258 -1.02894,0.40178 z m 1.76389,-3.60618 c 0,-0.19403 0.22876,-0.35278 0.50835,-0.35278 0.27959,0 0.60646,0.15875 0.72638,0.35278 0.11991,0.19403 -0.10884,0.35278 -0.50835,0.35278 -0.39951,0 -0.72638,-0.15875 -0.72638,-0.35278 z"
         id="path62"
         inkscape:connector-curvature="0" />
      <path
         style="fill:#195dad;stroke-width:0.35277778"
         d="m 110.76739,184.99689 c 1.9792,-0.11298 3.75938,-0.36636 3.95597,-0.56305 0.19659,-0.19671 0.40884,-2.10171 0.47168,-4.23334 l 0.11425,-3.87569 0.0749,4.49791 0.0749,4.49792 -4.14514,-0.0592 -4.14514,-0.0592 z m 24.67937,-1.17556 c -0.4708,-0.82462 -2.04397,-3.83195 -3.49592,-6.68296 -1.96744,-3.86318 -2.51622,-5.23113 -2.15432,-5.37 0.26709,-0.1025 0.68113,0.12671 0.92008,0.50935 0.51519,0.82493 1.16827,0.90244 1.4486,0.17191 0.11919,-0.31061 -0.0895,-0.67926 -0.51283,-0.90581 -1.06486,-0.56989 -0.75574,-1.89175 0.47551,-2.03342 0.69295,-0.0797 0.97014,0.0463 0.97014,0.44097 0,0.30393 0.23813,0.5526 0.52917,0.5526 0.35718,0 0.52917,-0.35734 0.52917,-1.09946 0,-0.98253 -0.0938,-1.08153 -0.88195,-0.93086 -0.57871,0.11062 -0.88194,0.009 -0.88194,-0.29482 0,-0.32206 0.67251,-0.49545 2.20486,-0.56844 l 2.20486,-0.10503 0.10663,-1.85208 c 0.0909,-1.57844 0.0127,-1.85728 -0.52917,-1.88725 -0.42765,-0.0236 -0.34768,-0.11533 0.2443,-0.28005 1.19454,-0.33238 1.40378,-1.44868 0.27153,-1.44868 -0.46221,0 -1.14854,-0.23307 -1.52517,-0.51794 -0.66355,-0.50189 -0.6641,-0.5183 -0.0179,-0.52917 1.3875,-0.0234 3.55198,1.42082 4.19452,2.79861 0.34546,0.74076 0.94077,1.4286 1.32292,1.52853 0.82085,0.21466 0.8604,-0.0328 0.15443,-0.9662 -0.6529,-0.86323 -0.6574,-1.25549 -0.0144,-1.25549 0.62779,0 1.90991,1.59445 2.19478,2.72945 0.18384,0.7325 6.83148,12.01981 8.57311,14.55666 0.33301,0.48507 1.11982,1.79476 1.74846,2.91042 l 1.14298,2.02847 h -9.18324 -9.18324 z m -2.84216,-8.81944 c 0.13957,-0.24254 0.12495,-0.32438 -0.0325,-0.18187 -0.15744,0.1425 -0.48741,-0.016 -0.73327,-0.35223 -0.24585,-0.33623 -0.56198,-0.49634 -0.70251,-0.35582 -0.27735,0.27736 0.45547,1.33089 0.92575,1.33089 0.15882,0 0.40296,-0.19844 0.54253,-0.44097 z m 7.37259,-6.96736 c 0.11992,-0.19403 0.0499,-0.35278 -0.15557,-0.35278 -0.20548,0 -0.3736,0.15875 -0.3736,0.35278 0,0.19402 0.07,0.35278 0.15557,0.35278 0.0856,0 0.25368,-0.15876 0.3736,-0.35278 z m -1.18289,-2.11667 c -0.24715,-1.75008 -1.44565,-1.51234 -1.45754,0.28912 -0.004,0.648 0.15978,0.79483 0.78835,0.70556 0.62335,-0.0885 0.76701,-0.30206 0.66919,-0.99468 z m -11.32551,3.50292 c -1.32056,-2.47764 -1.25565,-3.11116 0.1077,-1.05101 0.51244,0.77436 1.13099,1.35923 1.37454,1.29971 0.24356,-0.0595 0.32403,-0.0417 0.17885,0.0396 -0.14519,0.0813 -0.16767,0.53151 -0.05,1.00052 0.39104,1.55805 -0.45414,0.88197 -1.61114,-1.28878 z m 10.73101,-11.44001 c 0.76868,-0.27378 1.46538,-0.43001 1.54823,-0.34717 0.20863,0.20864 -1.6244,0.87938 -2.35145,0.86044 -0.32691,-0.009 0.0345,-0.23949 0.80322,-0.51327 z m 4.776,-2.29212 c 0,-0.42768 0.98937,-0.89346 1.28015,-0.60268 0.10527,0.10527 -0.13971,0.36859 -0.54438,0.58516 -0.51018,0.27305 -0.73577,0.27842 -0.73577,0.0175 z m 0.58485,-1.92373 c -0.21585,-0.5625 1.36528,-1.74996 1.89456,-1.42284 0.6023,0.37224 0.37113,0.84301 -0.68112,1.38716 -0.86886,0.4493 -1.05265,0.45471 -1.21344,0.0357 z m 2.82094,-1.87015 c -0.21852,-0.35357 1.44112,-2.41426 1.71989,-2.13549 0.11991,0.11991 -0.0359,0.70902 -0.34622,1.30913 -0.55042,1.06437 -1.04331,1.36089 -1.37367,0.82636 z m 2.23866,-5.35887 c 0,-0.3766 0.15875,-0.78285 0.35277,-0.90276 0.20008,-0.12366 0.35278,0.17273 0.35278,0.68473 0,0.49652 -0.15875,0.90277 -0.35278,0.90277 -0.19402,0 -0.35277,-0.30813 -0.35277,-0.68474 z"
         id="path60"
         inkscape:connector-curvature="0" />
    </g>
  </g>
</svg>
