<?xml version="1.0" encoding="UTF-8" standalone="no"?>
<!-- Created with Inkscape (http://www.inkscape.org/) -->

<svg
   xmlns:dc="http://purl.org/dc/elements/1.1/"
   xmlns:cc="http://creativecommons.org/ns#"
   xmlns:rdf="http://www.w3.org/1999/02/22-rdf-syntax-ns#"
   xmlns:svg="http://www.w3.org/2000/svg"
   xmlns="http://www.w3.org/2000/svg"
   xmlns:sodipodi="http://sodipodi.sourceforge.net/DTD/sodipodi-0.dtd"
   xmlns:inkscape="http://www.inkscape.org/namespaces/inkscape"
   width="210mm"
   height="297mm"
   viewBox="0 0 210 297"
   version="1.1"
   id="svg47"
   inkscape:version="0.92.1 r15371"
   sodipodi:docname="spark.svg">
  <defs
     id="defs41" />
  <sodipodi:namedview
     id="base"
     pagecolor="#ffffff"
     bordercolor="#666666"
     borderopacity="1.0"
     inkscape:pageopacity="0.0"
     inkscape:pageshadow="2"
     inkscape:zoom="0.35"
     inkscape:cx="400"
     inkscape:cy="560"
     inkscape:document-units="mm"
     inkscape:current-layer="layer1"
     showgrid="false"
     inkscape:window-width="1920"
     inkscape:window-height="1001"
     inkscape:window-x="-9"
     inkscape:window-y="-9"
     inkscape:window-maximized="1" />
  <metadata
     id="metadata44">
    <rdf:RDF>
      <cc:Work
         rdf:about="">
        <dc:format>image/svg+xml</dc:format>
        <dc:type
           rdf:resource="http://purl.org/dc/dcmitype/StillImage" />
        <dc:title></dc:title>
      </cc:Work>
    </rdf:RDF>
  </metadata>
  <g
     inkscape:label="Layer 1"
     inkscape:groupmode="layer"
     id="layer1">
    <g
       id="g60"
       transform="translate(0.94370872,1.7942946)">
      <path
         style="fill:#fefefe;stroke-width:0.35714284"
         d="m 33.639881,144.96175 v -44.10714 h 74.999999 75 v 44.10714 44.10714 h -75 -74.999999 z"
         id="path76"
         inkscape:connector-curvature="0" />
      <path
         style="fill:#d0d0d0;stroke-width:0.35714284"
         d="m 58.907738,183.48306 c -0.384823,-0.11134 -0.625,-0.53123 -0.625,-1.09267 0,-1.87336 2.533629,-21.08116 3.047378,-23.10261 1.122343,-4.41606 4.365465,-8.68372 8.381194,-11.02889 7.772246,-4.53897 18.053753,-1.12741 20.55656,6.82097 0.928861,2.94987 0.585322,7.43146 -0.798571,10.4176 -2.257543,4.8713 -6.019354,8.22395 -10.627089,9.47121 -2.739529,0.74155 -8.019697,0.58569 -10.46092,-0.3088 -0.829725,-0.30402 -1.577698,-0.44082 -1.662162,-0.30401 -0.08446,0.13681 -0.423021,2.09696 -0.75235,4.35589 -0.329328,2.25893 -0.751707,4.26499 -0.938621,4.45792 -0.362747,0.37443 -5.075438,0.61574 -6.120419,0.31339 z m 18.940043,-15.68227 c 5.039739,-2.10201 7.019079,-8.87469 3.566857,-12.20467 -2.115436,-2.04054 -4.888707,-2.4476 -7.774757,-1.14119 -2.873886,1.30091 -4.728253,3.68163 -5.208898,6.68741 -0.41308,2.58326 1.24753,5.69218 3.584048,6.70991 1.480207,0.64474 4.22155,0.62055 5.83275,-0.0515 z m -36.289061,7.75472 c -2.285184,-0.81825 -4.394355,-2.77806 -5.605539,-5.20859 -1.442999,-2.89572 -1.328842,-3.15084 2.240271,-5.00651 1.71875,-0.89363 3.319576,-1.62565 3.55739,-1.62672 0.237814,-0.001 0.958008,0.80095 1.600432,1.78226 1.506658,2.30145 3.070027,3.10141 4.956524,2.5362 1.442243,-0.43211 3.189226,-2.18853 3.189226,-3.20645 0,-1.01228 -1.870039,-3.56636 -5.499593,-7.5113 -4.155399,-4.51647 -5.027925,-6.13177 -5.032666,-9.31694 -0.0046,-3.0745 1.278816,-5.73357 3.942108,-8.16767 2.54387,-2.32495 5.167041,-3.33271 8.733008,-3.35501 2.0705,-0.0129 3.063727,0.16694 4.375192,0.79239 2.095901,0.99956 5.349933,4.44339 5.196805,5.49993 -0.117422,0.81018 -5.109686,4.86544 -6.000568,4.87432 -0.294643,0.003 -0.940292,-0.48675 -1.434775,-1.08818 -1.091744,-1.32788 -3.156559,-1.89873 -5.04636,-1.39513 -2.649307,0.70599 -2.258187,1.5903 3.39896,7.68492 2.362947,2.54568 4.200684,4.88099 4.721888,6.00037 2.133702,4.58251 0.210218,10.86047 -4.406339,14.38163 -3.38058,2.57846 -9.235959,3.63742 -12.885964,2.33048 z m 60.2047,-0.0886 c -5.465471,-1.28812 -9.43196,-5.8858 -9.825739,-11.38934 -0.330261,-4.61583 1.191457,-8.67295 4.632839,-12.3518 5.87366,-6.27895 15.41836,-7.3075 21.14586,-2.27869 3.0757,2.7005 4.35034,6.23638 3.96765,11.00632 -0.49115,6.12166 -1.53727,13.62656 -1.97253,14.15101 -0.32108,0.38688 -1.16951,0.53595 -3.05043,0.53595 -1.43309,0 -2.85984,-0.0976 -3.17055,-0.21678 -0.73281,-0.28121 -0.71806,-0.9256 0.18544,-8.10104 0.82613,-6.56096 0.73203,-8.46672 -0.50896,-10.30823 -1.75516,-2.60447 -4.3941,-3.3977 -7.87854,-2.36819 -2.09656,0.61944 -4.94568,3.54474 -5.544683,5.69292 -1.178839,4.22764 1.327693,8.09489 5.469263,8.43834 1.65246,0.13704 2.33339,-0.0123 4.34062,-0.95153 1.30939,-0.61273 2.60373,-1.11406 2.87632,-1.11406 0.6123,0 0.64165,1.42431 0.0941,4.56828 -0.67691,3.8871 -2.42029,5.09218 -7.27711,5.03018 -1.17857,-0.015 -2.74619,-0.16955 -3.4836,-0.34334 z m 20.21142,-0.88435 c -0.33114,-0.86295 2.02131,-18.62215 2.80465,-21.17299 1.34164,-4.36882 4.64391,-6.48982 10.08593,-6.47803 3.53494,0.008 3.57385,0.0504 3.29918,3.62137 -0.26882,3.49478 -0.58404,3.87055 -3.25369,3.87863 -0.99371,0.003 -1.98358,0.12355 -2.19971,0.26786 -1.00827,0.67324 -1.04922,0.89685 -3.19505,17.44226 -0.31802,2.4521 -1.13332,2.9987 -4.47282,2.9987 -2.25806,0 -2.89916,-0.11654 -3.06849,-0.5578 z m 15.28805,0.0842 c -0.38513,-0.46405 0.30496,-6.80168 2.45485,-22.54481 0.40367,-2.95597 0.81651,-6.04575 0.91743,-6.86618 0.27992,-2.27566 1.46415,-3.66965 4.91735,-5.78838 2.35562,-1.4453 3.23592,-1.82136 3.54352,-1.51377 0.30759,0.3076 0.2136,2.06496 -0.37837,7.07402 -0.4332,3.6656 -0.73896,6.71341 -0.67948,6.7729 0.0595,0.0595 2.15925,-2.13794 4.66614,-4.88317 2.50688,-2.74523 4.79533,-4.99133 5.08543,-4.99133 0.2901,0 0.75448,0.52232 1.03195,1.16071 0.27864,0.64106 0.51076,0.88652 0.51848,0.54828 0.0308,-1.34877 1.23682,-1.41933 5.36317,-0.31378 2.16509,0.58008 3.93652,0.9608 3.93652,0.84605 0,-0.11475 -1.04464,-2.21002 -2.32143,-4.65615 -1.47611,-2.82801 -2.32143,-4.87245 -2.32143,-5.6145 0,-0.9669 0.64977,-1.92476 3.78974,-5.58666 2.24864,-2.6224 3.59205,-4.4591 3.30357,-4.51664 -0.26739,-0.0533 -1.69152,0.23148 -3.16473,0.63293 -7.51616,2.04813 -6.83939,1.94099 -8.31167,1.31584 -0.78569,-0.33361 -1.60455,-1.04076 -1.96428,-1.6963 -1.84386,-3.36006 -4.16972,-7.11978 -4.40447,-7.11978 -0.29899,0 -0.791,2.18476 -1.54465,6.85892 -0.80665,5.00289 -1.58424,5.81805 -6.91717,7.25138 -1.70927,0.4594 -3.81171,1.13601 -4.6721,1.50358 l -1.56434,0.66832 4.06111,1.77824 c 2.55423,1.11842 4.10364,1.99913 4.17575,2.37356 0.14917,0.77455 -5.44129,4.566 -6.73252,4.566 -1.56595,0 -10.07817,-4.42898 -11.39524,-5.92904 -1.03509,-1.1789 -1.14727,-1.50829 -0.98973,-2.90601 0.33242,-2.94917 2.25894,-4.08957 11.97433,-7.08817 4.87989,-1.50615 5.59596,-2.0894 5.964,-4.85768 0.5271,-3.96473 1.96765,-10.32619 2.63154,-11.62086 2.07144,-4.0396 5.65187,-4.34607 8.2996,-0.71043 0.60284,0.82778 1.99526,3.03183 3.09427,4.8979 2.43445,4.13358 3.17298,5 4.26199,5 0.46305,0 2.40378,-0.46367 4.31274,-1.03039 1.90896,-0.56671 4.78475,-1.29806 6.39065,-1.62523 2.63295,-0.5364 3.12039,-0.54246 4.9615,-0.0617 1.12292,0.29324 2.2034,0.69487 2.40105,0.89252 0.5483,0.5483 -0.31504,4.24775 -1.35968,5.82631 -0.49046,0.74113 -2.37727,3.05827 -4.19293,5.14921 -4.38779,5.05307 -4.64047,5.39873 -4.64047,6.34824 0,0.44844 0.97499,2.56873 2.16664,4.71175 3.73706,6.72061 4.37605,10.02418 2.33392,12.06631 -0.48957,0.48957 -1.60481,1.04255 -2.47831,1.22885 -2.75497,0.58758 -9.6226,-0.98817 -11.86182,-2.72164 -0.45194,-0.34987 -1.20696,-1.67392 -1.67782,-2.94233 l -0.85611,-2.30621 -0.0186,2.25563 c -0.0102,1.24059 -0.19706,2.60666 -0.41517,3.03571 -0.21811,0.42905 -1.76756,2.17211 -3.44321,3.87346 -2.16311,2.19627 -2.98137,3.26347 -2.82155,3.67994 0.1238,0.32261 2.79824,4.18293 5.9432,8.57848 3.14497,4.39555 5.71812,8.3244 5.71812,8.73077 0,0.70375 -0.19098,0.73849 -4.01786,0.73093 -3.26721,-0.006 -4.1599,-0.12323 -4.77816,-0.625 -0.41817,-0.33939 -2.58251,-3.3492 -4.80965,-6.68849 l -4.04935,-6.07143 -0.43803,2.32143 c -0.24091,1.27679 -0.54136,3.52679 -0.66766,5 -0.29185,3.40439 -0.73973,4.85974 -1.70323,5.53461 -1.00556,0.70432 -6.0553,0.75252 -6.62734,0.0633 z"
         id="path74"
         inkscape:connector-curvature="0" />
      <path
         style="fill:#afafaf;stroke-width:0.35714284"
         d="m 58.734143,182.7296 c -0.36943,-0.9602 2.366604,-22.09036 3.174069,-24.51306 1.47602,-4.42862 4.964822,-8.34122 9.22549,-10.34614 1.873686,-0.88169 2.902093,-1.11753 5.392243,-1.23658 5.31124,-0.25394 9.205315,1.49489 11.843543,5.31892 2.864275,4.15168 3.0123,8.9643 0.436054,14.17698 -3.82634,7.74207 -12.203668,11.05291 -20.531957,8.11451 -0.841962,-0.29706 -1.610254,-0.46069 -1.707317,-0.36363 -0.09706,0.0971 -0.480186,2.14236 -0.851386,4.5451 -0.371199,2.40275 -0.869393,4.49224 -1.107097,4.6433 -0.237704,0.15107 -1.602412,0.27713 -3.032684,0.28014 -2.150111,0.005 -2.642141,-0.10278 -2.840958,-0.61954 z m 18.561388,-14.44242 c 1.897796,-0.5686 4.689171,-3.13729 5.454211,-5.0191 1.438964,-3.5395 0.269607,-7.6477 -2.579825,-9.06343 -1.872197,-0.9302 -5.180115,-0.87402 -7.06575,0.12 -3.05965,1.61291 -4.911951,4.54546 -4.919367,7.78831 -0.01076,4.70633 4.287592,7.61926 9.110731,6.17422 z m -35.086534,7.23373 c -2.595508,-0.78952 -4.667698,-2.63358 -6.08817,-5.41794 -1.136505,-2.22773 -0.877305,-2.76614 2.161911,-4.49069 1.473214,-0.83595 2.955694,-1.52519 3.2944,-1.53165 0.338706,-0.006 0.856335,0.45335 1.150287,1.02179 0.293952,0.56844 1.033656,1.53272 1.643787,2.14286 0.947578,0.94757 1.371822,1.10932 2.909587,1.10932 1.615019,0 1.942929,-0.14267 3.186813,-1.38655 0.762605,-0.76261 1.386555,-1.69543 1.386555,-2.07293 0,-1.07342 -1.788399,-3.55134 -5.341539,-7.40097 -1.796549,-1.94647 -3.675247,-4.23658 -4.174883,-5.08915 -3.39664,-5.79592 1.144989,-13.82508 8.730429,-15.43454 4.186383,-0.88826 6.833211,-0.12578 9.774885,2.8159 1.188214,1.18821 2.082536,2.3979 2.082536,2.81689 0,0.49514 -0.85383,1.37701 -2.621079,2.70715 -1.441594,1.08502 -2.818458,1.97278 -3.059697,1.97278 -0.24124,0 -0.969124,-0.5625 -1.61752,-1.25 -1.079282,-1.14437 -1.350852,-1.25 -3.213782,-1.25 -2.579701,0 -3.416493,0.4334 -3.416493,1.7695 0,1.07102 1.031356,2.37101 6.148943,7.75056 4.61046,4.84647 5.469677,8.86159 2.976049,13.9071 -1.902613,3.84967 -4.58453,5.9986 -8.931018,7.15613 -1.93932,0.51646 -5.530708,0.59591 -6.982001,0.15444 z m 58.502653,-0.71266 c -7.79264,-2.49166 -10.797844,-11.29214 -6.64209,-19.4508 1.770078,-3.47506 6.4485,-7.17947 10.42743,-8.25651 3.34283,-0.90487 7.61313,-0.62285 10.13786,0.6695 2.66912,1.36627 4.53986,3.1831 5.69082,5.52683 0.90578,1.84446 0.99188,2.36589 0.98246,5.95019 -0.0108,4.0918 -1.09078,13.82524 -1.65451,14.91072 -0.26721,0.51451 -0.81971,0.625 -3.12543,0.625 -1.81088,0 -2.9279,-0.1578 -3.1603,-0.44643 -0.24439,-0.30354 -0.14281,-1.98964 0.31738,-5.26786 1.00728,-7.17545 1.00933,-10.54704 0.007,-12.32955 -1.28543,-2.28711 -2.94467,-3.2091 -5.7424,-3.19088 -5.50325,0.0358 -9.629482,4.83255 -8.537418,9.92466 1.001958,4.67197 6.051358,6.56715 10.602668,3.97948 1.60453,-0.91226 2.3844,-1.08803 2.6831,-0.60473 0.31096,0.50315 -0.77941,5.8184 -1.38235,6.73861 -0.32405,0.49457 -1.13402,1.12686 -1.79994,1.4051 -1.70341,0.71173 -6.30515,0.61591 -8.80478,-0.18333 z m 23.19609,0.0814 c -1.64273,-0.14103 -1.69643,-0.18208 -1.69643,-1.29654 0,-2.08252 2.14128,-17.87785 2.67409,-19.72561 0.69935,-2.42533 2.34259,-4.60711 4.19612,-5.57132 1.91807,-0.99779 8.06415,-1.41706 8.7451,-0.59658 0.40225,0.48468 0.0479,5.22803 -0.4509,6.03503 -0.11361,0.18383 -1.09157,0.33423 -2.17325,0.33423 -1.08168,0 -2.26468,0.15948 -2.6289,0.3544 -1.08296,0.57959 -1.33932,1.89537 -3.19536,16.40019 -0.48423,3.78421 -1.34061,4.42076 -5.47047,4.0662 z m 15.33813,-0.0126 c -0.94406,-0.074 -1.79354,-0.33804 -1.88911,-0.58709 -0.16853,-0.43918 1.06197,-10.67667 2.89994,-24.12677 0.76127,-5.57094 1.03045,-6.75271 1.74896,-7.67857 1.13857,-1.46714 6.60205,-4.75992 6.95371,-4.19092 0.14307,0.2315 -0.10302,3.3533 -0.54688,6.93735 -0.44386,3.58404 -0.81534,6.63697 -0.82552,6.78429 -0.0552,0.79874 1.03699,-0.20534 5.14744,-4.73214 2.49706,-2.75 4.7545,-5 5.01653,-5 0.49608,0 1.04546,1.38566 1.44215,3.63743 0.3996,2.26831 -0.39544,3.77516 -3.86457,7.3245 -1.93739,1.98219 -3.13366,3.48007 -3.01866,3.77976 0.10477,0.27303 2.85542,4.24596 6.11256,8.82874 4.84131,6.81173 5.84396,8.42645 5.49408,8.84802 -0.33626,0.40517 -1.18873,0.48513 -3.97768,0.37311 l -3.54971,-0.14257 -1.36692,-1.54033 c -0.75181,-0.84718 -2.85699,-3.85117 -4.67819,-6.67551 -1.82119,-2.82435 -3.47044,-5.08488 -3.66498,-5.0234 -0.40933,0.12935 -1.07947,3.7911 -1.44792,7.91168 -0.14052,1.57142 -0.48337,3.30601 -0.76189,3.85462 -0.51375,1.01198 -1.81134,1.73384 -2.90615,1.61671 -0.33096,-0.0354 -1.3737,-0.12491 -2.31719,-0.19891 z m 29.57258,-23.11723 c -3.55824,-0.81503 -6.1586,-1.94347 -7.12496,-3.09193 -0.98699,-1.17297 -2.16296,-4.68418 -1.84571,-5.51092 0.27029,-0.70435 0.61408,-0.66935 5.17269,0.52665 2.22868,0.58472 3.97655,0.88465 3.97655,0.68237 0,-0.19851 -1.13546,-2.55857 -2.52325,-5.24458 -2.21151,-4.28028 -2.47857,-5.00121 -2.16153,-5.83508 0.19895,-0.52328 1.97727,-2.82894 3.95183,-5.12368 1.97455,-2.29475 3.5901,-4.32944 3.5901,-4.52154 0,-0.47953 -2.2985,-0.0607 -6.50655,1.18557 -1.90896,0.56536 -3.80534,1.02794 -4.21417,1.02794 -1.44823,0 -2.83689,-1.0679 -3.7616,-2.89273 -1.27514,-2.51637 -4.09568,-6.86261 -4.31271,-6.64558 -0.27654,0.27654 -1.09382,4.03794 -1.56808,7.21688 -0.67263,4.50851 -1.68635,5.80817 -5.31817,6.81826 -3.38464,0.94133 -7.69661,2.36399 -7.99991,2.63942 -0.15858,0.14401 1.60928,1.07655 3.92857,2.07231 2.45198,1.05273 4.26437,2.04119 4.33032,2.36172 0.0732,0.35576 -0.87665,1.19319 -2.67857,2.36155 -2.33938,1.51684 -3.00104,1.78569 -4.08157,1.65846 -2.03641,-0.23979 -9.37447,-3.9854 -10.64681,-5.43451 -1.99316,-2.27009 -1.27223,-5.04458 1.70229,-6.5513 1.3331,-0.67526 8.69277,-3.22402 11.34819,-3.93003 1.91524,-0.50921 3.2486,-1.58253 3.48311,-2.8038 0.10327,-0.53779 0.62003,-3.30815 1.14836,-6.15637 0.52833,-2.84821 1.27792,-5.86261 1.66576,-6.69865 1.36498,-2.94247 3.62574,-3.98386 5.99206,-2.76019 1.10106,0.56938 3.51053,3.91295 6.025,8.36073 1.6092,2.84649 2.30102,3.56888 3.43495,3.58676 0.39626,0.006 2.56591,-0.53049 4.82143,-1.19275 6.56946,-1.92889 8.73807,-2.21827 11.21898,-1.49705 l 2.07517,0.60327 -0.24131,1.81908 c -0.37445,2.8228 -1.1865,4.05299 -7.1926,10.89626 -3.57545,4.07381 -3.64211,4.42438 -1.52913,8.0423 3.52858,6.04176 4.82257,10.13057 3.80401,12.0201 -1.1705,2.1714 -4.06793,2.90317 -7.96274,2.01106 z"
         id="path72"
         inkscape:connector-curvature="0" />
      <path
         style="fill:#8f8f8f;stroke-width:0.35714284"
         d="m 58.843269,182.68047 c -0.210873,-0.3412 0.581216,-7.45513 1.959504,-17.59876 0.391388,-2.88045 1.022028,-6.13941 1.401423,-7.24214 1.503566,-4.37019 5.542685,-8.53511 9.920321,-10.22929 2.907471,-1.12522 7.677425,-1.1332 10.515946,-0.0176 2.688586,1.05668 5.353993,3.49626 6.606432,6.0467 0.892957,1.81841 1.000129,2.41935 1.000129,5.60807 0,3.36587 -0.07397,3.7256 -1.285122,6.25 -3.785225,7.88953 -10.848614,11.10096 -19.56696,8.89627 -1.623797,-0.41062 -3.005851,-0.69187 -3.071231,-0.625 -0.06538,0.0669 -0.414738,2.13054 -0.776351,4.58589 l -0.657479,4.46429 -2.916721,0.10325 c -1.611407,0.057 -3.01212,-0.0511 -3.129891,-0.24167 z m 19.69163,-14.74585 c 2.817611,-1.31293 5.089296,-4.79203 5.089296,-7.7943 0,-3.71304 -2.473264,-6.45743 -6.052814,-6.71635 -3.525068,-0.25498 -6.6375,1.36241 -8.395972,4.36302 -3.944782,6.73126 2.258226,13.4566 9.35949,10.14763 z m -35.609304,7.59777 c -2.831264,-0.59882 -5.254554,-2.62959 -6.647356,-5.57064 -0.465116,-0.98215 -0.847236,-1.9736 -0.849155,-2.20322 -0.0019,-0.22963 1.390277,-1.17725 3.093769,-2.10582 l 3.097258,-1.68832 0.657005,0.85582 c 2.821249,3.67499 3.702187,4.21888 6.011695,3.71163 1.589093,-0.34902 3.565655,-2.35234 3.564021,-3.61226 -0.0019,-1.44181 -0.783247,-2.56656 -5.181002,-7.45783 -2.119315,-2.35714 -4.18258,-5.00893 -4.585033,-5.89286 -2.153817,-4.73054 0.701207,-11.00344 6.143098,-13.49726 2.583462,-1.1839 7.053212,-1.51316 9.07481,-0.66849 2.708102,1.13152 5.91748,4.45537 5.434249,5.62809 -0.113759,0.27607 -0.881695,0.99438 -1.706525,1.59624 -0.82483,0.60187 -2.023407,1.47687 -2.663504,1.94446 l -1.163814,0.85016 -1.442681,-1.40874 c -1.351125,-1.31934 -1.576951,-1.40874 -3.558409,-1.40874 -2.495106,0 -3.815683,0.91344 -3.446596,2.38399 0.116209,0.46302 2.128441,2.94025 4.471628,5.50495 5.294108,5.79461 5.929069,6.91882 5.932699,10.50391 0.0022,2.19971 -0.181513,3.07967 -1.027771,4.92216 -1.442778,3.14123 -4.444938,5.8859 -7.447817,6.80902 -2.660916,0.818 -6.038995,1.16786 -7.760569,0.80375 z m 59.332765,-0.39726 c -3.81025,-0.80384 -6.980808,-3.21087 -8.598261,-6.52766 -1.423107,-2.91825 -1.701375,-5.51308 -0.951689,-8.8744 1.480235,-6.63683 6.766946,-11.6444 13.53576,-12.82105 4.77218,-0.82957 9.1164,0.56925 12.11067,3.8996 3.10479,3.45328 3.45279,6.35265 2.08402,17.36286 -0.54922,4.4178 -0.84908,5.81429 -1.32285,6.16072 -0.6959,0.50885 -4.68434,0.59921 -5.43606,0.12315 -0.41907,-0.26538 -0.37763,-1.21642 0.26821,-6.15524 0.42012,-3.21275 0.7637,-6.69027 0.7635,-7.72783 -10e-4,-5.97681 -5.04728,-9.02887 -10.5095,-6.35646 -3.42725,1.6768 -5.44294,4.94277 -5.10019,8.2637 0.399797,3.87365 2.46763,5.93046 6.20128,6.1682 2.02287,0.12881 2.56575,0.0111 4.62487,-1.00258 1.28314,-0.63168 2.4226,-1.05889 2.53215,-0.94934 0.32036,0.32036 -0.55957,5.52987 -1.11569,6.60528 -0.27955,0.54059 -0.93692,1.1782 -1.46082,1.4169 -1.27814,0.58236 -5.69181,0.82208 -7.6254,0.41415 z m 20.1439,-0.68906 c -0.22661,-0.36668 1.72584,-16.41692 2.36265,-19.4222 1.09791,-5.18136 4.45131,-7.74948 10.10051,-7.73522 3.10727,0.008 3.19975,0.11485 2.89647,3.35136 -0.27564,2.94154 -0.84664,3.70092 -2.47543,3.29212 -1.2003,-0.30126 -2.77687,0.25498 -3.47892,1.22742 -0.57227,0.79266 -1.67113,7.53257 -2.63648,16.17085 -0.32768,2.93223 -0.94302,3.45278 -4.08153,3.45278 -1.36341,0 -2.57268,-0.1517 -2.68727,-0.33711 z m 15.61262,0.10786 c -0.63742,-0.2676 -0.5702,-1.43924 0.62152,-10.83226 2.33135,-18.37555 2.65589,-20.28167 3.62967,-21.31821 0.90385,-0.9621 5.73206,-4.04885 6.3331,-4.04885 0.51674,0 0.51804,-0.0276 -0.31222,6.62869 -0.77357,6.20167 -0.85952,7.66087 -0.45064,7.64971 0.14732,-0.004 2.27679,-2.24279 4.73214,-4.97504 2.45536,-2.73226 4.73798,-4.97897 5.0725,-4.9927 1.2641,-0.0519 1.82386,4.82021 0.78468,6.82975 -0.31426,0.60772 -1.84105,2.34094 -3.39285,3.8516 -1.55181,1.51066 -2.82147,3.03039 -2.82147,3.37719 0,0.34679 2.65179,4.3729 5.89286,8.94691 3.24107,4.574 5.89285,8.49549 5.89285,8.71441 0,0.51965 -6.92104,0.54189 -7.88621,0.0254 -0.38302,-0.20499 -2.62461,-3.25856 -4.98133,-6.78571 -2.3567,-3.52717 -4.42142,-6.41303 -4.58826,-6.41303 -0.34233,0 -0.98455,3.66084 -1.47335,8.3985 -0.45534,4.41333 -0.91344,4.97307 -4.14342,5.06272 -1.35473,0.0376 -2.66403,-0.016 -2.90957,-0.11904 z m 29.32035,-23.33692 c -3.13417,-0.82161 -5.32662,-1.9065 -5.85751,-2.89847 -0.70857,-1.32399 -1.66165,-4.41441 -1.50332,-4.87465 0.22621,-0.65755 1.28913,-0.55877 5.36638,0.49875 2.01586,0.52285 3.76197,0.85386 3.88024,0.73558 0.11828,-0.11827 -0.92838,-2.38857 -2.3259,-5.0451 -1.39752,-2.65653 -2.54095,-5.2137 -2.54095,-5.6826 0,-0.89445 0.57593,-1.68097 5.08928,-6.95021 2.42333,-2.82918 3.18658,-4.00284 2.60312,-4.00284 -0.52434,0 -6.33301,1.47669 -7.64802,1.94429 -2.00172,0.71179 -4.30769,0.71023 -5.32684,-0.004 -0.43919,-0.30762 -1.13983,-1.23173 -1.55698,-2.05357 -1.42993,-2.81722 -4.32969,-7.07513 -4.62039,-6.78443 -0.15986,0.15986 -0.63837,2.29948 -1.06333,4.7547 -1.27643,7.37447 -1.86213,8.36322 -5.51256,9.30605 -3.61545,0.9338 -8.39215,2.66011 -8.28123,2.99285 0.0675,0.20255 1.79769,1.09399 3.84485,1.98099 4.70971,2.04064 4.76328,2.0751 4.22818,2.71985 -0.58646,0.70665 -5.46488,3.7143 -6.0246,3.7143 -0.71182,0 -6.74631,-2.7841 -9.04118,-4.17128 -4.2676,-2.57963 -4.15457,-5.86429 0.27398,-7.96235 1.17857,-0.55836 4.52241,-1.77486 7.43076,-2.70333 2.90834,-0.92848 5.61916,-1.95639 6.02405,-2.28424 0.58317,-0.47222 0.94628,-1.74248 1.74728,-6.11245 1.34289,-7.32633 1.63474,-8.27459 3.05879,-9.93826 2.94655,-3.44238 5.49374,-1.90344 9.97904,6.02906 2.25602,3.98989 2.85989,4.64285 4.29378,4.64285 0.63755,0 3.14078,-0.57428 5.56274,-1.27619 5.13288,-1.48756 8.74264,-1.87335 10.83213,-1.15766 1.37846,0.47214 1.42457,0.53908 1.31444,1.90801 -0.17492,2.17441 -1.17297,3.99053 -4.04388,7.3585 -6.84401,8.02896 -6.4582,7.497 -6.23751,8.60046 0.11341,0.56705 0.87469,2.17561 1.69174,3.57458 3.56742,6.10827 4.66911,9.92633 3.49647,12.11744 -0.94366,1.76325 -4.70294,2.18432 -9.13305,1.02298 z"
         id="path70"
         inkscape:connector-curvature="0" />
      <path
         style="fill:#6f6f6f;stroke-width:0.35714284"
         d="m 58.917306,182.57974 c -0.234659,-0.70398 2.491344,-21.40051 3.133323,-23.78901 1.183603,-4.40363 4.670828,-8.46099 9.089252,-10.57528 2.162957,-1.03501 2.589611,-1.11084 6.25,-1.11084 3.485707,0 4.150004,0.10445 5.892857,0.92654 5.373307,2.53457 8.127318,8.42766 6.644107,14.21719 -2.21721,8.65463 -9.716321,13.85564 -18.101889,12.55457 -1.392568,-0.21606 -3.117704,-0.63759 -3.833634,-0.93672 -1.7611,-0.73584 -1.974663,-0.38355 -2.550704,4.20757 -0.253513,2.02054 -0.607329,3.95495 -0.786257,4.2987 -0.265158,0.50941 -0.81289,0.625 -2.961569,0.625 -1.694921,0 -2.685963,-0.14916 -2.775486,-0.41772 z M 78.42681,168.17296 c 3.192053,-1.52501 5.192007,-4.65109 5.205228,-8.13615 0.0135,-3.5605 -1.630189,-5.77692 -4.946368,-6.66988 -2.857978,-0.76957 -5.927996,0.23459 -8.331921,2.72527 -1.720407,1.78249 -2.428154,3.54849 -2.428154,6.05884 0,5.35965 5.402622,8.45778 10.501215,6.02192 z m -37.480095,6.47919 c -1.933862,-0.90052 -3.341067,-2.33875 -4.488008,-4.58694 -1.107732,-2.17133 -0.850388,-2.65879 2.287202,-4.33242 l 2.7846,-1.48533 0.786829,1.02215 c 0.432756,0.56218 1.339064,1.58407 2.014019,2.27086 1.156743,1.17702 1.33659,1.23963 3.132903,1.09067 1.487399,-0.12335 2.14705,-0.38663 3.005181,-1.19943 2.548742,-2.4141 2.078339,-3.74919 -3.449894,-9.79139 -2.066777,-2.25893 -4.154845,-4.90209 -4.64015,-5.87369 -2.421307,-4.84757 0.367726,-10.99771 6.217623,-13.71057 1.65667,-0.76827 2.537226,-0.93261 5.042861,-0.94113 2.677117,-0.009 3.232565,0.1054 4.702159,0.9693 1.876172,1.10292 4.226412,3.65343 4.226412,4.58657 0,0.55365 -4.505134,4.25524 -5.178969,4.25524 -0.148595,0 -0.892793,-0.5625 -1.653773,-1.25 -1.213589,-1.09641 -1.613868,-1.24936 -3.257572,-1.24474 -2.420667,0.007 -3.626077,0.61345 -3.77479,1.89974 -0.140576,1.2159 0.491524,2.07739 5.192753,7.07726 1.97593,2.10144 3.915005,4.54306 4.382581,5.5184 1.652042,3.44607 0.868374,8.07259 -2.005636,11.84061 -3.068864,4.02349 -10.813124,5.98646 -15.326331,3.88484 z m 59.532345,-0.225 c -1.050954,-0.37807 -2.175954,-0.88592 -2.500004,-1.12856 -1.765664,-1.32208 -3.4384,-3.1842 -4.280746,-4.76541 -0.86485,-1.62346 -0.951129,-2.14268 -0.949543,-5.71429 0.0018,-3.65467 0.07897,-4.09042 1.109382,-6.25 2.115082,-4.43287 6.162761,-7.89919 10.638841,-9.11081 3.16464,-0.85663 7.57289,-0.61144 10.03575,0.5582 2.5052,1.18974 4.9534,3.80855 5.90484,6.31635 0.68898,1.816 0.75764,2.51913 0.58454,5.98626 -0.17999,3.60518 -1.05497,11.3821 -1.49679,13.30357 -0.17249,0.75016 -0.37283,0.80357 -3.01403,0.80357 -1.5561,0 -2.90471,-0.12208 -2.99693,-0.27128 -0.0922,-0.14921 0.1374,-2.51975 0.51025,-5.26786 1.31016,-9.65659 0.84174,-12.68956 -2.27839,-14.75228 -1.21285,-0.80181 -1.83365,-0.95608 -3.79602,-0.9433 -2.67793,0.0174 -4.11901,0.62335 -6.21559,2.61336 -2.17176,2.06137 -2.835618,3.67027 -2.676482,6.4866 0.173954,3.07851 1.178902,4.6538 3.791062,5.9426 2.31469,1.14203 4.54544,1.00582 7.20138,-0.43972 0.9582,-0.52152 1.89173,-0.8558 2.0745,-0.74283 0.41362,0.25562 -0.14765,4.22796 -0.82934,5.86971 -0.67563,1.62714 -2.28027,2.22238 -5.94796,2.2064 -1.99129,-0.009 -3.58234,-0.23751 -4.86872,-0.70028 z m 23.42868,0.0959 c -1.66292,-0.17395 -1.65052,0.10091 -0.43014,-9.52962 1.54357,-12.18095 2.25343,-14.3126 5.37559,-16.14231 1.73529,-1.01695 4.90417,-1.53089 7.46526,-1.21076 l 1.42857,0.17857 -0.12795,2.32143 c -0.18021,3.26971 -0.40512,3.57143 -2.66229,3.57143 -2.29166,0 -3.3171,0.65356 -3.80269,2.42363 -0.37061,1.35094 -1.57984,10.0243 -2.02498,14.5244 -0.18829,1.90349 -0.43722,2.67528 -1.06551,3.30357 -0.81609,0.8161 -1.20441,0.86839 -4.15586,0.55966 z m 15.26786,-0.0414 -1.42858,-0.23419 0.0892,-2.0156 c 0.0491,-1.10858 0.66601,-6.3318 1.37103,-11.60714 0.70502,-5.27535 1.49049,-11.21682 1.74549,-13.20327 0.26841,-2.09089 0.7207,-4.00405 1.07412,-4.54343 0.70156,-1.07072 6.2912,-4.64258 6.64979,-4.24931 0.1312,0.14389 -0.0467,2.51161 -0.39539,5.26161 -1.11452,8.7905 -1.14088,9.10714 -0.75817,9.10714 0.19974,0 2.49855,-2.33133 5.10847,-5.18074 2.60992,-2.84941 4.90895,-5.12794 5.10897,-5.0634 0.20001,0.0645 0.59412,1.01601 0.8758,2.11438 0.80296,3.13102 0.26768,4.35895 -3.60119,8.26111 -2.02169,2.03908 -3.14967,3.44466 -3.05497,3.80679 0.0826,0.31576 2.75733,4.23041 5.9439,8.69922 3.6838,5.16611 5.71746,8.32396 5.58423,8.67114 -0.33984,0.88561 -6.64057,0.54626 -7.71708,-0.41564 -0.43967,-0.39286 -2.62972,-3.48661 -4.86676,-6.875 -2.23705,-3.38839 -4.20681,-6.16071 -4.37724,-6.16071 -0.4205,0 -0.59383,0.84474 -1.28246,6.24999 -0.74566,5.85294 -0.76276,5.9391 -1.33402,6.72012 -0.53811,0.7357 -2.55108,1.01497 -4.73512,0.65693 z m 29.28571,-23.14281 c -5.22499,-1.10554 -7.04395,-2.47771 -8.05061,-6.07315 -0.68337,-2.44075 -0.32064,-2.56872 4.0226,-1.41922 2.01897,0.53436 3.95212,1.0549 4.29587,1.15677 1.10636,0.32786 0.71325,-0.87636 -1.90635,-5.83978 -1.72807,-3.27423 -2.46956,-5.04186 -2.33667,-5.57038 0.10707,-0.4258 1.71703,-2.54204 3.57769,-4.70276 3.59842,-4.1787 4.42599,-5.37624 4.00574,-5.79649 -0.14402,-0.14402 -2.30051,0.2746 -4.7922,0.93027 -8.04568,2.11714 -7.54107,2.28591 -11.10557,-3.71432 -1.45566,-2.45034 -2.84859,-4.45517 -3.09541,-4.45517 -0.46494,0 -0.9639,1.89547 -1.64523,6.25 -0.91892,5.87294 -1.57484,6.89734 -5.01315,7.82942 -4.78961,1.29841 -8.88199,2.7876 -8.74985,3.18402 0.0746,0.22377 1.95829,1.21415 4.186,2.20084 2.2277,0.98669 4.10666,1.96285 4.17546,2.16925 0.18627,0.5588 -5.01006,3.72361 -6.11383,3.72361 -1.45549,0 -9.6485,-4.12486 -10.7183,-5.39624 -1.29007,-1.53317 -1.26182,-3.59816 0.0674,-4.92431 1.07187,-1.06941 4.58205,-2.51051 10.97947,-4.5076 4.4831,-1.3995 5.41108,-2.05875 5.73429,-4.07371 0.91196,-5.68525 2.10908,-11.17281 2.71296,-12.43603 1.32543,-2.77261 3.46275,-3.65476 5.68064,-2.34462 0.94188,0.55638 3.79344,4.65424 6.53074,9.38505 1.61268,2.78715 2.20321,2.88427 7.74504,1.27379 6.58633,-1.91403 8.84371,-2.23829 10.95327,-1.57338 l 1.71716,0.54124 -0.0582,1.67571 c -0.0779,2.23986 -0.99389,3.69512 -5.98904,9.5145 -3.07103,3.57776 -4.13129,5.06148 -4.13129,5.78129 0,0.53257 0.96711,2.70602 2.14913,4.82988 3.61492,6.49533 4.34024,9.38703 2.83462,11.30111 -0.7459,0.94827 -2.66833,1.68514 -4.26946,1.6365 -0.49107,-0.0149 -2.01786,-0.26516 -3.39286,-0.55609 z"
         id="path68"
         inkscape:connector-curvature="0" />
      <path
         style="fill:#4f4f4f;stroke-width:0.35714284"
         d="m 59.393791,182.67236 c -0.417623,-0.26446 -0.314098,-1.77471 0.654502,-9.5481 1.551871,-12.45434 1.911404,-14.34948 3.230698,-17.02934 1.380195,-2.80357 4.365016,-5.87779 7.100394,-7.31306 7.500303,-3.93544 16.310453,-1.17661 18.997132,5.94879 0.618864,1.6413 0.7342,2.58605 0.619443,5.07408 -0.119708,2.59531 -0.332554,3.45874 -1.408668,5.71428 -1.772307,3.71479 -4.025822,6.08904 -7.328797,7.72146 -2.329696,1.1514 -3.091143,1.34531 -5.789085,1.47431 -2.235893,0.1069 -3.753379,-0.0268 -5.414468,-0.47703 -4.266607,-1.15643 -3.992939,-1.37297 -4.751523,3.75955 -0.362887,2.45527 -0.845458,4.58227 -1.072381,4.72667 -0.577682,0.36761 -4.236905,0.32857 -4.837247,-0.0516 z M 78.46391,168.22914 c 2.948571,-1.37308 5.04731,-4.21833 5.417567,-7.34457 0.516661,-4.36239 -2.690139,-7.85956 -7.225046,-7.87926 -3.643596,-0.0158 -7.480895,2.92445 -8.560311,6.55923 -0.62368,2.10016 -0.647599,2.80818 -0.154808,4.58255 1.1697,4.21168 6.120201,6.13214 10.522598,4.08205 z m -36.328244,6.84201 c -1.785769,-0.47482 -4.405076,-2.8489 -5.476975,-4.96419 -0.481774,-0.95074 -0.875795,-1.93484 -0.875601,-2.18691 1.93e-4,-0.25207 1.315341,-1.16818 2.922551,-2.0358 l 2.922199,-1.5775 0.559592,0.85477 c 2.110927,3.22442 3.893644,4.25206 6.185263,3.56547 1.939375,-0.58105 3.839047,-2.47158 3.83728,-3.81881 -0.0019,-1.43142 -0.788876,-2.56671 -5.161948,-7.44643 -4.615982,-5.15077 -5.327238,-6.38452 -5.353232,-9.28572 -0.04705,-5.25088 4.274139,-9.91742 10.043906,-10.84661 4.226499,-0.68066 7.748058,0.72384 10.014262,3.99397 l 0.978539,1.41203 -1.348237,1.16546 c -0.74153,0.64101 -2.000487,1.61747 -2.797681,2.16993 l -1.449445,1.00446 -0.950761,-1.16492 c -1.078169,-1.32103 -3.029215,-1.93442 -5.111985,-1.60716 -1.688723,0.26533 -2.955802,1.55908 -2.664328,2.72041 0.117527,0.46826 2.2955,3.13373 4.83994,5.92327 5.289178,5.79866 5.967441,7.10677 5.661445,10.91885 -0.335641,4.18137 -3.446483,8.57928 -7.209473,10.19229 -3.057453,1.31058 -6.911472,1.71879 -9.565311,1.01314 z m 60.611354,-0.1531 c -4.6584,-1.17821 -7.090093,-2.959 -8.809339,-6.45128 -1.068543,-2.17053 -1.1903,-2.73069 -1.187186,-5.4618 0.0041,-3.64309 0.693532,-5.88371 2.764404,-8.98486 4.893781,-7.3285 15.731161,-9.35381 21.637361,-4.04363 1.05701,0.95034 2.22447,2.47274 2.80892,3.66291 0.87976,1.79153 0.99704,2.42349 0.97442,5.25093 -0.0271,3.38523 -1.12994,13.36318 -1.62834,14.73214 -0.26569,0.72977 -0.524,0.80357 -2.8126,0.80357 -1.86696,0 -2.57133,-0.13363 -2.71792,-0.51563 -0.10882,-0.28359 0.13729,-3.11277 0.54692,-6.28707 1.09182,-8.46061 0.95117,-9.98101 -1.14411,-12.3674 -1.42879,-1.6273 -2.92912,-2.26061 -5.33177,-2.25062 -5.63375,0.0234 -10.441892,5.96212 -8.848981,10.92966 1.517751,4.73315 6.188931,6.47127 10.930041,4.06702 1.15714,-0.5868 2.15986,-1.06895 2.22825,-1.07143 0.28722,-0.0105 -0.42897,4.56432 -0.90026,5.75054 -0.29387,0.73966 -0.92391,1.48537 -1.47561,1.7465 -0.9993,0.473 -5.78414,0.80662 -7.0342,0.49045 z m 20.01102,-0.83133 c -0.22758,-0.36825 1.72983,-16.5343 2.32189,-19.17618 0.71091,-3.17222 2.09638,-5.08935 4.63138,-6.40863 0.92918,-0.48357 2.07496,-0.6547 4.46429,-0.66678 l 3.21428,-0.0162 -0.0756,2.64905 c -0.0485,1.69975 -0.24049,2.75365 -0.53571,2.94096 -0.25306,0.16055 -1.28957,0.29438 -2.30336,0.29738 -1.61655,0.005 -1.95697,0.14062 -2.76786,1.1043 -0.50853,0.60436 -0.92434,1.28739 -0.92402,1.51786 7.2e-4,0.3974 -1.64352,13.41412 -2.00244,15.85397 -0.2656,1.8055 -0.95654,2.24363 -3.53829,2.24363 -1.25116,0 -2.36921,-0.1527 -2.48455,-0.33932 z m 15.03552,0.0575 c -0.0958,-0.15502 0.46248,-5.09698 1.24062,-10.98215 0.77815,-5.88516 1.6462,-12.59099 1.929,-14.90184 0.55116,-4.50361 0.72722,-5.04206 2.01891,-6.17466 1.25708,-1.10224 5.31814,-3.47535 5.55019,-3.24329 0.11165,0.11165 -0.13989,2.92275 -0.55898,6.2469 -0.82493,6.54311 -0.92274,8.26546 -0.4694,8.26546 0.16092,0 2.41802,-2.33036 5.01577,-5.17858 2.59776,-2.84821 4.88079,-5.17857 5.0734,-5.17857 0.91624,0 1.42063,4.32743 0.71938,6.17186 -0.18009,0.47368 -1.70688,2.23138 -3.39286,3.90602 -1.68598,1.67463 -3.06542,3.32134 -3.06542,3.65936 0,0.33801 2.6116,4.2981 5.80357,8.80021 3.19196,4.50211 5.85714,8.34438 5.92262,8.53839 0.15372,0.45548 -6.54709,0.47372 -7.39463,0.0201 -0.34181,-0.18292 -2.6051,-3.31685 -5.02954,-6.96428 -2.42443,-3.64744 -4.54186,-6.6317 -4.70538,-6.6317 -0.16353,0 -0.37708,0.36161 -0.47455,0.80357 -0.42131,1.91024 -0.92542,5.32782 -1.24419,8.43487 -0.44927,4.37916 -0.72524,4.69013 -4.16218,4.69013 -1.43118,0 -2.68053,-0.12683 -2.77633,-0.28184 z m 29.48579,-23.27037 c -3.1582,-0.90284 -4.96725,-1.77647 -5.56377,-2.68688 -0.86563,-1.32112 -1.70522,-4.5757 -1.25258,-4.85545 0.21794,-0.13469 2.30504,0.24654 4.63801,0.84719 2.33296,0.60065 4.36485,0.96724 4.51531,0.81464 0.15046,-0.15259 -0.89162,-2.5034 -2.31572,-5.22402 -1.42411,-2.72061 -2.58929,-5.34724 -2.58929,-5.83695 0,-0.61394 1.21977,-2.33095 3.92857,-5.53005 2.16072,-2.55182 3.92857,-4.80234 3.92857,-5.00117 0,-0.96184 -0.81289,-0.8209 -10.36397,1.79688 -2.42876,0.66569 -3.09298,0.0709 -6.35021,-5.68615 -1.69068,-2.98824 -2.83385,-4.31034 -3.22181,-3.72609 -0.17051,0.25679 -0.66845,2.50679 -1.10654,5 -0.43808,2.49322 -0.87776,4.97561 -0.97705,5.51643 -0.24196,1.31786 -1.99295,3.00979 -3.42569,3.31014 -2.96452,0.62146 -9.94433,3.10993 -9.81749,3.50017 0.0752,0.23137 2.00958,1.22424 4.29861,2.20638 2.28903,0.98215 4.1656,1.97186 4.17016,2.19937 0.0102,0.50766 -4.90014,3.69572 -5.67992,3.68774 -0.80254,-0.008 -7.33177,-3.00938 -9.31307,-4.28078 -3.41664,-2.19245 -3.28459,-5.29179 0.30289,-7.10898 1.34248,-0.68003 8.69804,-3.22532 11.38911,-3.94105 2.89721,-0.77057 3.20246,-1.3074 4.3778,-7.69915 1.31303,-7.14054 1.87159,-8.79243 3.4381,-10.16784 1.439,-1.26346 2.372,-1.34946 3.98314,-0.36715 1.11344,0.67887 4.10922,4.90732 5.73621,8.09648 1.94799,3.81836 3.06819,4.27979 7.25425,2.98816 1.24838,-0.38519 4.01419,-1.12042 6.14625,-1.63384 3.41571,-0.82254 4.08222,-0.88414 5.60731,-0.51828 2.42671,0.58216 2.66161,0.97524 1.98128,3.31549 -0.64001,2.20154 -0.81446,2.44935 -5.91189,8.39747 -2.07211,2.41792 -3.90075,4.78651 -4.06364,5.26353 -0.1967,0.57599 -0.12415,1.19866 0.21599,1.85379 0.2817,0.54256 1.49103,2.83469 2.6874,5.09361 1.19638,2.25893 2.33929,4.84328 2.5398,5.743 0.50139,2.24975 -0.034,4.0879 -1.39591,4.79215 -1.39174,0.71969 -4.97255,0.6467 -7.79021,-0.15879 z"
         id="path66"
         inkscape:connector-curvature="0" />
      <path
         style="fill:#2e2e2e;stroke-width:0.35714284"
         d="m 59.23943,182.37246 c -0.205625,-0.35106 2.092241,-18.42284 2.778514,-21.8519 0.721243,-3.60379 2.029316,-6.11982 4.488018,-8.63254 3.028515,-3.09506 5.919901,-4.36298 10.348205,-4.53783 4.250278,-0.16783 6.783228,0.66248 9.352589,3.06582 5.336071,4.99127 4.959989,13.44192 -0.872671,19.60909 -4.156368,4.39475 -10.236922,5.72393 -16.816771,3.67605 -1.202498,-0.37426 -2.303841,-0.563 -2.447428,-0.41941 -0.143587,0.14359 -0.507566,1.9464 -0.808841,4.00625 -0.857857,5.86525 -0.532737,5.35233 -3.392605,5.35233 -1.359665,0 -2.54272,-0.12054 -2.62901,-0.26786 z m 19.328337,-13.98107 c 3.506189,-1.78872 5.429257,-4.74117 5.429257,-8.33542 0,-3.66002 -1.947422,-6.19458 -5.432647,-7.07058 -4.027417,-1.01227 -9.004375,1.89176 -10.618822,6.19604 -1.027294,2.73886 0.04674,7.02074 2.143547,8.54576 2.469968,1.79641 5.754929,2.05375 8.478665,0.6642 z m -37.648254,5.89101 c -1.806661,-0.84122 -3.078701,-2.17092 -4.201755,-4.3922 -0.973222,-1.92493 -0.776635,-2.31761 1.886236,-3.76774 1.352634,-0.7366 2.615916,-1.33928 2.807294,-1.33928 0.191378,0 0.777534,0.64913 1.30257,1.44251 1.793543,2.71023 4.45676,3.54138 6.99153,2.18197 2.65071,-1.42159 3.277188,-3.69012 1.676962,-6.07242 -0.481039,-0.71613 -2.421508,-2.98956 -4.312153,-5.05206 -4.104692,-4.4778 -5.21603,-6.45902 -5.21603,-9.2988 0,-2.48949 1.538678,-5.81102 3.482571,-7.51778 2.403809,-2.11057 4.874925,-3.00485 8.303143,-3.00485 2.668301,0 3.237851,0.11883 4.70585,0.98179 1.808975,1.06341 3.865579,3.30286 3.865579,4.20927 0,0.5105 -4.199173,3.91608 -4.828631,3.91608 -0.144853,0 -0.905318,-0.57996 -1.689922,-1.2888 -1.375398,-1.24259 -1.507496,-1.28365 -3.683786,-1.14508 -2.609075,0.16614 -3.726233,0.91212 -3.726233,2.48821 0,1.09804 0.599222,1.86093 5.746712,7.31626 3.809714,4.03755 4.75749,5.85633 4.75749,9.12962 0,2.08977 -0.182357,2.7572 -1.412815,5.17096 -1.071324,2.10159 -1.84444,3.09924 -3.19853,4.12748 -3.620439,2.7492 -9.606998,3.61397 -13.256082,1.91486 z m 60.041797,0.004 c -3.019843,-0.95014 -5.440608,-2.95965 -6.902743,-5.73009 -0.867318,-1.64337 -0.9544,-2.16752 -0.9544,-5.74446 0,-3.70376 0.06724,-4.07265 1.13921,-6.25 3.090897,-6.27808 8.555883,-9.52931 15.504743,-9.22407 3.58443,0.15745 5.62472,1.02094 7.98186,3.37807 2.0725,2.0725 3.05276,4.67974 3.05276,8.11952 0,2.39858 -1.23113,13.76852 -1.60118,14.78757 -0.11013,0.30327 -1.02463,0.44642 -2.8519,0.44642 -1.47938,-5e-5 -2.68978,-0.0449 -2.68978,-0.0996 0,-0.0548 0.31892,-2.34494 0.7087,-5.08928 0.98609,-6.94272 0.95566,-10.32361 -0.11112,-12.34425 -2.4652,-4.6695 -8.65068,-5.07169 -12.88459,-0.83777 -2.052921,2.05292 -2.8477,4.12395 -2.647068,6.8977 0.397686,5.49793 5.766498,8.27319 10.997058,5.68461 1.0616,-0.52538 2.03675,-0.88937 2.16701,-0.80887 0.30241,0.1869 -0.26101,3.96122 -0.78745,5.275 -0.62092,1.54958 -1.97316,2.04003 -5.5498,2.01283 -1.72851,-0.0131 -3.7856,-0.22615 -4.57131,-0.47336 z m 22.04911,-0.51112 c -0.28175,-0.73423 1.97805,-18.39212 2.5758,-20.12713 0.80645,-2.34073 2.04621,-3.82895 3.94652,-4.73743 1.96368,-0.93877 5.3015,-1.45656 6.99362,-1.08491 l 1.08521,0.23835 -0.22938,2.02046 c -0.36867,3.24717 -0.38384,3.27041 -2.13598,3.27041 -2.01348,0 -3.21686,0.47205 -3.9134,1.53511 -0.51254,0.78224 -1.88071,9.27282 -2.53692,15.74362 -0.32791,3.23347 -0.90278,3.83314 -3.59043,3.74531 -1.39865,-0.0457 -2.04957,-0.22477 -2.19504,-0.60384 z m 16.07589,0.39282 c -0.70138,-0.087 -1.16071,-0.3462 -1.16071,-0.65487 0,-0.49979 1.82249,-14.65719 3.17417,-24.65751 0.37431,-2.76925 0.89807,-5.39046 1.16391,-5.82491 0.47064,-0.76913 5.33678,-3.9615 6.03853,-3.9615 0.1932,0 0.27313,0.36161 0.17761,0.80357 -0.46683,2.16001 -1.6492,13.15511 -1.44941,13.47838 0.35583,0.57574 0.83753,0.14177 5.34749,-4.81766 2.32213,-2.55357 4.44579,-4.88393 4.71923,-5.17857 0.66622,-0.7179 1.0569,-0.0913 1.37213,2.20068 0.39644,2.88246 0.0209,3.64389 -3.61351,7.32583 -1.8473,1.87148 -3.35873,3.59961 -3.35873,3.8403 0,0.24069 2.65179,4.16092 5.89286,8.71165 3.24107,4.55072 5.89286,8.45131 5.89286,8.66797 0,0.5818 -6.51332,0.28296 -7.25422,-0.33282 -0.31715,-0.26359 -2.47094,-3.35342 -4.78621,-6.86628 -2.51878,-3.82165 -4.4396,-6.39053 -4.78226,-6.39575 -0.45154,-0.007 -0.69638,0.76567 -1.1574,3.65199 -0.32159,2.01339 -0.69212,4.7784 -0.82339,6.14446 -0.36478,3.79572 -1.18938,4.3867 -5.39295,3.86504 z m 28.75275,-23.33027 c -2.85689,-0.70233 -5.21298,-1.7226 -5.87942,-2.54599 -0.55627,-0.68727 -1.70231,-4.53046 -1.43168,-4.80108 0.18755,-0.18755 4.3885,0.7476 8.37978,1.86539 1.38444,0.38772 0.98,-1.06179 -1.72777,-6.19227 -1.7297,-3.2773 -2.46952,-5.04137 -2.33612,-5.57038 0.10737,-0.4258 1.88933,-2.74595 3.95991,-5.15589 2.21628,-2.57952 3.76469,-4.6927 3.76469,-5.13783 0,-0.6846 -0.14357,-0.73614 -1.51785,-0.54486 -0.83483,0.1162 -3.20536,0.69955 -5.26786,1.29633 -5.90023,1.70723 -6.30124,1.58316 -8.59884,-2.66051 -1.81489,-3.3521 -3.91489,-6.30494 -4.37492,-6.15163 -0.38605,0.12865 -1.64602,5.65749 -2.1895,9.60761 -0.33372,2.42555 -1.48467,3.94482 -3.41886,4.51294 -5.15067,1.51287 -9.68594,3.09411 -10.01636,3.49225 -0.44487,0.53603 0.022,0.80932 4.84848,2.83812 1.76786,0.74312 3.35039,1.46947 3.51676,1.6141 0.31793,0.27643 -3.40524,2.96535 -4.88483,3.5279 -0.69426,0.26395 -1.59046,-0.004 -4.59973,-1.37461 -6.7318,-3.06638 -8.36411,-4.73265 -7.24948,-7.40033 0.63584,-1.52177 2.7876,-2.57043 9.82442,-4.78795 5.46444,-1.72201 6.62651,-2.23219 7.09344,-3.11424 0.1809,-0.34171 0.75218,-2.95166 1.26952,-5.79987 1.24303,-6.84348 1.7865,-8.6307 3.02887,-9.96067 0.8062,-0.86303 1.33791,-1.11076 2.38411,-1.11076 1.12402,0 1.58718,0.25455 2.80314,1.54059 0.80115,0.84732 2.24635,2.89643 3.21156,4.55357 4.13485,7.09905 3.79988,6.90595 9.3165,5.37079 8.17267,-2.27428 9.61407,-2.48404 12.05133,-1.75382 l 1.4199,0.42541 -0.21177,1.54503 c -0.34977,2.55188 -0.61538,2.93088 -8.55114,12.20164 -2.16953,2.53449 -2.11988,3.17822 0.62322,8.08107 4.10294,7.33334 4.49279,10.53912 1.4369,11.81595 -1.58473,0.66215 -3.29981,0.60409 -6.6764,-0.226 z"
         id="path64"
         inkscape:connector-curvature="0" />
      <path
         style="fill:#020202;stroke-width:0.35714284"
         d="m 59.500671,180.94389 c 0.115109,-0.73661 0.691732,-5.21465 1.281384,-9.95121 1.3745,-11.04108 1.562436,-11.99205 2.921106,-14.78093 2.774737,-5.69559 9.34242,-9.46704 15.252181,-8.75846 10.970846,1.3154 14.378146,13.64785 6.189453,22.40223 -3.918318,4.189 -9.215553,5.47631 -15.742721,3.82573 -1.619878,-0.40963 -3.153475,-0.66488 -3.407994,-0.56721 -0.25452,0.0977 -0.566668,0.95514 -0.693663,1.9055 -0.126995,0.95036 -0.410343,2.97346 -0.629661,4.49578 l -0.398761,2.76786 h -2.490306 -2.490307 z m 19.427381,-12.48121 c 4.847904,-2.28869 6.92895,-8.69614 4.132065,-12.72247 -3.390215,-4.88048 -11.436068,-3.82114 -14.596394,1.92178 -0.902264,1.63959 -1.069392,2.33665 -1.071429,4.4687 -0.0021,2.15975 0.139918,2.74115 0.979057,4.00918 1.182626,1.78707 2.293948,2.55966 4.50018,3.12851 2.08815,0.53841 3.64935,0.33072 6.056521,-0.8057 z m -36.149138,6.29319 c -2.03518,-0.49911 -3.656591,-1.62032 -4.784532,-3.30849 -0.890831,-1.3333 -1.854501,-3.2252 -1.854501,-3.6408 0,-0.20716 4.888918,-2.66626 5.300768,-2.66626 0.175229,0 0.748173,0.64913 1.273209,1.44251 1.834705,2.77243 4.077219,3.45613 6.8822,2.09826 3.039029,-1.47116 3.80878,-4.07227 1.956763,-6.61218 -0.558597,-0.76608 -2.482105,-2.99747 -4.27446,-4.95863 -4.082809,-4.46733 -5.187393,-6.40519 -5.182438,-9.09194 0.0041,-2.22863 1.120727,-4.82151 2.996292,-6.95766 2.737554,-3.1179 8.73218,-4.36928 12.552419,-2.62032 1.219795,0.55844 2.425482,1.48191 3.252499,2.49118 0.722797,0.88207 1.314177,1.67676 1.314177,1.76597 0,0.24274 -4.519566,3.51424 -4.854914,3.51424 -0.159309,0 -0.82546,-0.51933 -1.480334,-1.15405 -1.08719,-1.05375 -1.388949,-1.15464 -3.471736,-1.16072 -1.765961,-0.005 -2.509024,0.16273 -3.290606,0.74346 -2.120621,1.57566 -1.603732,2.73205 3.808777,8.52102 2.196359,2.34912 4.314653,4.90088 4.707319,5.67057 2.877386,5.64014 -1.069693,13.54063 -7.693059,15.39846 -2.546392,0.71425 -5.502867,0.93125 -7.157843,0.52538 z m 59.212216,-0.45411 c -4.148878,-1.05862 -7.176528,-3.83507 -8.359863,-7.66627 -0.8486,-2.74744 -0.882347,-4.23823 -0.158818,-7.01605 1.255282,-4.81934 4.308475,-8.59533 8.573501,-10.60312 7.27641,-3.42542 14.70085,-1.31165 17.59467,5.00931 1.10514,2.41393 1.15052,5.00676 0.22835,13.047 -0.82902,7.22817 -0.71824,6.99626 -3.34203,6.99626 -1.17184,0 -2.22437,-0.1517 -2.33896,-0.33711 -0.11459,-0.1854 0.117,-2.77554 0.51464,-5.75584 1.11003,-8.31968 0.92557,-10.48911 -1.10086,-12.94753 -2.89297,-3.50966 -8.72173,-3.27109 -12.50464,0.51181 -1.812271,1.81227 -2.49961,3.24895 -2.72066,5.68674 -0.255115,2.81344 0.988803,5.58073 3.15209,7.01233 1.33676,0.88463 1.85489,1.00769 4.22811,1.00424 2.52014,-0.004 3.18253,-0.177 5.83914,-1.52801 0.30185,-0.15351 0.0295,2.1633 -0.5056,4.30075 -0.18453,0.73713 -0.70219,1.5805 -1.15035,1.87415 -1.1402,0.74709 -5.70673,0.9834 -7.94872,0.41134 z m 21.15416,-0.52347 c -0.0988,-0.15983 -0.034,-1.40537 0.14393,-2.76786 2.37661,-18.19725 2.45951,-18.5742 4.54295,-20.65764 1.55825,-1.55824 3.96863,-2.35533 7.12253,-2.35533 2.54377,0 2.50837,-0.0644 1.96228,3.57143 l -0.24138,1.60714 -1.85672,0.0362 c -2.07213,0.0404 -3.53867,0.79817 -4.02611,2.08023 -0.34413,0.90514 -1.56903,9.10844 -2.16022,14.46728 -0.20444,1.8532 -0.54718,3.58088 -0.76164,3.83929 -0.42961,0.51765 -4.42286,0.6691 -4.72562,0.17922 z m 15.13745,-0.7013 c 0,-1.0094 1.88104,-15.99751 2.49761,-19.90096 0.18617,-1.17857 0.50803,-3.65178 0.71526,-5.49602 0.20722,-1.84424 0.6339,-3.78846 0.94817,-4.32048 0.5193,-0.8791 5.34007,-4.19854 5.64457,-3.88668 0.0708,0.0725 -0.25462,3.26138 -0.72305,7.08648 -0.46843,3.82509 -0.72158,7.08483 -0.56256,7.24385 0.54692,0.54692 1.31381,-0.13116 5.94428,-5.25592 2.83327,-3.13571 4.77303,-5.0119 4.97683,-4.81373 0.18368,0.1786 0.40203,1.26564 0.48521,2.41564 0.18659,2.57949 -0.37593,3.79094 -2.6105,5.622 -1.95888,1.60515 -4.54403,4.77445 -4.33621,5.31603 0.0824,0.21481 2.74039,4.03313 5.90656,8.48515 3.16618,4.45202 5.75669,8.18502 5.75669,8.29556 0,0.36273 -5.74444,0.20997 -6.45765,-0.17172 -0.38302,-0.20499 -2.64755,-3.29874 -5.03231,-6.875 -2.38475,-3.57626 -4.51036,-6.61614 -4.72357,-6.75528 -0.2132,-0.13915 -0.5321,-0.10853 -0.70866,0.068 -0.40107,0.40107 -1.64179,7.54134 -1.64607,9.47302 -0.004,1.78457 -0.55982,3.78422 -1.15736,4.16349 -0.24913,0.15813 -1.45742,0.28997 -2.6851,0.29297 -2.2036,0.005 -2.23214,-0.007 -2.23214,-0.98643 z m 29.46428,-22.54756 c -3.39693,-0.85566 -5.02226,-1.60039 -5.65565,-2.59142 -0.68909,-1.07819 -1.48846,-3.80833 -1.19963,-4.09716 0.12289,-0.1229 1.91161,0.19957 3.97492,0.71658 4.46532,1.11891 5.20179,1.16267 5.20179,0.30913 0,-0.347 -1.125,-2.78382 -2.5,-5.41514 -1.375,-2.63133 -2.49905,-5.11974 -2.49789,-5.52981 0.001,-0.42883 1.51158,-2.49043 3.55517,-4.85272 3.91143,-4.52138 4.4985,-5.3958 4.17996,-6.2259 -0.2978,-0.77606 -0.90473,-0.71449 -5.59438,0.56747 -2.25893,0.6175 -4.79904,1.19586 -5.6447,1.28525 -1.84384,0.1949 -2.59799,-0.36203 -3.85991,-2.85048 -1.11765,-2.20398 -3.96654,-6.60077 -4.48425,-6.92074 -0.74342,-0.45946 -1.23671,0.85804 -2.04677,5.46652 -0.44188,2.51391 -0.88289,5.00516 -0.98002,5.53611 -0.3072,1.67934 -1.45743,2.73789 -3.63278,3.34325 -4.0206,1.11885 -9.70595,3.07654 -9.91447,3.41394 -0.40561,0.65629 0.59162,1.29855 4.7017,3.02811 l 4.12954,1.73776 -1.00917,0.80897 c -0.55505,0.44494 -1.81734,1.23361 -2.8051,1.75261 l -1.79592,0.94364 -4.24733,-2.0189 c -2.33602,-1.1104 -4.76914,-2.41691 -5.40692,-2.90337 -2.28811,-1.74523 -1.78133,-4.63318 1.03764,-5.91302 0.8218,-0.37311 4.28074,-1.58537 7.68654,-2.69392 6.90498,-2.2475 7.30898,-2.55193 7.75768,-5.84566 0.63494,-4.66081 2.0576,-10.67724 2.84139,-12.01622 1.08625,-1.85566 2.55756,-2.54731 3.97159,-1.86698 1.23559,0.59448 3.15274,3.10457 5.38435,7.04962 2.32028,4.10183 3.25023,5.03623 5.01221,5.03623 0.76621,0 2.74732,-0.40648 4.40247,-0.9033 6.55168,-1.96655 9.44251,-2.35085 11.71777,-1.55769 0.79133,0.27586 1.08673,0.57409 0.97281,0.98214 -0.09,0.3223 -0.27225,1.1244 -0.40506,1.78246 -0.24358,1.20697 -2.74871,4.53282 -7.36511,9.77805 -3.10302,3.52571 -3.24996,4.09897 -1.76077,6.86955 4.36438,8.11976 5.11091,10.17665 4.53147,12.48532 -0.49579,1.97537 -3.63369,2.47334 -8.25317,1.30972 z"
         id="path62"
         inkscape:connector-curvature="0" />
    </g>
  </g>
</svg>
