<?xml version="1.0" encoding="UTF-8" standalone="no"?>
<!-- Created with Inkscape (http://www.inkscape.org/) -->

<svg
   xmlns:dc="http://purl.org/dc/elements/1.1/"
   xmlns:cc="http://creativecommons.org/ns#"
   xmlns:rdf="http://www.w3.org/1999/02/22-rdf-syntax-ns#"
   xmlns:svg="http://www.w3.org/2000/svg"
   xmlns="http://www.w3.org/2000/svg"
   xmlns:sodipodi="http://sodipodi.sourceforge.net/DTD/sodipodi-0.dtd"
   xmlns:inkscape="http://www.inkscape.org/namespaces/inkscape"
   width="210mm"
   height="297mm"
   viewBox="0 0 210 297"
   version="1.1"
   id="svg82"
   inkscape:version="0.92.1 r15371"
   sodipodi:docname="tableau.svg">
  <defs
     id="defs76" />
  <sodipodi:namedview
     id="base"
     pagecolor="#ffffff"
     bordercolor="#666666"
     borderopacity="1.0"
     inkscape:pageopacity="0.0"
     inkscape:pageshadow="2"
     inkscape:zoom="0.35"
     inkscape:cx="400"
     inkscape:cy="560"
     inkscape:document-units="mm"
     inkscape:current-layer="layer1"
     showgrid="false"
     inkscape:window-width="1920"
     inkscape:window-height="1001"
     inkscape:window-x="-9"
     inkscape:window-y="-9"
     inkscape:window-maximized="1" />
  <metadata
     id="metadata79">
    <rdf:RDF>
      <cc:Work
         rdf:about="">
        <dc:format>image/svg+xml</dc:format>
        <dc:type
           rdf:resource="http://purl.org/dc/dcmitype/StillImage" />
        <dc:title></dc:title>
      </cc:Work>
    </rdf:RDF>
  </metadata>
  <g
     inkscape:label="Layer 1"
     inkscape:groupmode="layer"
     id="layer1">
    <g
       id="g95"
       transform="matrix(1.8897638,0,0,1.8897638,-103.37797,-96.547919)">
      <path
         style="fill:#fdfdfd;stroke-width:0.26458335"
         d="M 68.413689,118.59524 V 92.136902 h 39.687501 39.6875 v 26.458338 26.45833 h -39.6875 -39.687501 z"
         id="path111"
         inkscape:connector-curvature="0" />
      <path
         style="fill:#e39862;stroke-width:0.26458335"
         d="m 107.31675,139.51471 c -0.16754,-0.31304 -0.27389,-3.04243 -0.27389,-7.02885 0,-3.98641 0.10635,-6.71581 0.27389,-7.02885 0.30868,-0.57678 1.04853,-0.67102 1.52527,-0.19427 0.45217,0.45216 0.45217,13.99408 0,14.44625 -0.47674,0.47674 -1.21659,0.3825 -1.52527,-0.19428 z m -33.293894,-1.12864 c -0.195941,-0.19594 -0.3175,-1.15829 -0.3175,-2.51354 v -2.19604 h -1.833185 c -1.313753,0 -1.950993,-0.11781 -2.248958,-0.41578 -0.937977,-0.93797 -0.328943,-1.39777 1.973198,-1.48968 l 1.976653,-0.0789 0.132292,-2.08931 c 0.138086,-2.18083 0.501831,-2.81106 1.419245,-2.45902 0.346835,0.1331 0.432838,0.55559 0.432838,2.12638 0,1.27919 0.118743,2.05883 0.341759,2.24392 0.187968,0.156 1.170233,0.3194 2.182813,0.36312 1.7831,0.077 1.84366,0.10211 1.923883,0.79787 0.09615,0.83386 -0.221888,0.95806 -2.728663,1.0656 l -1.5875,0.0681 -0.07778,2.24053 c -0.07426,2.13912 -0.261907,2.63954 -0.993784,2.65021 -0.152797,0.002 -0.420687,-0.13883 -0.595312,-0.31345 z m 42.248554,0.0188 c -0.52684,-0.14677 -1.35469,-0.67623 -1.83966,-1.1766 -0.77479,-0.79938 -0.89304,-1.11013 -0.97469,-2.56151 -0.10239,-1.81985 0.38726,-2.96172 1.61497,-3.76615 2.40782,-1.57767 5.72916,0.15337 5.72916,2.98595 0,1.00417 -0.29916,1.1128 -3.06435,1.1128 -1.75395,0 -2.22732,0.0803 -2.22732,0.37798 0,1.03408 1.64024,1.64327 3.37503,1.25349 0.73079,-0.1642 1.17493,-0.15068 1.36723,0.0416 1.14511,1.14511 -1.67794,2.37381 -3.98037,1.73241 z m 2.41311,-5.33697 c 0,-0.18917 -0.14287,-0.48683 -0.3175,-0.66145 -0.64843,-0.64843 -2.59291,-0.1851 -2.59291,0.61785 0,0.29338 0.35361,0.38756 1.4552,0.38756 1.01763,0 1.45521,-0.10343 1.45521,-0.34396 z m -33.337498,4.9038 c -1.305187,-0.70182 -2.197342,-2.47696 -2.003465,-3.98634 0.343644,-2.67535 1.743144,-3.69588 5.046174,-3.67972 1.234313,0.006 2.197698,0.13173 2.311052,0.30152 0.106913,0.16014 0.196209,1.79463 0.198438,3.6322 0.0048,3.98987 -0.01682,4.02258 -2.744631,4.1455 -1.456033,0.0656 -2.090943,-0.0278 -2.807568,-0.41316 z m 3.439584,-3.4732 c 0,-1.66023 -0.0858,-2.12128 -0.418515,-2.24895 -1.551347,-0.59531 -3.021069,0.47916 -3.021069,2.20862 0,1.47357 0.692141,2.12869 2.248959,2.12869 h 1.190625 z m 7.768701,3.67858 c -0.540748,-0.21826 -0.574167,-0.45479 -0.758357,-5.36712 -0.20189,-5.3844 -0.07622,-6.27726 0.883547,-6.27726 0.822346,0 1.101942,0.58277 1.101942,2.29681 v 1.66181 l 1.15212,-0.15791 c 1.428401,-0.19579 2.843781,0.41437 3.677601,1.58536 0.45155,0.63414 0.58692,1.19861 0.5901,2.46062 0.005,1.89122 -0.52519,2.84459 -1.99904,3.59613 -0.97065,0.49494 -3.634818,0.61048 -4.647913,0.20156 z m 4.137553,-2.11938 c 1.23975,-1.23976 0.31326,-3.96875 -1.347403,-3.96875 -1.463548,0 -1.563018,0.15334 -1.563018,2.40955 v 2.08836 h 1.190625 c 0.837848,0 1.347416,-0.15679 1.719796,-0.52916 z m 25.92916,1.914 c -1.03235,-0.55512 -2.11666,-2.37482 -2.11666,-3.55221 0,-1.19051 0.79372,-2.82366 1.67851,-3.45369 0.68815,-0.49 1.21912,-0.59524 3.20905,-0.63603 1.57709,-0.0323 2.45096,0.0556 2.58086,0.25984 0.37552,0.5903 0.23554,6.6474 -0.16633,7.197 -0.5532,0.75654 -3.9005,0.87602 -5.18543,0.18509 z m 3.43959,-3.4732 c 0,-1.66023 -0.0858,-2.12128 -0.41852,-2.24895 -1.55135,-0.59531 -3.02107,0.47916 -3.02107,2.20862 0,1.47357 0.69214,2.12869 2.24896,2.12869 h 1.19063 z m 7.8052,3.68803 c -0.29104,-0.12039 -0.80112,-0.51179 -1.13351,-0.8698 -0.56681,-0.61048 -0.59968,-0.83826 -0.52917,-3.66695 l 0.0752,-3.01604 h 0.79375 0.79375 l 0.076,2.76284 c 0.0418,1.51957 0.20518,2.91855 0.36312,3.10886 0.36585,0.44082 2.2391,0.45217 2.52186,0.0153 0.11773,-0.18188 0.27359,-1.58087 0.34635,-3.10884 l 0.13229,-2.77812 h 0.79375 0.79375 l 0.0751,2.84493 c 0.0832,3.15092 -0.0733,3.66658 -1.34876,4.44428 -0.87836,0.53557 -2.77401,0.66869 -3.75343,0.26358 z M 107.89,120.64284 c -0.14914,-0.18029 -0.31146,-0.68443 -0.36071,-1.12031 -0.0726,-0.6422 -0.23724,-0.81782 -0.86831,-0.92604 -1.01544,-0.17414 -1.02387,-0.62042 -0.015,-0.79441 0.66873,-0.11533 0.81459,-0.28196 0.92604,-1.05792 0.16237,-1.13044 1.05834,-1.50202 1.05834,-0.43892 0,1.11767 0.27493,1.49625 1.08664,1.49625 0.504,0 0.76544,0.13555 0.76544,0.39687 0,0.23774 -0.24401,0.39688 -0.60854,0.39688 -0.80911,0 -1.24354,0.47519 -1.24354,1.36021 0,0.83812 -0.34825,1.16145 -0.74036,0.68739 z m 6.08825,-2.3618 c -0.17645,-0.17644 -0.32081,-0.8923 -0.32081,-1.5908 v -1.27 l -1.12448,-0.004 c -1.33611,-0.005 -1.92353,-0.31409 -1.7005,-0.89529 0.11893,-0.30994 0.51613,-0.42358 1.48055,-0.42358 h 1.31802 l 0.0794,-1.52135 c 0.0688,-1.31852 0.1499,-1.52136 0.60852,-1.52136 0.44899,0 0.54921,0.22049 0.66146,1.45521 l 0.13229,1.45521 1.32291,0.13229 c 1.10244,0.11024 1.32292,0.22049 1.32292,0.66146 0,0.44097 -0.22048,0.55121 -1.32292,0.66146 l -1.32291,0.13229 -0.13229,1.43466 c -0.13562,1.47072 -0.43662,1.85935 -1.00211,1.29385 z m -12.59563,-0.3689 c -0.0883,-0.23019 -0.1606,-0.88503 -0.1606,-1.45521 0,-1.02085 -0.0152,-1.03676 -0.99219,-1.04075 -1.212242,-0.005 -1.784496,-0.33164 -1.568207,-0.89528 0.115946,-0.30215 0.50624,-0.42358 1.361467,-0.42358 h 1.19893 v -1.14006 c 0,-1.25526 0.58415,-2.33995 1.02465,-1.90265 0.14659,0.14552 0.30343,0.8599 0.34854,1.5875 l 0.082,1.32292 1.27086,0.0812 c 0.8225,0.0526 1.32409,0.21994 1.42175,0.47443 0.21733,0.56635 -0.045,0.72743 -1.44696,0.88863 l -1.24565,0.14322 -0.08,1.38906 c -0.0659,1.14365 -0.16602,1.38906 -0.56701,1.38906 -0.26786,0 -0.5593,-0.18833 -0.64763,-0.41851 z m 6.36579,-4.78496 c -0.097,-0.097 -0.17639,-0.78758 -0.17639,-1.53458 0,-0.74701 -0.14287,-1.50107 -0.3175,-1.6757 -0.17462,-0.17462 -0.89728,-0.3175 -1.6059,-0.3175 -1.18478,0 -1.2816,-0.0479 -1.20385,-0.59531 0.0732,-0.51532 0.28007,-0.61309 1.53975,-0.7276 l 1.45521,-0.1323 0.13229,-1.5875 c 0.11392,-1.36701 0.20579,-1.5875 0.66146,-1.5875 0.46432,0 0.53882,0.20265 0.60794,1.65365 l 0.0788,1.65365 h 1.15636 c 1.48938,0 1.99339,0.20451 1.99339,0.80885 0,0.40808 -0.24826,0.5006 -1.52136,0.567 l -1.52135,0.0794 -0.082,1.44719 c -0.0968,1.70782 -0.60688,2.53825 -1.19683,1.9483 z m 9.53051,-1.58199 c -0.10004,-0.10004 -0.1819,-0.57123 -0.1819,-1.04708 0,-0.7827 -0.082,-0.87308 -0.85989,-0.94809 -1.11449,-0.10746 -1.1612,-0.8195 -0.0661,-1.00835 0.66944,-0.11546 0.81447,-0.28161 0.92604,-1.06094 0.0839,-0.58618 0.2774,-0.92404 0.52917,-0.92404 0.25177,0 0.44524,0.33786 0.52917,0.92404 0.11157,0.77933 0.2566,0.94548 0.92604,1.06094 0.46284,0.0798 0.79375,0.30018 0.79375,0.52857 0,0.22838 -0.33091,0.44874 -0.79375,0.52857 -0.66437,0.11457 -0.81532,0.28408 -0.92604,1.0399 -0.12892,0.87994 -0.50943,1.27349 -0.87644,0.90648 z m -18.967314,-1.14473 c 0,-0.49532 -0.156459,-0.86654 -0.396875,-0.94165 -1.264166,-0.39494 -1.327844,-0.47072 -0.529167,-0.62973 0.661792,-0.13176 0.807532,-0.3008 0.87666,-1.01677 0.0456,-0.47231 0.186883,-0.85874 0.313965,-0.85874 0.127082,0 0.268364,0.38643 0.313965,0.85874 0.06913,0.71597 0.214868,0.88501 0.87666,1.01677 0.798676,0.15901 0.734996,0.23479 -0.529167,0.62973 -0.218281,0.0682 -0.396875,0.41835 -0.396875,0.77813 0,0.35978 -0.119062,0.72773 -0.264583,0.81767 -0.154588,0.0955 -0.264583,-0.17641 -0.264583,-0.65415 z m 3.315914,-3.75562 c -0.0682,-0.194 -0.15754,-0.88851 -0.19858,-1.54335 l -0.0746,-1.19063 -1.32291,-0.13229 c -0.940745,-0.0941 -1.322919,-0.24695 -1.322919,-0.52917 0,-0.28222 0.382174,-0.43509 1.322919,-0.52916 l 1.32291,-0.1323 0.1323,-1.4552 c 0.0728,-0.80037 0.22158,-1.425447 0.33072,-1.389067 0.10915,0.03638 0.3175,0.06615 0.46303,0.06615 0.14552,0 0.26458,0.654837 0.26458,1.455207 v 1.45521 l 1.12448,0.004 c 2.22927,0.008 2.39873,0.95061 0.19844,1.10372 l -1.19063,0.0828 -0.13229,1.43467 c -0.12504,1.35604 -0.6408,2.0865 -0.91742,1.29931 z m 12.47089,0.13234 c -0.097,-0.097 -0.17821,-0.66256 -0.18044,-1.25677 -0.005,-1.46412 -0.20727,-1.69156 -1.58779,-1.78975 -0.84058,-0.0598 -1.18628,-0.20004 -1.18628,-0.48126 0,-0.28122 0.3457,-0.42146 1.18628,-0.48125 1.38553,-0.0986 1.58233,-0.32392 1.58779,-1.81824 0.004,-1.160271 0.42852,-1.73117 0.82333,-1.107842 0.12703,0.200542 0.23278,0.930172 0.235,1.621392 l 0.004,1.25678 h 1.15823 c 0.70266,0 1.28675,0.15487 1.485,0.39374 0.39467,0.47555 0.12598,0.60901 -1.45261,0.72148 -1.00292,0.0714 -1.06207,0.12388 -1.12975,1.00144 -0.14488,1.87835 -0.42607,2.45703 -0.94282,1.94028 z m -6.08322,-5.11528 c -0.0812,-0.21828 -0.18556,-0.635 -0.23194,-0.92604 -0.0498,-0.31245 -0.32704,-0.56379 -0.67695,-0.61371 -0.76711,-0.10945 -0.76536,-0.515577 0.003,-0.624658 0.40506,-0.05753 0.62361,-0.295938 0.68386,-0.746007 0.11626,-0.868418 0.57291,-1.349633 0.57291,-0.603722 0,0.909006 0.28734,1.397473 0.82206,1.397473 0.27547,0 0.50086,0.119062 0.50086,0.264583 0,0.145521 -0.23586,0.264581 -0.52413,0.264581 -0.35648,0 -0.57545,0.23273 -0.6846,0.72761 -0.26171,1.1866 -0.31002,1.27598 -0.46477,0.85989 z"
         id="path109"
         inkscape:connector-curvature="0" />
      <path
         style="fill:#8f9bb0;stroke-width:0.26458335"
         d="m 107.31675,139.51471 c -0.16754,-0.31304 -0.27389,-3.04243 -0.27389,-7.02885 0,-3.98641 0.10635,-6.71581 0.27389,-7.02885 0.30868,-0.57678 1.04853,-0.67102 1.52527,-0.19427 0.45217,0.45216 0.45217,13.99408 0,14.44625 -0.47674,0.47674 -1.21659,0.3825 -1.52527,-0.19428 z m -33.293894,-1.12864 c -0.195941,-0.19594 -0.3175,-1.15829 -0.3175,-2.51354 v -2.19604 h -1.833185 c -1.313753,0 -1.950993,-0.11781 -2.248958,-0.41578 -0.937977,-0.93797 -0.328943,-1.39777 1.973198,-1.48968 l 1.976653,-0.0789 0.132292,-2.08931 c 0.138086,-2.18083 0.501831,-2.81106 1.419245,-2.45902 0.346835,0.1331 0.432838,0.55559 0.432838,2.12638 0,1.27919 0.118743,2.05883 0.341759,2.24392 0.187968,0.156 1.170233,0.3194 2.182813,0.36312 1.7831,0.077 1.84366,0.10211 1.923883,0.79787 0.09615,0.83386 -0.221888,0.95806 -2.728663,1.0656 l -1.5875,0.0681 -0.07778,2.24053 c -0.07426,2.13912 -0.261907,2.63954 -0.993784,2.65021 -0.152797,0.002 -0.420687,-0.13883 -0.595312,-0.31345 z m 42.248554,0.0188 c -0.52684,-0.14677 -1.35469,-0.67623 -1.83966,-1.1766 -0.77479,-0.79938 -0.89304,-1.11013 -0.97469,-2.56151 -0.10239,-1.81985 0.38726,-2.96172 1.61497,-3.76615 2.40782,-1.57767 5.72916,0.15337 5.72916,2.98595 0,1.00417 -0.29916,1.1128 -3.06435,1.1128 -1.75395,0 -2.22732,0.0803 -2.22732,0.37798 0,1.03408 1.64024,1.64327 3.37503,1.25349 0.73079,-0.1642 1.17493,-0.15068 1.36723,0.0416 1.14511,1.14511 -1.67794,2.37381 -3.98037,1.73241 z m 2.41311,-5.33697 c 0,-0.18917 -0.14287,-0.48683 -0.3175,-0.66145 -0.64843,-0.64843 -2.59291,-0.1851 -2.59291,0.61785 0,0.29338 0.35361,0.38756 1.4552,0.38756 1.01763,0 1.45521,-0.10343 1.45521,-0.34396 z m -33.337498,4.9038 c -1.305187,-0.70182 -2.197342,-2.47696 -2.003465,-3.98634 0.343644,-2.67535 1.743144,-3.69588 5.046174,-3.67972 1.234313,0.006 2.197698,0.13173 2.311052,0.30152 0.106913,0.16014 0.196209,1.79463 0.198438,3.6322 0.0048,3.98987 -0.01682,4.02258 -2.744631,4.1455 -1.456033,0.0656 -2.090943,-0.0278 -2.807568,-0.41316 z m 3.439584,-3.4732 c 0,-1.66023 -0.0858,-2.12128 -0.418515,-2.24895 -1.551347,-0.59531 -3.021069,0.47916 -3.021069,2.20862 0,1.47357 0.692141,2.12869 2.248959,2.12869 h 1.190625 z m 7.768701,3.67858 c -0.540748,-0.21826 -0.574167,-0.45479 -0.758357,-5.36712 -0.20189,-5.3844 -0.07622,-6.27726 0.883547,-6.27726 0.822346,0 1.101942,0.58277 1.101942,2.29681 v 1.66181 l 1.15212,-0.15791 c 1.428401,-0.19579 2.843781,0.41437 3.677601,1.58536 0.45155,0.63414 0.58692,1.19861 0.5901,2.46062 0.005,1.89122 -0.52519,2.84459 -1.99904,3.59613 -0.97065,0.49494 -3.634818,0.61048 -4.647913,0.20156 z m 4.137553,-2.11938 c 1.23975,-1.23976 0.31326,-3.96875 -1.347403,-3.96875 -1.463548,0 -1.563018,0.15334 -1.563018,2.40955 v 2.08836 h 1.190625 c 0.837848,0 1.347416,-0.15679 1.719796,-0.52916 z m 25.92916,1.914 c -1.03235,-0.55512 -2.11666,-2.37482 -2.11666,-3.55221 0,-1.19051 0.79372,-2.82366 1.67851,-3.45369 0.68815,-0.49 1.21912,-0.59524 3.20905,-0.63603 1.57709,-0.0323 2.45096,0.0556 2.58086,0.25984 0.37552,0.5903 0.23554,6.6474 -0.16633,7.197 -0.5532,0.75654 -3.9005,0.87602 -5.18543,0.18509 z m 3.43959,-3.4732 c 0,-1.66023 -0.0858,-2.12128 -0.41852,-2.24895 -1.55135,-0.59531 -3.02107,0.47916 -3.02107,2.20862 0,1.47357 0.69214,2.12869 2.24896,2.12869 h 1.19063 z m 7.8052,3.68803 c -0.29104,-0.12039 -0.80112,-0.51179 -1.13351,-0.8698 -0.56681,-0.61048 -0.59968,-0.83826 -0.52917,-3.66695 l 0.0752,-3.01604 h 0.79375 0.79375 l 0.076,2.76284 c 0.0418,1.51957 0.20518,2.91855 0.36312,3.10886 0.36585,0.44082 2.2391,0.45217 2.52186,0.0153 0.11773,-0.18188 0.27359,-1.58087 0.34635,-3.10884 l 0.13229,-2.77812 h 0.79375 0.79375 l 0.0751,2.84493 c 0.0832,3.15092 -0.0733,3.66658 -1.34876,4.44428 -0.87836,0.53557 -2.77401,0.66869 -3.75343,0.26358 z M 107.89,120.64284 c -0.14914,-0.18029 -0.31146,-0.68443 -0.36071,-1.12031 -0.0726,-0.6422 -0.23724,-0.81782 -0.86831,-0.92604 -1.01544,-0.17414 -1.02387,-0.62042 -0.015,-0.79441 0.66873,-0.11533 0.81459,-0.28196 0.92604,-1.05792 0.16237,-1.13044 1.05834,-1.50202 1.05834,-0.43892 0,1.11767 0.27493,1.49625 1.08664,1.49625 0.504,0 0.76544,0.13555 0.76544,0.39687 0,0.23774 -0.24401,0.39688 -0.60854,0.39688 -0.80911,0 -1.24354,0.47519 -1.24354,1.36021 0,0.83812 -0.34825,1.16145 -0.74036,0.68739 z m 6.08825,-2.3618 c -0.17645,-0.17644 -0.32081,-0.8923 -0.32081,-1.5908 v -1.27 l -1.12448,-0.004 c -1.33611,-0.005 -1.92353,-0.31409 -1.7005,-0.89529 0.11893,-0.30994 0.51613,-0.42358 1.48055,-0.42358 h 1.31802 l 0.0794,-1.52135 c 0.0688,-1.31852 0.1499,-1.52136 0.60852,-1.52136 0.44899,0 0.54921,0.22049 0.66146,1.45521 l 0.13229,1.45521 1.32291,0.13229 c 1.10244,0.11024 1.32292,0.22049 1.32292,0.66146 0,0.44097 -0.22048,0.55121 -1.32292,0.66146 l -1.32291,0.13229 -0.13229,1.43466 c -0.13562,1.47072 -0.43662,1.85935 -1.00211,1.29385 z m -12.46299,-0.45625 c -0.26154,-0.16561 -0.32943,-0.57736 -0.23432,-1.42116 l 0.1339,-1.188 -1.04923,0.14073 c -0.733337,0.0984 -1.119607,0.0296 -1.282982,-0.22842 -0.460769,-0.72769 -0.239242,-0.89813 1.051042,-0.80866 l 1.29324,0.0897 -0.13528,-1.20021 c -0.0969,-0.85931 -0.0222,-1.31331 0.26293,-1.59842 0.53719,-0.53719 0.72502,-0.27732 0.72985,1.00974 0.006,1.55951 0.25483,1.81675 1.65021,1.70492 0.94873,-0.076 1.17402,-0.0149 1.11104,0.30151 -0.0434,0.21828 -0.0881,0.50165 -0.0992,0.62972 -0.0111,0.12806 -0.54919,0.17322 -1.19569,0.10036 -1.33119,-0.15005 -1.47038,0.008 -1.47038,1.67281 0,1.06581 -0.12799,1.19886 -0.7651,0.79541 z m 6.56419,-6.70373 c -0.0847,-0.83657 -0.22576,-1.59277 -0.31343,-1.68044 -0.0877,-0.0877 -0.79225,-0.25154 -1.56575,-0.36417 l -1.40637,-0.20478 1.37975,-0.033 c 1.61984,-0.0388 1.90305,-0.37328 1.97321,-2.33072 0.0419,-1.16903 0.0583,-1.13226 0.19843,0.44563 l 0.15277,1.71979 1.5875,0.15396 c 1.48332,0.14386 1.50835,0.15688 0.3813,0.19844 -1.70043,0.0627 -2.06502,0.42807 -2.15654,2.16114 l -0.0768,1.45521 z m 9.19947,0.42413 c -0.10004,-0.10004 -0.1819,-0.57123 -0.1819,-1.04708 0,-0.7827 -0.082,-0.87308 -0.85989,-0.94809 -1.11449,-0.10746 -1.1612,-0.8195 -0.0661,-1.00835 0.66944,-0.11546 0.81447,-0.28161 0.92604,-1.06094 0.0839,-0.58618 0.2774,-0.92404 0.52917,-0.92404 0.25177,0 0.44524,0.33786 0.52917,0.92404 0.11157,0.77933 0.2566,0.94548 0.92604,1.06094 0.46284,0.0798 0.79375,0.30018 0.79375,0.52857 0,0.22838 -0.33091,0.44874 -0.79375,0.52857 -0.66437,0.11457 -0.81532,0.28408 -0.92604,1.0399 -0.12892,0.87994 -0.50943,1.27349 -0.87644,0.90648 z m -18.967314,-1.14473 c 0,-0.49532 -0.156459,-0.86654 -0.396875,-0.94165 -1.264166,-0.39494 -1.327844,-0.47072 -0.529167,-0.62973 0.661792,-0.13176 0.807532,-0.3008 0.87666,-1.01677 0.0456,-0.47231 0.186883,-0.85874 0.313965,-0.85874 0.127082,0 0.268364,0.38643 0.313965,0.85874 0.06913,0.71597 0.214868,0.88501 0.87666,1.01677 0.798676,0.15901 0.734996,0.23479 -0.529167,0.62973 -0.218281,0.0682 -0.396875,0.41835 -0.396875,0.77813 0,0.35978 -0.119062,0.72773 -0.264583,0.81767 -0.154588,0.0955 -0.264583,-0.17641 -0.264583,-0.65415 z m 15.786804,-3.62328 c -0.097,-0.097 -0.17821,-0.66256 -0.18044,-1.25677 -0.005,-1.46412 -0.20727,-1.69156 -1.58779,-1.78975 -0.84058,-0.0598 -1.18628,-0.20004 -1.18628,-0.48126 0,-0.28122 0.3457,-0.42146 1.18628,-0.48125 1.38553,-0.0986 1.58233,-0.32392 1.58779,-1.81824 0.004,-1.160271 0.42852,-1.73117 0.82333,-1.107842 0.12703,0.200542 0.23278,0.930172 0.235,1.621392 l 0.004,1.25678 h 1.15823 c 0.70266,0 1.28675,0.15487 1.485,0.39374 0.39467,0.47555 0.12598,0.60901 -1.45261,0.72148 -1.00292,0.0714 -1.06207,0.12388 -1.12975,1.00144 -0.14488,1.87835 -0.42607,2.45703 -0.94282,1.94028 z m -6.08322,-5.11528 c -0.0812,-0.21828 -0.18556,-0.635 -0.23194,-0.92604 -0.0498,-0.31245 -0.32704,-0.56379 -0.67695,-0.61371 -0.76711,-0.10945 -0.76536,-0.515577 0.003,-0.624658 0.40506,-0.05753 0.62361,-0.295938 0.68386,-0.746007 0.11626,-0.868418 0.57291,-1.349633 0.57291,-0.603722 0,0.909006 0.28734,1.397473 0.82206,1.397473 0.27547,0 0.50086,0.119062 0.50086,0.264583 0,0.145521 -0.23586,0.264581 -0.52413,0.264581 -0.35648,0 -0.57545,0.23273 -0.6846,0.72761 -0.26171,1.1866 -0.31002,1.27598 -0.46477,0.85989 z"
         id="path107"
         inkscape:connector-curvature="0" />
      <path
         style="fill:#7686a0;stroke-width:0.26458335"
         d="m 107.74841,139.58551 c -0.097,-0.097 -0.17639,-3.31543 -0.17639,-7.15205 0,-6.15196 0.05,-6.99486 0.42358,-7.13821 0.23297,-0.0894 0.5288,0.004 0.65741,0.20674 0.37559,0.59317 0.3053,13.56155 -0.0756,13.94241 -0.35969,0.35969 -0.57398,0.39617 -0.82903,0.14111 z m -33.481647,-1.4847 c -0.171694,-0.17169 -0.296824,-1.22259 -0.296824,-2.49287 v -2.19604 h -1.737186 c -1.905018,0 -2.822428,-0.3251 -2.594382,-0.91938 0.106308,-0.27704 0.703984,-0.40328 2.172959,-0.45899 l 2.026317,-0.0768 0.132292,-2.24895 c 0.119322,-2.02848 0.184171,-2.24896 0.661458,-2.24896 0.474799,0 0.537267,0.20266 0.608001,1.97255 0.04336,1.0849 0.206765,2.1267 0.363125,2.31511 0.185657,0.2237 0.961538,0.34255 2.236271,0.34255 1.769332,0 1.951978,0.049 1.951978,0.52412 0,0.6091 -0.503099,0.76538 -2.778125,0.86298 l -1.5875,0.0681 -0.07609,2.29062 c -0.07665,2.3076 -0.388267,2.96003 -1.082295,2.266 z m 42.433387,0.0918 c -1.99459,-0.47962 -3.04009,-1.76049 -3.04172,-3.72646 -10e-4,-1.75855 0.7335,-2.93377 2.22353,-3.5555 1.13528,-0.4737 1.33112,-0.48476 2.3428,-0.13229 1.26766,0.44166 2.31185,1.76833 2.31185,2.93729 v 0.75463 h -2.22732 c -1.22503,0 -2.41565,0.0723 -2.64584,0.1606 -0.74341,0.28527 -0.49725,1.38542 0.44138,1.97261 0.72257,0.45203 1.12399,0.51143 2.51355,0.37193 1.38631,-0.13917 1.65364,-0.1 1.65364,0.24261 0,0.76742 -2.07684,1.33408 -3.57187,0.97458 z m 2.24896,-5.02635 c 0,-1.34223 -1.84555,-1.77723 -3.07036,-0.72369 -1.02599,0.88252 -0.6369,1.23396 1.36618,1.23396 1.50675,0 1.70418,-0.0591 1.70418,-0.51027 z m -33.521566,4.50543 c -1.279038,-0.80222 -1.781414,-1.75176 -1.781414,-3.36705 0,-2.62859 1.512392,-3.78911 4.831147,-3.70711 l 2.02912,0.0501 0.06639,3.30037 c 0.03652,1.8152 -0.04682,3.47635 -0.185196,3.69144 -0.174585,0.27137 -0.842758,0.4173 -2.18306,0.4768 -1.574584,0.0699 -2.087702,-0.0122 -2.776991,-0.44458 z m 3.263058,-0.81655 c 0.18509,-0.002 0.349066,-0.74179 0.426108,-1.92184 0.15599,-2.38929 -0.192399,-3.10886 -1.505189,-3.10886 -1.262942,0 -1.698092,0.21885 -2.141993,1.07726 -1.101282,2.12964 0.26621,4.44886 2.391036,4.05511 0.291042,-0.0539 0.664559,-0.0997 0.830038,-0.10167 z m 7.983196,0.98857 c -0.611167,-0.48585 -0.923438,-10.30301 -0.343046,-10.78469 0.822135,-0.68231 1.187104,-0.11384 1.187104,1.84901 v 1.8627 l 1.389062,-0.15896 c 1.180942,-0.13515 1.527812,-0.0653 2.315102,0.46598 1.0862,0.73304 1.8511,2.11146 1.85168,3.33692 5.2e-4,1.30501 -0.888,2.82509 -1.94461,3.32649 -1.08478,0.51476 -3.856514,0.57856 -4.455292,0.10255 z m 4.217492,-1.59604 c 0.46107,-0.42343 0.59532,-0.83736 0.59532,-1.83554 0,-1.67918 -0.81323,-2.58769 -2.316312,-2.58769 -1.45156,0 -1.652442,0.32912 -1.652442,2.70728 0,1.90086 0.04924,2.09231 0.595312,2.31452 0.811832,0.33035 2.059322,0.0616 2.778122,-0.59857 z m 25.73073,1.35054 c -1.93569,-1.29885 -2.36178,-4.01924 -0.90136,-5.75485 0.83543,-0.99284 1.89541,-1.30853 4.20865,-1.25344 l 1.85209,0.0441 0.0664,3.30719 c 0.0365,1.81896 -0.0468,3.48317 -0.1852,3.69826 -0.17356,0.26978 -0.85058,0.42038 -2.18305,0.48559 -1.67989,0.0822 -2.0521,0.0136 -2.85752,-0.52685 z m 3.02549,-0.74014 c 0.65036,-0.24726 0.67868,-0.34625 0.67868,-2.37194 0,-1.81916 -0.0714,-2.15209 -0.51177,-2.3878 -0.9359,-0.50087 -2.11479,-0.32195 -2.80816,0.42621 -1.23589,1.33355 -0.60299,4.09395 1.0101,4.40554 0.32452,0.0627 0.67158,0.13018 0.77125,0.15 0.0997,0.0198 0.48662,-0.0801 0.8599,-0.22201 z m 8.02752,0.90394 c -1.0936,-0.59347 -1.26342,-1.16056 -1.26342,-4.21878 0,-2.76681 0.01,-2.81251 0.59531,-2.72938 0.56582,0.0804 0.5991,0.21514 0.67172,2.72089 0.0889,3.06658 0.36437,3.58137 1.91658,3.58137 1.44875,0 1.69108,-0.46599 1.84347,-3.54483 0.12492,-2.52393 0.16547,-2.67759 0.7276,-2.75743 0.58535,-0.0831 0.59532,-0.0374 0.59532,2.72938 0,1.54765 -0.1226,3.04298 -0.27243,3.32295 -0.64882,1.21234 -3.31627,1.7087 -4.81415,0.89583 z m -29.54676,-18.15893 c -0.0149,-0.39159 -0.15426,-0.79059 -0.3097,-0.88666 -0.15544,-0.0961 -0.20025,-0.37099 -0.0996,-0.61093 0.10068,-0.23994 0.2752,-0.79344 0.38783,-1.23001 l 0.20477,-0.79375 0.0271,0.84429 c 0.0149,0.46435 0.14809,0.91906 0.29598,1.01046 0.1479,0.0914 0.18843,0.2964 0.0901,0.45555 -0.0983,0.15914 -0.2667,0.65693 -0.37411,1.10619 -0.19043,0.79658 -0.19595,0.79918 -0.22236,0.10486 z m -6.46527,-1.71336 c -0.097,-0.097 -0.17639,-0.74533 -0.17639,-1.44071 v -1.26432 l -1.23609,-0.0807 c -1.765237,-0.11516 -1.857219,-0.7421 -0.10888,-0.7421 h 1.34497 v -1.16898 c 0,-0.64294 0.072,-1.35664 0.16001,-1.58598 0.27673,-0.72114 0.63357,-0.17024 0.63779,0.98464 0.005,1.48294 0.20358,1.71901 1.52632,1.81824 0.61864,0.0464 1.1248,0.20344 1.1248,0.34896 0,0.14552 -0.50616,0.30255 -1.1248,0.34896 -1.32534,0.0994 -1.52092,0.33441 -1.52632,1.83385 -0.004,1.05241 -0.20703,1.36248 -0.62141,0.94809 z m 12.2067,-1.21267 -0.08,-1.38907 -1.26326,-0.13229 c -0.6948,-0.0728 -1.26327,-0.25135 -1.26327,-0.39687 0,-0.14552 0.56847,-0.32412 1.26327,-0.39688 l 1.26326,-0.13229 0.13229,-1.45521 c 0.14308,-1.5738 0.61685,-1.87743 0.73288,-0.46968 0.15854,1.92345 0.23266,2.02217 1.58364,2.10889 1.6026,0.10287 1.52264,0.56927 -0.12721,0.74204 l -1.26327,0.13229 -0.08,1.38907 c -0.0561,0.97389 -0.19033,1.38906 -0.44919,1.38906 -0.25887,0 -0.39313,-0.41517 -0.4492,-1.38906 z m -5.79025,-5.55595 c -0.0847,-0.83657 -0.22576,-1.59277 -0.31343,-1.68044 -0.0877,-0.0877 -0.79225,-0.25154 -1.56575,-0.36417 l -1.40637,-0.20478 1.37975,-0.033 c 1.61984,-0.0388 1.90305,-0.37328 1.97321,-2.33072 0.0419,-1.16903 0.0583,-1.13226 0.19843,0.44563 l 0.15277,1.71979 1.5875,0.15396 c 1.48332,0.14386 1.50835,0.15688 0.3813,0.19844 -1.70043,0.0627 -2.06502,0.42807 -2.15654,2.16114 l -0.0768,1.45521 z m 9.42829,-0.99249 c -0.26648,-1.03804 -0.26469,-1.09067 0.0809,-2.38125 l 0.24798,-0.92604 0.0271,0.80698 c 0.0149,0.44384 0.16491,0.9448 0.33337,1.11326 0.21763,0.21764 0.22497,0.40526 0.0254,0.64823 -0.15452,0.18807 -0.32504,0.6396 -0.37895,1.0034 -0.0888,0.59953 -0.12026,0.57475 -0.33573,-0.26458 z m -3.28388,-4.90802 c -0.0205,-0.73488 -0.17508,-1.47398 -0.34354,-1.64243 -0.22189,-0.22189 -0.2269,-0.40194 -0.0182,-0.65342 0.15845,-0.19093 0.33501,-0.88058 0.39236,-1.53257 l 0.10424,-1.18544 0.0462,1.24116 c 0.0254,0.68264 0.17341,1.31976 0.32885,1.41583 0.15544,0.0961 0.1958,0.37098 0.0897,0.61092 -0.10611,0.23994 -0.27606,1.03157 -0.37767,1.75918 l -0.18473,1.32291 z"
         id="path105"
         inkscape:connector-curvature="0" />
      <path
         style="fill:#cc6156;stroke-width:0.26458335"
         d="m 107.57202,132.48586 c 0,-6.83507 0.0133,-7.01146 0.52917,-7.01146 0.51585,0 0.52917,0.17639 0.52917,7.01146 0,6.83507 -0.0133,7.01146 -0.52917,7.01146 -0.51586,0 -0.52917,-0.17639 -0.52917,-7.01146 z m -33.337498,3.5119 c 0,-1.37034 -0.121113,-2.33655 -0.3175,-2.53294 -0.18953,-0.18953 -1.103802,-0.3175 -2.268358,-0.3175 -1.71523,0 -1.940188,-0.0559 -1.862507,-0.46302 0.07306,-0.38286 0.430081,-0.47669 2.062199,-0.54194 1.167289,-0.0467 2.056433,-0.20884 2.175955,-0.39687 0.11116,-0.17488 0.203931,-1.18117 0.20616,-2.23619 0.0036,-1.72727 0.05567,-1.91823 0.522518,-1.91823 0.466793,0 0.526125,0.21755 0.595312,2.18281 l 0.07685,2.18281 2.116667,0.1323 c 1.646296,0.10289 2.116667,0.22048 2.116667,0.52916 0,0.30868 -0.470371,0.42628 -2.116667,0.52917 l -2.116667,0.13229 -0.132291,2.37858 c -0.110815,1.99243 -0.207461,2.3929 -0.595313,2.4668 -0.411131,0.0783 -0.463021,-0.16007 -0.463021,-2.12723 z m 11.460776,1.67914 c -0.65005,-0.30493 -1.277984,-0.85002 -1.521354,-1.32065 -0.895659,-1.73201 -0.256594,-4.45399 1.225665,-5.2205 0.460631,-0.2382 1.385217,-0.38602 2.279426,-0.36441 0.827445,0.02 1.742571,-0.003 2.033612,-0.0506 0.503232,-0.0827 0.532813,0.0806 0.603551,3.33116 0.04091,1.87997 -0.03461,3.52712 -0.167835,3.66034 -0.133222,0.13322 -0.940601,0.2966 -1.794176,0.36307 -1.178579,0.0918 -1.818268,-0.004 -2.658889,-0.3984 z m 3.302974,-0.87833 c 0.488573,-0.48857 0.420897,-4.29439 -0.08381,-4.71327 -0.668178,-0.55453 -2.446536,-0.41192 -3.15427,0.25296 -1.182618,1.11102 -0.992828,3.65207 0.326249,4.36808 0.873174,0.47397 2.479221,0.52484 2.911833,0.0922 z m 8.056563,1.07982 -0.859896,-0.24828 v -5.2841 c 0,-5.10772 0.01766,-5.28411 0.529167,-5.28411 0.474395,0 0.529166,0.17639 0.529166,1.70418 0,1.03771 0.12386,1.78072 0.316712,1.89992 0.174191,0.10765 0.878448,0.16592 1.565016,0.12948 2.37096,-0.12584 3.67452,1.15926 3.67452,3.62249 0,2.8846 -2.51378,4.3962 -5.754685,3.46042 z m 3.998385,-1.53426 c 0.42546,-0.42546 0.56568,-0.89028 0.56568,-1.87523 0,-1.74363 -0.89008,-2.71666 -2.485054,-2.71666 -1.648071,0 -1.880574,0.33842 -1.880574,2.73724 0,1.6876 0.08574,2.12388 0.463021,2.35597 0.71963,0.44271 2.688727,0.14688 3.336927,-0.50132 z m 14.72616,1.36684 c -3.43263,-1.72461 -2.37424,-6.94023 1.40911,-6.94391 1.36176,-10e-4 2.41835,0.66936 2.9653,1.88227 0.74055,1.64226 0.50555,1.82091 -2.39531,1.82091 -2.77185,0 -3.16919,0.23012 -2.51333,1.45561 0.48414,0.9046 1.6254,1.28763 3.31658,1.11308 1.15616,-0.11933 1.44571,-0.0722 1.44571,0.2351 0,0.91355 -2.71995,1.19464 -4.22806,0.43694 z m 3.34241,-4.44121 c 0.0858,-0.2237 -0.0554,-0.64042 -0.3139,-0.92605 -0.9235,-1.02046 -3.56295,-0.41403 -3.56295,0.81861 0,0.46042 0.19448,0.51417 1.86038,0.51417 1.42964,0 1.89653,-0.0942 2.01647,-0.40673 z m 7.84851,4.40714 c -1.33052,-0.62413 -1.93578,-1.66812 -1.93578,-3.33896 0,-2.46342 1.28746,-3.63267 3.91725,-3.55757 0.82869,0.0237 1.74484,2.6e-4 2.03588,-0.0518 0.5037,-0.0902 0.53274,0.0697 0.60355,3.3233 0.0409,1.87997 -0.0346,3.52712 -0.16784,3.66034 -0.13322,0.13322 -0.9406,0.2966 -1.79417,0.36307 -1.17858,0.0918 -1.81827,-0.004 -2.65889,-0.3984 z m 3.30297,-0.87833 c 0.48858,-0.48857 0.4209,-4.29439 -0.0838,-4.71327 -0.66906,-0.55527 -2.44658,-0.41188 -3.15601,0.2546 -1.23717,1.16226 -1.04371,3.62095 0.34424,4.37496 0.85908,0.46669 2.46613,0.51316 2.89558,0.0837 z m 8.07321,1.09236 c -0.46379,-0.13871 -1.0928,-0.56945 -1.3978,-0.9572 -0.4934,-0.62725 -0.5463,-0.99891 -0.47967,-3.37018 0.0607,-2.15938 0.15021,-2.66519 0.47176,-2.66519 0.31866,0 0.42295,0.53912 0.52917,2.73539 0.11956,2.47214 0.1924,2.78406 0.75691,3.24114 0.80982,0.65572 2.01406,0.64521 2.68267,-0.0234 0.45218,-0.45218 0.52976,-0.88524 0.53322,-2.97656 0.004,-2.59545 0.20901,-3.28677 0.89529,-3.02342 0.3448,0.13231 0.42358,0.60374 0.42358,2.53487 0,1.30478 -0.11375,2.67151 -0.25278,3.03717 -0.48265,1.26949 -2.47525,1.97195 -4.16235,1.46738 z m -30.36362,-19.53768 c -0.0852,-0.13784 -0.0421,-0.32032 0.0957,-0.40551 0.13784,-0.0852 0.32032,-0.0421 0.40551,0.0957 0.0852,0.13784 0.0421,0.32032 -0.0957,0.40551 -0.13784,0.0852 -0.32032,0.0421 -0.40551,-0.0957 z m -6.31986,-0.46357 c -0.097,-0.097 -0.17639,-0.74533 -0.17639,-1.44071 v -1.26432 l -1.23609,-0.0807 c -1.765237,-0.11516 -1.857219,-0.7421 -0.10888,-0.7421 h 1.34497 v -1.16898 c 0,-0.64294 0.072,-1.35664 0.16001,-1.58598 0.27673,-0.72114 0.63357,-0.17024 0.63779,0.98464 0.005,1.48294 0.20358,1.71901 1.52632,1.81824 0.61864,0.0464 1.1248,0.20344 1.1248,0.34896 0,0.14552 -0.50616,0.30255 -1.1248,0.34896 -1.32534,0.0994 -1.52092,0.33441 -1.52632,1.83385 -0.004,1.05241 -0.20703,1.36248 -0.62141,0.94809 z m 12.52361,-0.89934 c 0,-1.68536 -0.34452,-2.0942 -1.79525,-2.13039 l -1.24746,-0.0311 1.29733,-0.21733 c 1.5123,-0.25335 1.73585,-0.51466 1.74132,-2.03553 0.002,-0.61847 0.12312,-1.12448 0.26864,-1.12448 0.14552,0 0.26458,0.58828 0.26458,1.3073 0,1.45489 0.1635,1.6347 1.71979,1.89145 l 1.05834,0.1746 -0.97055,0.0331 c -1.65871,0.0566 -1.80758,0.2033 -1.80758,1.78122 0,0.78479 -0.11906,1.4269 -0.26458,1.4269 -0.14552,0 -0.26458,-0.48408 -0.26458,-1.07573 z m -6.10716,-5.86928 c -0.0847,-0.83657 -0.22576,-1.59277 -0.31343,-1.68044 -0.0877,-0.0877 -0.79225,-0.25154 -1.56575,-0.36417 l -1.40637,-0.20478 1.37975,-0.033 c 1.61984,-0.0388 1.90305,-0.37328 1.97321,-2.33072 0.0419,-1.16903 0.0583,-1.13226 0.19843,0.44563 l 0.15277,1.71979 1.5875,0.15396 c 1.48332,0.14386 1.50835,0.15688 0.3813,0.19844 -1.70043,0.0627 -2.06502,0.42807 -2.15654,2.16114 l -0.0768,1.45521 z m 9.28216,-2.05082 c 0,-0.14553 0.11906,-0.26459 0.26458,-0.26459 0.14552,0 0.26458,0.11906 0.26458,0.26459 0,0.14552 -0.11906,0.26458 -0.26458,0.26458 -0.14552,0 -0.26458,-0.11906 -0.26458,-0.26458 z"
         id="path103"
         inkscape:connector-curvature="0" />
      <path
         style="fill:#5a698c;stroke-width:0.26458335"
         d="m 107.57202,132.48586 c 0,-6.83507 0.0133,-7.01146 0.52917,-7.01146 0.51585,0 0.52917,0.17639 0.52917,7.01146 0,6.83507 -0.0133,7.01146 -0.52917,7.01146 -0.51586,0 -0.52917,-0.17639 -0.52917,-7.01146 z m -33.337498,3.5119 c 0,-1.37034 -0.121113,-2.33655 -0.3175,-2.53294 -0.18953,-0.18953 -1.103802,-0.3175 -2.268358,-0.3175 -1.71523,0 -1.940188,-0.0559 -1.862507,-0.46302 0.07306,-0.38286 0.430081,-0.47669 2.062199,-0.54194 1.167289,-0.0467 2.056433,-0.20884 2.175955,-0.39687 0.11116,-0.17488 0.203931,-1.18117 0.20616,-2.23619 0.0036,-1.72727 0.05567,-1.91823 0.522518,-1.91823 0.466793,0 0.526125,0.21755 0.595312,2.18281 l 0.07685,2.18281 2.116667,0.1323 c 1.646296,0.10289 2.116667,0.22048 2.116667,0.52916 0,0.30868 -0.470371,0.42628 -2.116667,0.52917 l -2.116667,0.13229 -0.132291,2.37858 c -0.110815,1.99243 -0.207461,2.3929 -0.595313,2.4668 -0.411131,0.0783 -0.463021,-0.16007 -0.463021,-2.12723 z m 11.460776,1.67914 c -0.65005,-0.30493 -1.277984,-0.85002 -1.521354,-1.32065 -0.895659,-1.73201 -0.256594,-4.45399 1.225665,-5.2205 0.460631,-0.2382 1.385217,-0.38602 2.279426,-0.36441 0.827445,0.02 1.742571,-0.003 2.033612,-0.0506 0.503232,-0.0827 0.532813,0.0806 0.603551,3.33116 0.04091,1.87997 -0.03461,3.52712 -0.167835,3.66034 -0.133222,0.13322 -0.940601,0.2966 -1.794176,0.36307 -1.178579,0.0918 -1.818268,-0.004 -2.658889,-0.3984 z m 3.302974,-0.87833 c 0.488573,-0.48857 0.420897,-4.29439 -0.08381,-4.71327 -0.668178,-0.55453 -2.446536,-0.41192 -3.15427,0.25296 -1.182618,1.11102 -0.992828,3.65207 0.326249,4.36808 0.873174,0.47397 2.479221,0.52484 2.911833,0.0922 z m 8.056563,1.07982 -0.859896,-0.24828 v -5.2841 c 0,-5.10772 0.01766,-5.28411 0.529167,-5.28411 0.474395,0 0.529166,0.17639 0.529166,1.70418 0,1.03771 0.12386,1.78072 0.316712,1.89992 0.174191,0.10765 0.878448,0.16592 1.565016,0.12948 2.37096,-0.12584 3.67452,1.15926 3.67452,3.62249 0,2.8846 -2.51378,4.3962 -5.754685,3.46042 z m 3.998385,-1.53426 c 0.42546,-0.42546 0.56568,-0.89028 0.56568,-1.87523 0,-1.74363 -0.89008,-2.71666 -2.485054,-2.71666 -1.648071,0 -1.880574,0.33842 -1.880574,2.73724 0,1.6876 0.08574,2.12388 0.463021,2.35597 0.71963,0.44271 2.688727,0.14688 3.336927,-0.50132 z m 14.72616,1.36684 c -3.43263,-1.72461 -2.37424,-6.94023 1.40911,-6.94391 1.36176,-10e-4 2.41835,0.66936 2.9653,1.88227 0.74055,1.64226 0.50555,1.82091 -2.39531,1.82091 -2.77185,0 -3.16919,0.23012 -2.51333,1.45561 0.48414,0.9046 1.6254,1.28763 3.31658,1.11308 1.15616,-0.11933 1.44571,-0.0722 1.44571,0.2351 0,0.91355 -2.71995,1.19464 -4.22806,0.43694 z m 3.34241,-4.44121 c 0.0858,-0.2237 -0.0554,-0.64042 -0.3139,-0.92605 -0.9235,-1.02046 -3.56295,-0.41403 -3.56295,0.81861 0,0.46042 0.19448,0.51417 1.86038,0.51417 1.42964,0 1.89653,-0.0942 2.01647,-0.40673 z m 7.84851,4.40714 c -1.33052,-0.62413 -1.93578,-1.66812 -1.93578,-3.33896 0,-2.46342 1.28746,-3.63267 3.91725,-3.55757 0.82869,0.0237 1.74484,2.6e-4 2.03588,-0.0518 0.5037,-0.0902 0.53274,0.0697 0.60355,3.3233 0.0409,1.87997 -0.0346,3.52712 -0.16784,3.66034 -0.13322,0.13322 -0.9406,0.2966 -1.79417,0.36307 -1.17858,0.0918 -1.81827,-0.004 -2.65889,-0.3984 z m 3.30297,-0.87833 c 0.48858,-0.48857 0.4209,-4.29439 -0.0838,-4.71327 -0.66906,-0.55527 -2.44658,-0.41188 -3.15601,0.2546 -1.23717,1.16226 -1.04371,3.62095 0.34424,4.37496 0.85908,0.46669 2.46613,0.51316 2.89558,0.0837 z m 8.07321,1.09236 c -0.46379,-0.13871 -1.0928,-0.56945 -1.3978,-0.9572 -0.4934,-0.62725 -0.5463,-0.99891 -0.47967,-3.37018 0.0607,-2.15938 0.15021,-2.66519 0.47176,-2.66519 0.31866,0 0.42295,0.53912 0.52917,2.73539 0.11956,2.47214 0.1924,2.78406 0.75691,3.24114 0.80982,0.65572 2.01406,0.64521 2.68267,-0.0234 0.45218,-0.45218 0.52976,-0.88524 0.53322,-2.97656 0.004,-2.59545 0.20901,-3.28677 0.89529,-3.02342 0.3448,0.13231 0.42358,0.60374 0.42358,2.53487 0,1.30478 -0.11375,2.67151 -0.25278,3.03717 -0.48265,1.26949 -2.47525,1.97195 -4.16235,1.46738 z m -30.36362,-19.53768 c -0.0852,-0.13784 -0.0421,-0.32032 0.0957,-0.40551 0.13784,-0.0852 0.32032,-0.0421 0.40551,0.0957 0.0852,0.13784 0.0421,0.32032 -0.0957,0.40551 -0.13784,0.0852 -0.32032,0.0421 -0.40551,-0.0957 z m 6.20375,-1.36291 c 0,-1.68536 -0.34452,-2.0942 -1.79525,-2.13039 l -1.24746,-0.0311 1.29733,-0.21733 c 1.5123,-0.25335 1.73585,-0.51466 1.74132,-2.03553 0.002,-0.61847 0.12312,-1.12448 0.26864,-1.12448 0.14552,0 0.26458,0.58828 0.26458,1.3073 0,1.45489 0.1635,1.6347 1.71979,1.89145 l 1.05834,0.1746 -0.97055,0.0331 c -1.65871,0.0566 -1.80758,0.2033 -1.80758,1.78122 0,0.78479 -0.11906,1.4269 -0.26458,1.4269 -0.14552,0 -0.26458,-0.48408 -0.26458,-1.07573 z m 3.175,-7.9201 c 0,-0.14553 0.11906,-0.26459 0.26458,-0.26459 0.14552,0 0.26458,0.11906 0.26458,0.26459 0,0.14552 -0.11906,0.26458 -0.26458,0.26458 -0.14552,0 -0.26458,-0.11906 -0.26458,-0.26458 z"
         id="path101"
         inkscape:connector-curvature="0" />
      <path
         style="fill:#334671;stroke-width:0.26458335"
         d="m 108.0174,139.32534 c -0.0994,-0.0994 -0.18079,-3.2665 -0.18079,-7.03792 0,-5.36803 0.0718,-6.8332 0.33072,-6.747 0.25046,0.0834 0.34792,1.73797 0.40152,6.81719 0.0648,6.13535 -0.0415,7.4777 -0.55145,6.96773 z m -33.782878,-3.61156 c 0,-1.35526 -0.121559,-2.3176 -0.3175,-2.51354 -0.184689,-0.18469 -1.070092,-0.3175 -2.116666,-0.3175 -1.023056,0 -1.799167,-0.11414 -1.799167,-0.26459 0,-0.14985 0.774402,-0.26634 1.785937,-0.26863 0.982266,-0.002 1.929288,-0.0952 2.104493,-0.20653 0.192156,-0.12214 0.349631,-1.03071 0.396875,-2.28982 0.05163,-1.37588 0.191048,-2.12464 0.409049,-2.19677 0.245869,-0.0814 0.330729,0.42576 0.330729,1.97637 0,1.26951 0.124256,2.21006 0.3175,2.4033 0.188954,0.18895 1.099491,0.3175 2.248959,0.3175 1.11125,0 1.931458,0.11236 1.931458,0.26458 0,0.15093 -0.78745,0.26459 -1.833184,0.26459 -2.459077,0 -2.664733,0.22607 -2.664733,2.92931 0,1.6883 -0.07747,2.09777 -0.396875,2.09777 -0.3209,0 -0.396875,-0.42039 -0.396875,-2.19604 z m 11.460352,1.80878 c -1.58192,-0.68802 -2.259638,-3.2734 -1.32828,-5.06717 0.615748,-1.18591 1.804102,-1.64721 4.023137,-1.56173 l 1.852083,0.0713 0.07509,3.13869 c 0.0651,2.72111 0.01437,3.18309 -0.381299,3.47241 -0.603,0.44093 -3.17861,0.40841 -4.240731,-0.0535 z m 3.553885,-0.84789 c 0.188871,-0.2583 0.331597,-1.22889 0.331597,-2.255 0,-2.21846 -0.47928,-2.85985 -2.13702,-2.85985 -2.113042,0 -3.283894,2.23421 -2.301164,4.39106 0.617581,1.35545 3.299118,1.82807 4.106587,0.72379 z m 7.673784,1.05276 c -0.421515,-0.11015 -0.463021,-0.59559 -0.463021,-5.41531 0,-4.11739 0.07352,-5.27 0.33073,-5.18495 0.214137,0.0708 0.358364,0.78956 0.409122,2.03888 l 0.07839,1.92953 1.300567,-0.17253 c 2.393129,-0.31746 3.821119,0.73669 4.111609,3.03521 0.2988,2.36423 -1.34298,3.98085 -3.98146,3.92046 -0.727605,-0.0166 -1.531276,-0.0847 -1.785937,-0.15129 z m 3.360637,-0.72125 c 1.13249,-0.47319 1.46801,-1.1039 1.46801,-2.75961 0,-1.14559 -0.10584,-1.40585 -0.81405,-2.00177 -0.86841,-0.73072 -2.242195,-0.90875 -3.172095,-0.41109 -0.447759,0.23963 -0.511773,0.57165 -0.511773,2.65436 0,2.22135 0.03979,2.39646 0.595313,2.61976 0.859057,0.34529 1.421061,0.32183 2.434595,-0.10165 z m 15.19269,0.45816 c -2.27978,-1.41489 -1.9949,-5.30504 0.46373,-6.33232 2.00559,-0.83799 4.33242,0.53526 4.33242,2.55692 0,0.47346 -0.1951,0.51671 -2.33068,0.51671 -2.8809,0 -3.48907,0.3126 -2.98337,1.53346 0.48985,1.1826 1.8456,1.74889 3.67284,1.53413 1.28293,-0.15078 1.41353,-0.12356 1.11767,0.23292 -0.46811,0.56404 -3.34171,0.53591 -4.27261,-0.0418 z m 3.72378,-3.90323 c 0.67245,-0.81026 -0.5757,-2.00129 -2.09726,-2.00129 -1.23613,0 -2.60231,1.5482 -1.94564,2.20486 0.35852,0.35853 3.71674,0.18943 4.0429,-0.20357 z m 7.77307,3.96265 c -1.16681,-0.50754 -1.77625,-1.5463 -1.77102,-3.01859 0.009,-2.56104 1.69694,-4.06768 3.97331,-3.54677 0.65539,0.14997 1.27487,0.15636 1.52615,0.0157 0.89609,-0.50147 1.02527,0.0162 0.83134,3.33159 -0.11538,1.97258 -0.30653,3.27613 -0.49831,3.39811 -0.51557,0.32791 -3.16352,0.21051 -4.06147,-0.18008 z m 3.38103,-0.59652 c 0.11303,-0.11443 0.28719,-1.11572 0.38702,-2.2251 0.16538,-1.83781 0.13151,-2.06706 -0.38112,-2.57969 -0.87043,-0.87043 -2.5112,-0.77143 -3.4934,0.21077 -1.32444,1.32444 -0.94508,3.95912 0.6754,4.6907 0.79398,0.35845 2.41763,0.30263 2.8121,-0.0967 z m 7.90994,0.80993 c -0.21828,-0.0876 -0.66477,-0.40301 -0.99219,-0.7009 -0.54454,-0.49542 -0.59531,-0.77647 -0.59531,-3.29566 0,-2.0851 0.0803,-2.72753 0.33073,-2.64484 0.22249,0.0735 0.37402,0.96823 0.46302,2.73403 0.0728,1.44365 0.23315,2.78098 0.35643,2.97186 0.64998,1.00641 3.03599,0.86213 3.61435,-0.21855 0.1444,-0.26982 0.26255,-1.62951 0.26255,-3.02152 0,-2.07333 0.0718,-2.53094 0.39688,-2.53094 0.32617,0 0.39687,0.46873 0.39687,2.63108 0,2.36694 -0.0613,2.70238 -0.61088,3.34127 -0.47858,0.55639 -0.89401,0.73004 -1.91823,0.80183 -0.71904,0.0504 -1.48594,0.0199 -1.70422,-0.0677 z m -24.03983,-21.17684 c -0.0205,-0.7554 -0.16669,-1.45344 -0.32489,-1.55122 -0.20713,-0.12801 -0.20713,-0.25828 0,-0.4654 0.1582,-0.1582 0.3044,-0.88891 0.32489,-1.62379 l 0.0373,-1.33614 0.22331,1.45521 c 0.12282,0.80036 0.22331,1.57427 0.22331,1.71979 0,0.14552 -0.10049,0.91942 -0.22331,1.71979 l -0.22331,1.45521 z"
         id="path99"
         inkscape:connector-curvature="0" />
      <path
         style="fill:#273c69;stroke-width:0.26458335"
         d="m 108.013,139.05635 c -0.29537,-0.29537 -0.20913,-13.31736 0.0882,-13.31736 0.16947,0 0.26458,2.42534 0.26458,6.74687 0,3.71078 -0.0397,6.74688 -0.0882,6.74688 -0.0485,0 -0.16757,-0.0794 -0.26458,-0.17639 z m -33.529001,-3.52778 -0.117185,-2.51354 -2.116667,-0.14992 -2.116666,-0.14992 1.671039,-0.0485 c 2.561339,-0.0744 2.687149,-0.20175 2.735551,-2.7698 l 0.04096,-2.17351 0.166434,2.16973 c 0.09154,1.19335 0.255972,2.25926 0.365407,2.3687 0.109435,0.10943 1.117433,0.27595 2.239996,0.37003 l 2.041024,0.17106 -2.034906,0.0399 c -1.298106,0.0255 -2.11241,0.15968 -2.248958,0.37066 -0.117729,0.1819 -0.280382,1.34276 -0.361451,2.57968 l -0.147398,2.24896 z m 43.406771,2.11667 c 0.3638,-0.11651 0.89959,-0.21184 1.19063,-0.21184 0.41901,0 0.39147,0.0441 -0.13229,0.21184 -0.36381,0.11651 -0.89959,0.21183 -1.19063,0.21183 -0.41901,0 -0.39147,-0.0441 0.13229,-0.21183 z m -32.310524,-0.3977 c -0.740462,-0.40239 -1.55614,-1.84165 -1.55614,-2.74579 0,-0.30248 0.187851,-1.01946 0.417447,-1.59327 0.461606,-1.15367 1.644114,-1.8993 2.929831,-1.8474 0.642609,0.0259 0.604195,0.0593 -0.260494,0.22652 -2.079262,0.402 -3.185569,2.78834 -2.187472,4.71845 0.584731,1.13074 1.230964,1.41444 3.010185,1.32146 l 1.514461,-0.0791 0.07652,-2.48124 c 0.06274,-2.0342 -0.0042,-2.57049 -0.371737,-2.97656 -0.246542,-0.27243 -0.320481,-0.49532 -0.164308,-0.49532 0.156173,0 0.472283,-0.0723 0.702466,-0.1606 0.367302,-0.14095 0.418514,0.22791 0.418514,3.0144 0,2.65111 -0.06906,3.2015 -0.418514,3.3356 -0.770862,0.2958 -3.410284,0.14357 -4.110762,-0.2371 z m 11.314146,0.19459 c -0.06904,-0.11171 -0.212056,-2.43343 -0.317813,-5.15938 -0.141655,-3.65128 -0.112715,-4.95626 0.109913,-4.95626 0.19789,0 0.302197,0.6422 0.302197,1.8606 0,1.68383 0.05615,1.88139 0.590968,2.07923 l 0.590965,0.21861 -0.590965,0.18757 c -0.555352,0.17626 -0.590968,0.33478 -0.590968,2.63036 0,1.54717 0.116409,2.5592 0.3175,2.76029 0.174625,0.17463 0.957691,0.3175 1.740143,0.3175 1.219618,0 1.533018,-0.11037 2.196038,-0.7734 0.63193,-0.63192 0.7734,-0.99732 0.7734,-1.99751 0,-2.09319 -0.82465,-3.05612 -2.910414,-3.39846 -0.531599,-0.0872 -0.490062,-0.11564 0.211576,-0.1446 1.243048,-0.0513 2.413518,0.64345 2.851978,1.69284 0.76146,1.82244 0.24882,3.73369 -1.20281,4.48436 -0.80262,0.41505 -3.846133,0.56324 -4.071708,0.19825 z m 18.191798,-0.69648 c -0.76509,-0.76509 -0.89958,-1.0835 -0.89958,-2.1298 0,-2.15974 1.27654,-3.62645 3.09571,-3.55686 0.59378,0.0227 0.51928,0.078 -0.3755,0.27852 -1.37352,0.30786 -2.16878,1.24024 -2.18496,2.56169 -0.007,0.53235 -0.0171,1.18712 -0.0236,1.45505 -0.0194,0.80318 0.75872,1.73144 1.67253,1.99533 0.70373,0.20323 0.74642,0.25223 0.23675,0.27179 -0.37639,0.0144 -0.9768,-0.33116 -1.52135,-0.87572 z m 11.63655,0.39434 c -1.35398,-0.82562 -1.78549,-2.75327 -0.99108,-4.42736 0.5063,-1.06694 1.56821,-1.69432 2.79545,-1.65155 0.86552,0.0302 0.86405,0.0322 -0.17015,0.23122 -2.13139,0.41026 -3.17486,2.74841 -2.12907,4.77073 0.51747,1.00068 1.14386,1.31762 2.60406,1.31762 2.01041,0 2.02341,-0.0177 2.02341,-2.75351 0,-1.58435 -0.11453,-2.54685 -0.32852,-2.76084 -0.26164,-0.26163 -0.24817,-0.37931 0.0661,-0.57803 0.21707,-0.13723 0.48396,-0.25134 0.5931,-0.25357 0.10915,-0.002 0.19844,1.41197 0.19844,3.14265 0,3.58729 0.0801,3.46849 -2.33674,3.4669 -1.00691,-8e-4 -1.77092,-0.16637 -2.32504,-0.50426 z m 10.53553,-0.34142 c -0.2118,-0.2118 -0.30158,-1.20274 -0.26967,-2.97656 l 0.0478,-2.65907 0.15061,2.64584 c 0.0828,1.45521 0.24693,2.79466 0.36466,2.97656 0.27149,0.41947 0.11966,0.42632 -0.29343,0.0132 z m 4.32635,0.0529 c 0.13613,-0.21828 0.31761,-1.5875 0.40329,-3.04271 l 0.15578,-2.64584 0.0444,2.67959 c 0.037,2.23298 -0.0302,2.7401 -0.4033,3.04271 -0.38649,0.31351 -0.41384,0.3089 -0.20015,-0.0337 z m -22.15328,-3.72075 c -0.0884,-0.92645 -0.0556,-1.01082 0.2368,-0.61089 0.38744,0.52987 0.45773,1.6858 0.10251,1.6858 -0.13024,0 -0.28293,-0.48371 -0.33931,-1.07491 z"
         id="path97"
         inkscape:connector-curvature="0" />
    </g>
  </g>
</svg>
